<?xml version="1.0" encoding="utf-8"?>
<!-- Generator: Adobe Illustrator 21.1.0, SVG Export Plug-In . SVG Version: 6.00 Build 0)  -->
<svg version="1.1" id="Layer_1" xmlns="http://www.w3.org/2000/svg" xmlns:xlink="http://www.w3.org/1999/xlink" x="0px" y="0px"
	 viewBox="0 0 612 792" style="enable-background:new 0 0 612 792;" xml:space="preserve">
<style type="text/css">
	.st0{fill:#9CFC2A;}
	.st1{fill:#E9F4D7;}
</style>
<g>
	<path d="M546,273.2l12.6-12.4l12.3,12.4l-12.3,12.5L546,273.2z M379.9,283.2c-4,0-7.7-0.6-10.8-1.6c-3.2-1.1-5.8-2.6-7.8-4.4
		c-4-3.6-6.1-8.3-6.1-13.9c0-6.1,3.5-11.7,10.3-16.6c7.6-5.6,18.4-8.7,32.2-9.2v-7.9c0-4.2-1.4-9.7-13.5-9.7
		c-5.2,0-8.5,1.5-10.3,4.7c-0.5,0.8-0.7,1.9-0.7,3c0,0.8,0.3,2.2,1.8,4.4l1,1.6l-5.9,3.6l-0.7-0.1c-4.8-0.8-8.4-2.9-10.6-6.2
		c-0.9-1.3-1.4-2.9-1.4-4.9c0-2,0.8-4,2.3-6c1.4-1.9,3.4-3.6,6-5c5.3-2.9,12.1-4.4,20.1-4.4c13.3,0,21.8,4,25.1,12
		c1,2.5,1.6,5.3,1.6,8.2v34.6c0,5.4,0.7,6.4,0.7,6.5c0.5,0.6,1.2,1,2,1.1c1.1,0.2,2.6,0.5,4.4,0.6l1.6,0.2v8.1h-15.5
		c-2.7,0-5.7,0.1-9.2,0.4C389.4,282.9,383.8,283.2,379.9,283.2z M397.7,246.9c-17.6,1.4-26.2,6.8-26.2,16.4c0,5.1,2.4,8.1,7.6,9.6
		c1.7,0.5,3.8,0.8,6.4,0.8c2.7,0,4.9-0.1,6.7-0.4c1.6-0.3,2.9-0.7,3.7-1.3c0.7-0.6,1.2-1.3,1.4-2.3c0.3-1.3,0.4-3,0.4-5.1V246.9z
		 M60.6,283.2c-4,0-7.7-0.6-10.8-1.6c-3.2-1.1-5.8-2.6-7.8-4.4c-4-3.6-6.1-8.3-6.1-13.9c0-6.1,3.5-11.7,10.3-16.6
		c7.6-5.6,18.4-8.7,32.2-9.2v-7.9c0-4.2-1.4-9.7-13.5-9.7c-5.2,0-8.5,1.5-10.3,4.7c-0.5,0.8-0.7,1.9-0.7,3c0,0.8,0.3,2.2,1.8,4.4
		l1,1.6l-5.9,3.6l-0.7-0.1c-4.8-0.8-8.4-2.9-10.6-6.2c-0.9-1.3-1.4-2.9-1.4-4.9c0-2,0.8-4,2.3-6c1.4-1.9,3.4-3.6,6-5
		c5.3-2.9,12.1-4.4,20.1-4.4c13.3,0,21.8,4,25.1,12c1,2.5,1.6,5.3,1.6,8.2v34.6c0,5.4,0.7,6.4,0.7,6.5c0.5,0.6,1.2,1,2,1.1
		c1.1,0.2,2.6,0.5,4.4,0.6l1.6,0.2v8.1H86.4c-2.7,0-5.7,0.1-9.2,0.4C70.1,282.9,64.5,283.2,60.6,283.2z M78.3,246.9
		c-17.6,1.4-26.2,6.8-26.2,16.4c0,5.1,2.4,8.1,7.6,9.6c1.7,0.5,3.8,0.8,6.4,0.8c2.7,0,4.9-0.1,6.7-0.4c1.6-0.3,2.9-0.7,3.7-1.3
		c0.7-0.6,1.2-1.3,1.4-2.3c0.3-1.3,0.4-3,0.4-5.1V246.9z M495.1,283.1c-6.9,0-13.1-1.4-18.3-4.3c-6.1-3.2-9-7.5-8.9-12.7
		c0.1-3.1,1.4-5.9,4-8.4c2.2-2.1,4.9-3.5,8-4.2l1.1-0.2l4.1,4.8l-0.9,1.2c-1.1,1.4-1.7,3.3-1.7,5.8c0,2,1.1,3.7,3.2,5.3
		c2.6,2,6,3,10.2,3c4.1,0,7.4-0.9,9.7-2.7c2.2-1.7,3.3-4,3.3-6.9c0-3.3-3.1-6.3-9.1-9.1c-2-0.9-3.7-1.6-4.9-2.2
		c-1.3-0.5-2.1-0.9-2.5-1c-0.3-0.1-1.2-0.6-2.7-1.2c-1.5-0.7-3.5-1.8-5.9-3.1c-2.5-1.4-4.7-3-6.6-4.7c-4.2-3.8-6.4-8.1-6.4-12.9
		c0-5.9,2.6-10.7,7.8-14.3c4.8-3.2,11.1-4.8,18.9-4.8c6,0,11.1,1.2,15.1,3.7c4.3,2.6,6.5,6,6.5,10c0,2.7-1.2,5.1-3.6,7.2
		c-2,1.7-4.2,2.8-6.5,3.3l-0.8,0.2l-5.2-3.7l0.9-1.4c1.2-1.9,1.8-3.5,1.8-4.9c0-0.4,0-1.6-2.3-3.1c-1.8-1.1-3.9-1.7-6.4-1.7
		c-2.7,0-4.7,0.2-6,0.7c-1.3,0.4-2.4,1-3.3,1.8c-1.7,1.5-2.5,3.4-2.5,5.9c0,2.9,2.7,5.7,8.2,8.5c1.7,0.9,3.2,1.6,4.4,2.2
		c9.5,4.3,15.4,7.4,18.1,9.5c2.7,2.1,4.6,4.2,5.8,6.2c1.3,2.1,1.9,4.7,1.9,7.8c0,3.1-0.9,6-2.5,8.6c-1.6,2.6-3.8,4.8-6.5,6.6
		C509.1,281.3,502.6,283.1,495.1,283.1z M425.8,281.8v-7.9l3.5-0.5c1.5-0.2,2.8-0.4,3.7-0.7c0.6-0.2,1.1-0.4,1.4-0.7
		c0.2-0.3,1-1.6,1-6.6v-66.3c0-5.2-0.7-6.1-0.8-6.2c-0.6-0.6-1.4-1-2.3-1.1c-1.2-0.2-2.8-0.4-4.8-0.6l-1.6-0.1v-8.1H450v82.6
		c0,4.3,0.8,5.8,1.3,6.3c0.2,0.2,1.3,1,5.6,1.6l4.2,0.6v7.9H425.8z M313.9,281.8v-8l1.6-0.2c2-0.3,3.7-0.5,4.9-0.7
		c0.9-0.2,1.5-0.5,1.9-0.9c0.2-0.2,1.1-1.4,1.1-7.6l0.1-8.3c0.1-10.2-0.8-17.9-2.6-22.8c-1.8-4.9-5.4-9.9-10.7-14.9
		c-3.7,3.3-6.5,6.7-8.2,10.1c-1.9,3.8-3.2,7.9-3.7,12.2c-0.8,6.4-1.1,12.7-1.1,18.8c0,8,0.2,10.1,0.3,10.7c0.1,0.7,0.4,1.3,0.7,1.6
		c0.2,0.2,1.1,0.9,5.5,1.5l3,0.5v7.9h-33.8v-8l1.6-0.2c2-0.3,3.7-0.5,4.9-0.7c0.9-0.2,1.5-0.4,1.9-0.8c0.1-0.1,1.1-1.2,1.1-7.3v-6.7
		c0-11.6-0.6-19.5-1.7-23.6c-1.1-4-2.6-7.3-4.2-9.7c-1.5-2.2-3.4-4.3-5.8-6.5c-4.2,2.9-7.5,6-9.7,9.5c-3.1,4.8-4.7,10.7-4.7,17.4
		v18.7c0,6.3,0.6,7.5,0.7,7.6c0.5,0.6,1,1,1.7,1.2c1,0.3,2.4,0.5,4.2,0.8l3,0.3v8H232v-7.9l3.1-0.4c4.3-0.6,5.1-1.2,5.2-1.3
		c0.4-0.5,0.7-1.1,0.8-1.9c0.2-1.1,0.3-2.6,0.3-4.6v-39.3c0-4-0.6-4.8-0.7-4.8c-0.6-0.5-1.3-0.9-2.2-1.1c-1.2-0.2-2.8-0.4-4.8-0.6
		l-1.7-0.1v-8.2h24.2v6.6c0.7-1,1.5-1.8,2.2-2.6c3.5-3.5,7.5-6.5,12-8.8l0.9-0.4l0.8,0.5c4.8,2.7,8.4,5.3,10.8,7.7
		c3,3.1,5.5,6.5,7.3,9.9c3-4.9,7.1-9.3,12.3-13.1c2-1.5,4.2-3.1,6.7-4.6l0.9-0.6l0.9,0.5c7.1,3.9,12.6,8.1,16.3,12.4
		c5.9,6.7,9.4,16.6,10.5,29.4c0.4,4.4,0.6,8.7,0.6,12.8c0,4,0.1,6.7,0.3,8.1c0.2,1.5,0.5,2.2,0.8,2.6c0.3,0.4,0.7,0.7,1.2,0.8
		c0.8,0.2,2,0.5,3.4,0.7l3.6,0.5v8H313.9z M191,281.8v-7.9l3.5-0.5c1.5-0.2,2.8-0.4,3.7-0.7c0.6-0.2,1.1-0.4,1.4-0.7
		c0.2-0.2,1-1.6,1-6.6V228c0-5.3-0.8-6.3-0.8-6.3c-0.6-0.6-1.4-1-2.2-1.1c-1.2-0.2-2.8-0.4-4.9-0.6l-1.6-0.1v-8.2h33.8v8.2l-1.6,0.2
		c-2,0.2-3.7,0.4-4.9,0.6c-0.9,0.2-1.5,0.4-1.9,0.8c-0.1,0.1-1,1.1-1,6.6v37.4c0,5.2,0.5,6.2,0.6,6.3c0.4,0.4,0.9,0.8,1.5,0.9
		c0.9,0.2,2.2,0.5,3.7,0.7l3.7,0.6v7.9H191z M152.6,281.8v-8l1.6-0.2c2-0.3,3.7-0.5,4.9-0.7c0.9-0.2,1.5-0.5,1.9-0.9
		c0.1-0.1,1.1-1.3,1.1-7.6v-6.4c0-8.3-0.2-14.1-0.6-17.3c-0.4-3.1-0.9-5.8-1.5-7.8c-0.6-2-1.3-3.9-2.3-5.6c-1.7-3-4.4-6.1-8-9.1
		c-10.4,6.8-15.5,15.6-15.5,26.9v18.7c0,6.3,0.6,7.5,0.7,7.6c0.5,0.6,1,1,1.7,1.2c1,0.3,2.4,0.5,4.2,0.8l3,0.3v8h-33.8v-7.4l1-0.5
		c0.4-0.2,1-0.3,1.6-0.4c0.2,0,0.6,0,1.8-0.2c0.9-0.1,1.8-0.3,2.7-0.5c0.6-0.2,1.1-0.4,1.4-0.8c0.1-0.1,0.9-1.2,0.9-6.3v-39.3
		c0-4-0.6-4.8-0.7-4.8c-0.6-0.5-1.3-0.9-2.3-1.1c-1.2-0.2-2.8-0.4-4.8-0.6l-1.7-0.1v-8.2h24.2v7.1c3.7-4.7,8.8-8.7,15.4-12l0.8-0.4
		l0.8,0.4c6.5,3.5,11.6,7.4,15.2,11.6c5.6,6.8,9.1,16.9,10.2,30c0.4,4.5,0.6,8.8,0.6,13c0,4,0.1,6.8,0.2,8.2
		c0.1,1.5,0.4,2.2,0.7,2.6c0.2,0.4,0.6,0.6,1,0.7c0.9,0.2,1.7,0.4,2.6,0.5c1.1,0.2,1.6,0.2,1.8,0.2c0.5,0,0.9,0.1,1.4,0.2l1.5,0.3
		v7.9H152.6z M554.3,258.2l-2.6-24.9h5.3c9.2-1.4,13.7-8.3,13.7-20.9c0-5.2-1.2-9.5-3.7-12.7c-2.5-3.3-5.7-4.9-9.8-4.9
		c-4.9,0-8.6,1.1-11.2,3.1c-2.8,2.3-5.3,6.9-7.5,13.5l-0.4,1.2h-9.8l7.5-31.2h9.5l0.1,1.7c0,0.9,0.3,1.6,0.8,2
		c0.6,0.6,1.1,0.7,1.4,0.7l10.8-0.6c8.2,0,15,2.2,20.3,6.5c5.8,4.7,8.7,11.3,8.7,19.7c0,7.6-2.3,14.2-6.7,19.9
		c-4.3,5.4-9.9,9-16.6,10.7l-1.3,16.3H554.3z M194.9,191.4l12.6-12.4l12.3,12.4l-12.3,12.5L194.9,191.4z"/>
	<path class="st0" d="M92.5,273c-0.8-0.9-1.2-3.4-1.2-7.7v-34.6c0-2.8-0.5-5.3-1.4-7.6c-3.1-7.3-10.9-10.9-23.4-10.9
		c-7.7,0-14.1,1.4-19.2,4.2c-2.3,1.3-4.1,2.8-5.4,4.5c-1.3,1.7-1.9,3.4-1.9,4.9c0,1.6,0.3,2.9,1,3.9c1.9,2.9,5.1,4.7,9.4,5.5
		l3.7-2.3c-1.4-2.1-2.1-3.9-2.1-5.4s0.3-2.8,0.9-3.9c2.1-3.7,6.1-5.6,11.9-5.6c10.2,0,15.3,3.8,15.3,11.5v9.6
		c-14.3,0.3-25.3,3.3-32.9,8.9c-6.4,4.6-9.5,9.7-9.5,15.2c0,5.1,1.8,9.2,5.5,12.5c1.9,1.7,4.3,3.1,7.2,4.1c2.9,1,6.3,1.5,10.2,1.5
		s9.4-0.3,16.5-1c3.5-0.3,6.6-0.4,9.3-0.4h13.7v-4.6c-1.9-0.2-3.5-0.4-4.7-0.7C94.3,274.5,93.3,273.9,92.5,273z M80.1,244.9v19.5
		c0,2.2-0.2,4.1-0.5,5.5c-0.3,1.4-1,2.5-2.1,3.3c-1,0.8-2.5,1.4-4.5,1.7c-1.9,0.3-4.3,0.5-7,0.5s-5.1-0.3-6.9-0.8
		c-5.9-1.7-8.9-5.5-8.9-11.3C50.3,252.2,60.2,246.1,80.1,244.9L80.1,244.9h0.1H80.1z M181.4,275c-0.9-0.1-1.8-0.3-2.8-0.6
		c-0.9-0.2-1.6-0.7-2.1-1.5c-0.5-0.8-0.8-1.9-0.9-3.3c-0.1-1.5-0.2-4.3-0.2-8.4c0-4.1-0.2-8.4-0.6-12.8c-1.1-12.8-4.4-22.5-9.8-29
		c-3.4-4-8.3-7.8-14.7-11.1c-8.6,4.4-14.6,9.9-18,16.5v-11.5h-20.6v4.7c2.1,0.1,3.8,0.3,5,0.6c1.2,0.2,2.3,0.7,3.1,1.5
		c0.8,0.8,1.3,2.8,1.3,6.1v39.3c0,4-0.5,6.5-1.4,7.5c-0.6,0.6-1.3,1.1-2.3,1.3c-1,0.3-2,0.5-2.9,0.6c-0.9,0.1-1.6,0.2-1.9,0.2
		c-0.3,0-0.6,0.1-0.9,0.2v4.5h30.2v-4.6l-1.4-0.2c-1.8-0.3-3.3-0.5-4.4-0.8c-1.1-0.3-2-0.9-2.7-1.8c-0.7-1-1.1-3.9-1.1-8.7v-18.7
		c0-12.2,5.8-21.9,17.4-29.1c4.3,3.4,7.5,6.9,9.5,10.4c1,1.9,1.8,3.9,2.5,6c0.6,2.1,1.1,4.8,1.5,8.1c0.4,3.3,0.6,9.1,0.6,17.5v6.4
		c0,4.9-0.5,7.8-1.6,8.9c-0.7,0.7-1.6,1.1-2.9,1.4c-1.3,0.2-2.9,0.5-5,0.7v4.6h30.2v-4.6c-0.4-0.1-0.8-0.1-1.2-0.1
		C182.9,275.3,182.3,275.2,181.4,275z M217.3,191.4l-9.8-9.9l-10,9.9l10,10L217.3,191.4z M192.8,218.1c2.1,0.2,3.8,0.4,5,0.6
		c1.2,0.2,2.3,0.8,3.2,1.6c0.9,0.9,1.3,3.4,1.3,7.6v37.4c0,4.1-0.5,6.7-1.4,7.8c-0.6,0.6-1.3,1.1-2.3,1.3c-1,0.2-2.3,0.5-3.9,0.7
		l-1.9,0.3v4.6H223v-4.6l-2.2-0.3c-1.6-0.3-2.9-0.5-3.9-0.8c-1-0.3-1.8-0.8-2.5-1.5s-1-3.3-1-7.4V228c0-4.3,0.5-6.9,1.6-7.9
		c0.7-0.6,1.6-1,2.9-1.3c1.2-0.2,2.9-0.4,5-0.7v-4.7h-30.2V218.1z M340.2,274.4c-0.9-0.3-1.6-0.8-2.2-1.5s-0.9-1.9-1.1-3.4
		c-0.2-1.5-0.3-4.2-0.3-8.3c0-4.1-0.2-8.3-0.6-12.7c-1.1-12.5-4.4-22-10-28.4c-3.6-4.1-8.9-8.1-15.8-12c-2.4,1.5-4.6,3-6.6,4.5
		c-6.1,4.5-10.6,9.7-13.5,15.6c-1.8-4.4-4.7-8.6-8.5-12.6c-2.3-2.3-5.8-4.8-10.4-7.4c-4.4,2.2-8.2,5.1-11.6,8.5
		c-1.9,1.9-3.7,4.6-5.3,8.1v-11.5h-20.6v4.7c2.1,0.1,3.8,0.3,5,0.6c1.2,0.2,2.3,0.7,3.1,1.5c0.8,0.8,1.3,2.8,1.3,6.1v39.3
		c0,2.1-0.1,3.7-0.3,4.9c-0.2,1.2-0.6,2.1-1.3,2.8c-0.7,0.7-2.8,1.3-6.2,1.8l-1.5,0.2v4.6h30.1v-4.6l-1.4-0.2
		c-1.8-0.3-3.3-0.5-4.4-0.8c-1.1-0.3-2-0.9-2.7-1.8c-0.7-1-1.1-3.9-1.1-8.7v-18.7c0-7.1,1.7-13.2,5-18.4c2.6-4,6.4-7.6,11.4-10.8
		c3,2.5,5.4,5.1,7.1,7.7c1.8,2.6,3.3,6,4.5,10.2c1.2,4.2,1.8,12.2,1.8,24.1v6.7c0,4.7-0.5,7.6-1.6,8.6c-0.7,0.7-1.6,1.1-2.9,1.3
		c-1.2,0.2-2.9,0.5-5,0.7v4.6h30.2v-4.6l-1.5-0.2c-3.5-0.5-5.6-1.2-6.5-2c-0.6-0.6-1-1.4-1.2-2.6c-0.2-1.1-0.3-4.8-0.3-11
		c0-6.2,0.4-12.6,1.2-19.1c0.6-4.6,1.9-8.9,3.9-12.8c2.1-4,5.3-7.8,9.9-11.6c6.3,5.6,10.4,11.1,12.4,16.7c1.9,5.1,2.8,13,2.7,23.4
		l-0.1,8.3c0,4.8-0.6,7.8-1.7,8.9c-0.7,0.7-1.6,1.1-2.9,1.4c-1.2,0.2-2.9,0.5-5,0.7v4.6h30.2v-4.6l-2.1-0.3
		C342.3,274.9,341.1,274.7,340.2,274.4z M411.8,273c-0.8-0.9-1.2-3.4-1.2-7.7v-34.6c0-2.8-0.5-5.3-1.4-7.6
		c-3.1-7.3-10.9-10.9-23.4-10.9c-7.7,0-14.1,1.4-19.2,4.2c-2.3,1.3-4.1,2.8-5.4,4.5c-1.3,1.7-1.9,3.4-1.9,4.9c0,1.6,0.3,2.9,1,3.9
		c1.9,2.9,5.1,4.7,9.4,5.5l3.7-2.3c-1.4-2.1-2.1-3.9-2.1-5.4s0.3-2.8,0.9-3.9c2.1-3.7,6.1-5.6,11.9-5.6c10.2,0,15.3,3.8,15.3,11.5
		v9.6c-14.3,0.3-25.3,3.3-32.9,8.9c-6.4,4.6-9.5,9.7-9.5,15.2c0,5.1,1.8,9.2,5.5,12.5c1.9,1.7,4.3,3.1,7.2,4.1
		c2.9,1,6.3,1.5,10.2,1.5c3.9,0,9.4-0.3,16.5-1c3.5-0.3,6.6-0.4,9.3-0.4h13.7v-4.6c-1.9-0.2-3.5-0.4-4.7-0.7
		C413.6,274.5,412.6,273.9,411.8,273z M399.5,244.9v19.5c0,2.2-0.2,4.1-0.5,5.5c-0.3,1.4-1,2.5-2.1,3.3c-1,0.8-2.5,1.4-4.5,1.7
		c-1.9,0.3-4.3,0.5-7,0.5s-5.1-0.3-6.9-0.8c-5.9-1.7-8.9-5.5-8.9-11.3C369.6,252.2,379.6,246.1,399.5,244.9L399.5,244.9h0.1H399.5z
		 M450.1,272.9c-1.2-1.2-1.9-3.7-1.9-7.6v-80.8h-20.7v4.7c2.1,0.2,3.8,0.4,5,0.6c1.2,0.2,2.3,0.8,3.2,1.6c0.9,0.8,1.3,3.3,1.3,7.5
		v66.3c0,4-0.5,6.6-1.4,7.8c-0.6,0.6-1.3,1.1-2.3,1.3c-1,0.2-2.3,0.5-3.9,0.7l-1.9,0.3v4.6h31.8v-4.6l-2.6-0.4
		C453.2,274.6,451,273.9,450.1,272.9z M514.6,249.9c-2.5-2-8.4-5.1-17.7-9.3c-1.2-0.6-2.7-1.3-4.5-2.2c-6.1-3.1-9.2-6.5-9.2-10.1
		c0-3,1-5.4,3.1-7.2c1.1-0.9,2.4-1.6,3.9-2.2c1.5-0.5,3.7-0.8,6.6-0.8s5.3,0.7,7.4,2c2.1,1.3,3.1,2.9,3.1,4.6c0,1.7-0.7,3.7-2.1,5.9
		l3.1,2.3c2-0.4,3.9-1.4,5.7-2.9c2-1.8,3-3.7,3-5.8c0-3.4-1.9-6.2-5.6-8.5c-3.7-2.3-8.5-3.4-14.2-3.4c-7.4,0-13.4,1.5-17.9,4.5
		c-4.7,3.2-7.1,7.5-7.1,12.8c0,4.3,1.9,8.2,5.8,11.6c1.8,1.6,3.9,3.1,6.3,4.5c2.4,1.4,4.3,2.4,5.8,3.1c1.5,0.7,2.4,1.1,2.7,1.2
		c0.3,0.1,1.1,0.5,2.4,1c1.3,0.5,2.9,1.3,5,2.2c6.8,3.1,10.1,6.7,10.1,10.7c0,3.5-1.3,6.2-3.9,8.3c-2.6,2.1-6.2,3.1-10.8,3.1
		c-4.6,0-8.3-1.1-11.3-3.4c-2.6-2-4-4.2-4-6.8c0-2.9,0.7-5.2,2.1-6.9l-2.4-2.8c-2.8,0.6-5.1,1.9-7.1,3.7c-2.2,2.1-3.3,4.5-3.4,7.1
		c-0.1,4.5,2.5,8.2,7.9,11.1c5,2.7,10.8,4.1,17.4,4.1c7.1,0,13.2-1.7,18.3-5.1c2.5-1.7,4.5-3.7,6-6.1c1.5-2.4,2.3-4.9,2.3-7.7
		c0-2.7-0.6-5-1.7-6.8C518.9,253.8,517.1,251.9,514.6,249.9z M548.5,273.2l10,10l9.8-10l-9.8-9.9L548.5,273.2z M577.7,193
		c-5-4-11.4-6.1-19.2-6.1l-10.8,0.6c-1,0-1.9-0.4-2.7-1.2c-0.8-0.8-1.3-1.9-1.4-3.2h-6.3l-6.7,27.6h6.2c2.4-7,5.1-11.8,8.1-14.3
		c2.9-2.4,7-3.5,12.3-3.5c4.7,0,8.4,1.9,11.2,5.6c2.7,3.6,4.1,8.2,4.1,13.8c0,13.6-5.1,21.2-15.3,22.7h-3.5l2.2,21.3h5.3l1.3-16
		c6.9-1.5,12.6-4.9,16.9-10.4c4.2-5.3,6.3-11.6,6.3-18.7C585.7,203.5,583,197.4,577.7,193z"/>
</g>
<g>
	<path class="st1" d="M309.6,178.9c0-0.3-0.2-0.5-0.6-0.5C309.1,178.8,309.3,178.9,309.6,178.9z"/>
	<polygon class="st1" points="309.6,179.1 310.1,179.5 310.2,179.5 309.8,179.1 309.6,178.9 	"/>
	<path class="st1" d="M411,174.4c-0.6-0.4-1.1-0.3-1.4,0.2c-1,1.7-2.7,3.6-5.1,5.6c-2.4,2-5.1,3.8-7.9,5.3c-2.8,1.5-5.3,2.3-7.4,2.5
		c-1,0.2-2,0.3-3,0.3c-1.3,0-2.3-0.2-3.2-0.7c-0.5-0.2-1-0.4-1.7-0.6c-0.7-0.2-1.2-0.3-1.6-0.4c-0.6-0.4-1-0.8-1.1-1.2
		c-0.1-0.4-0.2-0.7-0.3-0.8c0.1-0.1,0.8-0.7,2.1-1.8c0.4-0.3,1.7-1.4,3.9-3.2c2.2-1.8,3.6-3.2,4-4c1.1-1.5,1.9-2.9,2.3-4.3
		c0.2-0.6,0.3-1.2,0.3-1.7c0-1.3-0.6-2.5-1.7-3.6c-1.1-0.9-2.3-1.3-3.6-1.2l-4.5,0.6c-1.4,0.8-2.7,1.7-3.7,2.9
		c-1,1.2-2.1,2.6-3.2,4.3c-0.9,1.7-1.4,3-1.4,4.1l-0.6,0.9l-0.1,2.8c-1,1.7-2.1,3.2-3.5,4.4c-2.3,2.1-4.7,3.2-7.3,3.3
		c-0.9-0.4-1.4-0.6-1.5-0.6c-1.7-1.7-2.5-3.7-2.4-6c0-0.2,0-0.5-0.1-0.9c0-0.4,0-0.7,0.1-0.9c0-0.4,0-1-0.1-1.9c0-0.9,0-1.6,0.2-2.2
		c0.1-0.6,0.3-1.5,0.5-2.7c0.3-1.7,0.6-2.9,0.9-3.7c0.1-0.1,0-0.5-0.1-0.9l-1.2-0.8l-1.2,0.3l-0.5-0.7c-1.4,0.4-2.4,0.9-2.8,1.7
		c-0.9,1.5-1.5,2.6-1.9,3.4c-0.4,0.7-0.9,1.6-1.5,2.8c-0.6,1.2-1.2,2.2-1.9,2.9c-0.2,0.5-0.4,1-0.8,1.8c-0.4,0.7-0.7,1.3-0.8,1.6
		l-0.2,1.1l-0.5,0.2c-0.2,0.2-0.4,0.7-0.8,1.4c-0.4,0.7-0.6,1.4-0.8,2.1c-0.3,0.8-0.7,1.5-1.3,2.3c-0.6,0.8-1,1.3-1.2,1.6l-0.1-2.8
		c0-0.8,0.1-2,0.2-3.5l0.7-9.9c0-0.5,0-1.2,0-2c0-0.8,0.1-1.5,0.2-2.1c0.1-0.8,0.2-2.1,0.2-3.8c-0.4-0.8-0.9-1.2-1.7-1.5
		c-0.6,0.2-1.1,0.3-1.4,0.5c-0.5-0.3-0.8-0.5-1.1-0.5c-0.2,0-0.4,0-0.5,0.1c-0.3,0.2-0.6,1.1-0.8,2.7c-0.2,1.6-0.4,3.1-0.5,4.6v1.4
		c-0.2,0.8-0.2,1.3-0.2,1.7c0,0.2,0,0.4,0,0.7c-2.4,1.7-4.2,2.9-5.5,3.6c-1.4,0.8-2.9,1.1-4.5,1.1c-1.3,0-2.6-0.1-3.8-0.5
		c-0.1,0,0.2-0.8,0.8-2.3c0.6-1.5,0.9-2.4,0.7-2.4c0-0.4,0.1-0.9,0.2-1.5l0.2-1.7c0.1-0.7,0.1-1.5-0.1-2.4c-0.2-0.9-0.5-1.7-0.8-2.3
		c-1-2-2.4-3.4-4.4-4.4c-0.9-0.2-1.8-0.3-2.6-0.3c-0.5,0-1.3,0.1-2.4,0.2c-0.4,0.1-0.8,0.3-1.2,0.6c-0.4,0.3-0.7,0.5-1,0.7
		c-2,0.8-3.6,2.3-4.6,4.5c-0.9,2-1.5,3.9-1.7,5.8l0.3,0.9c-0.2,0.5-0.3,0.8-0.5,0.9c-0.3,0.1-0.6,0-0.9-0.2
		c-0.3-0.2-0.5-0.4-0.6-0.5c-0.2-0.1-0.4-0.1-0.7-0.1c-0.1,0.1-0.2,0.1-0.3,0.2c-0.1,0-0.3-0.1-0.4-0.1c-0.4,0-0.7,0.1-1.1,0.4
		c-0.1,0-0.3,0-0.4,0c-0.3,0.4-0.5,0.8-0.8,1.2c0,0.1-0.1,0.1-0.1,0.2c-0.5,0.5-1.5,1.7-3.2,3.6c-3.5,4.1-5.8,6.6-7,7.3l-5.6,3.8
		c-1.7,1.1-3.6,2-5.9,2.6c-1.2,0.2-2.1-0.6-2.5-2.2c-0.5-1.6-0.7-3.3-0.7-5.1c0-1.9,0.1-3.5,0.3-5c0.2-1.4,0.6-2.7,1.2-4
		c0.2-0.1,0.4-0.3,0.6-0.3c0.1-0.1,0.3-0.2,0.5-0.3c1-1,1.8-2,2.6-2.9c0.6-0.9,1.3-1.7,2-2.3c1.1-1.1,1.9-2,2.3-2.7
		c1.1-1,2.1-2.6,3-4.9c0.8-0.5,1.5-1.3,2.1-2.6c0.7-1.9,1.5-3.3,2.5-4.2c0.3-0.2,0.5-0.6,0.7-1c0-0.4,0.2-0.8,0.7-1.2
		c2-2.9,3.2-4.7,3.6-5.5l1.2-2.8c0.1-0.3,0.4-0.8,0.7-1.4c0.3-0.6,0.5-1.1,0.6-1.6c0.1-0.5,0.3-0.9,0.6-1.5c0.3-0.5,0.5-1,0.7-1.5
		c0.3-0.9,0.7-1.9,1.2-3.1c0.5-1.2,0.8-2,1.1-2.5c0.1-0.3,0.3-0.7,0.5-1.1c0.2-0.5,0.4-1,0.5-1.6c0.1-0.3,0.3-1.6,0.8-3.8l-0.6-3.6
		l-1.4-1.4c-0.3-0.2-0.6-0.4-0.9-0.6c-0.3-0.2-0.6-0.4-0.8-0.5h-1.1c-0.8-0.2-1.7-0.1-2.6,0.3c-0.9,0.3-1.5,0.5-1.7,0.6
		c-0.6,0.2-1.2,0.6-1.9,1.2c-0.7,0.7-1.2,1.1-1.6,1.4c-0.3,0.6-0.8,1.2-1.4,1.8c-0.6,0.6-1.1,1.1-1.4,1.4l-0.9,1.1
		c-0.3,0.5-0.7,1.1-1.2,1.9c-0.5,0.8-1,1.4-1.5,1.9c-0.2,0.2-0.3,0.4-0.4,0.7s-0.2,0.6-0.3,0.7c-1.2,2.3-1.9,3.7-2,4
		c-0.2,0.2-0.6,0.9-1.4,2.3c-0.4,0.9-0.8,1.7-1.4,2.3c-0.2,0.2-0.4,0.6-0.4,1c0,0.5-0.1,0.8-0.2,1c-0.4,0.2-0.6,0.6-0.8,1.1
		c-0.2,0.5-0.3,0.8-0.3,1.1c-0.3,0.9-0.6,1.6-0.8,2c-0.5,1.6-1.2,3.3-1.9,5.2c-0.1,0.2-0.1,0.3,0,0.5c0.1,0.2,0.1,0.3,0,0.5l-0.7,1
		c0.1,0.1,0.1,0.2,0.1,0.5c0,0.2-0.1,0.3-0.2,0.5c-0.1,0.2-0.2,0.4-0.3,0.5l-1.7,4.4l-1,2.9c-0.6,1.7-1,2.9-1.2,3.7
		c-0.1,0.3-0.2,0.7-0.3,1.1c-0.1,0.5-0.2,0.8-0.4,1.1c-0.1,0.3-0.2,0.7-0.2,1.2c-0.1,0.5-0.3,0.8-0.6,1.1c0.1,0.2,0.1,0.4,0.1,0.7
		c0,0.4-0.1,0.8-0.3,1.2s-0.3,0.8-0.4,1c-0.1,0.1-0.1,0.2,0,0.3c0.1,0.2,0.1,0.3,0.1,0.3c-0.2,1.7-0.3,3.2-0.3,4.7
		c0,2.9,0.6,6.5,1.7,10.7l2.7,2.6c0.9,0.9,1.9,1.4,3,1.4c0.4,0,0.7,0,1,0.1c0.3,0.1,0.5,0.2,0.7,0.2c0.5-0.3,1-0.4,1.6-0.4
		c0.6,0,1.1,0,1.4-0.1l2.7-1c0.5-0.1,1.1-0.4,1.8-0.7c0.8-0.3,1.4-0.6,1.9-1l4.4-3l2-1.4c1.1-0.9,2.7-2.5,4.7-4.8
		c0,0.5,0,1.1,0.1,1.6c0.2,0.8,0.5,1.5,0.7,2.1c0.2,0.6,0.6,1,1.1,1.4c0.4,0.3,1.2,0.9,2.4,1.7l4,0.1c1.7-0.2,2.9-0.4,3.6-0.6
		c0.1-0.1,0.7-0.4,1.6-0.9c0.3-0.2,0.8-0.5,1.4-0.8c0.6-0.3,1.3-0.7,1.9-1.1c0.6-0.4,1.1-1,1.5-1.6c0.2-0.1,0.6-0.9,1.5-2.1
		c0.8-1.1,1.2-1.8,1.4-1.9c2.2,0.6,4.1,0.9,5.9,0.9c3.6,0,6.9-1,9.9-2.9c0,0.1,0,0.2-0.1,0.2c-0.1,0.2-0.1,0.3,0,0.6
		c0.1,0.2,0.1,0.4,0.1,0.6c0,0.2,0,0.4-0.1,0.5c-0.1,0.2-0.1,0.5-0.1,0.8c0,0.3,0.1,0.5,0.1,0.7l0.1,1.7v0.5
		c-0.1,0.9-0.2,1.5-0.2,1.9c0,1.4,0.4,3.2,1.1,5.6c0.9,1.2,1.8,1.9,2.8,2c0.3-0.2,0.7-0.3,1.1-0.2c0.4,0.1,0.8,0.2,1.1,0.2
		c0.2-0.1,0.6-0.3,1.2-0.5c0.6-0.1,1-0.5,1.2-0.9c0.3-0.8,0.6-1.3,0.8-1.7c0.1-0.3,0.4-0.7,0.6-1.1c0.3-0.5,0.5-0.9,0.7-1.5
		c0.3-1,0.6-1.6,1-1.9l1.4-2.4c1.1-1.7,1.7-2.9,1.9-3.6c0.1-0.2,0.3-0.6,0.7-1.2c0.3-0.4,0.6-0.4,0.9-0.1c0.2,2.3,0.8,4,1.7,5.3
		c1.8,1.9,3.8,3.1,6,3.6c0.3-0.1,0.7-0.1,1.1-0.1h0.5l1,0.1c1.3,0,2.5-0.3,3.7-0.9c2.5-1.4,4.5-3,6-4.6c0.2-0.2,0.3-0.4,0.5-0.6
		c0.6,1.4,1.1,2.3,1.6,2.8c1.8,2.2,4.1,3.4,7,3.6c2.3,0.3,4,0.5,5.1,0.5c1.7,0,3.1-0.2,4.4-0.5c0.2-0.1,0.7-0.2,1.5-0.3
		c0.8-0.1,1.4-0.3,2-0.6c1.4-0.2,3.4-1.2,6-2.8c2.6-1.7,4.9-3.4,7.1-5.4c2.2-1.9,3.5-3.4,3.8-4.3c0.2-0.6,0.3-1.1,0.3-1.5
		C411.9,175.4,411.6,174.8,411,174.4z M388.4,166.5l0.1,0.5l-0.2,0.1C388.1,166.9,388.1,166.7,388.4,166.5z M295.1,145.2v-0.1h0.1
		L295.1,145.2z M282.9,158.5c0.2-0.9,0.6-1.9,1.1-3c0.5-1.1,0.9-2,1.2-2.7c0.1-0.4,0.3-0.8,0.5-1.2c0.1-0.5,0.3-0.9,0.5-1.2
		c0.4-1.2,0.8-2.1,1.2-2.7c0.1-0.2,0.3-0.5,0.3-0.9c0.1-0.4,0.1-0.6,0.2-0.8c0.2-0.2,0.4-0.8,0.8-1.8c0.2-0.7,0.8-1.9,1.8-3.7
		c0.4-0.6,1-1.6,1.9-3.1c0.9-1.5,1.8-2.7,2.7-3.8c0.5-0.6,1.1-1.4,1.7-2.3c0.6-0.9,1.1-1.6,1.4-2.1c0.1-0.1,0.3-0.3,0.5-0.3
		c0.1-0.1,0.3-0.2,0.6-0.3c0,0.4,0,0.8,0.1,1.1c0,0.4,0,0.8-0.1,1.2c-0.2,0.5-0.3,1-0.3,1.6c-0.1,0.6-0.2,1.2-0.2,1.6
		c0,0.2-0.1,0.3-0.2,0.4c-0.1,0.1-0.2,0.2-0.3,0.3l0.1,0.7l-0.1,0.6l-0.5,0.6c-0.8,2-2.1,5-4,8.9c-0.2,0.6-0.6,1.4-1.2,2.5
		c-0.4,0.8-0.6,1.2-0.7,1.2c-0.1,0.2-0.2,0.5-0.3,1.1c-0.1,0.6-0.4,1-0.8,1.2c-0.4,1.1-0.8,2-1.4,2.6l-1.6,2.1l-3.7,5.5l-1.5,1.8
		l-0.9,1.5c-0.2,0.5-0.4,0.6-0.8,0.3C282.2,161.3,282.9,159,282.9,158.5z M274.6,195.4l-0.2,0.1V195h0.2V195.4z M275.9,194.1
		l-0.1-0.1l0.1-0.1V194.1z M302.9,190.7c-0.2,0-0.2-0.1-0.2-0.2l0.1-0.2l0.1,0.2V190.7z M306.3,176.5c0,0,0,0-0.1,0l-0.1-0.2
		l0.2,0.1C306.3,176.4,306.3,176.5,306.3,176.5z M312.9,176.8l-0.2-0.1C312.8,176.5,312.9,176.6,312.9,176.8z M314.1,183.2
		c0,0-0.1,0.1-0.3,0.3l-0.3,1c-0.8,0.4-1.2,0.7-1.5,0.9l-1.2,1.4c-0.3,0.2-1.3,0.6-2.9,1.4l-0.6-0.6c-0.2-0.9-0.2-1.5-0.2-1.9v-0.5
		c0.1-0.2,0.1-0.5,0.1-0.9c0-0.4,0-0.7,0.1-0.9c0.1-0.4,0.2-0.8,0.3-1.3c0-0.5,0.1-0.9,0.1-1.2c0.1-0.3,0.2-0.7,0.4-1.2
		c0.2-0.5,0.3-0.9,0.4-1.2c0.2-0.1,0.5-0.1,0.8-0.1l-0.6-1.5c0.5,0.8,0.9,1.4,1.4,2l0.3,0.3v0.1v0.1c0,0.1,0.1,0.1,0.2,0.1
		c0.8,1.1,2.1,2,4,2.7l0.2,0.6C314.3,183.2,314.1,183.2,314.1,183.2z M318.2,176.9h-0.1l0.1-0.1V176.9z M318.4,170.4
		c-0.1,0.3-0.1,0.7-0.1,1.3c0,0.6,0,1.1-0.1,1.5c-0.2,0.6-0.5,1.2-0.7,1.9c-0.2,0.6-0.5,1.3-0.8,2c-0.4,0.3-0.8,0.3-1.2,0
		c-0.6-0.5-1.1-0.8-1.4-0.9c-0.2-0.2-0.3-0.5-0.5-0.8c-0.2-0.3-0.4-0.7-0.5-1.1l0.6-3.8c0-0.1,0.1-0.4,0.2-0.9
		c0.1-0.5,0.4-0.9,0.8-1.2c0.2-0.1,0.4-0.5,0.6-1.1c0.4-0.2,0.9-0.6,1.7-1.2c0.4,0.2,0.6,0.3,0.7,0.3c0.7,1.1,1,2,1,2.9
		C318.6,169.4,318.6,169.8,318.4,170.4z M320.7,165.4l0.2-0.1l0.3,0.2C321.1,165.7,320.9,165.6,320.7,165.4z M355.9,187h-0.1
		l0.1-0.1V187z M358.3,187.5l-0.2-0.3l0.3,0.2L358.3,187.5z M375.9,187.3c0.2-0.1,0.3-0.1,0.3,0.1
		C376.1,187.3,376,187.3,375.9,187.3z M376.9,188.3l-0.5-0.8h0.2C377.1,187.7,377.2,187.9,376.9,188.3z M380.3,174
		c1-1.7,2.3-3.6,3.8-5.5c0.3,0,0.5,0,0.7-0.1c0.4,0.5,0.1,1.8-0.7,3.7c-0.3,0.8-0.6,1.5-1,2.1c-0.3,0.6-0.6,1.2-0.8,1.8
		c-1,1.1-2.3,2.3-4.1,3.7C378.6,177.6,379.3,175.7,380.3,174z M378.4,187.3c0.1-0.1,0.2-0.1,0.2,0c0.1,0.1,0.1,0.1,0.1,0.1
		L378.4,187.3z"/>
</g>
</svg>
