<?xml version="1.0" encoding="utf-8"?>
<!-- Generator: Adobe Illustrator 21.1.0, SVG Export Plug-In . SVG Version: 6.00 Build 0)  -->
<svg version="1.1" id="Layer_1" xmlns="http://www.w3.org/2000/svg" xmlns:xlink="http://www.w3.org/1999/xlink" x="0px" y="0px"
	 viewBox="0 0 612 792" style="enable-background:new 0 0 612 792;" xml:space="preserve">
<style type="text/css">
	.st0{opacity:0.5;fill:#00508C;}
	.st1{fill:#FFFFFF;}
	.st2{fill:#DBD003;}
	.st3{fill:#00438C;}
</style>
<path class="st0" d="M171.8,314.2c-0.1-1.7-1-3.1-2.4-3.7c-1.6-0.7-1.6-1.7-1.2-2.9c0.3-1,1-1.8,1.4-2.8c0.4-0.8,1.1-1.7,1.1-2.5
	c0.3-7.3-1.4-14.1-6.6-19.6c-2.4-2.5-2.2-5.1-1.8-8.5c1.3,0.9,2.4,1.5,3.4,2.3c0.8,0.5,1.6,1.1,2.5,0.4c0.9-0.7,1.1-1.6,0.8-2.7
	c-0.9-2.9-2.9-4.6-5.7-5.4c-3.6-1-7.1-0.7-10.7,0.1c-0.7,0.2-1.4,0.4-1.7-0.6c-0.6-1.9-1.9-3.2-3.7-4c-0.4-0.2-0.8-0.7-0.8-1
	c0.3-2.5-1.5-2.8-3.2-3.3c-1.1-0.3-2.3-0.6-3.5-0.9c1.6-0.7,3.2-1,4.7-1.4c0.5-0.2,1.1-0.9,1.1-1.3c0-0.6-0.5-1.2-0.9-1.7
	c-0.3-0.3-0.8-0.3-1.3-0.4c-5.5-0.6-11-0.7-16.5-0.1c-1.6,0.2-3.2,0.3-4.8,0.4c0-0.2-0.1-0.4-0.1-0.6c2.3-0.9,4.6-1.7,6.9-2.6
	c0.6-0.3,1.4-1,1.5-1.6c0-0.6-0.7-1.5-1.3-1.8c-1.9-1-3.9-1-5.9-0.5c-2.1,0.6-4.1,1.4-6.2,2.1c-2.1,0.8-2.7,0.6-3.7-1.6
	c-0.8-1.7-1.4-3.4-2.3-5c-0.9-1.7-1.8-1.8-2.9-0.2c-1.3,1.8-2.4,3.7-3.5,5.6c-0.6,1-1.2,1.5-2.5,0.9c-1.3-0.5-2.6-0.9-3.9-1.3
	c-2.8-0.8-5.6-0.7-8.4,0c-1,0.3-1.9,0.8-1.9,2.1c0,1.3,1.1,1.4,2,1.6c1.9,0.5,3.7,0.9,5.5,1.6c0.8,0.3,1.4,1.1,2.1,1.7
	c-6.6-0.9-12.9-1.6-19.3-1.1c-1.3,0.1-2.8,0.4-4,1c-0.6,0.3-1.1,1.3-1.3,2.1c-0.2,1.1,0.8,1.1,1.6,1.2c0.9,0.2,1.8,0.2,2.7,0.4
	c0.8,0.1,1.6,0.2,2.4,0.3c0,0.1,0,0.3,0,0.4c-1.7,0.4-3.3,0.8-5,1.3c-1.1,0.3-2,0.8-2.2,2.2c-0.1,0.5-0.6,1-1,1.5
	c-1.1,1.3-2.3,2.4-3.3,3.8c-0.5,0.7-1,1-1.9,0.9c-1.6-0.2-3.2-0.3-4.9-0.5c-2.6-0.3-5.2,0-7.7,0.9c-2.5,0.9-3.9,3.4-3.4,6
	c0.1,0.6,0.8,1.4,1.4,1.6c0.4,0.2,1.2-0.3,1.8-0.7c0.8-0.6,1.5-1.3,2.2-2c0.1,0.1,0.3,0.2,0.4,0.3c0.3,2.7,0.9,5.3-1.5,7.8
	c-5,5.1-6.8,11.5-6.8,18.4c0,1.2,0.4,2.7,1.1,3.7c0.8,1.1,1.4,2.2,1.7,3.5c0.2,1.1,0.1,1.7-1,2.2c-1.4,0.5-2.3,1.6-2.5,3.1
	c-0.3,2.5-0.1,5,1.2,7.3c0.6,1.1,1.4,2.1,2.9,2.3c0.4,0.1,1,0.6,1,1c0.4,2.9,0.6,5.8,1,8.6c0.1,1-0.1,1.6-1.2,2
	c-2.3,0.9-3.2,3.1-2.7,5.8c0.4,2.1,3,5.1,5.1,4.8c0.9-0.2,1.9-0.1,2.9,0c0.4,0,0.7,0.4,1.1,0.7c-0.2,0.3-0.4,0.7-0.6,0.9
	c-1,1-2.1,1.9-3,3c-1.9,2.3-1.7,6.4,0.4,8.2c1.8,1.5,4,2.3,6.3,2.4c0.7,0,1.8-0.5,1.9-1c0.1-0.6-0.4-1.6-0.8-2.2
	c-0.6-0.8-1.6-1.4-2.2-2.3c-0.5-0.7-0.7-1.7,0.5-2.5c0.9,3.3,3.3,4,6.1,3.4c0,2.5-0.1,4.8,0,7.1c0,0.5,0.4,1.4,0.9,1.5
	c0.6,0.2,1.4-0.1,1.9-0.4c0.5-0.3,0.9-0.8,1.2-1.4c0.8-1.3,1.6-1.1,2.3,0c1.4,2,3,3.8,3.9,6c1.2,2.9,1.8,6,2.5,9
	c0.3,1,0.7,1.9,1.7,1.7c0.6-0.1,1.2-0.9,1.5-1.6c0.4-0.8,0.4-1.7,0.6-2.9c0.6,0.5,1.1,0.8,1.5,1.2c1.4,1.4,3,2.4,5.1,2.2
	c0.4,0,1.1,0.2,1.3,0.6c1.8,2.8,4.2,5.3,3.5,9.1c0,0.2,0,0.5,0,0.8c0.6,3.2,1.4,5.4,5.3,5.4c0.1,0,0.2,0.1,0.4,0.2
	c-0.1,1-0.4,2.2-0.1,3.2c0.2,0.9,0.9,1.9,1.7,2.5c0.3,0.2,1.6-0.4,2.1-0.9c1.3-1.2,2.4-2.5,3.6-3.8c0.9-1,1.8-1,2.7-0.1
	c1.3,1.3,2.5,2.7,3.8,4c0.5,0.5,1.6,1,1.9,0.8c0.8-0.5,1.4-1.4,1.7-2.3c0.3-0.8-0.1-1.7,0.1-2.6c0.1-0.4,0.6-1.1,1-1.1
	c2.4-0.2,3.7-1.6,4.2-3.8c0.3-1.7,0.3-3.4,0.6-5.1c0.2-1,0.5-1.9,1-2.8c0.5-1,1.1-2,1.9-2.8c0.5-0.6,1.3-1.2,2-1.2
	c1.9-0.1,3.5-0.7,4.7-2.2c0.3-0.3,0.7-0.6,1.3-1c0.2,1.1,0.2,2,0.6,2.7c0.3,0.6,1,1.2,1.7,1.4c0.2,0.1,1.1-0.8,1.2-1.3
	c0.5-1.8,0.8-3.6,1.2-5.3c0.9-4.5,3.8-7.8,6.6-11.4c0.8,1,1.4,1.8,2.2,2.4c0.6,0.4,1.4,0.9,2.1,0.7c0.4-0.1,0.8-1.1,1-1.7
	c0.2-0.6,0-1.3,0-2c0-1.6,0-3.1,0-4.9c3.2,0.9,5.1-0.7,6.3-3.6c0.2,0.1,0.4,0.3,0.6,0.4c-0.1,0.7,0.1,1.6-0.2,2.1
	c-0.7,1-1.7,1.7-2.4,2.7c-0.4,0.6-0.8,1.5-0.6,2.1c0.2,0.5,1.2,1,1.8,0.9c1.6-0.3,3.3-0.6,4.8-1.3c3.3-1.5,4.4-5,2.6-8.1
	c-0.9-1.6-2.5-2.8-3.7-4.1c-0.2-0.3-0.5-0.7-0.5-1c0.1-0.3,0.6-0.6,0.9-0.6c0.8-0.1,1.5,0,2.3,0c3.1,0,5.2-1.7,6-4.8
	c0.6-2.4-0.4-4.2-3-5.9c-0.5-0.3-1.1-1.1-1-1.6c0.2-2.9,0.6-5.8,1.1-8.6c0.1-0.5,0.7-1,1.2-1.5c0.8-0.7,1.9-1.1,2.4-2
	C171.4,318.9,171.9,316.6,171.8,314.2z M52.3,274.7c-0.1-1.9,1.7-4,4-4.1c3.6-0.1,7.2,0.2,10.8,0.4c2.6,0.2,5.3,0.6,7.9,0.7
	c0.7,0,1.5-0.5,2-1.1c0.9-1.2,0.2-2.5-1.3-2.5c-1.2,0-2.4,0.3-3.6,0.5c-0.6,0.1-1.1,0.3-1.8,0.5c0.4-2,3.5-4.4,5.9-4.4
	c2.5,0,5,0.3,7.7,0.5c-2.4-1.8-5.1-2-7.7-2.5c0-0.2,0-0.4,0-0.5c1.4-0.3,2.7-0.6,4.1-0.8c1.2-0.2,2.4-0.2,3.6-0.4
	c0.6-0.1,1.1-0.6,1.6-0.9c-0.4-0.5-0.7-1.4-1.3-1.5c-2-0.6-4-1-6.1-1.4c-0.7-0.2-1.5-0.3-2.3-0.4c0-0.2,0-0.4,0-0.5
	c0.7-0.1,1.4-0.3,2.1-0.4c6.1-0.3,12.1,0,18.1,1.1c0.8,0.2,1.6,0.3,2.4,0.2c0.6,0,1.4-0.1,1.6-0.5c0.2-0.4,0-1.2-0.3-1.7
	c-1.4-2.4-3.6-3.7-6.2-4.3c-1-0.2-2-0.4-3-1c0.4-0.1,0.8-0.3,1.3-0.4c3.1-0.6,6,0.2,8.8,1.4c3.9,1.6,3.9,1.7,6-2
	c0.8-1.4,1.7-2.9,2.7-4.7c0.5,0.8,0.8,1.3,1.1,1.8c0.9,1.8,1.8,3.5,2.7,5.3c0.6,1.1,1.4,1.4,2.6,0.9c2.6-1,5.2-1.9,7.9-2.8
	c2-0.6,3.4-0.4,4.5,0.5c-3.2,1.4-6.9,1.8-8.9,5.1c-0.3,0.5-0.2,1.2-0.3,2.2c8.1-1,16-2.3,24-0.9c-3.3,1.2-7,1.1-9.7,3.6
	c0,0.2,0,0.4,0,0.6c3.5,0.5,6.9,1,10.4,1.4c0,0.2,0,0.4,0,0.5c-3.2,0.8-6.3,1.6-9.5,2.4c0,0.2,0,0.3,0.1,0.5
	c5.1,0,10.5-1.3,14.8,2.6c0,0.2-0.1,0.4-0.1,0.7c-1.2-0.1-2.4-0.3-3.6-0.4c-1.1-0.1-2.1-0.2-3.2-0.2c-0.5,0-1.2,0.5-1.3,0.8
	c-0.1,0.5,0.3,1.4,0.6,1.5c1.5,0.5,3,1.2,4.5,1.2c2.4,0,4.8-0.3,7.1-0.7c3-0.5,6-1.1,9.1-0.4c2.3,0.6,4.1,1.8,4.9,4.4
	c-0.7-0.3-1.4-0.5-2.1-0.9c-2.1-1.3-4.2-1.3-6.5-0.7c-3.9,1-7.7,2.1-11.7,3c-2.6,0.5-5.2,0.3-7.6-0.8c-2.7-1.1-3.4-2.8-2.5-5.6
	c0.1-0.2,0.1-0.4,0.2-0.6c-1.6,0.5-3.2,1-4.8,1.4c-2.4,0.6-4.4-0.1-5.8-2.2c-1.4-2.2-1.4-4.3,0.1-6.5c0.2-0.3,0.4-0.6,0.7-1.1
	c-5.8,0.5-10.9,2.2-15.8,4.8c-0.1-2-0.1-3.9-0.5-5.8c-0.2-1-0.9-1.9-1.4-2.8c-0.5,0.9-1.2,1.7-1.4,2.7c-0.4,2-0.4,4-0.6,6.3
	c-5-2.7-10.1-4.8-15.9-5.1c0.4,0.9,0.8,1.7,1.1,2.5c1.7,3.8,0.2,6.5-3.8,7.3c-2.1,0.4-3.9-0.1-5.7-1.1c-0.4-0.2-0.8-0.4-1.4-0.7
	c0,0.5-0.1,0.9-0.1,1.2c-0.1,4.1-1.7,5.7-5.8,6.1c-3.3,0.3-6.5-0.1-9.6-1.1c-1.2-0.4-2.5-0.6-3.6-1.1
	C58.9,272.3,55.5,272.1,52.3,274.7z M125.9,311.6c1.1,1,2.3,2.1,3.3,3.1c2.7,2.8,3.5,6.1,2.5,9.8c-1.3,5.4-4.5,9.6-8.6,13.1
	c-3.9,3.3-9.7,1.2-11.8-4.1c-1.5-3.7-0.6-6.8,1.6-9.9c1.6-2.2,3-4.5,4.6-6.7c0.9-1.3,1.2-2.7,0.7-4.2c-1.3-4.7-2.6-9.4-3.9-14.1
	c-0.2-0.8-0.4-1.6-0.5-2.4c0.1-0.1,0.3-0.2,0.4-0.4c1.8,0.6,3.5,1.1,5.3,1.7c4.5,1.5,5.9,0.9,7.6-3.5c0.6-1.5,0.9-3.1,1.2-4.7
	c0.2-1.5-0.3-2-1.7-1.3c-2.7,1.4-5.4,2.9-8,4.4c-0.6,0.3-1.2,0.9-1.8,1.1c-0.6,0.2-1.6,0.5-1.9,0.2c-0.5-0.4-0.7-1.3-0.6-2
	c0.1-0.6,0.5-1.2,1-1.6c3.3-2.8,6.7-5.6,10.1-8.3c1.7-1.3,3.3-1.2,4.5,0.6c1.9,2.8,3.6,5.7,5,8.7c1.4,2.9,0.6,5.6-2,7.6
	c-1.6,1.2-3.4,2.3-5.2,3C123.1,303.6,122.2,308.2,125.9,311.6z M115.6,358.8c-0.2,0-0.4,0-0.6,0.1c-0.6-1.2-1.1-2.4-1.8-3.5
	c-0.2-0.4-0.6-0.8-0.9-1.1c-0.4,0.4-1,0.6-1.1,1.1c-0.7,1.7-1.3,3.5-2,5.5c-0.6-1.6-1-3.1-1.7-4.6c-0.3-0.7-0.9-1.3-1.4-2
	c-0.4,0.6-0.9,1.3-1.3,1.9c-0.5,0.8-0.9,1.7-1.7,2.5c-0.1-0.7-0.3-1.3-0.4-2c-0.2-2.2-1.1-4-2.4-5.7c-0.8-1.1-1.8-2.1-2.2-3.3
	c-0.5-1.3-0.6-2.9-0.5-4.2c0.1-0.6,1.1-1.4,1.9-1.6c1.3-0.3,2.6-0.4,3.9-0.3c1.4,0.1,2.2-0.4,2.9-1.6c0.5-1.1,1.3-2.1,1.9-3.1
	c0.6-0.9,1.2-1,1.8,0c1,1.6,1.6,3.6,3,4.5c1.3,0.8,3.5,0.3,5.2,0.4c2,0.2,3.2,2.1,2.6,4.1c-0.3,0.9-0.7,1.8-1.2,2.6
	C117.7,351.6,114.9,354.4,115.6,358.8z M94.3,304.2c-0.5-0.9-1.7-1.5-2.7-2.1c-2-1.1-4.2-1.9-5.9-3.3c-2.9-2.2-3.5-5-1.9-8.3
	c1.4-2.8,3.1-5.4,4.8-8c1.1-1.7,2.7-2.1,4.4-0.8c3.6,2.7,7,5.7,10.5,8.6c0.2,0.2,0.4,0.4,0.5,0.6c0.5,1,1.1,2.2,0.1,2.9
	c-0.5,0.4-1.8,0-2.6-0.4c-3.2-1.7-6.2-3.6-9.4-5.3c-1.4-0.8-1.9-0.4-1.7,1.2c0.3,3.4,1,6.8,4.3,8.8c0.6,0.4,1.7,0.4,2.4,0.2
	c2.1-0.6,4.2-1.4,6.3-2.2c0.4-0.1,0.8-0.2,1.6-0.3c-0.4,1.6-0.7,2.9-1.1,4.2c-1.2,4.6-2.5,9.2-3.7,13.8c-0.3,1.1-0.1,2,0.6,2.9
	c2,2.7,3.8,5.6,5.8,8.4c2.9,4,0.6,10.4-2.7,12.9c-2.1,1.5-6.3,1.5-8.4-0.2c-3.9-3.3-6.9-7.3-8.4-12.3c-1.8-6,0.4-9.9,5.2-13.6
	C94.5,310.2,95.7,306.6,94.3,304.2z M114.1,278.8c0.2,0.8,0.5,1.8,1,2.4c1.9,2.1,1.9,4.6-0.3,6.4c-3.4,2.9-6.4,3-10.1,0.6
	c-2.5-1.6-3.2-5-1.1-7.1c0.7-0.7,0.7-2.1,1.1-3.2c0.2-0.5,0.1-1.2,0.4-1.6c0.4-0.5,1.1-1.1,1.6-1c0.5,0.1,1.2,0.9,1.3,1.5
	c0.2,1.7,0.2,3.4,0.4,5c0.1,0.9,0.5,1.7,0.8,2.6c0.2,0,0.4,0,0.7,0c0.4-0.8,0.9-1.6,1-2.5c0.2-1.6,0.2-3.2,0.2-4.9
	c0-1,0.3-1.9,1.5-1.9c1.2-0.1,1.5,0.8,1.6,1.8C114,277.6,113.9,278.2,114.1,278.8z M113.7,311.3c-2.8,0.1-5.7,0.1-8.5,0
	c-2.2-0.1-3.1-1.4-2.7-3.6c0.5-2.3,3.6-8.3,5.3-10.2c-0.5,3.1-1,6.1-1.5,9.3c2.2,0,4,0,6.2,0c-0.5-3.2-1-6.4-1.5-10.1
	c0.4,0.5,0.6,0.7,0.7,0.9c1.5,3.4,3,6.7,4.4,10.1C116.8,309.5,115.7,311.2,113.7,311.3z M116.9,315c-0.1,0.3-0.2,0.6-0.3,0.8
	c-2.3,3.5-4.7,7-7.3,10.9c-2.6-4-5-7.6-7.3-11.3c-0.7-1.2,0.6-3.3,1.9-3.3c3.8,0,7.6,0.1,11.4,0.3
	C116.8,312.5,117.4,313.5,116.9,315z M52.3,314.6c-2.2,1.6-2.9,3.4-1.7,6c-1.8-2.3-2.2-4.7-1.7-7.3c0.1-0.6,1.1-1.2,1.8-1.5
	c0.4-0.1,1.4,0.3,1.6,0.7C52.7,313.1,52.7,314.3,52.3,314.6z M54.9,343.5c-2.2-0.1-3.7-1.7-3.9-3.8c-0.2-2.1,0.6-3.1,3-3.9
	c0.3-0.1,0.6-0.2,1.1-0.4c-0.6-8.7-2-17.4-0.4-26.2c-2.8-1.2-3.2-2.2-2-4.7c-4.4-1.1-3.3-4.4-2.9-7.2c0.7-5.2,2.6-9.9,6.3-13.8
	c0.2-0.2,0.4-0.5,0.6-0.7c1.9-1.1,2.1-2.6,1.6-4.6c-0.7-3.1,1.7-5.1,4.5-3.6c2.3,1.2,4.4,3,6.9,3.8c0.4,0.1,0.6,0.9,0.8,1.3
	c-0.5,0.2-0.9,0.7-1.4,0.7c-2.8-0.4-4.4,1.4-6,3.1c-1.3,1.5-2.8,2.8-4,4.4c-0.8,1.1-1.3,2.4-1.8,3.9c2.3-0.7,3.3,0.6,4.4,2
	c0.4,0.4,1.3,0.7,1.9,0.6c1.6-0.2,3.1-0.7,4.6-1c1.8-0.3,3.4,0.1,5.2,1.3c-1,0.6-1.7,1.1-2.5,1.6c-2.2,1.6-4.4,3.1-6.5,4.8
	c-2.3,1.8-3.5,4.3-3.8,7.2c-0.5,4.5-1.2,8.9-1.7,13.4c-0.1,1.3,0.1,2.6,0.2,4.1c1.5-0.7,2.8-1.4,4.1-1.9c3.5-1.4,7-1.9,10.4,0.3
	c0.9,0.6,1.7,1.5,2.8,2.5c-2-0.2-3.5-0.4-5-0.5c-3.5,0-5.5,1.5-6.5,4.9c-0.9,2.9-1.6,5.9-3.6,8.4C59.8,341.9,57.8,343.7,54.9,343.5z
	 M82.5,366.9c-0.1,2.8-0.6,5.5-0.9,8.3c-1.2-3-2.1-6.1-3.7-8.9c-1.6-2.8-3.8-5.2-5.9-8.1c-1.2,1.5-2.1,2.6-3.2,4.1
	c-0.9-5.4,0.7-11-2.8-15.8c-0.6,0.7-1.1,1.3-1.5,2c-0.6,1-0.6,1.9,0.4,2.7c0.2,0.2,0.5,0.4,0.7,0.6c0.3,0.5,0.9,1.1,0.8,1.4
	c-0.1,0.4-0.9,0.9-1.4,0.9c-0.6,0-1.2-0.4-1.8-0.8c-0.2-0.1-0.3-0.5-0.4-0.8c-0.6-1.7-1.4-2.1-3.1-1.7c-1.2,0.3-2.1,1.6-1.7,3
	c0.5,1.6,1.3,3,2,4.6c-1.8,0-3.5-0.9-4.6-2.3c-1.1-1.4-0.9-3.2,0.2-4.6c1.1-1.4,2.5-2.5,3.8-3.7c1.1-0.9,2.4-1.7,3.6-2.5
	c0-0.1-0.1-0.3-0.1-0.4c-1-0.1-1.9-0.3-2.9-0.4c-0.1-0.1-0.1-0.2-0.2-0.4c0.6-0.4,1.2-0.9,1.8-1.1c1.3-0.3,1.6-1,1.8-2.2
	c0.4-2.3,0.7-4.6,1.5-6.8c1.1-3,4.4-4.7,7.2-4.2c1.3,0.2,2.4,0.9,2.5,2.3c0.1,1.5-1.2,1.9-2.4,2.2c-1.1,0.2-2.3,0.3-3.6,0.4
	c0.6,10.5,4.9,19.7,10.1,28.7c2-1.7,3.7-3.3,5.5-4.9c2.1-1.9,4.5-3.1,7.4-2.6c0.9,0.1,2.1,0.9,2.4,1.7c0.3,0.8-0.1,2.1-0.6,2.9
	c-0.8,1.2-2,1.1-3.3,0.1c-2.3-1.8-2.8-1.7-5.1,0.2C83.5,362.5,82.6,364.4,82.5,366.9z M134.3,370c-0.1,3.3-1.9,6-4.8,6.7
	c0.3-0.6,0.5-1.1,0.6-1.6c0.3-1.3,0.6-2.5,0.8-3.8c0-0.4-0.5-1-0.8-1.1c-0.3-0.1-0.9,0.3-1.2,0.7c-0.5,0.7-0.9,1.5-1.2,2.3
	c-1.4,3.2-2.4,6.6-4.9,9.2c-0.4,0.4-0.4,1.1-0.4,1.7c-0.1,1.6-0.2,3.3-0.3,4.9c-0.1,1.4-0.7,2.6-2.4,3.1c0.2-0.5,0.4-1,0.6-1.6
	c0.8-2.1,0-3.6-2.3-3.3c-1.4,0.2-2.8,0.8-4.1,1.4c-0.9,0.4-0.9,1.3-0.2,2.1c0.7,0.9,1.6,1.8,2,2.8c0.6,1.3,0.8,2.8,1.2,4.2
	c-0.2,0.1-0.3,0.2-0.5,0.2c-0.3-0.2-0.6-0.4-0.9-0.6c-1.4-1.4-2.8-2.8-4.3-4.1c-1.4-1.3-2-1.3-3.4,0c-1.2,1.1-2.4,2.3-3.6,3.5
	c-0.4,0.4-0.9,0.7-1.6,1.3c-0.6-2.1,0.3-3.6,1.1-5.1c0.5-0.8,1.1-1.6,1.7-2.4c0.6-0.9,0.6-1.8-0.4-2.2c-1.4-0.6-2.9-1.2-4.4-1.3
	c-1.8-0.1-2.6,1.2-2,3c0.2,0.6,0.5,1.2,0.9,2.1c-1.6-0.5-2.2-1.5-2.4-2.6c-0.3-1.9-0.3-3.9-0.6-5.8c-0.1-0.8-0.5-1.6-0.9-2.3
	c-1.2-2.3-2.5-4.5-3.6-6.8c-0.6-1.2-1-2.5-1.6-3.6c-0.3-0.5-1-0.8-1.6-1.2c-0.3,0.6-0.8,1.2-0.7,1.7c0.1,1.1,0.5,2.1,0.8,3.2
	c0.1,0.4,0.4,0.9,0.8,1.6c-2.3-0.4-3.4-1.7-4.1-3.3c-1.6-3.3-1.1-5.1,1.7-7.2c0.3-0.2,0.3-0.9,0.4-1.3c0.2-0.7,0.2-1.4,0.6-2
	c0.8-1.1,2-1,2.7,0.3c0.3,0.5,0.5,1,0.6,1.6c1.2,6,4.7,10.7,8.9,14.8c2.5,2.4,5.2,4.5,8,6.7c0.5,0.4,1.6,0.5,2,0.2
	c6.4-4.5,12.3-9.6,15.7-16.9c0.8-1.7,1.2-3.6,1.7-5.4c0.3-1,0.6-2.1,1.9-1.9c1.2,0.2,1.9,1.2,1.8,2.5c-0.1,0.8,0.1,1.4,1,1.8
	C133.8,367.1,134.3,368.3,134.3,370z M162.3,350.8c1.5,1.5,1.7,3.5,0.8,5.1c-0.8,1.4-3.2,2.6-5.2,2.4c0.5-0.6,1.1-1.1,1.3-1.7
	c0.5-1.2,1.1-2.5,1-3.7c-0.1-1.8-2.3-2.8-3.8-2c-0.5,0.2-0.7,1-0.9,1.6c-0.4,1.6-1.8,2.3-3,1.4c-0.6-0.4-0.9-1-0.2-1.6
	c0.1-0.1,0.3-0.3,0.4-0.4c2.1-2.2,2.1-3-0.4-5.2c-3.5,4.6-1.8,10.1-2.8,15.6c-1.1-1.3-1.9-2.4-3-3.8c-4.5,4.9-8.5,9.8-9.2,16.7
	c-0.2,0-0.3-0.1-0.5-0.1c-0.3-2.4-0.7-4.9-0.8-7.3c-0.2-2.8-0.7-5.3-3.1-7.1c-2.3-1.6-2.4-1.7-4.6-0.1c-0.8,0.6-1.7,1.2-2.8,0.5
	c-1.1-0.7-1.7-1.8-1.5-3.1c0.2-1.3,1.2-2.1,2.9-2.2c2.7-0.2,5,0.8,6.9,2.6c1.4,1.2,2.8,2.4,4.2,3.5c0.5,0.4,1,0.7,1.7,1.2
	c1.5-3,2.9-5.8,4.3-8.6c2.5-5.1,4.4-10.4,5.2-16c0-0.3,0.1-0.5,0.2-0.7c0-0.9,0.4-2,0-2.7c-0.3-0.5-1.6-0.4-2.4-0.6
	c-0.2,0-0.4-0.1-0.6-0.1c-1.2-0.4-2.7-0.7-2.8-2.4c0-1.2,2.3-2.5,3.9-2.3c3.3,0.4,5.8,2.6,6.6,6.3c0.5,2.1,0.6,4.3,0.9,6.5
	c1.1,0.4,2.2,0.8,3.4,1.3c-0.1,0.2-0.2,0.5-0.2,0.7c-0.9,0.2-1.8,0.3-3,0.6c0.8,0.7,1.4,1.1,2,1.6
	C158.8,348,160.7,349.2,162.3,350.8z M165,308.9c-0.8,0-1,0.4-0.9,1.2c1.2,7.6,0.6,15.1-0.4,22.7c-0.3,2.5-0.3,2.5,1.9,3.5
	c1.7,0.7,2.4,1.7,2.2,3.2c-0.2,1.9-1.9,3.7-3.7,4c-3,0.4-5.2-1.2-6.8-3.4c-1.4-2.1-2.5-4.5-3.3-7c-1.9-6-3.4-7.1-9.6-6.2
	c-0.6,0.1-1.2,0.1-2.2,0.2c2.3-2.7,4.9-4.3,8.1-3.8c3,0.5,5.8,1.6,9.1,2.5c0-1.7,0.2-3.7,0-5.7c-0.5-4.3-1.2-8.6-1.8-12.8
	c-0.5-3.2-2.7-5.2-5-7c-2.3-1.8-4.9-3.5-7.4-5.3c2.1-1.5,4.5-1.3,6.8-1c0.2,0,0.4,0.1,0.6,0.2c2.2,0.8,4.2,1.2,5.7-1.3
	c0.4-0.6,1.6-0.7,2.9-1.2c-0.5-0.9-0.8-2.3-1.6-3.2c-2.1-2.5-4.4-4.9-6.8-7.2c-0.5-0.5-1.7-0.3-2.6-0.5c-0.7-0.2-1.4-0.6-2-0.9
	c0.6-0.6,1.1-1.5,1.7-1.7c1.9-0.5,3.4-1.4,4.8-2.6c0.9-0.8,2.6-0.8,3.9-0.8c1.3,0.1,2.1,1,2,2.4c0,0.4,0.1,0.9-0.1,1.2
	c-1,2.2,0,3.4,1.6,5c5.2,4.9,7.1,11.2,7,18.2c0,1.3-0.6,2.2-1.9,2.6c-0.4,0.1-0.7,0.3-0.9,0.4c0.1,1,0.2,1.9,0.2,2.8
	C166.4,308.3,166,308.9,165,308.9z M167.9,320.5c0.1-0.6,0.2-1.2,0.3-1.8c0.3-1.3,0.5-2.4-1-3.4c-0.7-0.4-0.8-1.8-1-2.8
	c0-0.2,0.9-0.7,1.4-0.7c1.3,0,1.9,0.9,2.2,2C170.4,316.4,169.7,318.6,167.9,320.5z"/>
<path class="st1" d="M262.3,289.9l0.2,0.2h0L262.3,289.9L262.3,289.9L262.3,289.9z M262.3,289.9c0-0.1-0.1-0.2-0.2-0.2
	C262.1,289.8,262.2,289.9,262.3,289.9z M308.6,288.3c-0.4,0.6-1,1.3-1.9,2c-0.9,0.7-1.8,1.4-2.9,1.9c-1,0.5-1.9,0.8-2.7,0.9
	c-0.4,0.1-0.7,0.1-1.1,0.1c-0.5,0-0.8-0.1-1.1-0.2c-0.2-0.1-0.4-0.2-0.6-0.2c-0.2-0.1-0.4-0.1-0.6-0.1c-0.2-0.1-0.3-0.3-0.4-0.4
	c0-0.1-0.1-0.3-0.1-0.3c0,0,0.3-0.2,0.8-0.7c0.1-0.1,0.6-0.5,1.4-1.2c0.8-0.7,1.3-1.2,1.5-1.5c0.4-0.5,0.7-1.1,0.8-1.6
	c0.1-0.2,0.1-0.4,0.1-0.6c0-0.5-0.2-0.9-0.6-1.3c-0.4-0.3-0.8-0.5-1.3-0.5l-1.6,0.2c-0.5,0.3-1,0.6-1.3,1c-0.4,0.4-0.8,0.9-1.2,1.6
	c-0.3,0.6-0.5,1.1-0.5,1.5l-0.2,0.3l0,0.4c-0.3,0.2-0.6,0.5-0.9,0.8c-1.3,1-2.2,1.7-2.7,2l-0.8,0.5c-0.6,0.5-1.1,0.8-1.6,1.1
	c-0.4,0.3-0.8,0.4-1.1,0.4c-0.1,0-0.2,0-0.2,0c-0.4-0.4-0.8-0.8-0.9-1.2c-0.1-0.2-0.1-0.5-0.1-0.7l0-0.7l-0.3-0.5l0.3-0.3
	c0-0.1,0-0.3,0-0.6v-0.2c0-0.1,0-0.2,0-0.4c0-0.2,0.1-0.3,0.1-0.4v-0.2c0-0.1,0-0.2,0-0.4c0-0.1,0.1-0.3,0.1-0.3
	c0.1-0.2,0.1-0.3,0.1-0.4c0-0.1,0.1-0.1,0.1-0.2c0.1-0.1,0.1-0.2,0.1-0.3l0-0.2c0-0.1,0-0.2,0-0.4c0-0.2,0.1-0.3,0.1-0.4l0-0.2
	c-0.2-0.3-0.4-0.4-0.7-0.4l-0.2,0.1c-0.4-0.2-0.6-0.3-0.7-0.3c-0.1,0-0.2,0-0.5,0.1c-0.1,0-0.3,0.1-0.6,0.2
	c-0.3,0.1-0.6,0.3-0.9,0.6c0,0-0.2,0.2-0.8,0.7c-0.6,0.4-0.9,0.7-1.1,0.9c0,0-0.1,0.1-0.1,0.2c-0.1,0.1-0.2,0.1-0.3,0.1h-0.1
	c-0.1-0.5-0.1-0.9-0.2-1.2c-0.1-0.1-0.3-0.2-0.6-0.4c-0.1,0-0.1,0-0.3,0c-0.1,0-0.2,0-0.3,0c-0.2,0-0.4-0.1-0.7-0.2
	c-0.1,0.1-0.2,0.1-0.2,0.1c-0.2,0.1-0.5,0.2-0.9,0.2c-0.3,0.1-0.6,0.2-0.9,0.4c-0.3,0.2-0.7,0.5-1.4,1.1l-0.1,0.1l-1.4,1.1
	c-0.1,0.1-0.2,0.2-0.4,0.2c0,0,0-0.1,0-0.2c0-0.1,0-0.2,0.1-0.2c0-0.1,0-0.2,0-0.3c0-0.1,0.1-0.3,0.2-0.4c0.1-0.1,0.1-0.2,0.1-0.3
	c0-0.1,0.1-0.3,0.1-0.4c0.1-0.5,0.2-0.9,0.2-1.3c0-0.3,0-0.5,0-0.7c-0.1-0.1-0.2-0.2-0.3-0.4c-0.1-0.2-0.3-0.3-0.5-0.3
	c-0.4,0.2-0.8,0.6-1.1,1.3c-0.3,0.7-0.5,1.2-0.5,1.4c0,0.1,0,0.3-0.1,0.4c-0.9,0.6-1.5,1.1-2,1.3c-0.5,0.3-1,0.4-1.6,0.4
	c-0.5,0-0.9-0.1-1.4-0.2c0,0,0.1-0.3,0.3-0.8c0.2-0.6,0.3-0.9,0.3-0.9c0-0.1,0-0.3,0.1-0.5l0.1-0.6c0.1-0.2,0-0.5,0-0.9
	c-0.1-0.3-0.2-0.6-0.3-0.8c-0.4-0.7-0.9-1.2-1.6-1.6c-0.3-0.1-0.6-0.1-0.9-0.1c-0.2,0-0.5,0-0.9,0.1c-0.1,0-0.3,0.1-0.4,0.2
	c-0.2,0.1-0.3,0.2-0.3,0.2c-0.7,0.3-1.3,0.8-1.7,1.6c-0.3,0.7-0.5,1.4-0.6,2.1l0.1,0.3c-0.1,0.2-0.1,0.3-0.2,0.3
	c-0.1,0-0.2,0-0.3-0.1c-0.1-0.1-0.2-0.1-0.2-0.2c-0.1,0-0.1,0-0.2,0c-0.1,0.1-0.3,0.2-0.4,0.2c-0.2-0.1-0.3-0.1-0.4-0.1
	c-0.1,0.2-0.2,0.3-0.3,0.5c-0.1,0-0.2,0.1-0.3,0.1c0,0-0.3,0.3-0.8,0.8c-0.5,0.5-1.5,1.2-2.8,2.1c-1.3,0.9-2.5,1.4-3.7,1.4
	c-0.5,0-0.9-0.1-1.3-0.3l-0.3-0.4c0-0.2,0-0.5,0-0.9c0-0.5,0.1-0.8,0.2-1.1c0,0,0-0.1,0-0.1c0-0.1,0-0.1,0-0.1l0.4-1.3
	c0.1-0.2,0.2-0.5,0.3-0.8c0.1-0.3,0.2-0.5,0.3-0.7c0.1-0.1,0.2-0.4,0.5-0.7c0.1-0.1,0.2-0.4,0.4-0.9l0.5-0.3l0.5-0.8
	c-0.1-0.1-0.2-0.2-0.2-0.3c-0.1-0.1-0.2-0.2-0.2-0.2c-0.1-0.1-0.2-0.2-0.3-0.2h0c-0.1,0.1-0.2,0.1-0.4,0c-0.2-0.1-0.3-0.1-0.3-0.1
	h-0.1c-0.1,0-0.3,0.1-0.4,0.1c-0.1,0-0.2,0.1-0.4,0.1c-0.4,0.4-0.8,0.8-1,1c-0.2,0.3-0.5,0.6-0.8,1.1c-0.1,0.1-0.3,0.2-0.4,0.5
	c-0.1,0.2-0.2,0.4-0.3,0.5c0,0.1-0.1,0.3-0.3,0.5c-0.1,0.2-0.2,0.4-0.3,0.5c-0.1,0.2-0.1,0.4-0.2,0.8c-0.1,0.4-0.2,0.7-0.2,0.9
	c0,0.1,0,0.2-0.1,0.3c0,0.1-0.1,0.2-0.1,0.2v0c-1,1.2-1.7,1.8-2,2.1l-2,1.4c-0.6,0.4-1.3,0.7-2.1,0.9c-0.4,0.1-0.7-0.2-0.9-0.8
	c-0.2-0.6-0.3-1.2-0.3-1.9c0-0.7,0-1.3,0.1-1.8c0.1-0.5,0.2-1,0.4-1.4c0.1-0.1,0.1-0.1,0.2-0.1c0.1,0,0.1-0.1,0.2-0.1
	c0.4-0.4,0.7-0.7,0.9-1.1c0.2-0.3,0.5-0.6,0.7-0.8c0.4-0.4,0.7-0.7,0.8-1c0.4-0.4,0.8-0.9,1.1-1.8c0.3-0.2,0.6-0.5,0.8-0.9
	c0.2-0.7,0.5-1.2,0.9-1.5c0.1-0.1,0.2-0.2,0.2-0.4c0-0.1,0.1-0.3,0.2-0.5c0.7-1,1.1-1.7,1.3-2l0.5-1c0.1-0.1,0.1-0.3,0.2-0.5
	c0.1-0.2,0.2-0.4,0.2-0.6c0-0.2,0.1-0.3,0.2-0.5c0.1-0.2,0.2-0.4,0.2-0.5c0.1-0.3,0.3-0.7,0.4-1.1c0.2-0.4,0.3-0.7,0.4-0.9
	c0.1-0.1,0.1-0.2,0.2-0.4c0.1-0.2,0.1-0.4,0.2-0.6c0-0.1,0.1-0.6,0.3-1.4l-0.2-1.3l-0.5-0.5c-0.1-0.1-0.2-0.2-0.3-0.2
	c-0.1-0.1-0.2-0.1-0.3-0.2h-0.4c-0.3-0.1-0.6,0-0.9,0.1c-0.3,0.1-0.5,0.2-0.6,0.2c-0.2,0.1-0.5,0.2-0.7,0.5
	c-0.2,0.2-0.4,0.4-0.6,0.5c-0.1,0.2-0.3,0.4-0.5,0.7c-0.2,0.2-0.4,0.4-0.5,0.5l-0.3,0.4c-0.1,0.2-0.3,0.4-0.4,0.7
	c-0.2,0.3-0.4,0.5-0.6,0.7c-0.1,0.1-0.1,0.1-0.1,0.3c0,0.1-0.1,0.2-0.1,0.3c-0.4,0.8-0.7,1.3-0.7,1.4c-0.1,0.1-0.2,0.3-0.5,0.8
	c-0.1,0.3-0.3,0.6-0.5,0.8c-0.1,0.1-0.1,0.2-0.1,0.4c0,0.2,0,0.3-0.1,0.4c-0.1,0.1-0.2,0.2-0.3,0.4c-0.1,0.2-0.1,0.3-0.1,0.4
	c-0.1,0.3-0.2,0.6-0.3,0.7c-0.2,0.6-0.4,1.2-0.7,1.9c0,0.1,0,0.1,0,0.2c0,0.1,0,0.1,0,0.2l-0.2,0.4c0,0,0,0.1,0,0.2
	c0,0.1,0,0.1-0.1,0.2c0,0.1-0.1,0.1-0.1,0.2l-0.6,1.6l-0.4,1.1c-0.2,0.6-0.4,1.1-0.5,1.4c0,0.1-0.1,0.2-0.1,0.4
	c0,0.2-0.1,0.3-0.1,0.4c0,0.1-0.1,0.3-0.1,0.4c0,0.2-0.1,0.3-0.2,0.4c0,0.1,0,0.1,0,0.2c0,0.1,0,0.3-0.1,0.5
	c-0.1,0.2-0.1,0.3-0.1,0.4c0,0,0,0.1,0,0.1c0,0,0,0,0,0c-0.2,0.2-0.5,0.4-0.7,0.7c-0.9,0.7-1.8,1.4-2.9,1.9c-1,0.5-1.9,0.8-2.7,0.9
	c-0.4,0.1-0.7,0.1-1.1,0.1c-0.5,0-0.8-0.1-1.1-0.2c-0.2-0.1-0.4-0.2-0.6-0.2c-0.2-0.1-0.4-0.1-0.6-0.1c-0.2-0.1-0.3-0.3-0.4-0.4
	c0-0.1-0.1-0.3-0.1-0.3c0,0,0.3-0.2,0.8-0.7c0.1-0.1,0.6-0.5,1.4-1.2c0.8-0.7,1.3-1.2,1.5-1.5c0.4-0.5,0.7-1.1,0.8-1.6
	c0.1-0.2,0.1-0.4,0.1-0.6c0-0.5-0.2-0.9-0.6-1.3c-0.4-0.3-0.8-0.5-1.3-0.5l-1.6,0.2c-0.5,0.3-1,0.6-1.3,1c-0.4,0.4-0.8,0.9-1.2,1.6
	c-0.3,0.6-0.5,1.1-0.5,1.5l-0.2,0.3l0,0.2c-0.1,0.1-0.1,0.1-0.2,0.2c-0.2,0.2-0.5,0.4-0.8,0.5c-0.2,0.1-0.4,0.2-0.4,0.2
	c-0.5,0.3-1.1,0.6-1.9,0.9c-0.2-0.1-0.4-0.1-0.5-0.2l-0.5-1c-0.1-0.2-0.1-0.3-0.1-0.3c0-0.2-0.1-0.4-0.1-0.7c0-0.3,0-0.6,0-0.9
	l0-0.5l0-1.1l-0.6-0.5c-0.2,0.1-0.3,0.2-0.4,0.2l-0.5-0.3c-0.1,0.2-0.2,0.4-0.6,0.4c-0.3,0.5-0.6,1.2-1.1,2.2
	c-0.4,0.8-0.7,1.6-1.1,2.3l0.1,0.2c-0.2,0-0.4,0.2-0.5,0.6c-0.1,0.4-0.3,0.8-0.6,1.1l-0.7,0.9h-0.1c-0.2-0.1-0.3-0.3-0.3-0.7
	l-0.1-1.1c0-0.1,0-0.2,0-0.3c0-0.1,0-0.2,0-0.3c0-1.1-0.1-2-0.2-2.7c0,0,0-0.1-0.1-0.2l-0.5-0.3l-0.4,0.2l-0.4-0.2l-0.1,0.3
	l-0.5-0.1l-0.6,0.6c-0.5,0.4-0.9,0.8-1.1,1.1l-0.6,0.9c0,0-0.1,0.1-0.1,0.2c0,0.1,0,0.1,0,0.2c-0.2,0.1-0.3,0.2-0.3,0.4
	c0.1,0.1,0.1,0.2,0.1,0.3l-0.4,0.1v0.2c-0.1,0.1-0.3,0.3-0.6,0.6c-0.3,0.3-0.4,0.5-0.5,0.8l-0.1-0.2v-2.8c0.1-0.2,0.2-0.5,0.2-0.8
	c0-0.3,0-0.6,0-0.8c0-0.2,0-0.4,0-0.5c0-0.1,0-0.1,0-0.2c0-0.1,0-0.2,0-0.3c0.1-0.4,0.2-1.1,0.3-2l0.1-0.5c0.1-0.1,0.1-0.4,0.1-0.7
	v-0.4l-0.7-0.6l-0.5,0.1l-0.3-0.1l-0.7,0.2c-0.2,0.5-0.4,1.2-0.4,1.9l0,1.7c0,0.1,0,0.3,0,0.5c0,0.2-0.1,0.4-0.1,0.5
	c-0.1,0.3-0.1,0.5-0.1,0.8v0.2c0,0.1,0,0.3-0.1,0.6c-0.1,0.2-0.1,0.3-0.1,0.4c0,0.1,0,0.3,0.1,0.5c0,0.2,0,0.4-0.1,0.6
	c0,0.1,0,0.2,0,0.5l0,0.2c0.1,0.1,0.1,0.3,0.1,0.6c0,0.2,0,0.4,0.1,0.6c0,0,0,0.1,0,0.2c0,0.1-0.1,0.2-0.1,0.2l0.4,0.7
	c0.2,0.4,0.6,0.6,1.1,0.7c0.1,0,0.2,0,0.4,0c0.2,0,0.3,0,0.3,0c0.4-0.2,0.7-0.3,0.8-0.5c0.1-0.1,0.4-0.4,0.7-0.8l0.2-0.2
	c0.4-0.3,0.7-0.7,1.1-1.3c0.3-0.5,0.5-0.8,0.7-1.1c0.1-0.3,0.3-0.5,0.6-0.7c0.1,0.2,0.2,0.4,0.2,0.6c0,0.6,0.1,1.2,0.2,1.6
	c0.1,0.2,0.1,0.5,0.2,0.9c0.1,0.5,0.3,1,0.7,1.4c0.4,0.4,0.8,0.5,1.4,0.4c0,0,0.1,0,0.2,0l0.7-0.4l0.3-0.2c0.3-0.3,0.6-0.6,0.9-1
	c0.3-0.4,0.5-0.6,0.5-0.7c0.1-0.1,0.2-0.2,0.3-0.4c0.1-0.2,0.2-0.4,0.3-0.5c0.1-0.1,0.2-0.3,0.2-0.5c0.1-0.2,0.2-0.3,0.3-0.4
	c0-0.2,0-0.4,0.2-0.6c0.1-0.2,0.2-0.4,0.2-0.6c0.1,0,0.1,0,0.2,0c0.1,0.5,0.4,1,1.1,1.6c0.5,0.4,1.1,0.6,1.7,0.5
	c0.2,0,0.4,0,0.7-0.1c0.3,0,0.6-0.1,0.8-0.1c0.2,0,0.5-0.1,0.7-0.2c0.4-0.2,0.8-0.4,1.1-0.6l0,0.2c0.3,0.7,0.5,1.1,0.7,1.4
	c0.7,0.8,1.5,1.2,2.5,1.3c0.8,0.1,1.4,0.2,1.8,0.2c0.6,0,1.1-0.1,1.6-0.2c0.1,0,0.3-0.1,0.5-0.1c0.3,0,0.5-0.1,0.7-0.2
	c0.5-0.1,1.2-0.4,2.2-1c0.7-0.5,1.4-1,2-1.5c0,0,0,0,0,0c0,1.1,0.2,2.4,0.6,3.9l1,0.9c0.3,0.3,0.7,0.5,1.1,0.5c0.1,0,0.3,0,0.3,0
	c0.1,0,0.2,0.1,0.3,0.1c0.2-0.1,0.4-0.2,0.6-0.1c0.2,0,0.4,0,0.5,0l1-0.4c0.2-0.1,0.4-0.1,0.7-0.2c0.3-0.1,0.5-0.2,0.7-0.4l1.6-1.1
	l0.7-0.5c0.3-0.2,0.6-0.5,1-1c0.1,0.1,0.1,0.2,0.2,0.3c0.2,0.3,0.4,0.4,0.7,0.5c0.1,0,0.2,0.1,0.3,0.2c0.1,0.1,0.3,0.2,0.4,0.2
	c0.7,0.3,1.5,0.4,2.3,0.4c1.7,0,3.3-0.5,4.9-1.6c0.8-0.5,1.4-1,2-1.5c0,0.4,0,0.8,0,1.3c0.1,0.3,0.2,0.6,0.2,0.8
	c0.1,0.2,0.2,0.4,0.4,0.5c0.1,0.1,0.4,0.3,0.9,0.6l1.4,0c0.6-0.1,1.1-0.1,1.3-0.2c0.1,0,0.2-0.1,0.6-0.3c0.1-0.1,0.3-0.2,0.5-0.3
	c0.2-0.1,0.5-0.3,0.7-0.4c0.2-0.1,0.4-0.3,0.5-0.6c0.1-0.1,0.2-0.3,0.5-0.8c0.3-0.4,0.4-0.6,0.5-0.7c0.8,0.2,1.5,0.3,2.1,0.3
	c0.9,0,1.7-0.2,2.5-0.5c-0.1,0.2-0.2,0.5-0.3,0.7c-0.2,0.5-0.5,1.2-0.8,2c0.1,0.3,0.3,0.5,0.5,0.7l0.5-0.1l0.5,0.2
	c0.6-0.1,1.1-0.4,1.6-0.7c1-0.9,1.9-1.7,2.6-2.4l0.5-0.5l1.1-1.3h0.1c0,0,0.1,0,0.1,0l0.4-0.4c0,0,0-0.1,0-0.1c0,0,0-0.1,0-0.1
	l0.3-0.2l0.3-0.4h0.3c0.1,0.2,0.1,0.3,0,0.4c0,0.2-0.1,0.5-0.1,0.9c-0.1,0.5-0.2,0.9-0.3,1.2c-0.1,0.2-0.2,0.6-0.4,1.4
	c0.2,0.2,0.3,0.3,0.3,0.3c0.1,0.1,0.2,0.1,0.4,0c0.1-0.1,0.2-0.1,0.3-0.1c0.2,0.1,0.3,0.2,0.4,0.2l0.5-0.2l0.5,0.1l1.1-1
	c0-0.2,0.1-0.4,0.3-0.5c0.2-0.1,0.3-0.2,0.3-0.3c0.1-0.2,0.3-0.4,0.5-0.5c0.2-0.2,0.3-0.3,0.5-0.5c0.1-0.1,0.4-0.5,0.9-1.1
	c0.1-0.1,0.1-0.2,0.2-0.3c0.1-0.1,0.1-0.2,0.2-0.2c0,0,0.1-0.1,0.1-0.1c0,0,0.1,0,0.2,0l0,0.4c0,0.1,0,0.2,0,0.2
	c-0.1,0.2-0.1,0.4-0.2,0.6c0,0.2,0,0.4,0,0.5c-0.1,0.3-0.1,0.7-0.1,1l0,0.7l0,0.7c0,0.1,0,0.2,0,0.4c0,0.2,0.1,0.4,0.2,0.5
	c0,0.2,0.1,0.4,0.2,0.6c0.2,0.2,0.2,0.4,0.2,0.5c0.5,0.5,0.9,0.9,1.4,0.9c0.9,0.1,1.5,0.2,1.7,0.2c0.3,0,0.5,0,0.6,0
	c0.2-0.1,0.4-0.1,0.5-0.1c0.3,0,0.7-0.1,1.1-0.4l0.3-0.2c1.1-0.4,2.2-1.1,3.2-2c0.2-0.2,0.4-0.4,0.8-0.7c0.3-0.2,0.5-0.4,0.7-0.6
	c0.2,0.6,0.5,1,0.7,1.2c0.7,0.8,1.5,1.2,2.5,1.3c0.8,0.1,1.4,0.2,1.8,0.2c0.6,0,1.1-0.1,1.6-0.2c0.1,0,0.3-0.1,0.5-0.1
	c0.3,0,0.5-0.1,0.7-0.2c0.5-0.1,1.2-0.4,2.2-1c0.9-0.6,1.8-1.3,2.6-1.9c0.8-0.7,1.3-1.2,1.4-1.6c0.1-0.2,0.1-0.4,0.1-0.5
	c0-0.3-0.1-0.6-0.3-0.7C308.8,288.1,308.7,288.1,308.6,288.3z M300.8,285.4l0,0.2l-0.1,0C300.7,285.5,300.7,285.4,300.8,285.4z
	 M246.8,277.6L246.8,277.6L246.8,277.6L246.8,277.6z M242.4,282.4c0.1-0.3,0.2-0.7,0.4-1.1c0.2-0.4,0.3-0.7,0.5-1
	c0.1-0.1,0.1-0.3,0.2-0.5c0.1-0.2,0.1-0.3,0.2-0.5c0.1-0.4,0.3-0.8,0.5-1c0.1-0.1,0.1-0.2,0.1-0.3c0-0.1,0.1-0.2,0.1-0.3
	c0.1-0.1,0.1-0.3,0.3-0.7c0.1-0.2,0.3-0.7,0.7-1.4c0.1-0.2,0.4-0.6,0.7-1.1c0.3-0.5,0.6-1,1-1.4c0.2-0.2,0.4-0.5,0.6-0.8
	c0.2-0.3,0.4-0.6,0.5-0.8c0.1-0.1,0.1-0.1,0.2-0.1c0.1,0,0.1-0.1,0.2-0.1c0,0.1,0,0.3,0,0.4c0,0.1,0,0.3,0,0.5
	c-0.1,0.2-0.1,0.4-0.1,0.6c0,0.2-0.1,0.4-0.1,0.6c0,0.1,0,0.1-0.1,0.1c0,0-0.1,0.1-0.1,0.1l0,0.2l0,0.2l-0.2,0.2
	c-0.3,0.7-0.8,1.8-1.4,3.2c-0.1,0.2-0.2,0.5-0.5,0.9c-0.1,0.3-0.2,0.4-0.2,0.5c0,0.1-0.1,0.2-0.1,0.4c0,0.2-0.1,0.3-0.3,0.4
	c-0.1,0.4-0.3,0.7-0.5,0.9l-0.6,0.8l-1.4,2l-0.5,0.7l-0.3,0.5c-0.1,0.2-0.2,0.2-0.3,0.1C242.1,283.4,242.4,282.6,242.4,282.4z
	 M231.1,285.4l0,0.2l-0.1,0C231,285.5,231,285.4,231.1,285.4z M220.9,291c-0.1,0-0.1-0.1-0.1-0.2c0.1,0.1,0.1,0.1,0.1,0.1V291z
	 M221,291.2c0,0,0-0.1,0-0.1L221,291.2L221,291.2z M226.6,292.9c0.1-0.1,0.1,0,0.1,0C226.7,292.9,226.6,292.9,226.6,292.9z
	 M227,293.3l-0.2-0.3h0.1C227,293,227.1,293.1,227,293.3z M228.2,288.1c0.4-0.6,0.8-1.3,1.4-2c0.1,0,0.2,0,0.2,0
	c0.1,0.2,0.1,0.6-0.2,1.4c-0.1,0.3-0.2,0.5-0.3,0.8c-0.1,0.2-0.2,0.4-0.3,0.6c-0.4,0.4-0.8,0.8-1.5,1.4
	C227.6,289.4,227.8,288.7,228.2,288.1z M227.5,292.9C227.5,292.9,227.5,292.9,227.5,292.9c0.1,0,0.1,0,0.1,0L227.5,292.9z
	 M239.4,295.8L239.4,295.8l-0.1-0.2h0.1V295.8z M239.9,295.4L239.9,295.4L239.9,295.4L239.9,295.4z M248.1,293.3v-0.2
	c0.1,0.1,0.2,0.1,0.2,0.2C248.2,293.5,248.1,293.4,248.1,293.3z M248.9,293.2L248.9,293.2L248.9,293.2L248.9,293.2z M249.6,292.9
	c0,0-0.1,0-0.1-0.1C249.5,292.8,249.6,292.9,249.6,292.9z M249.6,293l0.1,0C249.6,293.1,249.6,293.1,249.6,293z M259.9,294.1
	C259.8,294.1,259.8,294.1,259.9,294.1l0-0.2L259.9,294.1L259.9,294.1z M261.1,289C261.1,289,261.1,289,261.1,289L261.1,289
	L261.1,289C261.1,288.9,261.1,289,261.1,289z M263.5,289.1L263.5,289.1C263.4,289,263.5,289,263.5,289.1z M263.9,291.4
	c0,0,0,0-0.1,0.1l-0.1,0.4c-0.3,0.1-0.5,0.2-0.5,0.3l-0.5,0.5c-0.1,0.1-0.5,0.2-1.1,0.5l-0.2-0.2c-0.1-0.3-0.1-0.6-0.1-0.7v-0.2
	c0-0.1,0-0.2,0-0.3c0-0.1,0-0.2,0-0.3c0.1-0.1,0.1-0.3,0.1-0.5c0-0.2,0-0.3,0-0.4c0-0.1,0.1-0.3,0.1-0.4c0.1-0.2,0.1-0.3,0.1-0.4
	c0.1,0,0.2,0,0.3,0l-0.2-0.5c0.2,0.3,0.3,0.5,0.5,0.7l0.1,0.1v0v0c0,0,0,0,0.1,0c0.3,0.4,0.8,0.7,1.4,1l0.1,0.2
	C264,291.4,263.9,291.4,263.9,291.4z M265.4,289.1L265.4,289.1L265.4,289.1L265.4,289.1z M265.5,286.7c0,0.1,0,0.3,0,0.5
	c0,0.2,0,0.4,0,0.6c-0.1,0.2-0.2,0.4-0.2,0.7c-0.1,0.2-0.2,0.5-0.3,0.7c-0.1,0.1-0.3,0.1-0.5,0c-0.2-0.2-0.4-0.3-0.5-0.3
	c-0.1-0.1-0.1-0.2-0.2-0.3c-0.1-0.1-0.1-0.3-0.2-0.4l0.2-1.4c0,0,0-0.1,0.1-0.3c0.1-0.2,0.1-0.3,0.3-0.5c0.1,0,0.1-0.2,0.2-0.4
	c0.1-0.1,0.3-0.2,0.6-0.5c0.1,0.1,0.2,0.1,0.2,0.1c0.2,0.4,0.4,0.7,0.4,1.1C265.6,286.4,265.5,286.5,265.5,286.7z M266.3,284.9
	L266.3,284.9l0.2,0C266.5,285,266.4,285,266.3,284.9z M273.9,290.2c0,0,0-0.1,0-0.1L273.9,290.2z M285.1,294.5L285.1,294.5l0.1,0
	C285.2,294.5,285.1,294.5,285.1,294.5z M285.3,294.6c0.1,0,0.2,0.1,0.2,0.2C285.3,294.8,285.2,294.7,285.3,294.6z M285.6,294.9
	c-0.1,0-0.2-0.1-0.2-0.2C285.5,294.8,285.6,294.8,285.6,294.9l0.2,0.1C285.7,295.1,285.6,295.1,285.6,294.9z M285.9,294.1
	c0,0.1,0,0.2,0,0.3C285.8,294.3,285.8,294.2,285.9,294.1z M286,294.4c0.1,0,0.1,0,0.1,0C286,294.5,286,294.5,286,294.4z
	 M286.6,294.2L286.6,294.2L286.6,294.2L286.6,294.2z M296.3,292.9c0.1-0.1,0.1,0,0.1,0C296.4,292.9,296.4,292.9,296.3,292.9z
	 M296.7,293.3l-0.2-0.3h0.1C296.8,293,296.8,293.1,296.7,293.3z M297.9,288.1c0.4-0.6,0.8-1.3,1.4-2c0.1,0,0.2,0,0.2,0
	c0.1,0.2,0.1,0.6-0.2,1.4c-0.1,0.3-0.2,0.5-0.3,0.8c-0.1,0.2-0.2,0.4-0.3,0.6c-0.4,0.4-0.8,0.8-1.5,1.4
	C297.3,289.4,297.5,288.7,297.9,288.1z M297.2,292.9C297.2,292.9,297.3,292.9,297.2,292.9c0.1,0,0.1,0,0.1,0L297.2,292.9z
	 M321,297.7c0,0,0.1,0,0.1-0.1l-0.2,0C320.9,297.7,321,297.7,321,297.7z M330.6,276L330.6,276l-0.1,0.1
	C330.5,276.1,330.5,276.1,330.6,276z M326.6,293.5L326.6,293.5C326.6,293.6,326.6,293.5,326.6,293.5L326.6,293.5z M326.5,293.6
	c0.1,0.1,0.1,0.1,0.1,0.1L326.5,293.6L326.5,293.6z M320.5,297.3c0,0.1,0.1,0.2,0.2,0.2C320.7,297.3,320.6,297.3,320.5,297.3z
	 M320.6,297.4c0,0.1,0,0.2,0.1,0.2c0,0,0-0.1,0-0.1C320.7,297.5,320.7,297.4,320.6,297.4z M320.8,297.6L320.8,297.6L320.8,297.6
	L320.8,297.6L320.8,297.6z M343.7,288.2c-0.1-0.1-0.3-0.1-0.5-0.1c-0.4,0-0.6,0.1-0.9,0.3c-1,0.8-1.8,1.3-2.3,1.6
	c-0.5,0.3-1,0.4-1.6,0.4c-0.5,0-0.9-0.1-1.4-0.2c0,0,0.1-0.3,0.3-0.8c0.2-0.6,0.3-0.9,0.3-0.9c0-0.1,0-0.3,0.1-0.5l0.1-0.6
	c0.1-0.2,0-0.5,0-0.9c-0.1-0.3-0.2-0.6-0.3-0.8c-0.4-0.7-0.9-1.2-1.6-1.6c-0.3-0.1-0.6-0.1-0.9-0.1c-0.2,0-0.5,0-0.9,0.1
	c-0.1,0-0.3,0.1-0.4,0.2c-0.2,0.1-0.3,0.2-0.3,0.2c-0.7,0.3-1.3,0.8-1.7,1.6c-0.3,0.7-0.5,1.4-0.6,2.1l0.1,0.3
	c-0.1,0.2-0.1,0.3-0.2,0.3c-0.1,0-0.2,0-0.3-0.1c-0.1-0.1-0.1-0.1-0.2-0.1c0,0,0,0,0,0c0,0-0.1,0-0.1,0c0,0,0,0-0.1,0c0,0,0,0,0,0
	c0,0,0,0,0,0c0,0,0,0,0,0c-0.1,0-0.1,0.1-0.2,0.1c0,0-0.1,0.1-0.1,0.1c-0.2-0.1-0.3-0.1-0.4-0.1c-0.4,0.5-0.6,1-0.7,1.7c0,0,0,0,0,0
	c-0.3,0.5-0.6,1.1-1.1,1.7c-0.2,0.3-0.4,0.5-0.5,0.8c-0.1,0.3-0.3,0.5-0.4,0.7l0.1,0.1c0,0,0,0.1-0.1,0.1v0c-0.4,0.4-0.7,0.8-0.9,1
	c-0.2,0.3-0.4,0.6-0.7,0.8c-0.3,0.2-0.7,0.6-1,1c-0.1,0.1-0.5,0.3-1.1,0.6c-0.5-0.1-0.8-0.5-1-0.9c-0.3-0.8-0.4-1.4-0.4-1.9
	c0-0.2,0-0.5,0.1-0.9l0-0.8c0-0.3,0.1-0.8,0.2-1.7c0.1-0.5,0.2-1,0.2-1.6l0.1-0.2l0.1,0c0.1-0.7,0.2-1.2,0.5-1.5
	c0.3-0.4,0.5-0.6,0.7-0.8c0.4-0.4,0.8-0.9,1.2-1.3c0,0,0.3-0.3,0.8-0.9c0.3-0.3,0.4-0.5,0.4-0.7h-0.2l0.1-0.1l0.1,0.1
	c0.1,0,0.2-0.1,0.2-0.2c0.1-0.1,0.1-0.2,0.2-0.2c0-0.1,0-0.1,0-0.2l0.2-0.1c0.1-0.1,0.2-0.2,0.3-0.3c0.1-0.2,0.2-0.3,0.3-0.3
	c0-0.1,0-0.1,0-0.1l0.3-0.5l0.1-0.1l0-0.1c0.2-0.1,0.3-0.2,0.4-0.4c0.1-0.2,0.2-0.3,0.2-0.3c0.5-0.7,0.8-1.1,1-1.2
	c0.2-0.1,0.6-0.1,1.1-0.2c0.8-0.1,1.4-0.2,1.8-0.2c0.5,0,1.3-0.1,2.4-0.4l0.2-0.1l-0.2-0.4c-0.4-0.3-0.8-0.4-1.3-0.4
	c-0.1,0-0.2,0-0.4,0c-0.2,0-0.4,0-0.5,0.1c-0.1,0-0.3,0-0.5,0c-0.2,0-0.3,0-0.4,0c-0.2,0.1-0.4,0.1-0.8,0.1h-0.5l-0.2,0
	c0.1-0.2,0.3-0.4,0.4-0.7c0.1-0.3,0.2-0.5,0.2-0.6c0.1-0.1,0.1-0.3,0.1-0.5v-0.1l-0.1-0.1c0.1-0.1,0.1-0.1,0.1-0.1v0l0.3-0.3
	l0.1-0.8c0.1-0.2,0.1-0.5,0.1-0.8c0-0.4-0.1-0.7-0.2-1c-0.1-0.1-0.3-0.2-0.5-0.3c-0.2-0.2-0.4-0.2-0.6-0.2c-0.6-0.1-1.1,0-1.6,0.2
	c0,0-0.1,0.1-0.3,0.1c-0.2,0-0.3,0.1-0.3,0.3v0.1c-0.2,0.1-0.4,0.4-0.7,0.7l-0.6,0.6v0.2l-0.6,0.5l0,0l0.1,0h-0.1v0l-0.2,0.2
	l-0.3,0.6c-0.3,0.4-0.6,1-1.1,2c-0.1,0.2-0.2,0.5-0.4,0.7c-0.5,0.2-1.1,0.4-1.8,0.5c-0.2,0.1-0.5,0.2-1,0.4
	c-0.4,0.2-0.8,0.4-1.1,0.6l-0.2,0.4c0.2,0.1,0.3,0.2,0.3,0.2l0.2,0.3c0.3,0.1,0.6,0.1,0.7,0.1c0.3,0,0.6,0,0.9-0.1
	c0.2,0,0.5-0.1,1.1-0.2c0,0,0,0.1,0,0.1c0,0,0,0.1,0,0.1c-0.1,0.1-0.2,0.3-0.3,0.6c-0.1,0.3-0.2,0.5-0.3,0.6
	c-0.1,0.2-0.2,0.4-0.3,0.7c-0.1,0.3-0.2,0.5-0.2,0.6c-0.4,0.8-0.6,1.4-0.7,1.8c-0.1,0.4-0.2,0.8-0.4,0.9c0.1,0.2,0.1,0.5-0.2,0.8
	c-0.3,0.8-0.7,2.1-1.1,3.9c-0.1,0.5-0.2,0.9-0.2,1.1c0,0.2,0,0.5,0,1c0,1.1,0.1,2,0.3,2.6c0.1,0.3,0.2,0.7,0.4,1.1l0.5,0.5h0.1v-0.3
	c-0.1,0-0.2-0.1-0.3-0.3c0.1,0,0.2,0.1,0.2,0.1c0,0,0,0.1,0,0.2c0.4,0.2,0.6,0.5,0.7,0.7h0c0.1,0,0.2,0.1,0.3,0.1
	c0.1,0.1,0.2,0.1,0.3,0.1c0.5,0.1,0.9,0.2,1.3,0.2c0.7,0,1.3-0.2,1.9-0.5c0.1-0.1,0.6-0.3,1.3-0.9l0-0.1l0.1-0.4l0.7-0.7
	c0.1-0.1,0.2-0.2,0.3-0.4c0.1-0.2,0.2-0.3,0.3-0.4c0.1-0.1,0.2-0.2,0.3-0.4c0.1-0.2,0.2-0.3,0.4-0.4c0.1-0.2,0.2-0.3,0.3-0.4
	c0,0.1,0,0.1,0.1,0.2c0.1,0.2,0.2,0.4,0.4,0.5c0.1,0.1,0.4,0.3,0.9,0.6l1.4,0c0.6-0.1,1.1-0.1,1.3-0.2c0.1,0,0.2-0.1,0.6-0.3
	c0.1-0.1,0.3-0.2,0.5-0.3c0.2-0.1,0.5-0.3,0.7-0.4c0.2-0.1,0.4-0.3,0.5-0.6c0.1-0.1,0.2-0.3,0.5-0.8c0.3-0.4,0.4-0.6,0.5-0.7
	c0.8,0.2,1.5,0.3,2.1,0.3c2.2,0,4-0.9,5.5-2.8c0.2-0.2,0.2-0.4,0.2-0.6C343.9,288.4,343.9,288.3,343.7,288.2z M326.5,280.1
	L326.5,280.1L326.5,280.1L326.5,280.1z M326.3,278.3c0-0.1,0.1-0.2,0.1-0.3c0-0.1,0-0.1,0-0.1c0.3-0.3,0.6-0.8,0.8-1.3
	c0.1-0.1,0.2-0.3,0.3-0.6c0.2-0.3,0.4-0.6,0.6-0.8c0.1-0.1,0.2-0.2,0.3-0.3c0.1-0.1,0.2-0.3,0.3-0.4c0-0.1,0.1-0.1,0.1-0.1
	c0.1,0,0.1,0,0.2,0.1l0,0.5l-0.1,0.4c-0.1,0.2-0.2,0.5-0.2,0.7c-0.1,0.2-0.2,0.5-0.2,0.7l-0.3,0.7c-0.1,0.2-0.2,0.4-0.3,0.6
	s-0.2,0.3-0.3,0.4l-1.1,0.2C326.3,278.5,326.3,278.4,326.3,278.3z M324.5,282.3c0-0.1,0-0.2,0-0.2c0.2-0.5,0.4-0.9,0.6-1.3
	c0.1-0.1,0.1-0.3,0.2-0.5c0.2-0.1,0.3-0.1,0.5-0.1c0.1,0,0.2,0,0.3,0.1c-0.2,0.3-0.5,0.8-1.1,1.5l-0.6,0.7V282.3z M320.1,296
	L320.1,296L320.1,296L320.1,296z M320,296.5c0.1-0.1,0.1,0,0.1,0L320,296.5z M321.2,296.9C321.2,296.9,321.2,296.9,321.2,296.9
	C321.2,296.9,321.2,296.9,321.2,296.9L321.2,296.9z M321.3,297.1c0,0,0,0,0-0.1L321.3,297.1C321.4,297.1,321.4,297.1,321.3,297.1z
	 M321.3,295.8L321.3,295.8L321.3,295.8L321.3,295.8z M322,297c-0.1,0-0.1-0.1-0.1-0.1c0-0.1,0-0.2,0-0.3c0.1,0.2,0.2,0.3,0.4,0.4
	C322.1,297,322,297.1,322,297z M329.8,294.1C329.7,294.1,329.7,294.1,329.8,294.1l0-0.2L329.8,294.1L329.8,294.1z M331,289
	C331,289,331,289,331,289L331,289L331,289C331,288.9,331,289,331,289z M333.4,289.1L333.4,289.1C333.4,289,333.4,289,333.4,289.1z
	 M333.8,291.4c0,0,0,0-0.1,0.1l-0.1,0.4c-0.3,0.1-0.5,0.2-0.5,0.3l-0.5,0.5c-0.1,0.1-0.5,0.2-1.1,0.5l-0.2-0.2
	c-0.1-0.3-0.1-0.6-0.1-0.7v-0.2c0-0.1,0-0.2,0-0.3c0-0.1,0-0.2,0-0.3c0.1-0.1,0.1-0.3,0.1-0.5c0-0.2,0-0.3,0-0.4
	c0-0.1,0.1-0.3,0.1-0.4c0.1-0.2,0.1-0.3,0.1-0.4c0.1,0,0.2,0,0.3,0l-0.2-0.5c0.2,0.3,0.3,0.5,0.5,0.7l0.1,0.1v0v0c0,0,0,0,0.1,0
	c0.3,0.4,0.8,0.7,1.4,1l0.1,0.2C333.9,291.4,333.8,291.4,333.8,291.4z M335.3,289.1L335.3,289.1L335.3,289.1L335.3,289.1z
	 M335.4,286.7c0,0.1,0,0.3,0,0.5c0,0.2,0,0.4,0,0.6c-0.1,0.2-0.2,0.4-0.2,0.7c-0.1,0.2-0.2,0.5-0.3,0.7c-0.1,0.1-0.3,0.1-0.5,0
	c-0.2-0.2-0.4-0.3-0.5-0.3c-0.1-0.1-0.1-0.2-0.2-0.3c-0.1-0.1-0.1-0.3-0.2-0.4l0.2-1.4c0,0,0-0.1,0.1-0.3c0.1-0.2,0.2-0.3,0.3-0.5
	c0.1,0,0.2-0.2,0.2-0.4c0.1-0.1,0.3-0.2,0.6-0.5c0.1,0.1,0.2,0.1,0.2,0.1c0.2,0.4,0.4,0.7,0.4,1.1
	C335.5,286.4,335.5,286.5,335.4,286.7z M336.2,284.9L336.2,284.9l0.2,0C336.4,285,336.3,285,336.2,284.9z M332.2,289.9
	c0-0.1-0.1-0.2-0.2-0.2C332,289.8,332.1,289.9,332.2,289.9z M332.2,289.9l0.2,0.2h0L332.2,289.9L332.2,289.9L332.2,289.9z"/>
<g>
	<path class="st1" d="M436.6,362.5c-3.8-2.5-6.5-4.7-8.5-6.9c-0.7-0.8-1.4-1.6-2-2.4c-0.2,0.2-0.4,0.5-0.6,0.7
		c-3.1,3.3-6.5,6.2-10.2,8.6l-2.8,1.8l-2.9-1.7c-5.2-3.1-9-6.2-11.8-9.5c-4.4-5.3-7-13-7.8-22.7c-0.3-3.1-0.4-6.2-0.4-9
		c0-1.8,0-3,0-3.7c-0.2,0-0.5-0.1-0.8-0.1l-4.7-0.6v-13.3h89.5l-9.8-9.8l14.6-14.4l14.3,14.4l-9.6,9.8h32.8c1.5-1,3.2-2,4.9-2.9
		l2.5-1.3l2.5,1.3c5,2.6,8.9,5.7,11.7,9c4.5,5.4,7.1,13.1,8,23c0.3,3.2,0.4,6.3,0.4,9.3c0,2.1,0,3.4,0.1,4.2c0.1,0,0.2,0,0.3,0
		c0.5,0,1,0.1,1.5,0.2l4.4,0.8v13.1h-89.4v-13.2c0,0,6.4-0.9,6.5-0.9c0-0.4,0-0.8,0-1.3V319c0-0.5,0-0.9,0-1.2
		c-0.5-0.1-1-0.1-1.6-0.2l-3.2-0.3l-1.3,0.2c-0.3,0-0.6,0.1-0.8,0.1c0,0.6-0.1,1.4-0.1,2.4c0,3.7-0.1,7.1-0.4,10.3
		c-0.3,3.3-0.7,6.3-1.3,8.9c-0.6,2.8-1.5,5.3-2.5,7.5c-1.1,2.3-2.4,4.4-4,6.3c-2.7,3.3-6.6,6.4-11.8,9.5l-2.9,1.7L436.6,362.5z
		 M488.3,346.2l5.6,0.9l0.2-0.1c0.8-0.4,1.7-0.6,2.7-0.7c0.2,0,0.4,0,0.8-0.1c0-0.3,0-0.7,0-1.1c0,0,0-27.2,0-27.3
		c-0.4,0-0.9-0.1-1.5-0.1l-4.1-0.3l-2.6,0.3c-0.6,0.1-1.2,0.1-1.7,0.2c0,0.3,0,0.7,0,1.2v25.8c0,0.5,0,1,0,1.3
		C488,346.1,488.1,346.2,488.3,346.2z M521.7,346.8l3.5-0.4c0.6-0.1,1.2-0.2,1.7-0.2c0-0.5,0.1-1.1,0.1-2v-4.4
		c0-6.9-0.2-10-0.4-11.4c-0.2-2-0.5-3.6-0.9-4.7c-0.3-1-0.7-2-1.2-3c-0.6-1-1.3-1.9-2.2-2.9c-4.2,3.5-6.2,7.8-6.2,13.2v12.9
		c0,1,0,1.8,0.1,2.4c0.2,0,0.5,0.1,0.8,0.1L521.7,346.8z M435.2,317.7c0,0.6-0.1,1.3-0.1,2.3c0,3.3,0,6.2,0.1,8.6
		c0.1,2.3,0.2,4.4,0.5,6.1c0.2,1.6,0.5,3.1,0.9,4.3c0.3,1.1,0.8,2.2,1.3,3.1c0.4,0.7,1,1.6,1.7,2.4c0.8-1,1.4-2,1.9-3
		c1.1-2.1,1.7-4.4,2-6.7c0.4-3.9,0.7-7.9,0.7-11.8c0-2.7,0-4.4,0-5.4c-0.3,0-0.6-0.1-1-0.1l-3.9-0.4l-2.6,0.3
		C435.9,317.6,435.5,317.7,435.2,317.7z M407.9,317.7c0,0.4,0,0.9,0,1.6c0,2.8,0,5.5,0.1,7.9c0.1,2.3,0.2,4.5,0.4,6.3
		c0.2,1.7,0.5,3.3,0.8,4.6c0.3,1.2,0.8,2.4,1.3,3.5c0.5,0.9,1.1,1.9,1.9,3c0.8-1,1.2-1.7,1.4-2c0.8-1.6,1.4-3,1.7-4.1
		c0.3-1.3,0.6-2.7,0.8-4.3c0.3-2.6,0.5-6,0.5-10.1c0-3.5,0-5.4-0.1-6.4c-0.3,0-0.6-0.1-1-0.1l-3.2-0.3l-3.7,0.3
		C408.5,317.6,408.1,317.6,407.9,317.7z M574.7,361.2c-7.9,0-14.5-3.2-19.5-9.6c-4.4-5.5-6.7-12.2-6.7-19.8c0-7.6,2.1-14.2,6.2-19.7
		c4.6-6.2,11.2-9.5,19.1-9.7c-3.5-3.8-8.1-6.3-13.9-7.6l-5.4-1.2l3.2-13.5l4.9,0.7c13.1,1.9,23.1,7.6,29.9,16.9
		c5.9,8.2,8.9,18.4,8.9,30.4c0,9.7-2.3,17.6-7,23.6C589.6,358,582.9,361.2,574.7,361.2z M575.2,317.4c-2.6,0-4,0.9-5.2,3.2
		c-1.3,2.6-2,6.4-2,11.4c0,4.7,0.7,10.9,4.2,13.5c0.6,0.4,1.5,0.7,2.8,0.7c1.4,0,2.4-0.3,3.1-0.8c0.8-0.6,1.5-1.4,2-2.5
		c0.8-1.9,1.9-5.8,1.9-13.8C582.1,317.4,577.6,317.4,575.2,317.4z M231.3,361.2c-8.4,0-15.2-3.2-20.2-9.6c-1-1.2-1.8-2.5-2.5-3.9
		v12.6h-35v-12.9l4.2-0.9c0.3-0.1,0.5-0.1,0.8-0.2c0-0.5,0.1-1.1,0.1-1.9V319h-6.5v-13.6l4.6-0.7c1.3-0.2,2.3-0.4,2.9-0.5
		c0.1-0.4,0.2-1,0.3-1.8c0.5-3.1,0.7-4.6,0.7-5.4l0.3-3.3l16-6.6v16.4h13.8v9c0.1-0.2,0.3-0.3,0.4-0.5c1.5-1.9,3.3-3.5,5.3-4.9
		c4.3-2.9,9.2-4.4,14.8-4.4c8.4,0,15.2,3.1,20.2,9.2c4.4,5.4,6.6,12,6.6,19.7c0,7.7-2.2,14.4-6.5,19.9
		C246.6,358,239.8,361.2,231.3,361.2z M231.4,317.7c-2.3,0-4.9,0.5-6.4,6.3c-0.6,2.2-0.9,4.8-0.9,7.8c0,5.5,0.8,12.3,4.9,14.1
		c0.6,0.3,1.4,0.4,2.4,0.4c1,0,1.8-0.1,2.4-0.4c0.6-0.3,1.1-0.6,1.6-1.1c0.5-0.6,1-1.2,1.4-2c0.5-1,0.8-2,1.1-3.1
		c0.6-2.2,0.9-4.4,0.9-6.5c0-2.4-0.1-4.3-0.2-5.7c-0.1-1.3-0.3-2.5-0.6-3.7c-0.3-1.1-0.7-2.1-1.1-3c-0.4-0.7-0.8-1.3-1.3-1.8
		C234.9,318.5,233.8,317.7,231.4,317.7z M197.1,345.7c0.9,0.1,2.7,0.2,6.1,0.3l4.5,0.1c-2-4.3-3-9.1-3-14.3c0-2.3,0.2-4.7,0.7-7
		c0.4-2,1-3.9,1.7-5.7h-10v25.3C197.1,344.9,197.1,345.3,197.1,345.7z M147.8,361.2c-5.8,0-11.4-1.3-16.5-3.8c-4-2-7-4.7-8.8-7.9
		c-1.1-2-1.6-4.2-1.6-6.5c0-2.4,0.5-4.5,1.6-6.4c0.9-1.6,2.1-3.1,3.5-4.3c2.4-2.1,5.1-3.5,8.1-4l0.6-0.1c-2.1-1.4-3.8-2.9-5.3-4.4
		c-3.7-3.8-5.5-8.3-5.5-13.3c0-6.1,2.7-11.3,7.7-15c4.4-3.2,10-4.9,16.6-4.9c5.8,0,10.9,1,15,3c7.4,3.5,8.5,8.9,8.5,11.7
		c0,4.4-2,8.3-5.9,11c-1.3,1-3,1.8-4.9,2.3l-2.4,0.7l-9.7-6.4l3.4-4.6c0.5-0.7,0.7-1.2,0.7-1.3c0-0.2,0-0.3,0-0.4
		c-0.1-0.1-0.3-0.2-0.5-0.3c-1.2-0.7-3-1-5.3-1c-1.7,0-3,0.4-4,1.2c-0.7,0.6-0.9,1.2-0.9,2.1c0,0.9,0.2,2,1.8,3.3
		c1,0.8,2.3,1.7,3.8,2.5c7,3.6,11.4,5.9,13.5,7.1c2.3,1.3,4.5,2.8,6.3,4.4c4.7,4,7.1,8.6,7.1,13.9c0,7.3-3,13.1-8.7,16.8
		C161.3,359.7,155.2,361.2,147.8,361.2z M140.7,342.2c0,0,0,0.3,0.3,0.8c0.3,0.6,0.8,1.2,1.5,1.7c1.6,1.3,3.5,1.9,5.8,1.9
		c5.7,0,6.7-2,7-2.7c0.2-0.5,0.4-1.2,0.4-2.1c0-0.7-0.2-1.1-0.4-1.3c-0.6-0.8-1.3-1.5-2.3-2.1c-1.2-0.8-2.6-1.6-4.1-2.3
		c-1.9-0.9-4-1.9-6.4-3.2c-0.6-0.3-1.3-0.7-1.9-1l3.4,4l-2.5,3.4c-0.4,0.6-0.6,1-0.7,1.1C140.7,340.8,140.7,341.4,140.7,342.2
		L140.7,342.2z M303,360.3v-13.2l5.7-0.8c0.3,0,0.5-0.1,0.7-0.1c0-0.3,0-0.7,0-1.1c0,0,0-27.2,0-27.3c-0.4,0-0.9-0.1-1.4-0.1
		l-3.7-0.3c-0.4,2.7-1.7,5.3-3.8,7.5c-2.2,2.4-4.9,4-7.7,4.8l-2.7,0.7l-7.5-6l0,21.5c1,0.2,2.7,0.4,5.7,0.5l5.2,0.2v13.8h-36.2
		v-11.8l3.8-2l1.1-0.1c0.8-0.1,1.4-0.2,1.8-0.2c0-0.1,0-0.3,0-0.5v-26.4c0-0.7,0-1.2,0-1.6c-0.3-0.1-0.7-0.1-1.1-0.2l-4.8-0.6v-13.4
		h13.3c3.7,0,5.4-0.1,6.1-0.2c1.4-0.1,2.4-0.2,3.2-0.3c2.4-0.2,4.4-0.3,6-0.3c1.7,0,3.5,0.1,5.2,0.4c2,0.3,3.9,0.9,5.6,1.6
		c2.5,1.2,4.3,2.8,5.5,4.9v-6.2h24c1.5-1.1,3.1-2,4.8-2.9l2.6-1.3l2.5,1.4c3.7,2.1,6.4,4.1,8.4,6c0.8,0.8,1.6,1.7,2.3,2.6
		c1.7-1.9,3.6-3.6,5.8-5.2c1.4-1.1,3.1-2.2,4.9-3.3l2.7-1.7l2.8,1.6c5.4,3,9.4,6.1,12.4,9.4c4.6,5.3,7.4,12.9,8.2,22.7
		c0.3,3.2,0.4,6.3,0.4,9.2c0,2.2,0,3.5,0.1,4.2c0.1,0,0.2,0,0.3,0l6,0.8v13.3H303z M356.2,346.1c0.2,0,0.5,0.1,0.8,0.1l3.8,0.6
		l3.4-0.4c0.7-0.1,1.2-0.2,1.8-0.2c0-0.5,0.1-1.1,0.1-2l0-5.8c0.1-8.2-0.8-12.3-1.5-14.3c-0.7-1.9-1.8-3.8-3.5-5.7
		c-0.8,1-1.5,2-2,2.9c-1.1,2.1-1.8,4.5-2.1,7c-0.5,4.2-0.8,8.4-0.8,12.5C356.2,343.5,356.2,345.2,356.2,346.1z M332.9,346.8l2.9-0.4
		c0.6-0.1,1.2-0.2,1.7-0.2c0-0.4,0.1-1,0.1-1.8v-4.6c0-10-0.6-13.8-1-15.1c-0.7-2.3-1.4-4.2-2.3-5.5c-0.3-0.4-0.6-0.8-1-1.3
		c-1.1,1-2.1,2.1-2.8,3.2c-1.7,2.7-2.6,5.9-2.6,9.7v12.9c0,1,0,1.8,0.1,2.4c0.2,0,0.5,0.1,0.8,0.1L332.9,346.8z M282.6,321.7
		l2.9-2.8c0.1-0.1,0.3-0.4,0.4-1.1c-0.3,0-0.8-0.1-1.4-0.1c-0.8,0-1.4,0.1-1.8,0.1V321.7z"/>
	<path class="st2" d="M437.6,361c-3.6-2.4-6.3-4.6-8.2-6.6c-1.3-1.4-2.4-2.8-3.4-4.2c-0.6,0.9-1.3,1.8-2,2.5c-3,3.2-6.3,6-9.8,8.3
		l-1.9,1.2l-1.9-1.1c-5-3-8.7-6-11.3-9.1c-4.2-5-6.7-12.3-7.4-21.7c-0.3-3.1-0.4-6.1-0.4-8.9c0-3.3-0.1-4.6-0.1-5c0-0.1,0-0.1,0-0.2
		c-0.4-0.1-1.1-0.3-2.3-0.5l-3.1-0.4v-9.9H412v10.1l-3.3,0.3c-1.4,0.1-2.1,0.3-2.5,0.4c-0.1,0.5-0.2,1.4-0.2,3.1
		c0,2.8,0,5.5,0.1,7.9c0.1,2.4,0.2,4.6,0.4,6.5c0.2,1.8,0.5,3.4,0.9,4.9c0.4,1.4,0.9,2.7,1.5,3.9c0.8,1.6,2,3.2,3.5,5
		c1.8-2,2.6-3.3,3.1-4c0.9-1.7,1.5-3.2,1.8-4.5c0.4-1.4,0.6-2.9,0.8-4.6c0.3-2.7,0.5-6.1,0.5-10.2c0-5.4-0.1-7.1-0.1-7.5
		c0-0.1,0-0.3-0.1-0.4c-0.5-0.1-1.3-0.3-2.5-0.4l-3.3-0.3v-10.1h26.7v10l-3.1,0.4c-1.1,0.1-2,0.3-2.6,0.4c-0.1,0.6-0.2,1.7-0.2,3.8
		c0,3.3,0,6.2,0.1,8.7c0.1,2.4,0.2,4.5,0.5,6.3c0.2,1.7,0.5,3.3,0.9,4.6c0.4,1.2,0.9,2.4,1.5,3.5c0.7,1.3,1.8,2.8,3.3,4.4
		c1.5-1.8,2.7-3.4,3.5-5c1.2-2.3,1.9-4.8,2.1-7.3c0.4-4,0.7-8,0.7-12c0-4.8-0.1-6.4-0.1-6.9c-0.4-0.1-1.2-0.3-2.6-0.4l-3.3-0.3
		v-10.1h38l-11.7-11.6l12.1-11.9l11.8,11.9l-11.4,11.6h13.9v10.1l-3.2,0.3c-1.3,0.1-2.4,0.3-3.1,0.4c-0.1,0.5-0.2,1.3-0.2,2.8v25.8
		c0,1.4,0.1,2.3,0.1,2.8c0.5,0.1,1.1,0.2,1.9,0.4l4.5,0.7v9.8h-28v-9.9l4.4-0.6c0.8-0.1,1.4-0.2,2-0.3c0.1-0.5,0.2-1.4,0.2-2.9V319
		c0-1.5-0.1-2.4-0.2-2.8c-0.8-0.1-1.8-0.3-3.1-0.4l-3.3-0.3v0l-1.6,0.2c-1.1,0.1-1.8,0.3-2.2,0.4c-0.1,0.6-0.2,1.8-0.2,3.9
		c0,3.6-0.1,7-0.4,10.2c-0.3,3.2-0.7,6.1-1.3,8.7c-0.6,2.6-1.4,5-2.4,7.1c-1,2.2-2.3,4.2-3.8,5.9c-2.6,3.1-6.3,6.1-11.3,9.1
		l-1.9,1.2L437.6,361z M574.7,359.4c-7.4,0-13.5-3-18.1-8.9c-4.2-5.2-6.3-11.5-6.3-18.7c0-7.2,2-13.4,5.9-18.6c4.5-6,10.6-9,18.3-9
		c1.1,0,2.2,0.1,3.2,0.2c-3.9-5.9-9.6-9.7-17.3-11.4l-3.6-0.8l2.4-10.1l3.3,0.5c12.6,1.9,22.2,7.3,28.7,16.2
		c5.7,7.9,8.6,17.8,8.6,29.3c0,9.3-2.2,16.9-6.6,22.4C588.6,356.5,582.4,359.4,574.7,359.4z M575.2,315.6c-3.2,0-5.3,1.3-6.8,4.2
		c-1.5,2.8-2.2,6.9-2.2,12.2c0,7.4,1.6,12.5,4.9,15c0.9,0.7,2.2,1,3.9,1c1.8,0,3.1-0.4,4.2-1.1c1.1-0.8,2-1.8,2.6-3.2
		c1.3-3,2-7.9,2-14.6C583.9,315.6,577.8,315.6,575.2,315.6z M231.3,359.4c-7.9,0-14.2-3-18.8-9c-4-5.2-6-11.5-6-18.8
		c0-2.2,0.2-4.4,0.7-6.6c0.4-2.2,1.1-4.3,2-6.3c0.9-2,2.1-3.9,3.5-5.6c1.4-1.7,3.1-3.3,4.9-4.5c4-2.7,8.6-4,13.8-4
		c7.9,0,14.2,2.9,18.8,8.6c4.1,5,6.2,11.3,6.2,18.6c0,7.3-2.1,13.6-6.1,18.8C245.5,356.5,239.2,359.4,231.3,359.4z M231.4,315.9
		c-2.9,0-6.4,0.9-8.1,7.6c-0.6,2.3-0.9,5.1-0.9,8.2c0,8.7,2,14,6,15.7c0.8,0.4,1.9,0.5,3.1,0.5c1.2,0,2.3-0.2,3.1-0.5
		c0.9-0.4,1.6-0.8,2.2-1.5c0.7-0.7,1.2-1.5,1.7-2.4c0.5-1.1,0.9-2.2,1.3-3.5c0.6-2.3,0.9-4.7,0.9-6.9c0-2.4-0.1-4.4-0.2-5.9
		c-0.1-1.4-0.4-2.7-0.7-3.9c-0.3-1.2-0.7-2.3-1.2-3.3c-0.4-0.9-1-1.6-1.6-2.3C235.4,316.6,233.7,315.9,231.4,315.9z M147.8,359.4
		c-5.6,0-10.8-1.2-15.7-3.6c-3.7-1.8-6.4-4.3-8-7.2c-0.9-1.7-1.4-3.6-1.4-5.6c0-2,0.5-3.9,1.4-5.6c0.8-1.5,1.9-2.7,3.1-3.8
		c2.2-1.9,4.6-3.1,7.2-3.6l2.1-0.4l5.2,6.2l-1.7,2.3c-0.9,1.2-1,1.7-1,1.7c-0.1,0.7-0.2,1.5-0.2,2.4c0,0.4,0.2,1,0.6,1.7
		c0.5,0.8,1.1,1.5,1.9,2.2c1.9,1.5,4.2,2.3,6.9,2.3c6.9,0,8.2-2.8,8.6-3.8c0.4-0.8,0.5-1.7,0.5-2.9c0-0.9-0.2-1.7-0.7-2.4
		c-0.7-0.9-1.6-1.8-2.7-2.6c-1.3-0.9-2.8-1.7-4.4-2.5c-1.9-0.9-4-1.9-6.3-3.1c-2.4-1.2-4.7-2.6-6.9-4c-2.3-1.5-4.2-3.1-5.7-4.6
		c-3.3-3.5-5-7.5-5-12.1c0-5.6,2.4-10.2,7-13.6c4.1-3,9.3-4.5,15.5-4.5c5.6,0,10.4,1,14.3,2.8c6.1,2.9,7.4,7.1,7.4,10.1
		c0,3.8-1.8,7.2-5.1,9.6c-1.2,0.9-2.6,1.6-4.3,2.1l-1.6,0.5l-7.4-4.9l2.3-3c0.7-0.9,1-1.7,1-2.3c0-0.8-0.1-1.2-0.2-1.3
		c-0.3-0.4-0.7-0.7-1.2-1c-1.5-0.8-3.6-1.2-6.2-1.2c-2.1,0-3.8,0.5-5.1,1.6c-1.1,0.9-1.6,2-1.6,3.5c0,1.8,0.8,3.3,2.5,4.7
		c1.1,0.9,2.5,1.8,4.1,2.7c6.8,3.5,11.4,5.9,13.4,7.1c2.2,1.2,4.3,2.6,6,4.2c4.3,3.6,6.4,7.8,6.4,12.5c0,6.6-2.7,11.9-7.9,15.3
		C160.7,358,154.9,359.4,147.8,359.4z M522.3,358.5v-9.9l3.2-0.4c1.3-0.2,2.4-0.3,3.1-0.5c0.1-0.5,0.2-1.6,0.2-3.5v-4.4
		c0-5.6-0.1-9.5-0.4-11.6c-0.3-2.1-0.6-3.7-0.9-5c-0.3-1.2-0.8-2.3-1.4-3.4c-0.8-1.4-2-2.9-3.6-4.4c-5.5,4.1-8.2,9.2-8.2,15.6v12.9
		c0,2.2,0.1,3.3,0.2,3.9c0.5,0.1,1.2,0.2,2.3,0.4l4.1,0.5v10h-28v-8.9l2-1c0.6-0.3,1.3-0.5,2-0.5c0.2,0,0.5-0.1,1-0.1
		c0.4-0.1,0.9-0.1,1.3-0.2c0.1-0.5,0.2-1.3,0.2-2.7v-27.1c0-0.8,0-1.4-0.1-1.7c0,0,0,0,0,0c-0.7-0.1-1.7-0.3-3-0.3l-3.3-0.2v-10.2
		h21.4v1.5c2.1-1.7,4.5-3.3,7.2-4.6l1.7-0.8l1.7,0.9c4.8,2.5,8.5,5.4,11.2,8.5c4.2,5.1,6.8,12.5,7.6,22c0.3,3.2,0.4,6.2,0.4,9.1
		c0,3.4,0.1,4.8,0.1,5.4c0,0.1,0,0.3,0,0.4c0.3,0.1,0.6,0.1,0.9,0.2c0.4,0.1,0.8,0.1,1,0.1c0.4,0,0.9,0.1,1.3,0.1l3,0.5v9.8H522.3z
		 M361.3,358.5v-9.9l3.2-0.4c1.3-0.2,2.4-0.3,3.2-0.5c0.1-0.5,0.3-1.6,0.3-3.5l0-5.8c0-6.8-0.5-11.8-1.6-14.9
		c-0.9-2.5-2.7-5.1-5.2-7.8c-1.6,1.6-2.7,3.2-3.6,4.8c-1.2,2.3-2,4.9-2.3,7.6c-0.5,4.3-0.8,8.6-0.8,12.7c0,4.7,0.1,6.3,0.1,6.8
		c0.4,0.1,1.1,0.3,2.3,0.5l4.1,0.6v9.9h-28v-9.9l3.2-0.4c1.3-0.2,2.4-0.3,3.2-0.4c0.1-0.5,0.2-1.5,0.2-3.3v-4.6
		c0-9.7-0.6-13.8-1.1-15.6c-0.7-2.5-1.6-4.5-2.6-6c-0.6-0.9-1.4-1.8-2.3-2.7c-1.9,1.5-3.4,3.1-4.5,4.8c-1.9,3-2.8,6.5-2.8,10.7v12.9
		c0,2.2,0.1,3.3,0.2,3.9c0.5,0.1,1.2,0.2,2.3,0.4l4.1,0.5v10h-28v-9.9l4.2-0.6c1.1-0.2,1.8-0.3,2.2-0.4c0.1-0.5,0.1-1.3,0.1-2.6
		v-27.1c0-0.8,0-1.4-0.1-1.7c0,0,0,0,0,0c-0.7-0.1-1.7-0.3-3-0.3l-3.3-0.2v-10.2h21.4v1.1c1.9-1.6,4.1-3,6.4-4.2l1.7-0.9l1.7,1
		c3.5,2,6.2,3.9,8,5.7c1.3,1.4,2.5,2.8,3.5,4.2c1.9-2.4,4.2-4.6,7-6.7c1.4-1.1,3-2.2,4.7-3.3l1.8-1.1l1.9,1c5.1,2.9,9.1,5.9,11.9,9
		c4.4,5,7,12.3,7.8,21.7c0.3,3.1,0.4,6.2,0.4,9c0,3.5,0.1,4.8,0.2,5.2c0,0.2,0.1,0.4,0.1,0.5c0.4,0.1,0.9,0.2,1.6,0.3l4.5,0.6v9.9
		H361.3z M259.1,358.5v-8.9l2.6-1.3l0.7-0.1c1.9-0.2,2.9-0.4,3.4-0.5c0-0.4,0.1-1,0.1-2v-26.4c0-1.8-0.1-2.6-0.2-3
		c0,0-0.1,0-0.1-0.1c-0.4-0.1-1.1-0.3-2.4-0.5l-3.2-0.4v-10h11.5c3,0,5.1-0.1,6.3-0.2c1.4-0.1,2.4-0.2,3.2-0.3
		c2.3-0.2,4.3-0.3,5.8-0.3c1.6,0,3.3,0.1,5,0.4c1.9,0.3,3.6,0.8,5,1.5c3.8,1.8,5.9,5,5.9,8.9c0,3-1.2,5.8-3.5,8.2
		c-2,2.1-4.3,3.6-6.9,4.3l-1.8,0.5l-6.7-5.4l2.9-2.8c0.9-0.8,1-2.4,1-3.6c0,0,0,0,0,0c0,0-0.1-0.1-0.2-0.2c-0.1,0-0.9-0.4-3.1-0.4
		c-1.7,0-3.6,0.2-3.6,1.1V346c0,0.6,0,1.1,0.1,1.3c0.5,0.2,2.3,0.7,7.3,0.9l3.5,0.1v10.2H259.1z M175.4,358.5v-9.6l2.8-0.6
		c0.8-0.2,1.5-0.3,2-0.5c0.1-0.5,0.2-1.6,0.2-3.3v-27.2h-6.5V307l3.1-0.4c2.2-0.3,3.5-0.6,4.2-0.8c0.2-0.5,0.4-1.4,0.6-3
		c0.4-2.5,0.7-4.4,0.8-5.5l0.2-2.2l12.5-5.2v15.5H209v11.8h-13.8v27.1c0,1.8,0.1,2.6,0.2,2.9c0.1,0,0.3,0.1,0.7,0.2
		c0.8,0.2,2.7,0.3,7.1,0.4l3.6,0v10.7H175.4z"/>
	<path class="st3" d="M164.1,330c-1.6-1.4-3.4-2.6-5.4-3.7c-2-1.1-6.5-3.5-13.4-7.1c-1.9-1-3.4-2-4.7-3.1c-2.5-2.1-3.8-4.6-3.8-7.5
		c0-2.6,1-4.7,2.9-6.3c2-1.6,4.4-2.4,7.4-2.4c3.3,0,5.9,0.6,8,1.7c1,0.6,1.8,1.2,2.4,2.1c0.6,0.8,0.9,1.9,0.9,3.3s-0.6,2.9-1.7,4.5
		l2.8,1.9c1.3-0.4,2.4-0.9,3.2-1.5c2.4-1.7,3.7-4,3.7-6.7c0-2.8-1.8-5.1-5.4-6.8c-3.4-1.6-7.7-2.5-12.7-2.5c-5.5,0-9.9,1.3-13.4,3.8
		c-3.7,2.7-5.5,6.2-5.5,10.6c0,3.6,1.3,6.8,4,9.6c1.3,1.4,3,2.8,5.1,4.1c2.1,1.4,4.2,2.6,6.5,3.8c2.3,1.2,4.4,2.2,6.2,3.1
		c1.8,0.8,3.5,1.8,4.9,2.8c1.5,1,2.6,2.1,3.6,3.4c0.9,1.3,1.4,2.8,1.4,4.5c0,1.7-0.3,3.2-0.9,4.4c-1.8,3.9-5.8,5.8-11.9,5.8
		c-3.5,0-6.6-1-9.2-3.1c-1.2-0.9-2.1-2-2.8-3.2c-0.7-1.2-1-2.4-1-3.4c0-1.1,0.1-2.1,0.2-2.9c0.1-0.9,0.7-2,1.6-3.3l-2.1-2.4
		c-2,0.4-3.9,1.3-5.6,2.8c-0.9,0.8-1.7,1.7-2.3,2.8c-0.6,1.1-0.9,2.4-0.9,3.8c0,1.4,0.3,2.7,1,3.9c1.3,2.3,3.4,4.2,6.5,5.7
		c4.4,2.2,9.1,3.3,14.1,3.3c6.4,0,11.5-1.2,15.2-3.7c4.2-2.8,6.3-6.9,6.3-12.3C169.3,336.2,167.6,333,164.1,330z M191.7,295.3
		l-5.5,2.3c-0.1,1.2-0.4,3.2-0.8,5.8c-0.4,2.6-0.9,4.3-1.5,5.1h0c-0.6,0.6-2.7,1.1-6.4,1.6v3.5h6.5v30.8c0,3.1-0.3,5-0.8,5.7
		c-0.3,0.5-0.8,0.8-1.5,1c-0.7,0.2-1.6,0.4-2.7,0.7v3.2h24.2v-3.5c-3.7-0.1-6.2-0.2-7.6-0.5c-0.9-0.2-1.5-0.4-2.1-0.7
		c-0.5-0.3-0.9-0.8-1.3-1.4c-0.3-0.6-0.5-2.1-0.5-4.5v-30.7h13.8V309h-13.8V295.3z M231.3,308.2c-4.5,0-8.4,1.1-11.8,3.4
		c-1.6,1.1-3,2.3-4.1,3.8c-1.2,1.5-2.2,3.1-3,4.8c-0.8,1.7-1.4,3.6-1.8,5.6c-0.4,2-0.6,3.9-0.6,5.9c0,6.5,1.8,12,5.3,16.5
		c3.9,5,9.3,7.6,16,7.6c6.7,0,12.1-2.5,16-7.5c3.6-4.6,5.4-10.1,5.4-16.6c0-6.5-1.8-11.9-5.4-16.3
		C243.4,310.6,238.1,308.2,231.3,308.2z M243.1,341c-0.4,1.5-0.9,2.8-1.5,4.1c-0.6,1.3-1.4,2.4-2.3,3.4c-0.9,1-2.1,1.7-3.3,2.3
		c-1.3,0.5-2.8,0.8-4.5,0.8s-3.2-0.3-4.5-0.8c-5.4-2.3-8.1-8.7-8.1-19c0-3.4,0.3-6.5,1-9.1c1.7-6.9,5.6-10.3,11.6-10.3
		c3.2,0,5.8,1,7.8,2.9c0.9,0.9,1.7,2,2.3,3.2c0.6,1.2,1.1,2.6,1.5,4c0.4,1.4,0.6,2.9,0.8,4.5c0.2,1.6,0.2,3.7,0.2,6.2
		C244.1,335.8,243.8,338.4,243.1,341z M295.2,309.7c-1.2-0.6-2.5-1-4-1.2c-1.5-0.2-3-0.3-4.4-0.3c-1.4,0-3.3,0.1-5.6,0.3
		c-0.8,0.1-1.8,0.1-3.1,0.3c-1.3,0.1-3.5,0.2-6.7,0.2h-7.9v3.2c1.3,0.2,2.3,0.4,3.1,0.6c0.8,0.3,1.5,0.7,2,1.4
		c0.5,0.7,0.8,2.4,0.8,5.1v26.4c0,1.2-0.1,2.2-0.2,2.9c-0.1,0.7-0.5,1.4-1.1,1.9c-0.6,0.5-2.4,1-5.4,1.3l-0.1,0v3.1h25.4v-3.2
		c-4.8-0.2-7.8-0.6-9.1-1.4c-0.8-0.4-1.2-1-1.5-1.7c-0.2-0.7-0.3-1.6-0.3-2.7v-28.9c0-3.1,2.4-4.7,7.2-4.7c2.2,0,3.9,0.3,5,1
		c1.3,0.8,1.9,1.9,1.9,3.2c0,2.8-0.7,4.9-2.1,6.2l2.1,1.7c1.9-0.5,3.7-1.6,5.2-3.3c1.7-1.8,2.5-3.7,2.5-5.7
		C299,312.8,297.7,311,295.2,309.7z M381.8,351.1c-0.6-0.2-1.1-0.5-1.5-1.1c-0.4-0.5-0.6-1.3-0.8-2.3c-0.1-1-0.2-2.9-0.2-5.7
		c0-2.8-0.1-5.7-0.4-8.7c-0.7-8.6-3-15.2-6.9-19.6c-2.5-2.8-6.1-5.6-10.9-8.3c-1.6,1-3.2,2.1-4.5,3.1c-4.2,3.1-7.3,6.7-9.3,10.8
		c-1.3-3-3.2-5.9-5.9-8.7c-1.6-1.6-4-3.3-7.2-5.1c-3,1.5-5.7,3.5-8,5.9c-1.3,1.3-2.6,3.2-3.7,5.6V309h-14.2v3.3
		c1.4,0.1,2.6,0.2,3.4,0.4c0.8,0.2,1.6,0.5,2.1,1c0.6,0.5,0.9,1.9,0.9,4.2V345c0,1.4-0.1,2.6-0.2,3.4c-0.1,0.8-0.4,1.5-0.9,2
		c-0.5,0.5-1.9,0.9-4.3,1.3l-1.1,0.2v3.2h20.8v-3.2l-1-0.1c-1.3-0.2-2.3-0.4-3-0.6c-0.7-0.2-1.4-0.6-1.8-1.3c-0.5-0.7-0.7-2.7-0.7-6
		v-12.9c0-4.9,1.1-9.1,3.4-12.7c1.8-2.7,4.4-5.2,7.8-7.4c2.1,1.7,3.7,3.5,4.9,5.3c1.2,1.8,2.3,4.2,3.1,7.1c0.8,2.9,1.2,8.4,1.2,16.6
		v4.6c0,3.2-0.4,5.2-1.1,5.9c-0.5,0.5-1.1,0.8-2,0.9c-0.9,0.2-2,0.3-3.5,0.5v3.2h20.8v-3.2l-1-0.2c-2.4-0.3-3.9-0.8-4.5-1.4
		c-0.4-0.4-0.7-1-0.8-1.8c-0.2-0.8-0.2-3.3-0.2-7.6c0-4.3,0.3-8.7,0.8-13.1c0.4-3.2,1.3-6.1,2.7-8.9c1.4-2.7,3.7-5.4,6.8-8
		c4.3,3.8,7.2,7.7,8.6,11.5c1.3,3.5,1.9,8.9,1.9,16.2l0,5.7c0,3.3-0.4,5.4-1.1,6.1c-0.5,0.5-1.1,0.8-2,0.9c-0.9,0.2-2,0.3-3.5,0.5
		v3.2h20.8v-3.2l-1.4-0.2C383.2,351.4,382.4,351.3,381.8,351.1z M443.4,312.2c2.8,0.3,4.5,0.8,5.2,1.6c0.4,0.5,0.6,1.1,0.7,1.9
		c0.1,0.8,0.1,3.3,0.1,7.4c0,4.1-0.2,8.3-0.7,12.4c-0.3,2.9-1.1,5.8-2.5,8.6c-1.3,2.7-3.5,5.5-6.6,8.6c-3-2.9-5.2-5.5-6.5-7.8
		c-0.7-1.3-1.3-2.7-1.8-4.2c-0.4-1.5-0.8-3.2-1-5.2c-0.3-1.9-0.4-4.2-0.5-6.7c-0.1-2.5-0.1-5.4-0.1-8.8c0-3.4,0.3-5.4,1-6.2
		c0.4-0.5,1-0.9,1.8-1c0.8-0.2,1.9-0.4,3.3-0.6V309h-19.5v3.2c1.4,0.1,2.5,0.3,3.3,0.5c0.8,0.2,1.4,0.6,1.8,1.1
		c0.4,0.5,0.6,1.3,0.7,2.3c0.1,1,0.2,3.6,0.2,7.9s-0.2,7.8-0.5,10.6c-0.2,1.9-0.5,3.6-0.9,5.2c-0.4,1.5-1.1,3.3-2.1,5.2
		c-1,1.9-3.1,4.5-6.3,7.6c-3-3-5.2-5.9-6.6-8.6c-0.7-1.4-1.3-3-1.7-4.6c-0.4-1.6-0.8-3.4-1-5.4c-0.2-2-0.4-4.3-0.4-6.7
		c-0.1-2.5-0.1-5.2-0.1-8c0-2.9,0.3-4.6,0.8-5.3c0.7-0.9,2.4-1.5,5.2-1.7V309h-19.1v3.2c2.6,0.4,4.2,0.9,4.8,1.7
		c0.4,0.5,0.6,1.2,0.7,2.1c0.1,0.9,0.1,2.7,0.1,5.4c0,2.7,0.1,5.5,0.4,8.6c0.7,8.7,2.9,15.2,6.6,19.7c2.3,2.8,5.8,5.6,10.4,8.3
		c3.3-2.1,6.4-4.7,9.1-7.7c1.6-1.8,3.1-4.3,4.6-7.5c1.2,3,3.3,6.1,6.1,9.2c1.7,1.8,4.2,3.8,7.5,6c4.6-2.8,8.1-5.5,10.4-8.3
		c1.3-1.5,2.4-3.3,3.3-5.2c0.9-1.9,1.6-4,2.1-6.4c0.6-2.4,1-5.1,1.2-8.1c0.2-3,0.4-6.3,0.4-9.9c0-3.5,0.3-5.7,0.9-6.4
		c0.6-0.7,2.1-1.2,4.6-1.5V309h-19.1V312.2z M485,293.8l-6.8-6.8l-6.9,6.8l6.9,6.9L485,293.8z M468.1,312.3c1.4,0.1,2.6,0.3,3.5,0.4
		c0.9,0.2,1.6,0.5,2.2,1.1c0.6,0.6,0.9,2.3,0.9,5.2v25.8c0,2.8-0.3,4.6-1,5.4c-0.4,0.4-0.9,0.7-1.6,0.9c-0.7,0.2-1.6,0.3-2.7,0.5
		l-1.3,0.2v3.2h20.8v-3.2l-1.5-0.2c-1.1-0.2-2-0.4-2.7-0.5c-0.7-0.2-1.2-0.5-1.7-1.1c-0.5-0.5-0.7-2.2-0.7-5.1V319
		c0-2.9,0.4-4.8,1.1-5.4c0.5-0.4,1.1-0.7,2-0.9c0.9-0.2,2-0.3,3.5-0.5V309h-20.8V312.3z M544.6,351.5c-0.6-0.1-1.3-0.2-1.9-0.4
		c-0.6-0.2-1.1-0.5-1.4-1c-0.3-0.5-0.5-1.3-0.6-2.3c-0.1-1-0.2-2.9-0.2-5.8c0-2.8-0.1-5.8-0.4-8.8c-0.8-8.8-3-15.5-6.8-20
		c-2.4-2.8-5.7-5.3-10.1-7.7c-6,3-10.1,6.8-12.4,11.4V309h-14.2v3.3c1.4,0.1,2.6,0.2,3.5,0.4c0.9,0.2,1.6,0.5,2.2,1
		c0.6,0.5,0.9,1.9,0.9,4.2V345c0,2.8-0.3,4.5-1,5.2c-0.4,0.4-0.9,0.7-1.6,0.9c-0.7,0.2-1.4,0.3-2,0.4c-0.6,0.1-1.1,0.1-1.3,0.2
		c-0.2,0-0.4,0.1-0.6,0.1v3.1h20.8v-3.2l-1-0.1c-1.3-0.2-2.3-0.4-3-0.6c-0.7-0.2-1.3-0.6-1.8-1.3c-0.5-0.7-0.7-2.7-0.7-6v-12.9
		c0-8.4,4-15.1,12-20.1c3,2.4,5.1,4.8,6.5,7.2c0.7,1.3,1.3,2.7,1.7,4.1c0.4,1.5,0.8,3.3,1,5.6c0.3,2.2,0.4,6.3,0.4,12.1v4.4
		c0,3.3-0.4,5.4-1.1,6.1c-0.5,0.5-1.1,0.8-2,0.9c-0.9,0.2-2,0.3-3.5,0.5v3.2h20.8v-3.2c-0.3-0.1-0.6-0.1-0.8-0.1
		C545.6,351.7,545.2,351.6,544.6,351.5z M588.2,301c-5.9-8.1-14.6-13-26.3-14.8l-0.8,3.3c11.8,2.6,19.7,9.7,23.6,21.4
		c-2.8-2.1-6.2-3.1-10.3-3.1c-6.5,0-11.7,2.5-15.4,7.5c-3.4,4.6-5.1,10.1-5.1,16.5c0,6.3,1.8,11.8,5.5,16.4c4,5,9.1,7.5,15.3,7.5
		c6.5,0,11.7-2.5,15.6-7.4c3.9-5,5.8-11.7,5.8-20.2C596.1,317.4,593.5,308.3,588.2,301z M585.1,345.2c-0.9,2-2.2,3.6-3.8,4.7
		c-1.6,1.1-3.7,1.7-6.2,1.7s-4.5-0.6-6.1-1.8c-4.2-3.2-6.3-9.2-6.3-17.8c0-5.9,0.9-10.5,2.6-13.8c2.1-4.1,5.4-6.2,10-6.2
		c8.2,0,12.2,5.7,12.2,17.2C587.5,336.4,586.7,341.7,585.1,345.2z"/>
</g>
</svg>
