<svg id="Layer_1" data-name="Layer 1" xmlns="http://www.w3.org/2000/svg" viewBox="0 0 1539.41 770.73"><defs><style>.cls-1{fill:#344d5b;}</style></defs><title>header-2-01</title><path class="cls-1" d="M1712.13,386c1.64-2,4.38-2.93,7.5-3.65,4.68-1.09,9.19-2.56,13.77-3.9q-.78-3.39-1.5-6.79l-2.64.48a27.26,27.26,0,0,1,2.42-1.55q-1.83-8.75-3.23-17.54-1.14-7.09-2-14.23c-7.88,2.77-16.54,3.79-25.27,4.62a12.94,12.94,0,0,1-9.12-2.26c-3.21-2.38-6.36-4.8-9.6-7.17s-4.43-4.69-2-8c3-4.1.71-9.44-5.41-11.36-3.16-1-5-3-5.57-5.35a43.54,43.54,0,0,1-1.53-8.9c-.24-8.23-.62-16.47,0-24.68.62-8.74,2.26-17.45,3.53-26.16a8.54,8.54,0,0,1,1.27-3.77c1.69-2.38,3.49-4.63.44-7.15-.43-.36-.33-1-.5-1.55-1.74-5.31-3.59-10.59-5.16-15.92a18.26,18.26,0,0,1-.46-5.47c0-2.52.48-5.06.34-7.57a23.68,23.68,0,0,0-1.36-5l-1.45.08v8.43h-1.06l-.11-1.18H1659c-.63-5.91,2.82-10.31,9-14,4.78,5.19,11.27,9,18.56,12,4.07,1.72,8.36,3.18,12.36,5,1.72.77,4.32,2.17,4.19,3.13-.65,5.13-.11,10.67-5.79,14.75a15.1,15.1,0,0,0-6.84,13c-.13,7.67-.06,15.39-3.53,22.84-.83,1.79-.61,3.82-.87,5.74a15.23,15.23,0,0,0,3.56-3.17c1.23-1.33,2.59-1.24,3.86-.05s2.18,2.29,3.4,3.36a20.58,20.58,0,0,0,2.61,1.7l.88-.3a11.45,11.45,0,0,0-.43-3c-1-2.28-2.5-4.45-3.22-6.75-1.83-5.83-.47-11.64.75-17.42.14-.67,1.4-1.24,2.19-1.81s2.66-1.36,2.51-1.75c-.33-.86-1.61-1.53-2.25-2.06l-2.32,2.07a9.91,9.91,0,0,1-1-2.4c-.07-.47.37-1,.78-1.48a64.54,64.54,0,0,1,6.25-6.11c3-2.35,4.69-4.86,4.58-8.08a16.42,16.42,0,0,1,.74-5.5c.33-1.05,1.53-2,2.83-3.53-2.13-3-4.69-6.67-10.62-8.07-8.29-2-14.46-5.94-20.37-10.24a15.51,15.51,0,0,1-1.87-2c6.62-.33,12.49-.69,18.38-.87a18.27,18.27,0,0,0,9.45-2.95c-1.35-.14-2.17-.28-3-.3q-11.3-.25-22.59-.46c-9-.16-9.47-.83-5.33-6.54a54.05,54.05,0,0,0,6.35-10.52c1.13-2.74,2.08-5.53,3-8.33l-3.91-.21c-.26.66-.52,1.33-.79,2-1.06,2.55-4.21,2.71-7.42,2.59s-5.21-1.46-5.69-3.65a2.73,2.73,0,0,1,.34-1.6c-11.86-.55-23.73-1-35.59-1.46-2,3.5-4.46,6.89-6.74,10.31-4.38,6.55-10.91,11.94-18.53,17a23.51,23.51,0,0,1-2.84-2.79c-1.75-2.46-3.24-5-4.95-7.49-1-1.37-1.67-3-5.11-3.16.06,5.12-2.56,10.37,4.12,14.47a7.31,7.31,0,0,1,2.5,2.08c.42.76.58,2.07,0,2.56-4.42,3.57-9.06,7-13.65,10.46-1.56,1.18-2.87.81-3.77-.47a9.32,9.32,0,0,1-1.59-3c-.94-4.08-1.69-8.19-2.55-12.29-1.54-7.36-2.52-14.82-4.83-22.05a24,24,0,0,0-6.29-10.5q-7.28-.81-14.55-1.68c2.67,1.78,5.33,3.57,7.88,5.44,5.07,3.72,6.37,8.65,7.41,13.51.93,4.33,1.18,8.72,2,13.06,1.24,6.84,2.21,13.74,4.2,20.48,1.37,4.64,1.8,9,.08,13.61-2.74,7.3-3.37,14.69-1.14,22.14a15.75,15.75,0,0,1,.26,2c-4.9.79-9.55,1.79-14.31,2.2-2,.17-4.14-.92-6.79-1.57.32-.16-.07,0-.33.18-1,.87-1.94,2.43-3.06,2.51a58.86,58.86,0,0,1-10.19-.31c-.86-.08-1.59-1.32-2.18-2.11-1.77-2.36-3.31-4.81-5.18-7.13-2.58-3.19-5.33-6.26-5.39-10.18,0-1-1.22-2.12-2.23-3-4.94-4.23-7.67-9.22-9.8-14.4-4.11-10-8-20.07-15.3-29.27-2.76-3.48-2.22-5,1.88-7.72,7.68-5,15.57-9.94,23.24-15,2.59-1.71,4.73-3.77,7.2-5.58.61-.44,1.23-.89,1.86-1.33l-7-.83a3,3,0,0,1-.22.9,6.64,6.64,0,0,1-2.43,2.66c-8.28,5.59-16.63,11.12-25,16.65-.69.46-1.5.82-2.66,1.44-.83-.92-2-1.67-2.19-2.52a92.07,92.07,0,0,1-2.1-12.44,9.7,9.7,0,0,1,3.59-8.37,3.42,3.42,0,0,0,1-1.48q-6.15-.57-12.32-1a1.73,1.73,0,0,1,.32.91c.26,6.76.2,13.52,0,20.28,0,.54-1.76,1.34-2.88,1.55-4.55.87-9.17,1.56-13.77,2.3-4,.65-7,2.35-8.08,5.09a76.76,76.76,0,0,0-2.87,10.07,34.65,34.65,0,0,0-.54,3.6h-11.57l-.15,1c2.39.35,4.77.74,7.17,1,4.47.55,5.44,1.48,4.61,4.7a44.09,44.09,0,0,1-1.39,4.26c-.77,2.06-2.06,3.76-6,3.62,3.73,4.21-1.17,6.34-3.17,9.14h-1.16c-.63-2.19-1.44-4.36-1.84-6.57-.75-4.12-1.33-8.25-1.86-12.38-1.13-8.95,2.62-17,9.39-24.38,4.17-4.55,8.52-9,12.72-13.56,2.29-2.48,4.22-5.16,6.76-7.5a31.46,31.46,0,0,1,5.47-3.83q-8.05-.53-16.12-.86c-6.21,7.86-11.29,16.18-19.91,23-2.38,1.89-3.87,4.42-5.47,6.76s-2.82,4.81-4.35,7.48c-.75-.9-1.38-1.59-1.93-2.32-8.48-11-17-21.92-25.34-32.94a6.34,6.34,0,0,1-.87-1.62q-8.83.42-17.65,1c.19.25.37.5.56.74,3.63,4.7,7,9.5,10.38,14.29,3.94,5.54,8.18,11,11.56,16.7,2.32,3.92,3.67,8.13,7.52,11.54a7.85,7.85,0,0,1,1.18,1.74l-.71.46L1397,184.7c-7.09-4.37-14-8.92-21.35-13-3.58-2-8-3.18-12.17-4.6a4.09,4.09,0,0,0-2.79.46c-.43.3-.33,1.46.15,1.86a45.49,45.49,0,0,0,5.44,3.83c3,1.82,6.43,3.37,9.29,5.32,7.73,5.24,15.26,10.64,22.85,16,.85.6,1.59,1.29,2.89,2.36-8-1.12-15.31-1.8-22.33-3.17-16.25-3.15-32.37-6.65-48.57-9.94a17.89,17.89,0,0,0-4,.15c.33,1.05.17,2.52,1.08,3.07a23.26,23.26,0,0,0,6.89,2.77c3.3.69,5.89,1.45,5.4,4.76,2.82-4.24,7.08-3.54,11.51-2.36,1.41.38,2.82.74,4.21,1.14,7.68,2.2,15.24,4.66,23.07,6.52,4.71,1.12,9.85,1.29,14.79,1.94,3.3.44,7,.46,9.8,1.57,8.44,3.34,13.38,8.81,15.63,15.41.88,2.58,2,5.4-1.11,7.87,2.51,1.1,3.19,2.58,2.53,4.44-1.28,3.6-3.79,4.64-8.68,3.59-4.68-1-8.78,0-9.61,2.63-.68,2.16-2.56,2.49-5,2.32-3.53-.24-7-.58-10.56-1-7.29-.82-14.5-2.42-22-.62-.77.19-1.9-.53-2.88-.58s-2.21.09-2.49.47c-2.06,2.77-5.53,4.21-9.53,4.55-5,.44-10.08.13-15.09.42a39,39,0,0,0-7.88,1.42,2.16,2.16,0,0,0-1.31,2.11c.19.55,1.68,1,2.7,1.23,1.72.41,3.53.64,5.66,1-2.71,3.54-6.77,5.15-10.87,6.63-8.83,3.18-17.78,6.19-26.6,9.38-1.25.45-2.07,1.51-3.1,2.28a16.14,16.14,0,0,1-2,1.45c-1.44.79-3,1.49-4.47,2.23l.74.15c-.43,3-.86,6-1.34,9.38,3-1.31,4.84-2.7,4.43-5s.87-3.75,3.37-4.83c5.53-2.37,11.09-4.69,16.66-7,.84-.35,1.77-.58,2.67-.87l.2.32-4.81,4.13.57.42,13.62-7.71.73.49c-3.52,7.08-10.41,12.73-16.34,18.87,8.14-1.56,15-4.56,19.33-9.52s7.59-10.69,13.8-14.93c5.31-3.64,7.55-4,13.84-1.11,5,2.28,10.22,4.28,16.26,4.75,6.94.54,13.92.89,20.84,1.56,2.18.21,4.91.78,6.21,1.89,6.85,5.84,10.43,12.49,8,20.27-.22.72,2.47,5.89,3.29,6.24a2.79,2.79,0,0,0,.93.16c3.17.15,3.2,1.62,2.74,3.29-.8,3-1.75,3.52-6.07,3.64-2.79.08-5.59.18-8.37.35a21.48,21.48,0,0,0-2.86.53l.08.81h14.47a23.08,23.08,0,0,1-.36,2.31c-1.19,4.38-2.55,8.66-6.36,12.43-4.31,4.26-5.07,9.56-7.4,14.41-5,10.39-13.37,19.41-22.5,28.11-3,2.83-6,5.62-8.82,8.53-1.64,1.72-.6,3,2.28,2.87a6.08,6.08,0,0,0,3.42-1.64c5.81-5.63,11.47-11.34,17.2-17,1.8-1.79,3.57-3.73,6.38-2,1.3-1.78,2.18-3.54,3.71-4.94,1.27-1.15,3.38-1.82,5-2.8,2.49-1.51,4.43-1.18,5.08,1.1.51,1.8.52,3.67.88,5.5a4.47,4.47,0,0,0,1,2.1c1.18,1.28,2.65,2.43,3.85,3.71a15.62,15.62,0,0,1,1.56,2.37l.74-.19c-.39-1.17-.73-2.36-1.18-3.52-2-5.18-4.3-10.31-6.07-15.53-1.65-4.88-1.34-5,5.58-4.61,2.07.1,4.17,0,6.25,0l.06-.65c-2.42-.55-4.82-1.18-7.28-1.63-3.07-.56-4.34-1.78-3.58-4,2.43-7.25,4.72-14.52,7.28-21.74a88.64,88.64,0,0,1,3.88-8.29c.9-1.86,2.75-2.22,5.1-1.51,2.08.62,4.15,1.27,6.13,2,3.72,1.42,4.86,3.36,3.91,6.52a16.28,16.28,0,0,0-3.37-.69c-.88,0-2.42.46-2.51.87-.24,1-.78,2.21,1.65,2.7a21.48,21.48,0,0,1,6.07,2.19c2.94,1.66,5.31,3.88,8.4,5.35,6.08,2.9,12.61,5.3,18.69,8.19,2.77,1.32,5.61,3.05,7.21,5.08,6,7.7,11.64,15.58,17.3,23.44a13.12,13.12,0,0,1,1.88,4.15c2.82,9.94,5.48,19.89,8.33,29.82,2.59,9,5.6,18,8,27.07,1.09,4.21.44,8.66,1.65,12.85,2.51,8.72,5.55,17.37,8.73,26a21.44,21.44,0,0,1,.16,15.87c-3.22,8.3-6.13,16.66-6.2,25.38-.13,15.52,4.32,30.54,9.36,45.52a87.94,87.94,0,0,1,3.48,12.87c.55,3.19-1.52,4.14-6,3.32-2.4-.44-4.76-1-7.16-1.39-3.67-.66-5.16.2-5.53,2.87-.62,4.52,1.37,8,6.74,10.7,5.59,2.85,10.8,6.1,15.95,9.36,1.39.89,2.77,2.46,2.73,3.7a195.67,195.67,0,0,1-1.55,20.92c-.5,3.51-4.07,4.5-8.22,2.52-4-1.91-7.53-4.32-11.28-6.49-4.17-2.42-8.2-5-12.59-7.17-2.06-1-2.65-2-2.82-3.68-.24-2.42-1.42-4.81-2.2-7.21l-1.22.06c-.34,1-.69,2-1,3-.26.82-.2,1.77-.79,2.43a3.53,3.53,0,0,1-2.5.49c-5-3.19-11.22-4.46-17.55-5.42-1.58-.24-3.38.26-5.07.42a17.32,17.32,0,0,0,1.93,3.46,19.73,19.73,0,0,0,3.73,3.17c6.38,4.36,12.52,8.93,19.34,12.91,7.39,4.31,15.53,8,23.16,12.09,2.52,1.36,4.45,3.27,6.67,4.92,1.49,1.1,2.77,2.51,4.58,3.17s2.64,1.33,2.56,2.9c-1,17.67,3,43.1-19.27,42-3.09-.16-6.76.91-7.7,3.86-.59,1.86.12,3.88-.12,5.81-.81,6.5-10.32,7-16.23,4.18-12.6-6.06-20.58-4.38-34.13-1.59-15.38,3.17-28.41,11.31-45.1,12.38-7,.46-14.19.33-20.72,2.88-7.17,2.8-12.87,8.58-20.08,11.28-13.46,5.06-29.67,13.69-43.89,15.5a16.65,16.65,0,0,0-2.15,7.69,27.54,27.54,0,0,0-20.28,9.65l0-7.55a45.45,45.45,0,0,1-16-1.5,136.41,136.41,0,0,0-2.39,26.21,47.44,47.44,0,0,0-24.16.11c-5.54,1.5-11,4-16.71,3.71-6-.34-10.07-4.61-11.5-10.11-.31-1.17-20.31,2-22.28,3.24-6.84,4.47-5.32,11.19-11.39,16.55-12.79,11.29-15.16,15.61-32.86,11.33-44.87-10.82-95.47,11.93-141.68,13.45-55.44,1.83-111.52-7.66-159.94-27.06-8.13-3.25-16.17-6.82-25.17-8.56-25.87-5-50.59,3.42-76-7.06a66.89,66.89,0,0,0-9.08-3.44,48.46,48.46,0,0,0-11.29-1.05l-45.29-.64c-2.38,30.26-65.11,6.8-73-10.66-3.61-8-1.95-17.15-8.06-24.3-8.19-9.57-26.24-11.34-39.73-17.07-8.4-3.57-15.15-8.78-21.54-14.28-5.87-11.71-7.77-24.25-8.3-37.09-.15-3.84-1.59-7.73-1.08-11.5,1-7.38-.89-14.8.34-22,1-5.86-1.23-11.7,1.36-17.58,1.48-3.37-.65-7.5.47-11,6.69-21,5.16-42.46,6.8-63.73.93-12.08,2.22-24.08,8.05-35.6a18.52,18.52,0,0,0,1.54-6c1.12-8.24,3.68-16.34,9.77-23.29,5.79-6.59,11.33-13.84,22.77-16.73,4.1-1,6.19-3.18,6.64-6.26.27-1.84,1-3.66,1.1-5.5.25-5.13,4-9.15,8-13.05a60.27,60.27,0,0,0,11.12-15.13,85.4,85.4,0,0,1,10.55-16.05c6.28-7.17,16.33-11.21,27.9-11.71,6.65-.28,9.92-2.51,12.69-5.87a24,24,0,0,1,7.47-6.21c2.24-1.21,3.5-3.56,4.64-5.56,3-5.3,5.69-10.69,8.86-16.71,4.14,2.77,8.24,3,12.64,2.57,6.28-.66,10.89,1.6,15,5.3l3.26-2.56a8.18,8.18,0,0,0-1.93-1.25c-2.65-.68-5.66-.95-6.21-3.57-.08-.33-1.17-.81-1.75-.78-4.68.24-6.15-1.93-6.49-4.56-9.08-.91-9.08-.91-9-5.48L699,316.6l2.49-4.81c10,.41,11.21-.3,13.13-7.56-6.16-1.17-3.68,3.21-6.74,5.06H700c-1.83-2.47-.62-4.42,1.75-6.05a113.07,113.07,0,0,1,11-7,26.16,26.16,0,0,1,8.23-2.57c6.69-1,13.43-1.78,20.16-2.62l5,2.14c8.23,3.5,10.11,5.29,8.68,11.78-.25,1.13-1.74,2.13-3,3.64,3.65-1.14,4.23.87,5.59,2.26,1.64,1.68,3.5,3.25,5.32,4.92,2.24-.57,2.1-1.85,1.74-3.05-.66-2.25-1.62-4.46-2.22-6.72a32.68,32.68,0,0,1-.58-4.73L763,301l3.6,3.9a7,7,0,0,0,1.19-4c0-.25,0-.49,0-.72a104.72,104.72,0,0,1,9.14,6.61l4.9-4.56c4.33,1.83,8.39,3.58,12.48,5.28,5.24,2.17,10.25,1.12,15.29-.51,4.47-1.45,9.08-2.67,13.56-4.09a16.75,16.75,0,0,1,11.17.52c6.28,2.26,12.67,1,19,.28,2-.24,3.78-1.19,5.69-1.79,3.54-1.09,7-2.59,10.85-.32.56.33,2-.07,3.47-.17.47-1.28,1-2.6,1.44-3.92l1.8-1,2.4,3.63c4.81-.63,6.49-2.57,5.92-5.59-.41-2.16-3.25-3.21-5.71-1.88-7.65,4.14-16.77,6.12-25.19,9.15-2.8,1-5.19.74-8.12.09-6.83-1.53-13.84-2.41-21.07-1a24.65,24.65,0,0,1-7.08,0c-4.57,1.56-7.66,5.33-14,5.18-1.59-4.65,3-6.58,7-8.39,3.63-1.64,6.37-6.15,12.24-2.54l9.43-5.1,5.17,2.69c5.93-4.34,12-8.81,18.16-13.25a2.81,2.81,0,0,1,1.43-.38c4.54-.08,9.1,0,13.64-.18,9.15-.33,15.55,4,23.31,6.6l-1.5,3.15c1.14.73,8.51.59,9.91,0,1.68-.7,4.1-2.07,5.15-1.69,6.52,2.37,13.9-.43,20.28,2a3,3,0,0,0,1.48.27c9.85-2.46,18.14,3.66,27.72,2.55,5.2,2.59,11.34,2.05,17.14,2.61a3.94,3.94,0,0,1,1.49.31c7.31,4.48,17.18,4.54,25.43,7.6,10.15,3.76,21.6,5,33,5.9,10.57.86,21.11,2.14,31.76.31.94-.16,2.31,1,4.07,1.76,3.58-1.93,8.12-2.18,13.18-1.16,5.47,1.11,11.24,1.47,16.69,2.6,3.1.65,5.77,2.29,8.75,3.31,4.22,1.45,7.89,4.53,13.6,2.16,4,5.73,11.79,7.53,18.45,10.64,6.89,3.21,13.75,3.61,21.14,4.05,2.79.17,5.55.71,8.32,1.1,3.11.43,5.77,1.5,9.5.62a8.49,8.49,0,0,1,9.66,4.79c1.86,3.85,1.86,3.85,6.06,5.88,3.91-3,.93-6.67,1.39-10.86a61.64,61.64,0,0,1,7,2.8,52.9,52.9,0,0,1,7.24,5c.87.7.8,2,1.43,2.86a37.26,37.26,0,0,0,2.87,3.26c2.47-1.93,4.17-4.43,6.08-4.52,8-.37,15.54-3.16,23.81-2.15a30.77,30.77,0,0,0,8.94-.24c5.1-.91,6.46-3.73,3.48-6.75-3.21-3.24-7.82-5.12-13-6.48-4.42,2.77-5.63,6.27-6.07,10.59l-11,2.13-4.31-4.49,5.68-1.28c-3.24-2.15-1.14-3.54,1-4.82,3.72-2.24,5-5,4.1-8.18-2.56,1.35-6.11,2.34-7.43,4.16s-4.71,1.65-4.93,4.21c-.27,3.12-4.57,4.68-9,3.88-2.48-.45-4.9-1.07-7.38-1.53-4-.76-8-1.37-9.75-4.73-1-2-3.44-2.76-6.38-1.94-4.6,1.28-7-1.29-11.31-2.74l-6,5.62c-3.16.3-7,.73-10.84,1a21.07,21.07,0,0,1-5.39-.11c-10.69-2.08-19.36-6.68-28.74-11.13,3.38-2.81,7.25-2.34,10.62-2.82,4.93-.7,9.83-.58,14.07-3.66,2.48-1.8,7.7-1.69,11.71-2.4a213.56,213.56,0,0,1,36.16-3c.35,2.94-.27,5.93,4.56,7,7,1.5,8.79,1.1,12.79-2.49a13.16,13.16,0,0,1,3-2.36c6-2.93,6.29-4.58,1.06-8.47-.35-.26-.69-.54-.75-.59-2.92-.12-5.53-.35-8.12-.28a9.37,9.37,0,0,0-4.09.95c-6.94,4.07-15.59,4.64-23.81,5.62-6.2.74-12.71.15-18.91.15,1.66-2.37,3.07-5.14,5.43-7.4,1-1,4-1.08,6.09-1.27s4.4.13,6.53-.11c.47-.05.62-1.53.92-2.35-6.18-1.12-2.1-4.9-4.46-7.3,9-4.29,19.33-2.19,28.4-3.93l-.3-1.09c-1.34.16-2.66.4-4,.46-1.16.05-2.33-.12-5.12-.3,5.6-2.63,8.85-6,15.32-5.14l2.58,3.39,1.37-.12c.3-1.76.66-3.51.9-5.28.62-4.75,3.78-6.59,10.28-5.84a29.38,29.38,0,0,1,3.69.84c6.64,1.6,13.12,2.59,20.45,1.85,6-.61,12.3.68,18.43,1.31,4.2.44,4.18.58,8.59-1.33-4.15-.72-9.65,1.87-11.61-2.3h-20.6l0-.6c6.92-1.67,13.85-3.31,20.73-5.05a10.23,10.23,0,0,0,2.55-1.3c-6.15.94-12.3,1.9-18.45,2.81-4,.59-8,1.11-12.82,1.79l2.16-3.37c2.4-.91,5.29-1.5,7-2.86a48,48,0,0,1,26.41-10.53c1-.09,2.63-.49,2.67-.83.58-4.34,8.55-5,9.06-9.36.09-.77,1.44-1.47,1.64-1.66-1.87-4.52-5-8.55-4.72-12.47.19-3.32,3.54-6.91,6.73-9.65,3-2.56,2.39-4.83,1.06-7.16-.76-1.32-3-2.2-5.46-3.88l-11.87,15.44c-4.69-.31-7.17.73-9.09,3.81-4.7,7.52-4.74,7.64-16.14,5.72-7.25-1.22-14.35-2.87-22.86-4.6l9.69-6.56v4.43l9.77.78c3.21-4.64,2.65-7-2.4-9.94-6.79-3.94-6-8.56,2-10.74,3.34-.91,6.91-1.39,11.31-2.25-.26-1.83-.54-3.74-.83-5.75,3.3-3.08,6.84-5.89,12.75-2.75,4.62-2.84,3.88-8.18,10.3-10.41l-1.11,6.24c3.55-2,6.11-3,7.65-4.56,1.79-1.77,3.42-3.69,1-6.32a4.8,4.8,0,0,1-.13-5.73c4.46-4.89,7.55-10.62,15.14-13.83,2.24-.95,4.09-1.81,7-1.53.33,0,.68-.47,1.1-1.15-12.25,1-24.5,2-36.78,2.73.58,1.34,1.57,2.71,2.21,4.09-5.35,3.08-8.72,7.78-15.55,9.86-.23-.34-.38-1-.91-1.3-3.7-2.12-6-4.34-3.2-7.93a24.11,24.11,0,0,1,3.27-3.94l-2.18.1-2.44.11c-1.08.83-2.72,1.22-5,.89-2.66,5.08-3.08,11.06-10.83,14.47,3.3-4.48-.92-8.32-1.48-12.78-4.92,2.85-4,7.65-8.55,11.09l-4.46-6.25-7.15,5.64c1.4,1.65,2.57,3,3.89,4.57-2.7,4.65-10.75,3-14,7l-1.15-.73V180l-5.8.28c.33-1.43.63-2.78.93-4.12l-6.18,2.84c1,1.13,2.78,2.18,2.56,3-.57,2-2,4-3.64,7-1.2-1.93-1.69-2.71-2.63-4.19l-9,5.3-2.28-4.95-8.73,3-5.41-6.18c3.15-1.83,5.88-3.12,10-2.27,1.44.29,3.6-1,5.33-1.71,1.92-.78,3.74-1.7,6-2.76,1.07-2.64,2.32-5.74,3.82-9.47L1197,169c2.57-1.52,5.09-3,7.68-4.51,2.77-1.57,5.25-1.56,6.35.3,1.2-.63,2.31-1.3,3.42-1.92,0,.21,0,.42,0,.63a7.07,7.07,0,0,0,2.28-1.78c.34-.14.68-.28,1-.4l.42-.15c-17.78.81-35.55,1.66-53.31,2.72-1.85,1.41-4.22,2.31-8.13,2.15a13.14,13.14,0,0,0,3.14-1.85l-1.79.11-4.55.29c-2.58,1.67-6.07,2-18,3.13,1.26-.77,2.25-1.55,3.18-2.18-19.64,1.28-39.27,2.6-58.91,3.85v.57a17.25,17.25,0,0,0-2.14-.43l-7,.43a35.64,35.64,0,0,0-5.45,2c-.09-.63-.15-1.18-.2-1.66q-19.17,1.17-38.36,2.16l-.57.58-.19-.54q-7.5.38-15,.71a59,59,0,0,1-8.1,4.24c.38-1.41.9-2.7,1.26-3.94l-3.23.13c0,1.48-.83,2.79-3.83,3.83l-1.82-3.61q-18,.69-36.1,1t-35.9.11c-.61,2.93-.67,5.39-1.79,7.56-.78,1.52-3.09,3.77-4.66,3.75-4.88-.07-10.45.29-13.18-4a10,10,0,0,0-4.77-3.69c-3.28-1.2-5.44-2.58-5.33-4.22q-9.13-.27-18.28-.64a23.58,23.58,0,0,1,.84,2.35s-1.2.26-1.84.39l-1.06-2.79.13,0q-14.93-.6-29.85-1.37c-1.08,1.84-.93,3.85.81,6.24.92,1.25-3,5.77-4.47,5.41-3.52-.86-4.89.9-4.85,2.27.12,3.88-2.58,5.35-7.37,6.28-2.71.54-5,2.18-7.46,3.31-2.71-1.48-5-3.42-9.11-2.42,2.63,2.18,6.27,3.9,7,6.1.85,2.67-.79,5.74-1.34,8.62,3.53.43,6.47,1.87,9.06.72-.49,2.6-.83,5-1.39,7.31-.38,1.61-1.05,3.19-1.59,4.77l-1.21-.16c-.17-1.81-.33-3.61-.5-5.41h-1.14l-1.53,4.41c-4.62-2.42-8.89-4.63-13.11-6.88s-8.7-4.72-13-7.06c.69-2.41,2.51-5.14,1.94-7.59-1-4.4,1.4-7.51,5-10.56,2-1.71,4.09-3.36,6-5.11,3.65-3.32,7.4-6.61,10.76-10.08.53-.55,1.07-1.08,1.63-1.57l-4-.22c-2.9,5.8-10,12.25-17.52,15a46.9,46.9,0,0,1,8-15.58l-14.56-.82c-.32,5.92-4.59,11.3-8.87,16.46-1.28,1.54-3,2.64-3,4.62,0,1.17-.48,2.35-.93,4.34-2.74-2.06-4.37-3.77-6.61-4.84a4.14,4.14,0,0,1-2.68-4.25c0-2-.88-3.79-1.32-5.63-1-4.21.85-8.07,3.27-11.81l-12.65-.67c.41,5.41-2.09,11,.23,15.71l-7.27,2c-.3-.26-.6-.41-.6-.55,0-2.92,3.58-6-.85-8.79-.52-.33.31-2.15,1.09-3,1.72-1.91,3.8-3.65,5.74-5.46l-3.89-.2c-.53.59-1.16,1.17-1.62,1.75-.08.1-.47.06-1.56.18a8.37,8.37,0,0,1-.39-2.1l-2.69-.13c.46,3.2,1.09,6.49-3.22,9.51-4.79-4.31-6.52-7.58-6.22-10-42.05-1.87-84.06-2.75-126-.65l-5,9.36c-1.73-3.28-2.8-5.63-4.18-7.88-.21-.33-.4-.64-.58-.94l-2.93.18a12.75,12.75,0,0,1,1.41,2.51c1.25,2.73-1,3-4.37,3.07-.14-1.74-.26-3.27-.43-5.35l-4.93,6.59c1.35,3.28,1.7,7.38-1.45,9.26-3.39,2-6,4.81-10.24,6.22s-9.68.17-9.31-2.81c.41-3.37-2.47-4.64-4.84-6.48.9-2.77,2.29-5.53,2.55-8.33a3.54,3.54,0,0,1,.85-2.09q-10.05,1-20.15,1.9l-.5.25-.29-.18-2.93.26c-.54,3.79-1.29,3.63-7.19,2.36.13-.6.27-1.19.4-1.79-21.09,1.77-42.26,3.26-63.41,4.86.3,1.65-.8,3.34-3.44,5.56-.67-1.75-1.33-3.46-2-5.15l-6.57.51c0,.76-.67,1.7-1.71,2.9l-.89-2.7q-15.09,1.2-30.14,2.56c1.22,9.94-1.1,19.57-3.31,29.43-2-3-3.83-6.2-6.17-9.12-2.15-2.69-5.19-5.19-7.42-7.82,0-.75.08-1.49.14-2.24.2-2.91.53-5.81.91-8.72-19.25,2-38.39,4.33-57.36,7.37.66,1,1.32,2.05,1.95,3.08l-1-.07a6.14,6.14,0,0,1-4-2.52q-7.53,1.24-15,2.63a.78.78,0,0,1,0,.14c.44,1.46,1.26,2.93,1.79,4.43-2.71-.93-3.61-.43-3.93,1.9-.08.54-.14,1-.2,1.46-3.08-2.16-4.16-4.21-3.43-6.84q-3.54.69-7.06,1.42c-.2,1.17-1.29,2.45-3.3,4.49a20.89,20.89,0,0,1-2.59-3.24c-9.67,2.12-19.26,4.51-28.66,7.22-1,2.76-2,5.55-3.14,8.28a18.3,18.3,0,0,1-4,6.4c-3.46,3.21-7.59,6.05-12,9.46-1.47-6.68-1.05-12.76,2-18.49l.18-.33c-7.79,2.67-15.4,5.61-22.74,8.85q-.18,3.15-.35,6.29a16.28,16.28,0,0,1-.61,2.71l-1,.21c-1.24-1.56-2.83-3-3.66-4.69-.27-.53-.53-1.06-.79-1.59q-7.78,3.71-15.09,7.9t-13.63,8.71l.17.21c6,7.7,11.65,15.58,17.31,23.44A13.12,13.12,0,0,1,233,265c2.82,9.94,5.48,19.89,8.33,29.82,2.59,9,5.59,18,7.94,27.07,1.09,4.21.45,8.66,1.66,12.85,2.51,8.72,5.55,17.37,8.72,26,2,5.34,2.26,10.49.16,15.87-3.22,8.3-6.13,16.66-6.2,25.38-.12,15.52,4.32,30.54,9.37,45.52a87.94,87.94,0,0,1,3.48,12.87c.55,3.19-1.52,4.14-6,3.32-2.39-.44-4.75-1-7.15-1.39-3.67-.66-5.16.2-5.53,2.87-.62,4.52,1.36,8,6.73,10.7,5.6,2.85,10.81,6.1,16,9.36,1.39.89,2.77,2.46,2.72,3.7a193.09,193.09,0,0,1-1.54,20.92c-.5,3.51-4.07,4.5-8.22,2.52S256,508,252.22,505.86c-4.17-2.42-8.2-5-12.6-7.17-2.05-1-2.64-1.95-2.81-3.68-.24-2.43-1.42-4.81-2.2-7.21l-1.22.06c-.34,1-.69,2-1,3-.26.82-.2,1.77-.79,2.43a3.54,3.54,0,0,1-2.5.49c-5-3.19-11.23-4.46-17.55-5.42-1.58-.24-3.38.26-5.08.42a17.88,17.88,0,0,0,1.94,3.46,19.43,19.43,0,0,0,3.73,3.17c6.38,4.36,12.52,8.93,19.34,12.91,7.39,4.31,15.53,8,23.16,12.09,2.51,1.36,4.45,3.27,6.67,4.92,1.48,1.1,2.77,2.51,4.58,3.17s2.64,1.33,2.55,2.9c-1.33,24.54-2.54,49.07-3.87,73.61A21.56,21.56,0,0,1,260,617.8a16,16,0,0,0-3.1,7.19c-.61,3.56-1,7.14-1.43,10.73-39.27,4.47-67.42,17.7-60.47,58.76,10.51,62.09,46.76,123.79,96.41,174.93,7.93,8.17,16.62,16.36,28.69,21.3,14.18,5.8,31.22,6.42,47.54,6.9,136,4,272,8,408,7.53,79.73-.25,159.56-2,239.09,2,69.16,3.5,137.94,11.37,207.26,12,111.82,1,222.17-16.73,330.83-35.65,27.12-4.72,55.72-10.12,75.2-24.41,18.87-13.85,22.06-33.73,31.63-53.19,10.38-21.11,29.57-36.23,39.59-57.46,13-27.61,6.56-60-.19-89.79a19.15,19.15,0,0,0-2.54-6.93c-2.73-3.91-8-5.25-12.77-4.86s-9.27,2.17-13.92,3.25c-30.69,7.07-49.83-9-55.89-37.55-.27-1.28-1.81-2.58-3.22-3.52-2.67-1.78-5-3.54-5.24-6.34-.17-2.54-.37-5.08-.71-7.6-1.92-14.34.26-28.86-4.95-43.09-2.25-6.16-1.76-12.83-2.38-19.28,0-.6.72-1.37,1.4-1.86,1.65-1.2,3.72-2.14,5.17-3.45,6.59-6,12.69-12.23,19.6-18a168.45,168.45,0,0,0,28.5-30.93,337.31,337.31,0,0,0,28.32-46.67c2.3-4.55,4.69-9.09,7.38-13.52,1-1.59,2.59-3.72,4.53-4.13,6.41-1.35,12.83-3.29,19.85-2.16a4.33,4.33,0,0,0,2.49-.4,2.19,2.19,0,0,0-.59-2.09,9.11,9.11,0,0,0-3.3-1.74,20.37,20.37,0,0,0-11.63-.08c-1.28.36-2.64.58-4.52,1a13.05,13.05,0,0,1,1.1-2.23C1701.21,399.62,1706.62,392.81,1712.13,386ZM1697.36,349l19.85-2.67c-3.46,3.12-6.27,5.77-9.31,8.28a4.13,4.13,0,0,1-3,.27c-2.8-1.56-5.36-3.34-8-5.05ZM1393,339.49l8.54-14,.86.27C1401.83,331.14,1398.23,335.6,1393,339.49Zm37.38-53a27.58,27.58,0,0,1-5.7-2.44c-1.54-.79-2.84-2-4.68.29l-.86-1.13,6.23-4.23c-4.33-2.37-7.13-.19-10.15,1.64l-7.23-18.85a40.2,40.2,0,0,1,12.82,5.47c1.24.85,2.41,1.77,3.74,2.54,6.24,3.62,8.27,8.8,10,14C1435.46,286.67,1434.19,287.43,1430.33,286.47ZM1450,227.71c-2-2.48-3.28-5.09-.92-7.82,1.74-2,3.66-3.95,5.56-6l3.14,1.61c1.5-8.83,3.5-17.21,4.2-25.64s2.19-10.55,13.7-12.89c2.16-.45,4.37-.79,6.58-1.06a3.52,3.52,0,0,1,3.87,1.81c3.26,5.34,6.22,10.82,10.22,15.87,5.82,7.35,8.7,15.31,11.64,23.34,1.87,5.1,4.58,10.05,6.94,15.06.59,1.24,1.34,2.44,1.89,3.68.49,1.09-.15,1.66-1.78,1.46-12.53-1.53-25.38-1.1-37.63-4.64-7.81-2.25-16.66-2.64-25-3.91A4.47,4.47,0,0,1,1450,227.71Zm71.18,31.88c-.27,7.75-1.24,15.36-7.64,22a8.35,8.35,0,0,1-2.71,2.24c-3.39,1.38-4,3.41-4,6,0,6.38-.48,12.76-.82,19.13a14.5,14.5,0,0,1-.61,2.71l-1,.21c-1.25-1.56-2.84-3-3.67-4.69-3.58-7.15-7-14.35-10.38-21.55a144.67,144.67,0,0,0-22.11-34c-2.83-3.24-5.21-6.68-7.8-10l.49-.54c1.48.23,3,.42,4.43.7,8.4,1.6,16.94,2.92,25.15,4.93,8.88,2.17,17.46,5,26.16,7.54C1520,255.27,1521.25,257.05,1521.16,259.59Zm-237.91-87.47-1.75-.79,2.86-2.6,1.15.58Zm1.12-7.48c-4.07,2-4.07,2-5.74-.47Zm-39.55,34.54-1.2-1,4-1.78.73.77Zm7.51-1.44.78.8-3.76,2.21-1.14-1.12Zm-2.75-21.58c-.76,4.81-.81,4.85-6.78,5.1Zm-8.65,21.73c-.45,2.44-1.8,2.61-3.68,1.82-.34-.14-.46-.55-.68-.84Zm-66.69-24.78c4.49,2.64,4.49,2.7,0,5.29Zm-267,105.61-3.43-.53c.07-.25.13-.51.2-.76l3.5.35Zm37.93-28.31a6.84,6.84,0,0,1-1.37-1.59c-.07-.18,1-.59,1.94-1.15.47.78,1,1.33,1,1.88C946.71,249.84,945.68,250.12,945.12,250.41Zm38.78-2.12-9.19,4-1.34-.84,2.71-6Zm-6.77-18.17.82-2.64,1.9.49-1.39,2.43Zm.4,44.68-1.3.11c-.26-1.53-.51-3.06-.77-4.59l1.22-.1C977,271.74,977.25,273.27,977.53,274.8Zm-3.44-11.31c.12,0,0,.62,0,1.28l-4.84.71c.33-1.09.5-2.49.79-2.5A17.38,17.38,0,0,1,974.09,263.49Zm-3,25.42c3.9-.55,6.8-.9,9.85,1.48C976.83,291.66,974.19,291.13,971.1,288.91Zm27.73-29.49-16.32,1.43C986.24,256.23,992.12,255.88,998.83,259.42Zm6.77,17.52c-4.33,2.28-8.59,4-13.8,1.24C996.06,272.65,999.18,272.38,1005.6,276.94Zm32.16-8c.81,4.3-.44,7.82-5,10.93l-6.49-1.69c-.16-2.27-.29-4.15-.42-5.93Zm-4.46-19.5c1.11-2.24,2.78-3.57,6.2-2Zm-3.63,31.37-.38.7-5.28-1,.48-1.12Zm-24.8-36V243c3.17.17,6.35.53,9.51.44,3.43-.1,6.85-.61,10.27-.94C1018.57,248.13,1011.49,244.18,1004.87,244.85Zm15.55,36.64-9.14.65,5.35-4.7Zm-9.61-2.42a29.18,29.18,0,0,1-2.41,2.14,24.09,24.09,0,0,1-2.55-1.23,20.39,20.39,0,0,1,3.2-1.58C1009.43,278.28,1010.21,278.83,1010.81,279.07Zm-3.57-30.15-.65,1.21-4.44-1c.28-.54.56-1.08.83-1.62Zm-7.14,36.44-.27,1.13-4.24-1.13Zm-5.33,2.45,1,5.17C991.67,290.48,991.67,290.48,994.77,287.81Zm4.09,4.74,5.45-7.7,18.88,4.19-17.65,5.83Zm56.51,15.52c-3,0-7.12.11-8.76-1.15-2.22-1.71-3.89-1-6-.9-11.76.64-23-.88-35.17-4,2.36-2.07,3.59-3.56,5.33-4.6,5.93-3.55,12.42-6.15,20.57-4.41s16.26,3.56,24.37,5.4c1.64.38,3.55.73,4.7,1.55,3.14,2.22,5.94,4.68,9,7.14C1064.63,307.46,1060,308,1055.37,308.07Zm-3-33.13c-.2,1.62,3.5,3.54-1.47,5.4-.47-4.22-.89-8-1.34-12.06,3.69,0,7.48-.84,9.62.15,6.66,3.07,12.71,6.83,19,10.34,1.4.78,2.52,1.94,4.08,2.44,5.34,1.72,9.72,4.9,16,5.18,1.49.07,2.89,1.29,4.6,2.12-.9.85-1.75,1.95-2,1.88-3.63-.91-6.31,1.1-9.47,1.44-2.43.26-4.91.2-7.23.29-1.79-6.65-1.79-6.65-5.7-9,2.47,3.54,4.14,6.8,1,10.13-11.48,2-29.48-1.51-38.41-7.73l11-1.6,11.73-7.93C1059.27,272.36,1059.27,272.36,1052.41,274.94Zm3.59-46.31c-2.5-3.27-.09-3.91,2.16-4.55.28-.08.78.24,1.65.53Zm6,17.88-3.43-5.93C1065.2,244.33,1065.5,245,1062,246.51Zm-4.83,14,3.06-2.75c7.43-.7,14.51-.7,21.46,2.82-1.67.69-2.87,1.59-3.66,1.43-4.27-.84-8,.43-12,1.07a34.25,34.25,0,0,1-6.07.54c-3,0-3-1.5-2.22-3.1h-5C1054.63,258.88,1056.81,256.73,1057.13,260.48ZM1152,248.35l.91.91-9.06,8.2-12.7-2.54,7.85-4.34,0,.08Zm-10.18-6.49c-3.43,3.45-3.43,3.45-10.15,1.66C1134.77,241.49,1138,241.16,1141.77,241.86Zm-9.89-2.88,4.35-.94.4.8-4.16,1.28Zm8.56-8.62c-1.45,4.91-1.46,4.9-10.07,5.11.21-2.71.42-5.37.65-8.19l10.74-1.77C1141.2,227.59,1140.85,229,1140.44,230.36Zm-6.62,15.8,7.08,1.55-1.84,2.72c-3.07-.58-5.66,2.8-9.51.46Zm1.92,13.84c-.54,1.58-1,3-1.6,4.7l-3.32-1.93-1.31,3.38c-5.59-2.07-5.59-2.07-12.66,3.66-5.54,0-9-1.63-10.66-5.14,6-3.24,7.55-3.31,13-1.05C1124.84,262.36,1128.47,257.83,1135.74,260Zm10.47,35.34-.67-1.07,5.77-3.63c-.39,2.22-.09,3.57-.84,4C1149.48,295.25,1147.67,295.14,1146.21,295.34Zm3.68,3.91-4.86,4.53c-1.63-1.64-3.24-2.53-3.28-3.46-.07-1.7,1.25-3.32,4.15-2.94C1147.34,297.57,1148.56,298.6,1149.89,299.25Zm-16-2.75-7.71-4.67c7.29-1.18,12.93-6.18,21.25-3.11C1145.88,294.63,1137.45,293.19,1133.89,296.5Zm-2.62,1.73a9.67,9.67,0,0,1-1.89,1.52l-1.58-1.31,2.55-1.27C1130.68,297.53,1131.41,298,1131.27,298.23Zm-6.55-24.63c-1.09-4.49-.53-4.81,5.47-3.48Zm6.09.16,1.77.48c-.32.88-.63,1.75-.94,2.63l-2.54-.71Zm.14,9.49c-11.57,2.51-11.57,2.51-14.45,1.23C1121.4,285.68,1125.19,279.46,1131,283.25Zm-3.28,2.69.12,1.44-5.91.7-.3-1.06Zm-15.07-4.19c-.12,1.59-.23,3.05-.38,5l-12.29-2.13C1104.15,281.75,1107.67,280.91,1112.6,281.75Zm-12.92-21,9-1.61C1106.72,261.49,1104.34,262.31,1099.68,260.71Zm8.06,10.24c-3.49-1.09-8.52.9-10.78-2.68C1102,264.8,1102.5,264.91,1107.74,271Zm-14.85-5.37-1.31-3.9c3.36-.28,6.11-.7,7.44,2.33Zm-3.63-20.72c-4.79-.12-3.74-3.69-5.36-6.07,5.4-1.78,9.4.37,14.08,1.07C1096.57,243.54,1092.92,245,1089.26,244.86ZM1106,275c1.55,2.86.28,4.52-2.79,5.9-5.55,2.51-17.65.55-21.47-3.58-1.54-1.67-3.18-3.29-5.24-5.4,2.46.37,4.39.65,6.31.95,1.61.25,3.46,1,4.78.71C1094.33,271.92,1100.15,274.08,1106,275Zm-32.75-8.17c1.33-2.88,3.78-2.91,5.81-2.12,1,.38,1.06,2,2.08,4.24Zm-27.8,25.1-.25.67-5.23-.93.31-.85Zm46.32,14.68a73.31,73.31,0,0,0-8.74-1.41c-7-.51-12.2-3.17-17.07-6.77a129,129,0,0,1,15.34-1.17c2-.09,4.42.07,5.77-.69,5.4-3,9.53-1.48,13.56,1.38-1.05-2.53-.33-4.32,3.79-4.75,2.54-.27,5-.65,7.59-.89,6.1-.6,6.69-.3,9.34,4.37-5,4-9.11,4.72-15.43,2.74-1.61-.51-3.3-.87-5-1.3,7.28,5.51,15.57,3.84,24.67,1.52-.27,1.19-.05,2.64-.77,2.94a67.84,67.84,0,0,1-10.3,3.51c-2.9.69-6.25.44-9.14,1.15C1100.67,308.41,1096.31,307.51,1091.81,306.61Zm30.63,7.06c-5.58-.95-11.18-2.11-16-4.34,6.73-1.57,13-2.89,19.2-4.51a24.06,24.06,0,0,1,15,.91c-4.59,2.27-8.63,4.36-12.81,6.3C1126.14,312.79,1124,313.93,1122.44,313.67Zm9.81-.17c4.65-5.16,15.62-8,23.81-5.83C1148.34,310.89,1141.27,314.2,1132.25,313.5Zm24.21-16.8c-1.33-6.95-.8-8,5.37-10.39C1166.11,291.9,1164.54,294.94,1156.46,296.7Zm9.33-8.7c3.93-2.7,3.93-2.7,6.7-1.07Zm35.7-9.67-1.31-1.2,5-2.13.81.95Zm.62-5c-4.32,2.63-4.68,2.53-7.1-1.6-.15-.26-1.38-.19-2.08-.27-4.81,9.92-11.54,12.68-23.34,9.69l.55-1.88-7.14,1.2-8.6-4c-2.29,2.16-4.17,3.78-5.81,5.51-2.25,2.38-2.57,2.43-7.37-.16l9.52-9.73-7.23,2.07-4.23,5.78c-5.84-3-3.55-6.11-2.5-9.18,6.92,2,7.55,1.79,7.55-3.46,0-2.62.83-4.29,4.51-4.74,3.85,2.07,6.13,5.45,11.75,5.88-.91-1.61-1.59-2.81-2.66-4.72,5.77,1,10.53,1.1,14.24,4.11a8.79,8.79,0,0,0,10.94.15c3.38-2.82,6.94-2.78,11-2.08,4.66.8,9.22,1.89,15,3.11Zm-39.22-30.53c-1.37,2.47-2.5,4.51-3.64,6.55l-1.59-.23c-.4-2-.79-4.06-1.28-6.55Zm-6.07-6.57,7.4,2.32c-.19.47-.37.94-.55,1.41C1159.89,241.21,1157.55,240.53,1156.82,236.26Zm13.39,2.55-4.12-1,.75-1.74c1.32.44,2.68.82,3.91,1.36C1170.91,237.48,1170.41,238.32,1170.21,238.81Zm6.58,9.71c1.8,3.16-.41,5.23-4.93,7.29l-2.63-5.76Zm-.24,12.54h-10.94C1173.92,257.51,1173.92,257.51,1176.55,261.06Zm54.19-32.93c3,.94,6,1.8,8.94,2.84,2.38.84,4.6,1.9,7.25,3l7.14-.59c-1.08,3.15-2,5.7-3,8.61l8.7,2.05c4.16-4.34,8.43-8.07,6.09-13.71,7,.28,5.44,4.89,8.13,7l7,1.1c-.12,1.88-.23,3.78-.36,5.88-8.37,3.43-16.79,7-25.4,10.35-5.62,2.19-10.6,4.7-13.09,9.1-3.67.65-7.62.92-10.91,2.11-4.32,1.56-7-2.17-11-1.18-.54.13-1.91-1.47-2.89-2.27-5.74,3-10.61,3-27.82-.34-4.55-6.13-3-9.23,6.36-11.35-3.65-1.52-6.6-3-9.81-4.05-8-2.64-8.43-3.1-7.38-10.07,6,1.84,13.48.3,17.88,5.28.6.67,4.16.21,6.25-.06,2.38-.31,4.75-1.61,7-1.42a72.17,72.17,0,0,0,18-.76c3.58-4.48,4-4.67,9.75-4.29-1.18-2.83-4.34-2.95-8.15-2.81.51-1.67.94-3.07,1.38-4.47Zm2.56-37.81.86.52a7,7,0,0,1-1.47,1.6,12,12,0,0,1-2.46.82l-.5-.68Zm2.54,21.58c.71,4-4.09,6-6.32,9-4,5.23-12.3,5.07-18.38-.84l14.22-1.19-2.7-3.75C1226,210.72,1230.39,210.09,1235.84,211.9Zm-17.54-12,8.74.74c-1.69,2.07-3,2.64-5.79,2.83-1.26.08-2,3-3.31,4.49-.47.52-2.07.51-4.42,1Zm1.5,11.23,1.14,1.17-6.89,5.81-3.93-4.52Zm-3.17,14.63c4.69.8,9.39,1.58,14.09,2.37-2.92,1.57-2.38,3.91-2.71,6.08s-1.66,4-5.3,3.77c-1.56-.12-3.18-1.56-4.47-1.37-1.78.26-3.16,2-4.91,2.22-3.63.38-7.66,1.4-10.81-1.2a5.08,5.08,0,0,0-2.52-.42c-3.26-.05-6.58.25-9.77-.1-6.13-.65-12.13-1.92-18.27-2.46-7.81-.69-15.7-.92-24.11-1.37-.83-2.33-1.69-4.76-2.49-7,4.66-3.33,6.4-.52,8.4,1.4,7.2-4.74,12.43-5.11,21.16-2.4,3.66,1.14,7.95,1.33,12,1.72,2.49.24,5.06.05,7.5.05.85,1.69,1.5,3,2,4.1,4.73-1.57,9.43-2.57,13.12-4.53A9.76,9.76,0,0,1,1216.63,225.76ZM1158,208.37c6.65-.56,6.65-.56,6.75,3.51C1162.65,210.65,1158.64,211.27,1158,208.37Zm8.31,1.29c3.06-3.24,6.1-3.08,9.91-2.48C1174.42,210.43,1171.32,210.34,1166.32,209.66Zm31.66,4.61,4.92-3.06C1202.75,213.94,1201.58,214.84,1198,214.27Zm-2.09-20.33.76,1.22-3.5,1-.52-.89Zm-2.27,10.87c3.73-3.85,7.37-4.72,14.42-3.37.13,6.22.13,6.22-13.1,9C1192.07,208.88,1191.44,207.05,1193.62,204.81Zm-.59,17.54c-4.49,4.29-4.49,4.29-13.65,1Zm-15.61-34.26,1.06.56-2.36,2.74-1.61-.93Zm-4.92,13.35c.61-.14,2,.8,2.48,1.45.21.26-.81,1.45-1.49,1.56-2.64.45-5.38.64-8.08.92l-.83-1.59C1167.21,203,1169.78,202,1172.5,201.44Zm-1.75-24.66-7.4,4.18-1.34-1.24,7.61-4ZM1155.17,174c3.47-1.21,7.12-.91,11.44,0-3.93,2.48-7.33,4.28-10.14,6.46-5.13,4-8.22,3.57-11.6-1.94C1148.62,176.83,1151.75,175.21,1155.17,174ZM1129,175.34c3.68-1.19,7.54-2.12,11.43-3.19L1142,175c-4.62,3-9.72,4.28-15.52,4.82C1127.08,176.19,1127,176,1129,175.34Zm-14.37,33.49c-.19-1.92-.35-3.48-.55-5.53l8.32,2.19C1122.29,209.29,1119.15,209.25,1114.59,208.83Zm4-21.14c1.08,4-1,4.86-5.84,4.43ZM1115,235.54c1.49,3.14,1.49,3.14-2.54,2.63Zm-16.53,24.18c5-4,7-4.5,12.48-3.13Zm3.47-28.81c1.61-2,4.85.32,7.48-1.22v9.19l-23.28-3.17c3.16-1.72,5.43-3,7.75-4.21S1099.32,234.17,1101.93,230.91Zm-2.28-53.48,1.28,1.35-4,1.61-.82-.82Zm-.49,46.3.21.87-5.35,1c-.16-.5-.33-1-.49-1.49Zm-6.5-40.45c-2.56.93-4,3.13-8.28,1.6l4.54-5.84Zm-8.06-5.05-4.21,4.46-1.9-1.05C1078.62,179.46,1079.46,177.79,1084.6,178.23Zm-6.22,67.55c.55,1.14,1,2.16,1.54,3.17,3.18-2,3.18-2,7.31-.25l-8,2.61-4.32-2.55Zm-9.31-64.38c.92.92,2.41,1.78,2.21,2.31-.79,2.1-1.52,4.44-3.36,6.06-5.73,5.06-12.53,1.85-19,1.07-.15-.38-.29-.77-.44-1.15Zm-14.91,59.78c1.24,6,.16,7.27-6.54,7.79C1044.53,243.79,1044.53,243.79,1054.16,241.18Zm-10-66.94-2.69,3.46C1039.41,175.44,1040.4,174.53,1044.17,174.24Zm1,48c-4.68.37-7.79-.7-9.28-4.66C1043.28,217.55,1044,217.92,1045.13,222.27ZM1022.45,202c-3.14-1.27-2.58-3.69-2.4-6.19l12.3,4.72C1028.75,201.92,1025.7,203.25,1022.45,202ZM1024.7,222l-9.61-1C1019,218.6,1021.53,219.33,1024.7,222Zm-1.32-47,5.92,4.11-.57,1.08c-3.24-1.51-5.59-1.76-7.61.93-1.83,2.45-2.32,2.26-8.91,1.41Zm-11.48,27.37,9.63,2.24-.28.9L1011.9,207Zm13.51,23.83c-.17.9-.75,2-.49,3,.32,1.17,1,2.76,2.2,3.19,1,.35,3.17-.53,4.5-1.19s1.83-1.85,3.06-2.46c.76-.37,2.16-.07,5.13-.07-5.6,3.45-1.37,9.17-9,10.78-1.51-2-3.63-1.16-6.18-.64-5.17,1.06-10.23,5.2-16,.75-.19-.15-1.37.36-2.09.55a6.27,6.27,0,0,1-6.12-1.44,47.48,47.48,0,0,0-4.45-3c-1.67,3.27-3.12,6.08-4.51,8.8-3.27.23-4.93-1.3-3.09-2.48,3-1.95-.54-3.78,1.13-5.79,4-.09,5.08-2.36,5.42-4.88.32-2.31,1.47-3.36,5-2.87,1.26.17,2.72-.69,4.14-.83C1011,227,1017.5,223.61,1025.41,226.24Zm-37.24-17.3c4-1.28,6.46-2.92,10.36-1.33C995.86,210.25,992.76,209.64,988.17,208.94Zm10.4,10.55a17.69,17.69,0,0,1,2.76-.26c.06.26.12.52.19.78l-4.59,1.41-.85-.84A16.2,16.2,0,0,1,998.57,219.49Zm-6.61,1,.63,1.42-4.17.53-.3-.92Zm13.43-24.08c-.47,2.18-.71,3.34-1,4.78l-6.06-.64c-3.57,4.79-8.42,5.95-20.18,4.32C987.6,201.57,995.84,199.05,1005.39,196.41Zm-17.72-16-5.59,7C981.85,181.11,981.85,181.11,987.67,180.41ZM979,183c-1,5.76-1.72,6-8.47,2.6Zm-1.6,10.45c-1.48,3.66-1.48,3.66-7.31,5.65C968.88,194.08,968.88,194.08,977.41,193.45Zm-9.25,55.86c.43,1.31.87,2.62,1.31,3.93l-1.88.39c-.62-1.29-1.24-2.58-1.87-3.87Zm-5.68,19.93,2.45,3.24-1.48.61c-.94-1-1.87-2-2.8-3Zm-9.2-72.35c4.37-.27,6.57.63,6.68,3.19.12,2.76-2.29,3.79-6.68,3.85Zm-.07,26c.47.07,1,2.36.45,3.34-1.14,2.13-8.87,3.31-12.3,2.13l-.81,2.4-5.92-1.33c6.12-3.58,11.56-6.76,17-9.92C953.08,220.47,949.45,222.4,953.21,222.9ZM949,206.37a28.56,28.56,0,0,1,1.24,3.07,16.89,16.89,0,0,1-1.89.5l-1.12-3.21Zm-8.53-7.84c-4.43,1.32-4.43,1.32-7.9.33A7.87,7.87,0,0,1,940.42,198.53Zm-9.61,4c2.07,0,4.11,0,6.14,0A10,10,0,0,1,939,203c.52,7.64-1.31,8.76-12,7.18,0-1,0-2.09,0-3.17l-.06,0Zm-4,.24v4.18c-1.09-.41-2.67-.73-2.85-1.28C923.56,204.36,923.52,202.7,926.83,202.75Zm-12.63,6.52c1,2.69.47,4.29-4,4.4C909.48,210.87,911.24,209.9,914.2,209.27Zm19.14,36.83c.47,3.54-2.24,4.44-5.69,4.09-6.3-.63-12.53-1.6-19.38-2.52C916.58,242,924.84,245.6,933.34,246.1Zm-12.72,24c-3.78-.42-7.12-.55-10.26-1.2-4-.84-6.84-2.91-8.09-5.79-1-2.22.92-3.4,4.07-2.84C913.56,261.52,918,264.83,920.62,270.09Zm-20.21-77.67c1.51,1.14,2.53,1.57,2.77,2.16a5.39,5.39,0,0,1,.16,2.9,3.45,3.45,0,0,1-1.89.46,8,8,0,0,1-2.06-2.6C899.17,194.78,899.8,194.05,900.41,192.42Zm5.45,32.76c-.83,1.73-1.43,4.22-2.15,4.24-2.47.07-5-.73-7.52-1.21C897.5,224.33,900.67,224.47,905.86,225.18ZM574.51,391.76a17.24,17.24,0,0,1-2.63-.54l2.41-3.84c1.33,1.77,2.06,2.77,2.94,3.94A18.33,18.33,0,0,1,574.51,391.76Zm19.85-21.85c-.33.53-2.36.53-3.6.78-.1,1.79.33,3.7-.44,5.32-1.11,2.37-3.16,4.5-4.68,6.78-1.41,2.11-3.12,4.22-6.87,3.31-3.53-.87-3.74-3.36-3.08-5.59.4-1.32,1.28-3.11,2.7-3.61,3-1,3.75-2.88,4.92-4.69s2.36-3.51,3.91-5.78c1.37,1.58,2.16,2.48,2.94,3.39-1.15-4.75-1.43-9.25,6.34-11.48h0l4.58-.56C598.72,362.14,596.71,366.08,594.36,369.91Zm2.16-11.6c-.13-3.42,1.8-6,6-8.09C604.33,354.76,598.39,355.7,596.52,358.31Zm13.2-106.15c-.54-.54-1.19-1.07-1.69-1.61a32.87,32.87,0,0,1-2.57-3,19.59,19.59,0,0,1,2.78-2.93l4.45,6.39Zm23.7,28.78c2.06-3.65,6.11-3.35,10.47-3.78C641.58,280.63,638.58,281.9,633.42,280.94ZM641,344.12c-4.41-2.06-4.46-5.07-3.86-8.77,5.09.36,15.33,2.56,16.23,3.72.66.85.46,2,.69,3.4C649.52,343.33,646.1,346.52,641,344.12Zm12.3-20.65c6.09,4.57,6.12,5.3,1.21,11l-7.61-1.1c1.27-2.32,2.43-4.42,3.69-6.7l-2.51-.19c-2.31,2.3-3.65,4.26-5.76,5.59-1.89,1.19-4.79,0-5-1.82a3.55,3.55,0,0,1,.67-2.68c3.24-3.61,2.48-7.18,1.07-11.13-1.83-5.11.53-9.88,4.61-14.2,3-3.21,8.09-2.65,12.71-3.84a51.71,51.71,0,0,1,10.48,27.19ZM673,309.2,679,308C676.13,311.84,675.78,311.89,673,309.2Zm12.2-24.39v4.88c-4.39,2-8,3.78-11.77,5.25-5,1.9-8.37,1.33-11.62-1.57-3.43-3.06-3.42-6,.16-9,2.17-1.84,4.39-3.66,6.77-5.35a11,11,0,0,1,4.37-2.17,48.69,48.69,0,0,1,19.38.58C690.23,280.24,691.13,284.11,685.21,284.81Zm10.15,37.61c-3.64,1.3-4.7.08-5.29-1.68-.06-.19.44-.48.87-.9Zm-9.65-47.66c-1.39-.16-2.49-1.72-3.72-2.65l.9-1,12.91,2.08C692.15,276.24,688.65,275.08,685.71,274.76Zm7.86-32.61L680.69,239c2-.94,3.87-1.63,5.43-2.56a37.21,37.21,0,0,0,3.78-2.83l8-2C697.45,235.67,697.24,239.28,693.57,242.15Zm10.26,45-5.39-1.46,2.31-6.33,1.38.16c.19,1.44.37,2.88.67,5.13,2.91-2.78,4.45-5.82,7.7-7.28l5.24,2.4Zm-4.68-44.25c.55-3.25,1.26-6.49,1.93-9.73,3,3.65,3.12,7.11.26,10.73C700.27,243.43,699.11,243.11,699.15,242.9Zm17.77,2.82c.39,2.25.6,3.47.9,5.17C714.06,249.62,712.83,248.49,716.92,245.72Zm7.23,45.59a16.87,16.87,0,0,1,6-5.1l7.56,3.29Zm28.77-42.65-1.07-1.06,4.95-6.31c-.81,5.34,6.31,2.17,7.44,5.35Zm23.69,45.54c-3.21,1.8-6.1,2.33-7.16.44,1.2-.75,3.27-1.24,6.83-2.07,1-.24,2.07-.45,3.11-.67A8.36,8.36,0,0,1,776.61,294.2Zm-4.33-14,3.6-.78c.15.45.3.91.44,1.36-1.18.14-2.37.3-3.57.36C772.63,281.17,772.44,280.55,772.28,280.22Zm6.7,16.85-.18-1,4.66-2c.66,1.12,1.14,1.91,1.79,3Zm7.14-54c-3,.55-6,1-9.93,1.56-.7-1.72-1.32-3.25-2.08-5.15,5.76-.14,10.21-.17,14.13,2.29C787.28,242.42,786.78,243,786.12,243.11Zm4.33,45.49c0,.28-1.86.6-3.2.64l3.19-1.5A3.1,3.1,0,0,1,790.45,288.6Zm.1-46.09c1.71-3.95,4.66-2.21,7.21-1.13Zm14.57,46.12c-2.36-.56-5.22,1.36-7.83-1.94l8.1.8Zm-2.58-24.2L799,268.25C796.41,265,798.86,264.41,802.54,264.43Zm39.9,22.66-4.83-4.59,7.53,2Zm19.1-29.1c-2.14-.1-5.18.74-6.12-1.83,4.91-1.57,9.58-3,15.08-1.42C866.24,258.1,866.23,258.21,861.54,258Zm5.72-30.93c1.92-5.12,2.47-5.27,8.1-2.79Zm8.67,36.29,10.25,1.93C881.57,267.36,880.4,267.15,875.93,263.35Zm3.2-2.36,8.3-4,3.53,7Zm14.58-.16-2.83-3.11C894.75,257.51,894.54,258.9,893.71,260.83Zm0-25.44c-5.09.37-5.09.37-8.85-.92,2.2-1.75,3.86-3.94,8.47-3C893.47,232.76,893.6,234.08,893.72,235.39Zm-11.25-53,6.61,1.23c-3.57,3.74-4.92.17-7,.27C882.24,183.36,882.35,182.86,882.47,182.36Zm9,17.24c-.59,4.13-5.64,3.92-8.79,5.24-2.29,1-4.42.72-5.47-1.28C879.93,198.53,885.85,199.88,891.47,199.6Zm-15.42,1-2.55,4.26-6.51-4.2.63-1.09Zm-11.52-22.28,1.72-.62L870.7,180l-6.17,6.48Zm-5.91,58.3c-.78.34-2.41-.31-5.11-.73l7.68-5.36C863.92,234.24,861.15,235.53,858.62,236.62Zm1.18-59.76a66,66,0,0,0,.05,7.18c.38,3.28-1.6,5.18-5.87,6l-3.84-6.65C856.27,177.85,856.27,177.85,859.8,176.86Zm-11.91,11.8,5.9,1.53c-.43,1.65,0,4.05-3.85,3.35S847.74,190.57,847.89,188.66Zm-1.43,7.12,12.07-.5c-1.83,2.05-3.09,3.45-4.36,4.86-3.36-1.85-3.21,1.92-7.76,2.14C852.73,199.18,845.88,198.18,846.46,195.78Zm6.44,61.44-11,1C847.84,256,847.84,256,852.9,257.22ZM835.65,225c.81-3,3.87-5.28,8.67-7.1.95,3.1,1.86,5.73,2.5,8.4.15.62-.49,1.91-1,2-4.54.54-5.67,3.76-9.61,6.5C835.89,230.74,834.89,227.75,835.65,225Zm14.41,37.22c-5.87,3.08-10.7,3.14-16.13.94C838.7,260.61,843.5,260.57,850.06,262.24Zm-16.79,19.43c-.27,1.28-.36,2.55-.58,2.56-2.74.14-5.5.09-8.25.09l-.15-1.54Zm-5.84-47.32,4.5,2.2a8,8,0,0,1-7.84,1.61Zm-34-64.68,1.71.4-1.9,4.59-2.07-.61Zm2.27,7.51c-1.44,4.69-2.84,9.22-4.23,13.75C789.27,179.56,789.57,178.75,795.67,177.18ZM785,183.69l2,.44c1.27,2.42,1.49,4.77-1.09,7-.33.29-.51,1.11-.28,1.24,2.57,1.46.94,2.86-.55,3.66-1.28.7-3.38.63-7.1,1.21C780.76,191.83,782.86,187.76,785,183.69Zm-8.6,38.62c2.67-3.08,4.23-6.31,3.69-10,0-.24.57-.51,1.19-1l4.46,2.52c1-1,2.06-1.94,3.57-3.37,1.3,4.78,1.3,4.78,6.89,7.25,9.88-3.2,13-2.44,17.16,4.29a4.28,4.28,0,0,1,.27,1.93c.29,2.94,2,4.25,6,4.5,1.55.09,3.13,0,5,0l-7.89,10.65c-2.32-3.51-.13-7.86-6.86-8.22l-5.71,7.83-29.18-1.32C770.53,229.33,770.52,229,776.35,222.31Zm-3.85,61.46-.27,0c-5.25.49-10.56,1.23-15.78.23L759,278.7C765.8,278.09,770.39,279.52,772.5,283.77Zm-7.83-84.52-7.36-1.43a35.25,35.25,0,0,1,1.88-3.86,13.1,13.1,0,0,1,2-2.11C762.24,194,763.25,196.19,764.67,199.25Zm-7.35-12.62c1.54,2,2.73,3.53,3.85,5.09-3.32.23-7.15,2.86-9.69-1.2ZM739.6,199.79l-5.27.47-.21-1,5.3-.44Zm-6.22-2.26c1.23-1.5,2-2.4,2.75-3.37,2.31,2,2.37,2,.49,3C736,197.44,735.05,197.35,733.38,197.53Zm-5.36-25c2,2.58,2,2.58-2.38,3.1Zm4,3.27c4.54,2,7.66,4.07,6.23,8.29l-2.74-1.3q-.74,3.1-1.65,7l-11.19-3.41C719.79,179.5,729.08,179.36,732,175.84Zm-10,14,9.26,2.32c-3.09,2.52-5.46,4.44-7.83,6.36l-1.43-.55Zm-6.52,3.57-4.27-7.19C717.78,187.57,717.78,187.57,715.41,193.43Zm-7-4.79,8,8.66-.72,1.18c-7.59-3.17-14.6-.33-23,1C697.09,194.48,702.78,192.07,708.39,188.64ZM693,207.06c2-2.84,7.86-4,12.44-3.31l-23.2,11.53-6-5.13c3.54-2.47,5-2.56,9.18-1.7C688.07,209,691,209.85,693,207.06Zm-10.36-25.67a15,15,0,0,1,.43,2.16c0,.1-.83.23-1.27.35-.3-.76-.61-1.52-.91-2.27Zm-6.46,3.09,2,.12c.28,1.32,1.34,2.88.71,3.91-1.94,3.16-5.42,5.4-9.39,7.14l-1.36-.81Q672.16,189.66,676.19,184.48Zm-15.25,42.75c3.49-2.14,7.13-4.16,10.8-6.15a13.44,13.44,0,0,1,4.67-1.91C686.88,218,694,212.27,703,209.11c8-2.79,14.74-5.14,23.11-4.51,9.53.72,19.06,1.45,28.57,2.28a16,16,0,0,1,4.19,1.35c.35.14.47.58.88,1.14l-2.61,4.53h8.26c2.08,2.38,6.42,4.82,2.36,7.33-5.13,3.16-5.11,6.44-3.29,10.39.21.46-.23,1.07-.42,1.81l-4.49-.87c-.68.87-1.34,1.73-2.39,3.1-1.3-1.66-2.2-2.83-3.21-4.13-2.17,2.63-4.6,4.79-5.8,7.26-1.29,2.67-1.4,5.63-2.1,8.46a24.26,24.26,0,0,1-1.12,2.81l-22,1.71c-3.45-1.77-4.29-4.26-3.29-7.23l6.47,1.87c.48-4.36.89-7.95,1.3-11.67,4.41,1.23,6.27.75,6-1.64s-1.64-4.85-3-8.59l-6.7,6.8c-3.78-1.73-7.28-4-12-2.13-.53,5.68-.53,5.68-5.25,6.38.49-2.87.94-5.54,1.37-8.1-1.26,1-2.69,2.22-4.13,3.41l-1.37-.64L707,222.9l-6.77-2.56L692,223.65c1.88,3.49.47,6.67-2,9.74a28.85,28.85,0,0,0-13.27,4.14,14.29,14.29,0,0,1-6,1.87c-4.87.27-9.78.09-14.51.09C654.13,232.66,654.73,231,660.94,227.23Zm-15.61,45.59c-3.74.22-7.53,0-11.35,0,.54-5.07,8.27-8.35,19.15-8.64C654.91,270,652.81,272.38,645.33,272.82Zm1.29-96.59c2.36,3,3.82,4.77,5.81,7.26l-7.33,1.57C645.62,182,646,179.79,646.62,176.23ZM626,175.57l10.66-4.8c.79,1.13,2.67,2.59,2.69,4.06a91.52,91.52,0,0,1-1.09,13.3c-.09.69-1.44,1.54-2.48,1.87-3.13,1-6.38,1.58-9.91-.51a44,44,0,0,0-.1-7.41C625.35,179.73,629.52,177.44,626,175.57Zm-3.18,25c.64-2.44,1.44-4.85,2.29-7.68l10.79,3a46.79,46.79,0,0,1-2.41,6.88,5.59,5.59,0,0,1-6.69,2.54C624.09,204.64,622.14,203,622.78,200.59Zm.87,20c.31-.74,1.3-1.5,1.13-2.13-1.4-5.39,0-7.2,7-8.89-2.35,10.69-2.85,11.67-7.82,15.15l-1.77-.36C622.67,223.13,623.11,221.86,623.65,220.62Zm-3.49-7.49-1.2,4.66C616.14,215.93,614.41,214.22,620.16,213.13ZM615,167.35c3,8.83,3,8.83-6.93,13.67-.92-1.72-1.64-3.05-1.88-3.49Zm-9.37,26.24L611,191.8c.36.61,1.17,1.32,1,1.8a3,3,0,0,1-2.18,1.15C608.85,194.79,607.89,194.26,605.65,193.59Zm2.56,6.6h-6.92l-.21-1,5.52-3.16C607.23,197.68,607.65,198.77,608.21,200.19Zm-5-21.62c1.67,2.15,4.15,3.77,1.29,6.29C599.75,182.2,599.75,182.2,603.23,178.57Zm-4.1,7.15.67,1.06-3.12.92-.72-1.27Zm-4.82-.12-5.87,2.67C588.7,185.82,589.38,183.85,594.31,185.6Zm-3,25.73,10.41,4.46c2.42-1.79,1.11-5.39,6.79-5.3,5.06,3.92,6.27,8.8,6.13,14a55.33,55.33,0,0,0-8.23-1.86c-.2-1.85-3.66-2.41-4.94-3.84a16.44,16.44,0,0,0,.26,3.31q-3.36-.25-6.77-.25c-2.11-1.89-2.23-4-3.09-6l-2.69,2.38-1.35-.48ZM603.56,244c-.11-.32-.2-.65-.28-1h.21A2.62,2.62,0,0,1,603.56,244Zm-3.82,9.87-1.7,3.22-1.57-.44c.53-1,1.06-2.1,1.58-3.15Zm-1.32-6q.48.88.93,1.77l-.43.45A6.88,6.88,0,0,1,598.42,247.87Zm-13-47.79c2.16,1.58,1.52,2.77-.58,4.08C582.1,202.72,583,201.54,585.42,200.08Zm-4.55,45.72L583.7,249c2.4-4.1,4.31-6.87,5.57-9.79.39-.9-.67-2.4-1.67-3.27a6.72,6.72,0,0,0-.94-.64c3.5-.34,5.12.74,6.79,3.73,1.24,2.24,2.55,4.45,3.81,6.69-.43,1.91-.89,3.79-1.39,5.67-.43,1.62-2.58,2.86-5.61,3.25l-.91-6c-1,.34-1.56.56-2.15.74-3.94,1.17-4.61.93-7.1-2.62C580,246.6,580.52,246.22,580.87,245.8Zm9.92,23.25c-5.41-2.07-5.41-2.07-2.31-4.06C589.07,266,589.6,267,590.79,269.05Zm-12.24,3.86c.82-.21,1.64-.41,2.45-.63,0-.27-.06-.54-.08-.81-.6,0-1.2-.09-1.81-.16l.58-1.65,7.53,2.53c-1.57,3.69-5.38,3.45-9.74,3.77C577.87,274.86,578.22,273.87,578.55,272.91Zm19,21.81c1.75-1.5,3.75-2.85,6.46-4.89,1,4.29,2.44,7.62,2.42,10.94,0,11.89-.49,23.78-1,35.66-.21,5.13-3.05,9.49-7.2,13.8-6.78,7-15.33,13.35-18.66,21.9a3.11,3.11,0,0,1-1.84,1.45c-2.12.6-4.36,1-7.18,1.6l-6.16-8.85-.95.25q2.68,7,5.36,14.05l-4.17.59,5.34,2.35c-1.85,3.94-1.42,8.44-8.62,9.82-1.11.21-1.77,1.67-2.58,2.58-1.3,1.47-2.55,3-3.9,4.56-2.84-3.71-5.66-6.93-7.79-10.37a20.79,20.79,0,0,1-3.1-7.92c-.74-5.63-3-11.21-.06-17a20.38,20.38,0,0,0,1.34-15.83c-.59-1.87.86-4.19,1.9-6.17.79-1.51,2.41-2.81,3.65-4.2,5-5.64,9.45-11.58,15.13-16.84C576.11,312.83,587,303.84,597.57,294.72Zm-42-22.42c-.84.83-.39,1.66.33,2.54-1,.19-1.89.39-2.84.57l-3.21.63-3.11-1.82c.43.81.81,1.54,1.13,2.2-3,.56-5.93,1.07-8.93,1.43a74.93,74.93,0,0,1,4.36-11.9c1-1.95,5.15-3.24,8.21-4.36.5-.18,2.56,1.84,4,3C553.58,267.12,558.47,269.45,555.62,272.3Zm16.27,2.31c-.44,3.57-3,4.39-9.4,3.88a40.94,40.94,0,0,1,5.53-2.63C569.27,275.39,570.57,275,571.89,274.61Zm-.72-3,.66-.5,0,.36Zm-2.23-13.37c-3.36-3.9-2.81-4.86,4.85-8.08Zm2.83,9a13.77,13.77,0,0,1-4.85,5.24l-6.64,1.43h-.13l-4.54-9.29.18.14v-2.49a78,78,0,0,1,8.53,1.69A71.53,71.53,0,0,1,571.77,267.25ZM548.33,292l-5,4C542.81,293.58,545.06,292.53,548.33,292Zm-2.1-7.86c-3.08,2.43-6.8,4.59-10.86,7.36.74-3.09,1.16-5.34,1.75-7.44C540.14,284,543.17,284,546.23,284.15Zm-3.18,12.18-8.39,11.43c-.76-3-1.3-5.07-1.79-7Zm-7.36,16.43c4.94-6.6,10-13.16,15.3-19.62,4.29-5.22,8.91-6.18,17.9-4-10.93,9.7-21.73,19.31-32.59,28.88-.38.34-1.33.36-3.3.85C534.05,316.43,534.44,314.43,535.69,312.76Zm5.43,38c3.28,3.27,2.58,6.6.29,10C539.78,357.45,539.39,354.09,541.12,350.77Zm33-153.56c.28-.06,1.33.89,1.22,1a5.72,5.72,0,0,1-2.22,1.69c-.31.12-1.35-.76-2.55-1.49A24.33,24.33,0,0,1,574.12,197.21Zm-6.46,3.4v3.29l-1.24,0c-.1-1.1-.19-2.2-.29-3.29Zm2.79,38.94a16.81,16.81,0,0,1,.84,2.41c.41,1.55-.68,3.32-1.16,5.25l-10.68-3.3C563,242.33,566.68,240.86,570.45,239.55Zm-32.39-22.33c4,1.2,3.93,3.51,3.18,6.52C535.25,222.73,535,222.15,538.06,217.22Zm.7-13.81c3.24,1.53,5.66,2.73,7.43,3.8l-6.57,3.7C537.72,208.74,535.29,206.53,538.76,203.41Zm-1.62,22.78c3.55-.09,4.3,1.27,4.52,3.16.34,2.91-1.87,4.33-6.24,5.54C536.07,231.64,536.6,228.9,537.14,226.19Zm4.27-12.52c2.46-1.52,4.93-3,7.41-4.54,2,1.89,1.94,3.77,1.17,7.06C546.54,216.26,542.78,215.63,541.41,213.67Zm5.89,7.67c.05-2.2,1.59-2.89,4.93-2.17-.41,3.91,1,8-5,11.19C547.28,226.68,547.23,224,547.3,221.34ZM550.75,208l.12-.07-.08.1ZM548,206.17l-9.3-6,1-1.91c4.64.53,9.36-2.87,13.92.92.9.75,2,1.46,3,2.19Zm10.63-3c.81,1.18.77,2.53-1.2,4.23l4.86,2.14c-5.87,1-6.76-1.42-7.79-3.9Zm-21.54-22.39c1.48-.66,3.16-1.08,5-1.71.68,1.31,1.21,2.3,2,3.76,2-4.7,5.41-7.88,11.16-10.21l-2.43,10.66c5.64-2.75,3.4-7.67,6.75-10.57,1,2.33,1.87,4.56,2.79,6.78l-.15-.11c-.14,3.13-.13,6.27-.46,9.39-.23,2.26-2.08,3.64-5.3,4.16-3,.49-5.69.68-6.83-1.92,1.39-3.69,6-1.55,9.1-2.29-.9-3.69-4-4.62-8-3.88a58.39,58.39,0,0,0-8.33,1.86c-3.53,1.32-4.83.19-6.11-1.11C534.89,184.11,534.11,182.13,537.12,180.81ZM536,256.55a4.94,4.94,0,0,0,1-1.43c5-2.56,9.89-5.19,14.94-7.67,2.42-1.19,4.86-2.35,7.35-3.45l9.13,5.85-13.51,6.57-4.58-4.24c-1.48,4.2-6.23,5.48-11.53,6.4.89,3,.26,5.63-4.67,7.89C533.72,262.59,533,259.53,536,256.55Zm-2.12,13.13,2.09.37-2.13,5.72-1.81-.38C532.63,273.48,533.24,271.58,533.86,269.68Zm-50.09,22.9c2.85,3.4,2.85,3.4-1.84,5.43Zm-35-26.76c.2-1.09.4-2.13.6-3.17l8.64-1.16c.25.21.48.42.69.62-1.7,1.53-3.24,3-4.76,4.31Zm1.19,3.92a4,4,0,0,1-.81.19l.21-.28Zm.34-12c.1-.52.2-1.05.3-1.61l1.94,1.33C451.81,257.54,451.06,257.64,450.31,257.72Zm6.86,68.83a2.28,2.28,0,0,0,0-1.07c10.88,7.79,17.84,16.78,17.58,22.39l-16.81,2.84c-.95-8-1.86-15.75-2.81-23.73C456,327,457.12,326.75,457.17,326.55Zm15.3-76.2c.25.61.47,1.18.7,1.74-.86.4-1.74.76-2.62,1.11C470.58,252.37,471.47,251.42,472.47,250.35Zm-3.07-32v8.34l-1.61,1.25c-1.79-5.47-8.64-4-14.38-6.22Zm-13.2-2.15,3.9-3.61,1.72,1C461.44,215.09,460.85,216.4,456.2,216.19Zm10.23-5.11c-.62.12-1.76.39-1.78.34a16.89,16.89,0,0,1-1-2.25l1.74-.38C465.76,209.55,466.1,210.31,466.43,211.08Zm-6.13-4.35,4.83-7.92C467.68,202.76,464.21,204.81,460.3,206.73Zm-8.5-22c3.22,2,2.17,6.63,8.79,5.55-1.71,3.69-4.37,6.1-8.79,8.1Zm.38,39.41c9.66-.08,13,5.17,16.63,9.91,1.55,2-.24,2.92-3.32,2.51-.52,3.77-1,7.49-1.6,11.49-7.78-3.76-9.91-7.52-7.34-13.22.64-1.4,1.74-2.72,2.14-4.15.29-1-.19-2.21-.33-3.32l-1.71-.21c-1.56,3.08-3.13,6.15-4.84,9.52C446.88,232.38,447.31,228,452.18,224.16ZM428.06,378.45c.68,2.39,1.28,4.5,1.83,6.46-4.24.51-7.85,1.14-11.51,1.34-4.39.25-8.82.15-13.24.17h-5.61q2.75-4,5.35-8.05A92.25,92.25,0,0,1,428.06,378.45ZM403,308c1.19-.62,2.49-1.22,3.95-1.83.65,2.83,1.26,5.44,1.86,8l-9.33,3.69c.78,1.15,1.74,2.55,2.72,3.95L397.53,320q.12-1.31.3-2.61c.46-3.36.62-6.86,5.51-9.24Zm1.28-13,6.75,1.62C408.08,298.37,406,299,404.28,295Zm4,30a1,1,0,0,1-.08.11l-5.47-3C407.13,321.52,407.24,321.6,408.28,325ZM426.79,376l-21.07,1.11q4.42-6.94,8.45-14l6.52-1.41C424.84,366.08,425,371,426.79,376Zm-11.61-76c1.15,2.91,2.12,5.19,2.92,7.5a7.22,7.22,0,0,1,.2,2.33c-.09.11-.17.23-.26.35C409.67,305.76,409,303.53,415.18,300Zm-4.34-86.1-.56.18c0-.18,0-.35,0-.52Zm-3.73,71.63c2.69,2.83,5.95,5.27,5.66,9.06-9.14-1-9.54-1.38-8.14-7.69Zm-10,.16a9.1,9.1,0,0,0,1.2.66l-1.65-4.65c7.32.81,7.32.81,7.81,5.27-1.57,1.38-3.23,2.3-5.4.38.59,2.12,2.71,5.26,1.5,6.18-4.77,3.62-.83,6.18,1,9.26l-3.12,3c-1.35-1.53-1.45-3.49-1.73-5.5-.73-5.26-2.1-10.48-3.25-15.71-.11-.5-.22-1-.35-1.5A25.42,25.42,0,0,1,397.14,285.67Zm-16.25-.21a37.7,37.7,0,0,1,4.51-2.86,4.77,4.77,0,0,1,1.35,2.07c.95,5.56,2.23,11.13,2.31,16.71.06,4.46,0,8.92-.06,13.38l-1,1c-7.58-4.16-14.49-8-21.48-11.78,3.86-5.49,7.77-11,11.64-16.45C379,286.79,380,286.11,380.89,285.46Zm-53.05-5.74c9.25-.39,4.8-7.08,10.09-11.37l4.24,5.23,2.43-2.31A79.59,79.59,0,0,1,364.89,273q-6.94,10.64-13.79,21.31c-5.34-2.6-12.09-4.47-15.86-9.09-.19-.23-1.16-.27-1.71-.2C327.61,285.79,328.16,282.87,327.84,279.72Zm2.33,24.8c-4.42.66-4.71-.9-4.66-2.72Zm40.11,22.08c-2.78,1.57-4.59,1.17-6.48-.72C366.57,324.39,368.39,324.77,370.28,326.6ZM345,353.89a37.18,37.18,0,0,1,.12-9.61,6.9,6.9,0,0,1,1.63-1.37,48.34,48.34,0,0,0,4.35-3.21l2.45,4.54c-.6.79-1.26,1.56-1.78,2.37A22,22,0,0,1,345,353.89Zm13.12,4.8a67.76,67.76,0,0,1-13,7.84c-.6.27-1.32.42-2.88.91.65-1.84,1.2-3.07,1.5-4.32.23-1,.57-2,.87-3A60,60,0,0,1,358.13,358.69Zm-5.78-24.64a39.5,39.5,0,0,1-5.93,4.28A64.44,64.44,0,0,1,354,322.18a3.41,3.41,0,0,1,.86.58c.59.56,1.46,1.34,1.29,1.87C355.14,327.85,355,331.66,352.35,334.05Zm5.53-7.2,5.64,2.39-8.56,3Zm-1.59,38.93A40.84,40.84,0,0,0,367,359.56c1.12.17,2.22.35,3.31.55-9.43,9.68-17.38,20.08-25.62,30.46q-5.42.49-10.83.89a33.72,33.72,0,0,1-3.9.05c1.82-3.07,3.38-6.23,5.08-9.34C339.1,374.7,346.8,369.57,356.29,365.78Zm10.42,24.37c.58-.07,1.16-.15,1.73-.2l-7.33,9.5-1.31-.52Zm1.48-1.87,6.12-7.78,1.08.43-5.53,7.18ZM374,356.45c-1-.18-2.08-.35-3.13-.51.49-.52,1-1.06,1.42-1.61,3.12-3.75,8-5.59,13-7.69A144.06,144.06,0,0,0,374,356.45Zm3.11-13.14a34,34,0,0,0-8.37,6c-2,1.94-4,3.86-6.1,5.71-2.71-.19-5.46-.27-8.24-.22a39.91,39.91,0,0,1-5-.46c1.53-3.69,2.88-6.92,4.2-10.11l0,0a14.49,14.49,0,0,0,1.08-3.08c.76-6.36,8.63-10.31,17.26-8.58l3.38-2.89c4.51,2.27,8.86,4.56,13.2,6.79-.05,1.45-.77,2.3-2.6,3A78,78,0,0,0,377.08,343.31Zm-6.88-86.94c.63-1,3-1.43,4.63-2a1.4,1.4,0,0,1,.78.15,18.59,18.59,0,0,0-2.32,4.84h-.14C370.42,259.24,369.26,257.82,370.2,256.37Zm-1.38,2c-.87-.95-1.75-1.9-2.64-2.84l.2-.25C368.55,256.09,368.94,257.08,368.82,258.4Zm-7.72-70.12a70.22,70.22,0,0,1,7.2,8.84,39.06,39.06,0,0,0-6.84-3.43c-.35-.66-.68-1.32-1-2S360.76,189.92,361.1,188.28Zm1.7,80.92c-2.24.28-4.48.64-6.74.82-2.75.23-3.48-1-3.47-2.7h-1c-.94,3.16-2.3,1.11-4.51-.35l13-7.37Zm-5.3-56.12-1,.35c0-.31,0-.62-.07-.93Zm-5.43,18.23,4.24,5.91-1.51.54-4.64-5.86Zm-25.82-34.2c3.36,3.46,6.41,6.47,9.19,9.61.44.5-.38,1.58-.64,2.46C324.51,206.15,323.27,204.51,326.25,197.11ZM313.44,201c2.18,1.17,4.4,2.24,4.28,4.85l-7-.8C311.64,203.72,312.53,202.37,313.44,201ZM307,224.4a7.59,7.59,0,0,0,1.42-1.49c1.45,2,1.28,3.72-1,5.12a12.54,12.54,0,0,1-8.14,1.7A47.65,47.65,0,0,0,307,224.4ZM297.81,246l19.66-4.45c-5.13,5.69-14.68,4.9-19.66,9.59Zm-7.57,1,.23.2-.23.21Zm-.14,11.3.53-1.31c1.51.29,3,.84,3.33.59,5.63-3.85,14.19-4.1,19.48-8.61s11.72-8.34,17.55-12.53c3.87-2.78,7.57-5.69,11.19-8.43,3.19,4.28,6,7.93,8.62,11.63a5.48,5.48,0,0,1,.89,2.67c.06.56.09,1.12.1,1.67a2,2,0,0,0-.54-.17c-1.44-.27-2.95-.34-4.43-.5a18.08,18.08,0,0,0,2.22,2.67c.76.65,1.56,1.27,2.38,1.88-.85,3.65-3.16,6.9-7.76,9.52,1.79,1.78,2.58,3.45-.75,4.85l-12.15-9.63v7.69l4.3-2c4.09,2.47,3.58,5,1,7.53-5.61.38-6.75-2.24-7.24-4.73-2.54-.39-4.46-.76-6.41-.94-.56,0-1.22.48-1.89.77.92,1.57,1.78,3,2.68,4.58-5.62,3.24-11.76,0-17,1.67l-5.7-7.21c-3.9,1-5,5.87-10.5,5C290.06,262.65,290.08,260.45,290.1,258.24Zm13.77,36.2,6.74,5.41c-4.67.4-5.83,5.12-10.57,2Zm-7.81,5.36c-4.18-.4-4.31-2.54-3.74-4.84a7.63,7.63,0,0,1,1.76-.33c1.77.13,3.54.33,6,.57C299.27,297.33,300.91,300.26,296.06,299.8Zm5.57-21.48.71-.72.11.44ZM314,303.82c-.17.54-.33,1.08-.49,1.62l-5.77-1.3C310.38,302.37,312.47,302.1,314,303.82Zm-1.13-27.63c-2-3.63-9.73-2.47-9.67-7.35h19.83C321.53,272.74,317.44,274,312.91,276.19Zm-23.19-7c0-.59.1-1.19.13-1.78h1.5c.3,2,.55,3.61.86,5.67l8.4-2.38.16.64a4,4,0,0,0-1.07.34c-2.76,1.58-5.26,3.4-7.92,5.08-.44.28-.9.55-1.38.82a10.09,10.09,0,0,1-2.1-1.94A35,35,0,0,0,289.72,269.17Zm0,35.4a3.39,3.39,0,0,0,1.3-2.38l20.11,4.89c-2.67,1.15-3.59,1.77-4.66,2q-6.87,1.37-13.76,2.68C291.71,309.36,290.71,307,289.7,304.57ZM315.93,366l-1.09,0c-1-2-2.14-3.95-2.95-6l-.57-1.43c.35-.13.72-.27,1.1-.43l2.67,4.77,1.89.1C316.62,364.08,316.26,365.05,315.93,366Zm2.11-5.74-3.39-4c1.91-.69,3.69-1.43,5.44-2.1C319.53,356.26,318.8,358.28,318,360.29Zm2.84-9.56-7.15,2.5c2.6-5.93-1.16-12.65,7.54-16.63l2.52,3.48A78.35,78.35,0,0,0,320.88,350.73Zm5.66-21.09c1.14-1.5.88-3.55,1.26-5.35-1.39,2.34-2.79,4.67-4.19,7l-5.53-.7a5,5,0,0,0,0,1.62c1,2.47,1.18,4.59-2.36,6.38-1.19.6-1.23,2.48-1.58,3.81-.59,2.21.61,4.79-3.11,7.08l-4.75-3.57c-3.83-9.75-7.64-19.51-11.59-29.23a190.85,190.85,0,0,1,21.06-3.58c4.14-.48,8.62.62,13.42,1-.57,3.77-1.07,7-1.56,10.29,1.41-3.07,2.8-6.14,4.23-9.28,1.85.07,3.57.17,5.23.24a21.44,21.44,0,0,1-2.14,3.77,79.79,79.79,0,0,0-10.3,18.57A9.44,9.44,0,0,1,326.54,329.64Zm.91,65.73c.54-.77,1.06-1.54,1.56-2.33l.72,0q6.86-.36,13.71-.89c-4.62,5.79-9.35,11.56-14.5,17.18C326.41,404.24,324.05,400.13,327.45,395.37ZM465.94,565.46c2.22,12.24,1.27,24.43.09,36.67-1.51,15.67-3,31.35-3.95,47-21.39,4.49-42.45,9.69-59.74,1.14-6.63-3.29-11.46-8.24-17.43-12.05-1-3.5-.47-7.36-.79-11-1.07-12-.77-24.19-4.59-36-4.12-12.79-8-25.65-13.12-38.24-3.44-8.47-8.12-16.67-10-25.47-.27-1.28-1.8-2.58-3.21-3.52-2.67-1.78-5.06-3.54-5.24-6.34-.17-2.54-.37-5.08-.71-7.6-1.93-14.34.26-28.86-4.95-43.09-2.26-6.16-1.76-12.83-2.38-19.28-.06-.6.72-1.37,1.39-1.86,1.65-1.2,3.73-2.14,5.17-3.45,6.6-6,12.7-12.23,19.61-18a168.8,168.8,0,0,0,28.5-30.93q1.95-2.69,3.82-5.38c7-.18,14-.07,20.89-.39,10.6-.49,9.38-.92,14.09,7.33,1.75,3.06,2.42,6.43,3.65,9.65,2.17,5.73,4.08,11.52,6.69,17.14,2.35,5,2.78,10.13,2.9,15.35.06,2.91.25,6.13,2,8.65,8.79,12.84,13.5,26.53,16.11,40.51a276.08,276.08,0,0,1,4.7,41c.32,9.38-2.18,18.81-3.24,28.22C465.81,558.82,465.35,562.2,465.94,565.46Zm12.83-162.58c-4.87-1.69-4.26-4.42-5.11-7l8.25-2.11C480.75,397.15,479.87,399.71,478.77,402.88Zm-4.33-8.29-2.34-.86c.35-1.86,1.78-5,.87-5.35-3-1.33-3.06-3.26-3.74-5.13q-4.23-11.75-8.33-23.51c-.17-.5.11-1.07.23-2,2.82-.57,5.73-1.33,8.73-1.7,3.81-.47,8.25.92,8.9,3.27,1.1,3.93,3.14,8.49,1.39,11.9-3.13,6.13-1.85,11.09,2.66,16.18.39.44.4,1,.86,2.34Zm14.65-85c-1.77-2.82-3.5-5.58-5.23-8.31L490,296C494.6,304.05,494.43,306.72,489.09,309.6Zm9.23-71.75c-.56-4.79,1.69-8.1,5-11.89C502.7,232.65,502.36,233.48,498.32,237.85Zm-3.51-56.43c3.1.31,4.93,2.8,7.19,1.11l-3.58-5.95,5.69,2c.41,6.1.84,12.21,1.24,18.31C499.19,192.18,492.5,188.58,494.81,181.42Zm34.67,119.16a11.27,11.27,0,0,1,2.47,4.33c.36,1.77.09,3.61.09,6.51C525.46,307.39,529.68,303.87,529.48,300.58ZM529,447.14c-2.09-17,6.89-54.68,14-62.39,2.64,3.39,3.89,6.58.76,10,6.4,1.09,6.9,1.34,7.63,6a8.92,8.92,0,0,1-.71,5.35c-4.51,8.89-9.27,17.71-14,26.56Q532.83,439.92,529,447.14ZM1671.2,343.58a25.7,25.7,0,0,1,2.12-4.4l1.29-.22,7.52,5.57-.5.87c-2.92,0-5.85.11-8.75-.08C1672.21,345.27,1671.06,344.09,1671.2,343.58ZM1666,230.4c1.65,3.18,2.55,6.42,1.83,9.82l-1.35.13-2-9.79Zm-4.87-6.46c.13,5.28.73,10.56,1.13,15.84l-9-3.6-.63.36c.65,1,1.32,1.94,2,2.92,2.92,4.51,6.84,8.84,8.5,13.57a22.75,22.75,0,0,1-1.42,18,27.89,27.89,0,0,0-2.8,13.36c.06,3.54.18,7.08.18,10.62,0,1.59-.22,3.19-.38,5.31-4.07-1.88-7-3.92-9.06-6.48-.33-.4.46-1.54,1.15-2,1-.74,2.56-1.13,3.7-1.82.57-.35.74-1,1.1-1.56a8.22,8.22,0,0,0-2.19-.63c-2.14,0-4.3.1-6.43.3-2.81.28-5.15-.1-6.64-2-1.73-2.16-4.23-2.6-7.63-2.42a13.18,13.18,0,0,1-6.67-1.45c-4-2.42-8-4.54-13.58-4.79a6,6,0,0,1-4.15-2.77,41,41,0,0,1-3.44-9.77,57,57,0,0,1-.63-10.12c0-2.44,1.78-4.17,4.77-5.53,3.34,2.15,11.36,1.87,15.76-.56l-10.88-.36-.18-1.22a51.77,51.77,0,0,1,6.06-1.28,29.89,29.89,0,0,0,15.21-5.55c2.6-1.92,5.41-3.92,6.95-6.27a27.38,27.38,0,0,0,3.62-9.22c1.27-5.72,3.1-10.24,5.79-13a45.22,45.22,0,0,0,5.51,4.83C1659.91,218.64,1661.09,221,1661.16,223.94Zm-5.56,106.2a6.92,6.92,0,0,1-3.25,9.66c-3.59,1.72-7.27,3.34-10.91,5l-1-.86A39.64,39.64,0,0,1,1655.6,330.14Zm-20.17-28.6c9.16,3.8,16,9.06,19.91,16.15Zm7.2-132.83c3.57-.78,7.26-1.26,10.86-2,1.33-.26,2.48-1,3.8-1.27.94-.21,2.55-.39,2.94,0a46.6,46.6,0,0,1,4.06,4.41c-.24.25-.49.5-.73.76l-8-.39-.12.36c2.5.64,5,1.23,7.49,1.94,1.86.53,3.57,1.32,5.45,1.81s3.94.76,6.48,1.23l-3.22,5.58c-.45-1-.48-1.37-.78-1.62-.74-.6-1.6-1.13-2.42-1.69-.42.75-1.34,1.56-1.18,2.24.73,3,.49,5.78-2.53,8.21-1.59,1.28-3,1.64-4.08-.18-1.3-2.19-4-3.23-6.35-4.66-5.25-3.15-12.35-5.08-14.15-10.7C1639.46,170.65,1639.89,169.3,1642.63,168.71Zm-7.19,5,3.63,3.81-.55.58-4.92-.91Zm-15.88,20.46c3.26-2.55,6.74-5,10.35-7.26,2.89-1.83,8.6-2.08,11.66-.39,4.68,2.57,9.13,5.37,13.51,8.21.69.45,1.08,2,.59,2.39-3.7,3.17-7.59,6.22-11.59,9.2-.71.53-2.16.55-3.35.83a23,23,0,0,1-4.33-.89c-5.43-2.32-10.87-4.65-16.07-7.22C1616.91,197.38,1616.8,196.37,1619.56,194.21Zm-26.21,24.21a74.91,74.91,0,0,1,19.26-17.12c7.13,3.85,14.26,7.66,21.31,11.54a2.3,2.3,0,0,1,1.09,1.75,48,48,0,0,1-.11,6.46c-.39,4.11-4,7.27-9.68,8.11a46.75,46.75,0,0,1-9.9.26,7.59,7.59,0,0,1-6.52-4.3c-1.16-2.2-2.36-4.38-3.54-6.57l-1.28.08a41.76,41.76,0,0,0-.35,6.78c.57,5.19-4.28,8.32-8.36,11.71-1.42,1.19-4.91.3-6-1.55a8.47,8.47,0,0,1-1.13-4C1588,226.82,1590.08,222.47,1593.35,218.42Zm6.92,43c-.17.41-2.51.35-3.85.51l-.75-.7,3.31-4,1.48.17C1600.46,258.74,1600.78,260.15,1600.27,261.38Zm-25.35-9.52c-.49,4-3.18,4.87-8.81,2.63Zm-36.06,51.35c-3.45,3.21-7.59,6.05-12,9.46-1.47-6.68-1.05-12.76,2-18.49q6.19-11.48,13.61-22.62c3.53-5.31,9.36-8.61,18.29-7.8.42,0,.85.08,1.26.16a3.93,3.93,0,0,1,.75.35c-.08,2-1.73,3.2-4.07,4.15a5.1,5.1,0,0,0-2.15,1.25c-2.84,4.37-5.93,8.69-8.19,13.21s-3.54,9.32-5.54,13.93A18.16,18.16,0,0,1,1538.86,303.21Zm34.64,147.87-1.09,0c-1-2-2.14-3.95-3-6-7.66-19.21-14.94-38.5-23.07-57.61-2.77-6.5-1.42-11.59,4.71-16.51a120.18,120.18,0,0,0,9.29-8.85c.86-.86,1.82-1.9,1.87-2.88a3.8,3.8,0,0,0-1.69-2.85,4.81,4.81,0,0,0-3.29.27c-2.77,1.58-5.27,3.4-7.93,5.08-1.32.83-2.76,1.57-4.49,2.54.92-3.66,2.15-6.87,2.43-10.11.47-5.29.33-10.6.44-15.9.09-4.54.07-9.08.28-13.61.19-4.16,3.06-7.13,7.92-9.47a43.88,43.88,0,0,0,8.62-5.79c2.49-2,3.07-4.56,1.87-7.17-1.89-4.13-.94-7.94,1.66-11.8,4.56-6.8,8.73-13.74,16-19.38.73-.55,1.44-1.11,2.27-1.76,2,.79,3.94,1.43,5.69,2.29a5.9,5.9,0,0,1,2.44,2.05c1.12,2,1.6,4.15,3,6s3.37,3.36,5.7,5.6c-3-1.2-5.09-2.11-7.28-2.95-3.22-1.24-4.25-.85-4.59,1.66-.68,5-.84,5.3,5.74,6.92,16.26,4,27.19,12.66,37.92,21.53,4.78,4,9.33,8,14.23,12.29-7.94,6.62-17.38,12.46-18.81,21.91l-1.18-.24c-3-3.1-5.68-6.32-8.92-9.26-2.91-2.64-6.38-5-9.63-7.42a4.43,4.43,0,0,0-1.79-.95c-1.45-.27-3-.34-4.44-.5a18.69,18.69,0,0,0,2.22,2.68c2.27,1.93,5,3.63,7,5.66,4.09,4.05,7.86,8.27,11.76,12.41a2.91,2.91,0,0,1,.32,4.08c-6,9.18-12,18.39-17.9,27.6-2.24,3.49-4.33,7-6.7,10.48-.9,1.31-2.44,2.38-3.58,3.61a7.39,7.39,0,0,0-1.11,1.86c-1.29,2.52-2.15,5.2-3.88,7.55a77.83,77.83,0,0,0-14.23,32.36C1577.37,441.49,1575.14,446.26,1573.5,451.08Zm45.18,33.42-1.31-.52,14.51-18.43,1.09.43Q1625.83,475.25,1618.68,484.5Zm-32.17,9.85c-2.53-5.06-4.89-9.17-1.49-13.93,3-4.22,5.16-8.76,7.57-13.2,4.08-7.47,11.78-12.6,21.27-16.39a39.35,39.35,0,0,0,16-11.45c3.11-3.75,8-5.59,13-7.69C1619.22,450.1,1605.86,473.23,1586.51,494.35Zm59.58-72.85c0,1.5-.74,2.36-2.61,3.06a78,78,0,0,0-8.83,3.8,34.38,34.38,0,0,0-8.37,6c-6.57,6.52-13.87,12.77-23.58,17.19-.61.27-1.33.42-2.88.91.64-1.84,1.19-3.07,1.49-4.32.61-2.56,1.88-5.21,1.48-7.7-2-12.52,2.69-24,10-35.07,7.77-11.72,16.15-23.23,24.28-34.82a7,7,0,0,1,1.58-1.73c1.09-.76,2.37-1.4,3.56-2.09.73,1,1.93,1.93,2.11,3,1,5.56,2.22,11.13,2.3,16.71C1646.79,398.12,1646.25,409.81,1646.09,421.5Zm44.51-46.37a14.06,14.06,0,0,1-3.35,6.15c-7.86,8.74-15.13,17.66-20.51,27.39-1.85,3.34-5.34,6.24-8.23,9.26-.7.73-2,1.15-3.78,2.09,0-3.72-.08-6.76,0-9.8.09-2.61.29-5.23.64-7.83.46-3.36.62-6.86,5.51-9.24-6.11-1.28-6.08-4.52-6.54-7.87-.74-5.26-2.11-10.48-3.26-15.71a31.31,31.31,0,0,0-2.66-8c-.59.78-1.19,1.55-1.79,2.33l-1-.29c.48-.73.68-1.71,1.48-2.15,8.05-4.46,16.63-8.21,26.9-9.48q5.4-.66,10.78-1.4c1.67-.23,2.36.15,3,1.34C1691.84,359.49,1692.24,367.27,1690.6,375.13Z" transform="translate(-193.98 -148.47)"/></svg>