<svg id="Layer_1" data-name="Layer 1" xmlns="http://www.w3.org/2000/svg" viewBox="0 0 1743.71 539.91"><defs><style>.cls-1{fill:#cdd1d3;}</style></defs><title>header-0</title><path class="cls-1" d="M105.52,562.79c-1.61,38.54-1.66,77.18-5,115.61-6.9,78.54-23,158-13.49,237q19.53.51,39.07.89c116.45,2.24,232.94,1.16,349.39-.55,116.22-1.71,232.43-4,348.64-6.17,57.7-1.07,115.41-1.89,173.13-2.13,57.51-.24,115,1.78,172.47,3.91,58.08,2.15,116.14,4.76,174.21,7.28,54.67,2.36,109.41,3.81,164,7.75,100.19,7.23,204.08,20.15,303.26-2.22,2.64-39.56-.82-79.39,0-119,2.41-118.87,20.27-238.15,15.95-357.09-4.21,3.63-7.91,7.54-13.41,9.68-2.78,1.07-4.42,5-6.7,7.46a9,9,0,0,1-3.48,2.69c-7,2.17-8,7.51-8.37,13.82a246.52,246.52,0,0,1-2.56,25.31c-.34,2.18-2.73,4.58-4.82,5.82-4.25,2.54-9.08,4.1-13.37,6.58-1.73,1-2.93,3.2-3.91,5.09a44.68,44.68,0,0,0-2.57,7,5.19,5.19,0,0,0-.26,3,22.44,22.44,0,0,1-5.41,22.54c-1.59,1.52-2.53,3.85-4.29,5-5.42,3.63-11.07,6.94-16.68,10.29-2.84,1.69-5.8,3.19-10,5.51V561.14l7.28,2.54-6.14-4.92h9.5L1743,557c-9.85-.48-15.57-5.3-17.42-14.88l4.31,1,1.23-.85-7.93-12,.55-.63,3.57,2.36c3.41-4,4.92-7.42.07-11.59-2.51-2.17-3.78-5.85-5.38-9-.58-1.12-.46-2.6-.67-3.92h2.89c-1.69-5.16-3.54-10.77-5.75-17.47l6.55,5.44c-1.81-5.58-7.64-7.58-6.61-13.93.69-4.22-1.9-9-3.28-14.48l5.36,1.82c0-.45.09-.92,0-1-8.26-4-9-12.16-10.53-19.64-1.06-5.19-1-10.6-2-16.06-1.78,10,.88,21.23-8.48,28.85,6,4.9-1.21,5.49-2,8.22,3.93,4.91-2.21,13.91-11.64,17.59l6.66.61-3.77,3.57h4.59c-2.64,2.43-4.57,4.22-6.77,6.23l3.06,2.51-5.65,1.82c.82,3.74,1.59,7.28,2.61,11.94l-10.66,6,5.83,3.55-6.33,3.15,7.1,1.15-9.18,4.57,8.49,1.85c.14.58.27,1.16.41,1.74-2.32,2.14-4.7,4.22-6.94,6.45a37.77,37.77,0,0,0-6.41,8l8.09-3.32,1.14.62-9.43,14.16,1.77.73-9.27,3.49c.08.4.16.8.25,1.2l9.86-.46c.07.47.14.94.2,1.41l-8.32,1.33,4.86,3.46c-1.8,3.59-9.36,5.79-2,11.48-7.46.65-7.19,3.89-3.39,8.57l-5.82,4.71q2.19-38.5,4.37-76.94l-2.33-.18q-3.2,35.1-6.37,70.2l-2.48-.14q1-20.16,1.93-40.32l-1.17-.12c-.47,3.78-1.55,7.61-1.29,11.33.5,7.07-3.36,9.5-9.37,10.33.64-2.26,1.29-4.56,1.71-6l-8.2-3.18,9.39-4.88c-.07-.29-.15-.58-.23-.87l-4.83.52,4.91-5.58c-7.91,2.38-13.72,9.48-22.24,5.55l19.63-8.83c-.44-3.22-.72-5.19-1.1-7.93l-8.15,3.52-.42-.74,6.39-5.07-.54-1-5.21,1.41,3.61-5.27-3.4-3.87-11.93,1.49-.22-1.38c3.33-1.12,7.11-1.61,9.87-3.54s4.17-5.18,6.71-8.55l-13.14,6.73c8.16-9.55,8.16-9.55,8-15.3l-12.68,6.89c4.26-6.2,7.92-11.51,11.58-16.82l-.93-.94-10.25,7.68c.59-4.63,1.1-8.61,1.68-13.18-.37-.61-1.24-2-1.94-3.13l-4.49,4.91,3.59,9.74-1.66,1.15-8.77-4.05,5.81,10.5-5.21-3.33-.56.62,4.18,5.23-7.36-3.7-1.17,1.43,5.11,2.69c-.27.31-.53.63-.79,1h-2.41c-.14.27-.27.53-.4.8l10.88,5.66-.33,1.2-14.32-4.67c4.27,4.72,7.34,9.19,4.14,15.21l11.19,5-.54,1.4-13.12-4.76c-1,2.57-1.92,4.89-3.39,8.61l10.08,9.63-13-4.35c2,2.65,2.1,4.39-1.92,4.89l7.91,4.19-5.44,2.6,18.2,5.63c-5.88,3.31-17.42.42-21.31-5.4-5.13-7.68-10-15.51-15.4-23.85l7.2.41c-.17-.61-.41-1.44-.94-3.31l4.84,3.85.65-.48c-3.52-5.41-7.07-10.81-10.55-16.25-1-1.56-1.9-3.19-2.75-4.84-2.51-4.92-2.49-4.93,2.11-9.9-6.35-6.42-6.88-15.17-8.56-23.76l2.35.18c-3-6.49-6-13.09-9.33-20.4l4,1.48-9.22-23.14,3.81,1.51c-2.4-6.42-4.59-12.24-7-18.75-.68,3.61-4.79,5.89-1.62,10,.39.51-1,2.25-1.33,3.49-.59,2.17-4.37,4.47.25,6.73.33.16-1.33,4.24-2,6.53-1.19,4.4-5.72,7-4.44,13.23.77,3.8-4.46,8.84-7,13.31-.3.54-.77,1-2.13,2.72l6.21-2.43c-2.5,7.59-4.93,14.94-7.35,22.28l1,.44,3.55-4.94c-1,10.32-6.6,16.46-11.73,23.18l6.1,4.6-11.88,19,5.29-1.13c-2.53,6.76-5,13.3-7.58,20.3h3.11L1512,570.08l1,1.57,5.43-.87-3.78,5.74-8.38-9.06,3.81-.22q-6.2-15.79-12.33-31.48l-1.75-.51a52.6,52.6,0,0,1-13,29.88l1.24,1,4.51-3.09,1,.65a92.94,92.94,0,0,0-5.77,8.42c-1,1.86-1.17,4.18-1.66,6.31-1,4.46-1.45,9.19-3.3,13.27-.6,1.32-4.88,1-7.85.65l7-4.23c-11.07,5.28-22.19,5.08-33.52,1.57,11.16.37,22-.46,31.95-7.13l-2-2.54c-6.45,7.15-14,5.27-21.67,1.75l11.38.73-2.71-2.82,14.32-6.33-.38-.81-17.85,4.4c0-.24-.09-.47-.13-.71l13-5.29c-.1-.35-.19-.7-.28-1.05l-5.4-.49,12.34-6-4.1-4.91c-11,7.74-22.75,12.43-36.12,4.6,9.11,2.33,18,2.29,26.61-2.3l-1.33.21c6.49-1.93,7.76-9.63,13.31-13.52-10.82-.24-19.78,9.16-28.32,3.22l18.8-7.73-.6-1.59-13.85,4.41-.42-1.21,6.85-3.75c-.11-.31-.21-.63-.31-.94l-5.33-.39,12.4-8.26-.21-.69-4.55,1.38,1.34-4.88-17.89,7.62-.34-1.1,15.42-16-1.07-1.13c-1.45.9-2.91,1.79-5.15,3.16,1.13-4.09,2.06-7.41,3.09-11.14l-6.49,4.87c.71-4.08,1.25-7.22,1.86-10.72l-13.2,15c-.83-6.51-3.59-12.46,3.4-17.23,3.56-2.43,5-8,6.21-12.83l-3.86,5.57-.85-.24.62-5.85-9,8.49c-.71-7.85-1.37-15.24-2-22.63l-1.5.08,1.55,22.91c-3.08-3.35-5.22-5.65-8.29-9,.66,3.79,1,6.4,1.61,9,.36,1.56.71,3.93,1.74,4.39,7,3.09,5.61,8.11,3,14.81l-9.6-9.37-1,.93,12.85,14c-2.14,0-4,.59-5.06-.1-5-3.41-9.75-7.21-14.66-10.76-2.91-2.1-6-4-10.42-7,3.9,5.32,7,9.54,10.44,14.21l-8.49-5.32-.71,1,13.23,10.61-.4.73-5-2.21,1.34,2.94-3.8,1,12.87,4.63c-11.49,2.43-19.21-2.53-27-8.83,4,9.67,11.2,13.86,20.38,15.33l-9.5-.45-.21,2.19,20.75,2.16,0,1.36c-2.62,0-5.32.43-7.83-.09a14.72,14.72,0,0,0-13.12,3.53c-2.48,2.11-5,3.5-8.63,1.14,0,.78.09,1.56.13,2.34l22.25,2.35-5.7.55-.22,1.06,5,1.63c-7.86,3.65-14.92-.27-22.06-3.57l-.54,1.29,11.2,6.15-7.79-1.27c8.3,5.38,8.3,5.38,22.87,3.78-6.46,4.28-7.39,4.35-29.43,2.28,3,3.49,3.48,3.62,21.57,6.34l-19-1.49-.36,1.88,7,3.61-2.35.64-.24,1.57,19.86,2.78c-7.64,2.35-15.5,5-23.55-2.53-.15,1-.31,2-.46,3l10.49,4.75-10.53,1c4.26,7.3,12.8,3.62,19.88,6.1-8.67,4.7-15.4,0-22.41-2.5l-1.4,1.72c1.2.55,2.44,1,3.6,1.66a24,24,0,0,1,3.28,2c12.09,9.24,12.09,9.24,22.63,9.53l-.13,1.57c-4.3-.37-8.66-.44-12.89-1.2-4.67-.84-9.22-2.32-14.37-2.65l10.09,8.51-1.07,1.28-17.8-13c.22-.37.44-.75.67-1.12l5.87,1.21c.19-.36.38-.73.58-1.09l-6.53-4.61.29-1,6.74,1.7c-3-5.49-5.59-10.48-8.32-15.42-2.38-4.31.64-6.23,4.47-8.41-7.47-2.44-10.38-7-8.82-14.1a1.58,1.58,0,0,0-.54-1.36c-5.68-2.83-3.53-8.1-4.4-12.77l6.6,3.22,1.22-1.21c-5.82-4.3-9.86-9.49-9.69-17,3.58,1.94,4.26,7.82,11,6.57-12.07-14.32-13-32-18.14-49.12-2.35,8-4,15.46-6.79,22.47s-6.85,13.64-11.09,21.88l6.76-5.81,1.11.6-5.58,13.25.38.27,5.43-8.29c1.32,6.14-2.81,8.87-4.71,12.45-1,1.8-4.43,2.95-1.25,5.65.06,0,0,.37-.14.52a88.34,88.34,0,0,1-5.54,7.56,55.77,55.77,0,0,1-6,5.1c-.36-.38-.73-.76-1.09-1.15q5.22-8,10.43-16.07l-.7-.5-18.52,12.26-1.14-1.55,14.12-11.64-1-1.34-2.73.2,5.27-6.29-.5-.53-9.08,5.19-.76-.9,5.91-7.38-.94-1.55-9,5.41V510.85l-1.67-.12c-.46,2.6-.93,5.19-1.44,8.11l-3.17-1.45,2.39,4.11-2.61,1c1.12,3.88,2.1,7.32,3.08,10.76l-1.89.9-6.76-9c0,7,1,13,7.64,16.8l-1.78,1.27c-3.48-3.62-7-7.23-10.07-10.44-.24,6,2.56,11.22,7.88,15.55,1.85,1.5,2.67,4.29,3.1,7.1-7-1.67-11.6-6-14.84-11.5-2.55-4.34-4.48-9.08-4.36-14.46,0-1.61-1.77-3.27-2.23-4.07.6-2,1.72-3.65,1.36-4.85-3.73-12.39-10.88-23.69-11.82-37,0-.27-.36-.52-1-1.39-1.22,12-3.19,23.13-13.94,30.89l3.68-.36c-3.25,8.66-6.45,17.22-9.73,26l5.6-2.73c.35.42.71.83,1.07,1.25l-11.12,13.36.41.85,5.81-3.06c-3,5.15-5.52,9.42-9,15.35-2.56-7.5-4.78-14-7.46-21.81,2.16,1.25,3.19,2.23,4.32,2.38.92.12,2-.76,3.13-1.26l-8.19-9.08,9.18,3.53.68-.88c-3.51-4.39-6.69-9.1-10.62-13.07-3.29-3.33-2.77-4.7,1.73-5.66l-6.24-8,3.25-.25-4.62-9.26,3.83.63c-2.57-5-5.6-10.06-7.81-15.46-1.16-2.84-.48-6.37-1.3-9.41-1.9-7.08-4.22-14.06-6.08-20.15-1.28,5.79-2.32,13-4.63,19.86-1.26,3.74-4.65,6.75-6.7,10.81l6.41-4.22,1.14.6-12.06,19.79,5.27-2.15-5.74,8.4,4.32-1.48-3.54,5.83,2.71-.47c.23,5.1-8.66,9.09-1.49,15.93-2.71,2.33-5.41,5.49-8.83,7.25-1.75.9-5.56.1-7.08-1.35-2.62-2.51.61-3.9,2.34-5.37a4.79,4.79,0,0,0,.92-1.55l-24,1.61-.27-2.37c10,1.82,19.28.72,27.32-6.16-10.62,2.69-21.19,5-32.14.52,6.4,0,12.55.75,18.43-.21a26.16,26.16,0,0,0,15.15-7.93l-.67-1.34-15.62,5.71,3.59-4-2.22.37c1.82-1.26,3.62-2.53,5.65-4l-14.54.71-.21-1.41a26.44,26.44,0,0,0,21.3-6.24l-4.09-2.14,3.39-4.31-.54-1c-1.15.41-2.62.5-3.41,1.28a22.44,22.44,0,0,1-17,6.57c-3.57-.11-7.1-1.33-10.52-2l15.81-3.86c-5.81-1.88-12.09,2.87-17-1.39,0-1,.09-2,.13-3.06,9.07,0,17.71-1.2,24.68-7.82l-20.93,5.6,29-19.24c-.39-.6-.77-1.21-1.15-1.81l-8.69,5.59-.53-.54,7.06-8.28-12.81,7.33-.58-.85,9.15-9.8-.77-.81-3.18,2.47-.61-.4,2.79-4.77-.55-.8c-3.38,2.27-6.84,4.43-10.11,6.84-3.77,2.77-7.38,5.78-11.59,8.11-2.72-8.33,6.81-5.44,7.93-10.49l-2-1.36c3.1-4.34,6.14-8.62,9.19-12.9l-.81-.7-7.14,8.54-1.49-1.3-3.06-2.56c11.21-13.14,11.21-13.14,8.13-17.28l-10.54,11.54-2.08-1.08c.76-2.61,1.53-5.22,2.31-7.91l-3.17,1,6.51-14.31-2.07-1.39-3.49,5.91V408.16l-1.8.08v19.19c-1.76.49-3.29.48-3.84,1.2s-.56,3-.1,3.25c6.21,3.28,2.93,8.7,3.46,13.78-7.61-1.32-14.63-2.7-17.28-11.47-3.7,6.47-2.39,11.2,3.58,14,4.28,2,8.74,3.71,13,6.48l-6.94-.46-.31.7,8.18,3.3c-7.43,2-12.33-3.08-17.94-6.33,4.39,6.86,8.72,13.63,17.39,15.87a23.83,23.83,0,0,1-2.93,0,6.44,6.44,0,0,0-2.73-.16l5.55,3.71c-.25.57-.5,1.14-.74,1.71l-10.07-3.63,1.85,4.09L1145.69,461c1.58,9.42,2.59,10.6,14.08,15.39l-3.4,2.36L1143,470.23l2.32,5.56c-.16.13-.31.27-.46.41l-6.17-7.11c1.4,7,3.71,8.91,23.59,20.54l-13.09-.77c6.12,6.13,11.86,7.23,23.82,4.25.42,5.2-10.38,7.75-19.17,4.19,5.79,6.36,12.62,5.83,20.17,4-4.39,5.35-15.58,4.38-23.91-1.69.82,1.59,1.34,2.61,1.86,3.63l-1,1.1-10.4-8.86c-3.71,1.24-2-3.88-3.08-4.51l-4.94.32c0,.85.1,2,.19,4l-8.47-7.88c7.89,16.27,21.16,22.16,36.35,25.93l-4.26.93c.08.39.15.78.23,1.17l16-2.38c.71,4.86-2.76,4.06-5.84,4a23.93,23.93,0,0,0-9.23,1.52l13.06.75c-4.45,3.08-8,2.69-28-2.69l1.92,3.28-5.34-2.74c4.78,6.2,11.87,7.89,18.83,10.23,5,1.71,9.55,1.2,14.5-1-3.39,7.82-26.41,5.31-40.18-3.79l-.88,1.19,11.09,7.37-.49,1.1L1130.47,527l4.62,6.11-.37.65-4.76-2.6c2.64,6.11,14.65,11.8,27.34,13.67-1.93.17-3.87.46-5.81.47s-3.93-.27-6.88-.49l6.65,5-.58,1.2L1136.62,545l-.44.61,3.08,2.93c-.23.32-.45.65-.67,1l-12.32-8.89c-.06,5.53,7.48,12.11,19.43,16.46a40.78,40.78,0,0,0,27.37.62c-2.29,5.41-4.83,5.95-18.32,4.85l1.92,2.32L1156,566l-14.2-6.84,6.39,6.76c-.1.28-.21.56-.32.84l-24-11.73-.49.74,11.21,8.41-.68,1.33L1123,560.05l-.72,1.31c6.14,3.52,11.94,8,18.52,10.29s14.09,2.41,20,3.3c-10,.47-21.24,1.8-31.69-5.24,1.72,3.57,1.72,3.57,17.09,9.36-.11.48-.23,1-.34,1.44L1124,575c6.75,7.77,23.47,11.1,40.27,7.33-10.2,8.31-20.24,8.3-31.28.25l.66,4.89-11.4-5.73c6.57,11.5,11.2,13.68,29,13.62-3.12,2.9-3.12,2.9-26.8,1.64l14.15,6.45-.43.29c1,.84,2.16,2.51,3,2.38,6.79-1,13.53-2.38,20-3.59-10.29,8.92-23.71,6.06-36.17,8.12h17.54c-10.16,4.83-18.68,3.49-20.62-3.1h7.83c-.47-.68-.65-1.17-.84-1.17-6.86-.13-9.43-3.6-11.71-10.26-2.56-7.49-8.63-13.78-13.24-20.7l4.52.48.86-1c-6.75-4.56-14.47-8.36-14.67-18.33l3.12,5.6.5-.85c-3.55-9.4-7.09-18.79-10.67-28.25-.43,8.3.41,16.85-1.65,24.63-1.85,7-1.87,15.49-9.78,19.47,1.83,1.51,2.91,2.42,4,3.33-3.21,3.42-1.45,7.8-2.28,11.67a66.29,66.29,0,0,1-2.92,8.33l3.28-.58-5.94,8.85.51.46,4-3.41c-.71,5.7-1,10.59-8.59,9.12,1.75-5.13.16-9-4.11-12.71-4.07-3.53-7-8.36-9.75-13.38l4.49,3.19.68-.54c-3-4.54-6.06-9.09-9.71-14.59l7-.5-6-7.64L1057,567c-3.27-4.33-6.64-8.6-9.55-13.15a33.23,33.23,0,0,1-4.06-10.07,28.56,28.56,0,0,1,.14-13.71c.89-3.74-2.32-9.65-5.47-12.88-5.58-5.72-6.76-13-9.48-19.77-.21-.52,1.17-1.57,1.59-2.47,1.8-3.82,1.31-6.51-2.59-9.3-3.12-2.24-4.95-6.27-7.35-9.51l1.39-1.12,3.59,2.46,1.06-.67-9.29-20,4.81.8c-1.42-4.4-2.74-8.51-4.57-14.21,2,2.5,3,3.68,3.92,4.86l.73-.35c-2.27-5.42-4.53-10.84-7.23-17.33l3.46,1.39c-1.86-7.87-3.75-15.87-5-21-1.16,4.56-3,11.82-5,19.58,3.34.9,2.48,4,.31,6.78-4.59,6-3.64,13.2-4.79,20.4l3.17-3.65.83.43c-3.73,8.33-7.45,16.66-11.4,25.49l3.35.39c-2.12,4.37-4.2,8.52-6.11,12.75a4.08,4.08,0,0,0,0,2.92c1.91,4.57,1.48,8.45-1.38,12.82a166.61,166.61,0,0,0-10.57,19.9c-.79,1.67-3.44,4.23.28,6.19.54.29.63,1.89.53,2.84-.86,8.11-1.73,16.13-7.83,22.55-2.37,2.49-3.76,5.9-5.59,8.9l1.29,1.1,3.51-1.49c-.56,3.06-.64,6.87-2,10.1-1.2,2.79-3.95,4.9-5.95,7.37-.89,1.11-2,2.25-2.32,3.54a47.31,47.31,0,0,0-.8,6.38,64.08,64.08,0,0,0-7.12.71c-7.7,1.82-15.26,1.31-23.51-.86l16.92-3.37-.18-1.68L927,589.68c0-.32,0-.64,0-.95a53,53,0,0,0,6.43,0c6.36-.81,12.72-1.69,19-2.84,1-.17,1.67-1.87,2.5-2.86-1.07-.4-2.16-1.19-3.19-1.13-5.32.31-10.63.84-16.12.36l13.47-5L942.25,576l13.3-8.89c-9.85,2-19.46,5.51-29.65,1.82,8.44.47,16.23-1.33,23.38-7.18l-12.9-2.95,15.11-4.16L923.1,556.3c0-.39,0-.78,0-1.17l18.38-1.34,0-1.51-11.11-.5,17.45-6.65-.45-2.73H922.09l24.59-8.14-.3-1-23.16,1.68c5.87-2.51,10.09-4.23,14.23-6.11s8.49-4,12.73-6.07c-.29-.61-.57-1.22-.85-1.83l-4.41,2.29c-2.57-.63-4.17-1.59-5.41-1.25-10,2.82-16.12,1.86-24-4.88,2.52,1,5,2.49,7.58,3,2.85.52,5.87.12,9.82.12l-13.31-3.87c6.65-.22,13.27,3,19.56-1.66l-7.66,1.23-.42-.85,16.52-13.15c-9.91,3-19.07,7.84-28.79,3.42l14.45-3.35c-.07-.53-.14-1.07-.22-1.6l-16.84-1.7,16.65-4.86-11.31-4.45c.54-2.33.9-3.91,1.26-5.49l-1.57-.73,5.06-1.05-9.13-3.25.18-1h3l-2.87-4.75,5.36-2.85c-4.21-5.41-8.59-11-13.87-17.79h5.25L908,440.89c-1.68,4.46-3.28,8.75-4.89,13l.88.6,2.85-2.27,1.48.85-11.91,22.35c1.62,1.24,3.71,2.84,6.06,4.66-.76,5.88-11.44,5.83-9.87,14.68l8.13-5.54,1,1.17c-4.6,3.68-9.19,7.36-13.73,11l3.86,1.12-5.16,1.84c0,.15,0,.3.07.45l8.1-1.4-.16,2.67,8.89-4.82c-2.45,8.31-11.88,12.14-26.09,11.06,5,5,6.42,5.34,18.34,3.68l-8.49,5,6,1.27.29,1.14-15.84,6.09c.15.51.3,1,.44,1.54l16.7-3.56c-6.87,6.58-15.22,7.12-23.83,7.84l12.47,1.94c0,.38,0,.76,0,1.14l-14.76,1.39c0,.45-.05.9-.08,1.35l13.93.79-3.33,1.46c5.27,2.86,6.59,2.7,19.21-1.4l-14.85,8.17,6.52.6.07,1.41H871.58c-.1.87-.19,1.74-.29,2.61L886,557.68l-2.45,2.16,4.43.71c2.09,2.67-3.67,6.19-10.13,6.59-1.09.07-2.19,0-3.41,0,1.38,3.16,1.38,3.16,11.69,2.47l-13.72,6.16,10.51,2.89.32.91-11.36,2.36.09.81h11.2c0,.46.07.92.1,1.38a86.17,86.17,0,0,1-9.17.79,97.16,97.16,0,0,1-9.74-1.06l2.94-4.36-7.35,3.8-.48-.75,7.5-7.12-.81-1-9.52,6.14-1.68-1.72,5.24-6.51h-2.5c.67-1.19,1.24-2.22,2.24-4l-5.14,2.94,2.64-6.5-1.24.18-.78-12.52-1-.16c-.67,6-1.35,12-2.07,18.41l-4.26-3-.68.6,5.64,9.28-1.25.85-4.45-6.34c-3.26,3.88-3.26,3.88,0,14l-6.26-8-1.5.66c1.29,3.82,2.58,7.64,3.57,10.6-1.79-1.58-4.36-3.59-6.62-5.9-1.73-1.79-2.62-3.58-.5-6.28.94-1.19,0-4.44-.92-6.39-2-4.36-4.51-8.48-5.9-13.36l4.51,3.22.7-.6c-1.29-1.55-2.57-3.1-4.43-5.36l4.54.81c-3.91-6.41-7.65-12.57-11.4-18.72l1-.94,3.72,2.09-7-18.83c.74-1.92,1.86-3.39,1.67-4.65-.39-2.53-.9-5.42-2.41-7.32-5-6.27-4-13.54-4.18-20.65-.08-2.3-.24-4.6-.41-7.63-1.19,9.21-2.26,17.6-3.38,26a15.17,15.17,0,0,1-.89,3.21c-2.29,6.2-7.33,11.53-5.2,18.69l2.4-1.38c-3,8.12-5.62,15.41-8.72,23.94l4-6.78,1.92,1.56-12.1,23.76,5.44-4.93-7.4,16.24.89.62,4.93-7.5,1.48.9-9,16.17,1.8.45a119,119,0,0,1-8.07,9.21c-1,.9-3.16.47-6.24.8L783.55,588l-20.11,4.82c-.11-.44-.23-.88-.35-1.33l17.95-6.9-.46-1.54L769,585l17.12-14.53c-9.2,1.16-18.06,2.32-26.93,3.35-.72.09-1.53-.66-1.19-.5,5-1.07,11-1.86,16.61-3.72,2.47-.83,4.15-3.9,6.33-5.78s4.44-3.44,6.48-5.5c-7.21.91-13.7,7.36-22.23,1.7,7-2,14.92,1.12,19-5.5l-8.95-1.83,9.7-4.59-.63-2.38c-8,5.49-16,5.68-23.78,2l19.67-2.43c0-.5-.09-1-.13-1.49l-2.28-1.12,7.88-4-7.07-2,8.66-2.85c0-.48-.09-1-.13-1.42-9.52.38-19.33,4.13-28.41-1.7,7.58,1.3,14.88,1.46,22.22-4.45l-9.27,2-.18-.48L783.35,522l-.44-1.29c-6.62,1.63-12.72,7-20.46,1.94L782,517.4c-3.86.81-6.43-.67-9.08-3.42-1.38-1.43-4.23-1.43-7.79-2.49l8.76-5.13a15.37,15.37,0,0,0-2-1.1,9,9,0,0,1-2.37-.93c9-.39,10.64-9,15.79-13.77-8,5.91-16.07,11.66-28.23,9.27l11.76-4.57c-.05-.22-.09-.44-.14-.66h-3.54l3.63-4.3-6.34,3.22-.52-.8,13.72-11.06-.59-.81-6.49,3.54L775.9,473l-.75-.41c-4.51,3.51-8.89,7.2-13.56,10.47-4.3,3-8.09,7.5-15.46,7l12.26-12.46-1.11-1.14L749,483.9c-3.47-8.56-3.32-8.42,3-12.48,5.66-3.63,11-7.79,16.45-11.71l-1.59-2.14-8.62,7.07-.54-.38q2.33-4.2,4.64-8.4l-.63-.58-3.64,3.18c.25-2,.39-3.11.58-4.64l-9.32,12.44-2-.95c1.28-3.71,2.28-7.55,3.94-11.08,1.73-3.68,4.11-7.07,6.21-10.58l-1.33-.84-3.71,4.11c1-7.56,2-14.21,2.86-20.86l-1.4-.24c-1.33,5.94-2.66,11.88-4.16,18.54l-2.7-3.81c-.75,8.79-1.4,16.31-2,23.84l-2.05.47-8.25-21.43-.71.07c.78,6.2,1.56,12.4,2.39,19l-3.25-2-1.45,1.26c3,3.7,5.82,7.55,9.05,11,2.1,2.26,1.86,1.91,1,5.77-.51,2.29.85,5,1.37,7.51l-1.62,1c-4.42-5.07-8.84-10.13-13.46-15.44.73,3.58,1.38,6.8,2.38,11.71l-8.88-8,5.9,12.17-1.63,1.11-5.29-4.3-1.05.88,15.28,17.3c-.09.38-.17.75-.25,1.13l-16.53-7c.16,1.1.38,2.68.63,4.48l-4.31-1.46-.42.88,13.08,8.55-6.54.55,7.18,4.57c-.15.38-.29.77-.44,1.16l-13-4.42c1.36,3.18,5.07,5.36,15.59,8.61-3.05,2.88-18.86,1-26.27-3.8,5.17,6.72,7.86,14.52,15.07,16.52,7,1.93,14.62,1.23,21.45,1.66-12.41,6.66-23.46,1.22-33.16-5.4l-5.54,4.15L714,538.6l-.09.64-5.53-.34-.42.91,13.92,5.9c-.06.23-.11.47-.16.7l-18.26-4.57-.42.76,14.59,6.59-2.08,1.48c.09.36.19.72.28,1.08l11-.93c-6.46,5.5-15.07,4.82-22.51-1.59l-2.13,2.27c9.73,7.94,21.24,7.27,32.63,7.49-11.39,3.53-22.61,4-33.42-3.07-.16.49-.33,1-.49,1.49l7.27,4.45-10.48.48c0,.54,0,1.08,0,1.62l16,4.79c-5.86,5.4-12.3,4.51-16.66-2.34-2.76-4.33-5.67-8.56-8.48-12.79l7.52-3.85c-6.25-6.69-12.21-13.93-13.81-25.15,1.78,2.43,2.79,3.8,3.79,5.18l.88-.26c-2.14-7-4.29-14-6.53-21.31l4.4,1.18c-.09-.63,0-1.13-.22-1.44-2.06-3.07-4.57-5.93-6.12-9.24-1-2.1-.46-4.87-.79-7.32a10.87,10.87,0,0,0-1.15-4c-3-5.19-7-9.58-4.69-16.82,1.15-3.67-1.67-8.48-2.19-12.83-.42-3.49-.09-7.06-.09-11.34-.91,1-2.81,2.2-2.62,2.87,1.81,6.69-2.22,12-3.83,17.88-.46,1.68-3.43,3.85.88,4.73a6.29,6.29,0,0,1-.28,2.55c-3,7.08-6,14.13-9.64,22.54l4.12-3.68.84.5c-2.91,6.44-5.83,12.87-8.85,19.55l1.94-.76c-.36,4,0,8.3-1.27,12-1.48,4.38-4.37,8.28-6.75,12.58,4,2.61,4.5,5.7,2,9.58-4.6,7.06-9,14.24-13.11,21.81l6.89-5.82-3.22,5.48,7.82-.91c-5.18,8.14-10.28,16.42-15.66,24.51-3.11,4.69-15.29,7.54-21.24,4.89L625,591.29l-.18-1.55-4.16-.92,7.2-4.38-3-4.31-10.71,3.32,9.15-9.44-2.85-8.55-13.47,4.7c-.17-.4-.33-.81-.5-1.21l10.15-4.52c0-2.67-.49-5.07.12-7.15.84-2.92,2.48-5.61,3.82-8.47-1.61.69-3.76,1.76-6,2.52a16,16,0,0,1-7.59.91l10.86-5.34-3.23-1.42c1.61-1.51,3.14-2.94,4.66-4.38-.19-.29-.38-.58-.58-.87L612.17,544l-.5-.66c1.23-1.46,2.45-2.92,3.68-4.37l-.51-.69-8.42,5.93c1.58-5.12,9.24-5.75,7.53-12.51l-7.19,3.45c-4.38-4.59,1-7.11,2-10.15l-4.4-6.19-2.57,3.68c.56,3.92,1.19,8.35,1.94,13.57l-9-6.37-1.16.91,10.3,14.82L592,539.08c-3.88,8.06,4.7,9.68,7,15.23l-11.23-6.08c-.22.26-.43.53-.65.8l6.08,5.57-3.11-.21c-.09.31-.18.61-.26.91l13.23,4.4c-6.69,3-11.27.06-16-3.61l3.13,4.22-3,4,15,5.35c-.09.34-.18.68-.28,1l-17.6-3.27,7.6,6.23-.24.66-9.56-3.92c.91,2.93,1.52,4.94,2.13,6.91l-3-1.09-.69,1.54,20.58,9.79c-8.61,3.43-14.37-3.26-21.78-5l7.69,6.24-7.6-2.32c-.15.32-.31.64-.47.95l10.3,5.93-8.63-1.94c-.06.23-.13.47-.2.7l6.09,2.76h-7.67L584,602.4c-7.16-.23-10.57-3.28-11.41-11a38.08,38.08,0,0,0-2.34-10.8L572,620.46l-1.58.12c-2.68-11.38-3-23-3.7-34.68-.74-11.88-2.31-23.71-3.51-35.56l-2.26.17c1.45,25.81,2.9,51.62,4.39,78.1l-5.58-5.91c3.66-6.28,3.63-6.37-3-8.51,6.06-5.11-.32-7.63-2.63-11.3l4.83-3.4-7.68-1.18.06-1.6,8.86.44.27-1.3-9.05-3.3,2.24-.71-9.84-14.39.89-.66,8.55,3.81c.23-.36.47-.71.7-1.06l-14.78-12.81.93-2.4,8-2.32L540,557.68l6.64-1.38-6.34-3.09,6.12-3.55-13.15-6.88,4.22-1.91v-9L533.11,530l2.31-2.69c-1.66-1.53-3.65-2.79-4.77-4.59-.82-1.31-.49-3.34-.69-5.18l6.12-.35,1-1.57c-11.8.91-11-8.74-14.26-15l2.23-1c-1.81-1.55-3.47-3-5.12-4.4l1.62-.9c-.53-2-.52-4.4-1.67-5.92-4.28-5.69-5.08-12.12-5-18.88a34.52,34.52,0,0,0-.47-7.14c-2.44,9.76.17,20.82-7.24,28.7a10.54,10.54,0,0,1,.17,2.85c-.38,1.73-1.16,3.38-1.54,5.12-.67,3.17-1.08,6.4-1.77,9.57a66,66,0,0,1-2.73,10.49c-.77,1.94-2.77,3.4-3.73,5.79l5.24-3.42-4.62,15.9,2.93,1.27c-1,2.06-2.31,6-2.82,5.9-5.31-1.09-4.92,5.13-8.85,6.16l2-4.38c-2.14.6-4.52.73-6.2,1.89-2.08,1.44-3.58,3.72-5.5,5.83l-4.12-2.48,14-9.17-1-1.56-3.9,2.6,5.61-8.63-19.61,12.71-.76-.9,2.59-3.38-11.54,4.55-.84-1.74,6.06-4.16-6,.82c7.59-3.52,14.38-7.54,17.15-16.31-5.59,3-10.23,8.9-17.94,6.68l8.17-3.36c-.06-.28-.11-.56-.16-.84l-7,.7-.25-.93c4.15-1.74,8.32-3.43,12.44-5.24,6.25-2.74,7.8-6.9,5.17-13.59-.31,0-.85,0-.9.08-2.84,7.44-9.47,9.05-16.2,10.45-2.18-6.56-2.71-10.61,4.12-15l-3.51-3.53-1.83,1V483.17L458,483c-.35,6.55-.69,13.09-1,19.58l-3.44-3.15-1.47.74c2,4.53,4.07,9.06,6.72,15L454.86,513l3.11,8-2,1.39-11-11.35c-3.55,4-3.3,4.57,8.19,16.93l-3.73,3.11-6.78-8.76c-.48,6.8,2.11,11.33,9,13.51l-4,2.42c1.32,5,10.83,2.22,8.09,10.7-10-9.42-24.66-13.58-31-29.11l4.26,2.49c-3.95-7.89-7.68-15.32-11.4-22.76l1.05-.69,4.95,5.6-9.18-24.66,3.8,1.5c-2.21-6.56-4.79-12.24-5.93-18.19s-6.59-11.71-1.21-17.4c-.9-4.06-1.72-7.73-2.42-10.87l-5.24,12.6,5.25-2.84L400,474.21l4.19-1c-.56,1.1-1,1.85-1.33,2.63-1.92,4.4-4.95,8.67-5.52,13.23-1.55,12.4-1.26,12.77-8.89,21.8l3.77,1.05-3.82,4.37.58.76,5.16-3.71.95.55c-2.38,4.38-4.8,8.74-7.11,13.16-.74,1.43-2.1,3.64-1.57,4.45,5.05,7.8-2.22,9.87-6.05,14.11l3.32-11-1.66-.67q-3.07,4.32-6.14,8.66c-.22-5,7.48-9.1-.09-14.15l-4.46,5.79-.95-.52q2.71-4.83,5.45-9.65l-1-.68L371,526.87c-.68-6.58-1.32-12.77-1.95-19l-1.19.09c0,5.37.37,10.79-.22,16.1-.18,1.71-2.89,3.14-5,4.35.37,2.39,7.57,1.67,4,8.19l-9.18-6.24-.94,1,7.74,7.34-.29.65-7.56-3.64c1.38,1.75,2.14,2.72,3.27,4.14H339v-1h12.48c.07-.28.14-.56.2-.85l-11.74-2.57c.11-.36.22-.72.34-1.08l11-2.41-15-6.76.42-1.2c2.29.69,4.54,1.54,6.87,2s5.52,2,5.07-2.91c-5.2-.46-10.93.45-14-5.94l4.49-1.54-1.49-1.75,14.64-3-.15-1.2-19.31-1.4c0-.57.09-1.14.13-1.72l6.27-.52-20-11.61c.29-.49.59-1,.88-1.48a72.3,72.3,0,0,0,7.07,4.59,30.74,30.74,0,0,0,8.26,3,21,21,0,0,0,9-.7l-2.8-1.11,0-1,12.76-.66.15-1.18-15.55-1.76c0-.35,0-.7,0-1.05l12.7-1.75c-9.4-.62-18.26-2.41-25.26-9.47,6.17,2.44,12.2,5.51,20.37,4l-17.37-6.46c.1-.39.21-.78.31-1.16l6.37-1.53L328.21,473c6.07-.62,12.47,1.78,17.78-4.89-11.27,2.1-20.27-.86-27.15-9.47l19.72,2.23c0-.38.09-.77.13-1.15l-6.47-.58c0-.39,0-.77,0-1.15l4.12-.34-14.15-10.24.9-1.39,6.67,3.92c1.53-3.53,1-4.57-3.31-8-2.53-2-4.79-4.36-7.18-6.55l.79-1.11,2.19,1.19,4.45-4.33L315.1,409.52l1.37-.85,2.67,2.18,1-.41c-1.59-4.36-3.19-8.72-5-13.65l-5.8,11.35,3.36.23c-3.1,7.08-5.62,14.18-14,16.79l7.74,3.48-3.9,5.21h3.25l.28.88-7.46,2.63-.15,1,4.75.51-3.72,2.33,3.76,3.07-12.42,5.87,6.72.3c1.36,6.36,5.94.91,8.53,4l-15.44,1.93c-.14.4-.27.81-.4,1.21l13.75,3.6c-9.37,4.45-18.4-.35-27.91-3.34l17,13.81-8.82-1.18c6.08,5.77,12.37.68,18.38,2.05l-11.35,3.06c.12.55.25,1.09.37,1.64L309.74,473c-9.54,6.28-18.46,9.22-28.79,3.8-.37,1.29-.63,2.21-.89,3.13l-6.28-3.17c-.2.43-.41.86-.62,1.3,8.33,4.48,15.52,11.42,26.09,11.1,0,.51-.06,1-.1,1.52l-21.39-1.48c9.8,8.48,19.64,9.44,30.46,2.78-3.16,6.27-10.67,6.55-18.76,6.51-4.44,0-8.88,0-13.32,0l-.6,2.65,18.22,6.54H282.22l-.12,1.68,17.78,1.77c0,.34,0,.68,0,1l-26.91-1.52c-.07.11-.13.22-.19.33l13.71,3.67-12.25,2.62c7.43,6.61,15.7,8.9,25.08,7.22-10.43,3.74-20.51,1.4-30.76-1l12.89,8.9-7.48.59,13.8,5.1H267.79c2.73,6.54,8.36,3.4,12.14,4.87,4.09,1.59,8.65,2,13.15,3.29H274.6l-.24,2.3,16.15,3.31c0,.44,0,.89,0,1.33-5.43,0-10.94-.58-16.26.16s-9.32-1.56-13.36-4.08c-.74-.46-.6-2.23-1-3.35S259,543,258.52,543c-4.39-.13-5.78-2.41-6.09-6.52-.1-1.31-2.34-2.72-3.87-3.62-6.43-3.79-12.18-8-15.44-15.22-.67-1.48-4.15-2.49-6.24-2.35-5.42.34-10.79,1.44-17.06,2.37l5.37-13.87-1.07-.48L208,515l-1.39-.51q3.09-10.15,6.17-20.32l-1.35-.4c-2.38,7.44-4.76,14.87-7.48,23.35-3.81-.77-8-1.56-12.12-2.44-5-1.07-10-2-14.94-3.39-4.31-1.2-3.76-2.6-3.46-7.37.25-4.06-2.19-8.29-3.48-12.44a7,7,0,0,1-.54-3.64l3.28,4.59.82-.32c-1.88-10.27-3.76-20.54-5.78-31.54L156.49,483l4.82-1.74-10.2,13.26c7.5,3.7-.57,6.08.33,9.12-9.47-1.1-12.48-3.76-14.1-12.05-2.15-11.05-6.9-15.19-20.59-17.63-2.7-.48-5.41-.9-8.15-1.3C108.07,502.74,106.77,532.77,105.52,562.79ZM1626.9,581.51l18.9-5.14c-.14-.6-.28-1.2-.43-1.8l-4.77.36,7.91-4.07c-.33,5.12-.58,9.15-.77,12h-20.86Zm-160.66,17.67,11.59-3.28.63.79-7.61,8.22-1.51-1.37,1.57-1.79-5-1.43C1466.06,599.94,1466.15,599.56,1466.24,599.18ZM1453.92,620l18.5.89.06,2c-6.28,2-12.43-.27-18.63-.94Zm-54.59-8.17c-5.57,2.4-12.56-1.51-16.84-8.88Zm-54.08-53c-4.94,5.5-10.47,9.48-18.62,8.79Zm-41.46-14.67,7.75,10.16-1.33,1.26q-4.34-4.63-8.66-9.26Zm-111.6,24.51-.06-.93,17.48-2.45c-3.58,7-11.32,9.36-17,6.55-1.44-.7-3.47-.4-5.2-.25-5.37.45-8.65-1.72-8.55-5.49,8,5.19,16.82,3.2,25.51,1.9Zm-13,20.59,21.27,3.77C1196,596.51,1186.8,595.24,1179.2,589.24Zm14.68-12,16.34-4.26C1204.9,578,1199.75,579,1193.88,577.26Zm7.46-30.4-7.25,1.47c7.55-4.86,14.21-8.72,23.46-9.29l-4.65,5.36.37.67,5.38-2.78-9.52,17,4.29-1.76.81,1.32c-2.32,1.3-4.51,3.09-7,3.78-2.91.81-6.1.66-9.17.93.44-1.21.87-2.42,1.38-3.86-16.86,2.23-20.58,1.57-21.52-4.11,8.79,1.2,17.72,4.08,26-1.78C1202.92,551.12,1202.18,549.14,1201.34,546.86Zm-2.84-32.66-20.75,3c-.25-3.12-.39-4.87-.5-6.19Zm-20.81,18,13.65,4.06-.42,1.55L1177,534.3C1177.22,533.59,1177.45,532.88,1177.69,532.17ZM1167.06,612l2.29,1.74-11.73,13.88-1.44-1.15Zm-40.44,15.5,15.1,2.29C1134.08,633.55,1129,632.64,1126.62,627.48Zm-2.24-13.64,12.77,6.63-4.08,2.5-10-7.36Zm-158.91-17c-1.08,9-1.28,9.2-14.09,9.41Zm-7.07,12.71c0,.44,0,.88,0,1.31h-19c0-.43,0-.87,0-1.31Zm-82.06-22.4,13,1.86c.08.5.16,1,.23,1.49l-16.35,4.35-.92-1.72C873.61,591.17,874.93,589.23,876.34,587.13Zm-151.86,3C718.43,595,704.62,594,700.84,588,708.33,594,716.92,586.66,724.48,590.09Zm-15.22-13.55c0,.26-.07.52-.1.78l-8-1.07-.24.66,11.61,5.32c-.17.53-.33,1.06-.5,1.6-1.41-.24-3-.1-4.21-.77-11.25-6.4-11.23-6.44-12.67-11.69ZM573.84,600.92l3.61,3.13c-.48.78-1,1.56-1.45,2.34l18.5,5.19v1.14H573.84Zm-108-9c-1.53-.11-2.93-1.83-4.39-2.81l.89-1.28,20,2.85,6.45-2.31c-5.39,11.74-15.08,7.63-23.79,7.27l-.18-1.68a79.9,79.9,0,0,0,9-.09c1.79-.21,3.48-1.34,5.21-2C474.65,591.93,470.23,592.26,465.86,592Zm23.89,11.34c-9.21,2.19-18.45,4.86-27.51-.83,9.77,3.5,18-2.06,27.47-4.17.5,1.05,1.12,2.35,1.88,4A8.23,8.23,0,0,1,489.75,603.29Zm-3.68-39.74-13.45.93-.11-1,17.54-8.9,4.39,7.58,3.75-2.32c.2.62.51,1.06.4,1.25-2.61,4.33-4.95,8.88-8,12.84-1.67,2.15-4.62,3.31-7.64,4.18l1.6-3.24c-7.45,4.36-15,6.36-23.17,2.34,7,.64,13.92,1.16,18.92-4.21a91.77,91.77,0,0,1-9.78-.07c-3.47-.37-8.36,1.57-9.61-5.11C474.68,570.43,478.41,569.75,486.07,563.55ZM448,568.46c2.74,0,5.48-.05,8.2.15a27.94,27.94,0,0,1,.15,3.43l-8.49-.51C447.93,570.51,448,569.49,448,568.46Zm-8.54-20.91c-5.27-.08-13.44-10.2-14.21-19.56Zm-92.59-4.64,4.62,6.51c-7,1.28-12.43-1.17-19.13-4Z" transform="translate(-84.06 -396.79)"/></svg>