<svg id="Layer_1" data-name="Layer 1" xmlns="http://www.w3.org/2000/svg" viewBox="0 0 1799.27 1467"><defs><style>.cls-1{fill:#121621;}</style></defs><title>header-3</title><path class="cls-1" d="M60.16-116V1351H1859.43V-116ZM234.33,674.47l-4.24-.75V574.2l5.45,6.63c3.86-45.43,7.86-87.78,11-130.15,3.77-51.47-19.25-103-15.9-154.44.38-5.79,0-11.69,1.52-17.33,1.18-4.36,8.3-23.66,25.42-19.25,2,.51,21.47,1.44,27.37-4.3.77,2.83,1.16,4.24,2.45,9l34.05-29.08c-2.23,18-4.41,35.59-6.76,54.58l-21.91-2.1c6.11,3.45,12.12,6,16.43,9.52,4.8,4,7.25,7.48-1,12.9-6.47,4.27-7.45,12.83-11.27,20.26,6.88,3.95,23.6,7.79,2.95,15.94-1.43.56-1.94,5.26-.66,6,12.61,7,8.24,16.73,8.24,25.62,0,50.16-12.53,98.93-27.84,147.75C266.9,566.31,260.9,608,251.37,649.14c-1.43,6.18-5.82,12-8.84,18v.12C239.82,669.65,237.08,672.06,234.33,674.47Zm8.19-7.1q-1,15.11-2.06,30.22l-6.69-.23c-4.62-6.79-7.22-13.55.91-20.92C237.74,673.67,240,670.42,242.52,667.37Zm-19.43-128,4.26-43.73,5.74.18q-1.5,21.7-3,43.39ZM413.63,738.81l-12.75,39.32c-11.08-2.51-23.67-5.63-36.65-8.29,2.92-9,6-18,9.13-27a568.8,568.8,0,0,0,21.1-80.43c7.19,19.32,14.49,38.62,21.26,58,2.92,8.36,6.15,17.07,5.76,25.54-.66,14.49-4.05,28.93-6.3,43.39l-4.2-.15q2.52-25,5-50.07ZM1477.5,478.26c5.24,13,10.78,25.93,16.12,38.9l4.39.39c7.07-12.56,18.69-24.86,20.11-37.74,1.94-17.68-3.15-35.78-5.67-53.7,6.77-3.25,16.13-15.22,22.22-17.9,10.72-4.72,24.48-1.39,37-1.78,4.72-.15,10.12-1.26,11.93-4.39,1-1.81.84-4.2,3.11-5.29.2-.09,68.09-9.52,68.31-9.58l7,162.38-6.26,150.93-17.67,119.28c-8.61,1-43.25-7-51.83-7.83-11.93-1.12-23.62-6.36-35.21-4-13.9,2.78-19.6,14.24-32.25,17.54-10.81-10.53,2.12-23.22-4.27-35.27-2.54-4.78-7.17-8.46-13-11.22-.28-.74-.54-1.49-.77-2.23a12.55,12.55,0,0,1-.89-4.27c.78-11-2.29-21.86-3.28-32.79-.49-5.31-1-10.63-1.5-15.94-1-10.13-2.2-20.26-3.24-30.4-.54-5.29,0-10.73-1.56-15.84-2.73-8.79-.66-17.69-2.38-26.47-.48-2.5.75-5.14.63-7.71-.41-9.34-.13-18.76-1.82-28-3-16.16-5.34-32.31-6.07-48.61-1.12-25-2.33-50-3.8-75A67.77,67.77,0,0,1,1477.5,478.26Zm108.3-112.35c-29.55,2.08-60.86,2-81.93-3.72-2.94-21.83-5.85-43.67-8.59-65.53,0,0,0-.09,0-.13.09-1.2.17-2.39.25-3.59a3.16,3.16,0,0,0-.9-1.82c-2.31-20.06-3.63-40.18-6.22-60.21a7.29,7.29,0,0,0-.93-2.59q0-14,.09-28c0-3,1.09-6.05,1.87-9.05,1.06-4.11,2.33-8.19,3.46-12.29.22-.79,0-1.67.42-2.4a7.46,7.46,0,0,0,.35-.69c4.67-9.86,154.94,6.86,175.72-5,11.75,10.21,18.57,23.28,19.06,36.52,1.4,37.25-44.42,68-48.6,105.13-1.77,15.73,4.13,31.69.46,47.25C1625.56,362.06,1606.1,364.48,1585.8,365.91ZM1399.55,176.68c2.91,4.39,5.7,8.83,8.61,13.22.19.29.52.61.48.89-.77,7.28,4.56,13.71,5.41,20.93s-.27,14-.43,21a8.21,8.21,0,0,1-1.44,3.67c-1.22,2.07-3,4-1.49,6.42.31.51.06,1.27-.15,1.89-2.63,7.82-5.44,15.62-7.92,23.48-1.34,4.23-5.43,6.76-9.85,9.16-2.27,1.23-4.33,2.39-3.24,4.56l4.52-2.78,1.25.8-12.83,13.48,2.23,1.12c-.6,3.17-2.09,6.4-1.56,9.44s3.78,5.54,4.66,8.48c1.12,3.7,1.21,7.59,1.41,11.4.09,1.72-.23,3.18,1.25,4.9s1.26,4,1.42,6c.23,2.72,0,5.45.12,8.17a186.89,186.89,0,0,1-2.51,35.67c-1.81,11.19-8.28,21.62-8.51,33-.08,4.57-4.16,6.81-10.09,8.1-2.31.5-4.14,2.17-6.49,3.48-7.27-6.25-15.5-9.88-24.41-12.36-12.93-3.61-27.28-4.81-42.2-8.09-37-8.14-81.44-35.22-98.61-60.07-1.58-2.27-3.06-4.65-5.58-6.44-4.09-2.9-10.13-3.72-15.79-4.45-20.47-2.63-42.69-6.51-55.11-18.49-9.84-9.48-11.66-22.43-17.75-33.29q3-19,6.08-38l-8.85-1.59c-4.29,7.26-10,14.28-12.55,21.84a23.68,23.68,0,0,0-.7,2.52c-7.1-3.64-15.27-6.49-19.29-11.94-3.39-4.61-3.06-10.19-5.62-15.07-6-11.45-25.08-15.62-41.55-18.76s-35.43-8.7-38.94-20.68c-5,15.62,8.61,33.15,29.71,38.34,5.38,1.33,11.32,2,15.64,4.66,6.42,3.93,7.15,10.72,10.45,16.29,5.61,9.45,18.62,15.27,29,22.33s18.85,18.19,12.17,27.28c5.89-8-89.79-22.86-96.8-23.33-4.13-.28-8.34-.2-12.4-.83-11.1-1.74-21.22-6.74-32.15-8.88-8.26-1.61-34.57-1.52-40.06-4.74,8.67,5.08,20.33,6.34,31.09,8.54s22.18,6.33,25.69,14c.81,1.78,1.17,3.7,2.57,5.28,3.93,4.43,12.95,3.74,20.23,3.24,38-2.57,72.35,14.77,102.8,31.26,13.25,7.17,26.22,15.54,40.29,21.84,11.3,5.06,23.4,6,35.94,9.63,27.34,8.07,51,27.75,65.13,45.67a28,28,0,0,0,6.55,6.57c2.84,1.85,6.41,3,9.77,4.3,14.61,5.73,26,15.52,31.33,26.85a139.46,139.46,0,0,1,46.42,9.55c4.34,21.3,40.09,21.92,48.2,40h0c4.6,10.4,5.83,21.05,5.85,31.91,0,5.76,1.35,11.53,2.29,17.28a103.42,103.42,0,0,1,.18,34.75,5.77,5.77,0,0,0,0,2.41c1.88,7.05.62,14.15,1,21.21.59,11.9,2.55,23.77,3.94,35.65.13,1.13.41,2.25.46,3.37q1.42,33.88,2.81,67.75c.63,15.53.65,31.1,1.94,46.6-10.73-6.38-20.84-13.54-32.28-18.76-20.69-9.44-35.94-20.62-43.8-38.34-3.22-7.27-11.33-13.43-19.25-19.1,7.2,11.24,14.09,22.6,21.74,33.69,3.77,5.47,7.49,11.7,13.72,15.42,19.12,11.42,25.71,25.65,24.65,43-.63,10.38,1.8,20.84,2.14,31.28.15,4.35-1.55,8.73-2.41,13.09l-5.38.37-12.57-41.69-3.45.24q2.18,16.69,4.38,33.44a23.27,23.27,0,0,1-3.84.23c-13.41-27.19-44.35-45.41-67.37-67.65-7.13-6.89-9.12-12.91-6.31-21.28,2.27-6.74.46-14.19-1-21.38l-7.55,28.24c-17.94-17.64-33.78-33.22-50.46-49.64-1.27,1.12-2.5,2.27-3.72,3.42a20.06,20.06,0,0,1,3.79,3.36q33,37,66.43,73.85c14.62,16.06,29.7,31.9,44.57,47.84l-4.14,4.09-100.9-29.74-1.25,1.3c16.39,6.74,32.44,14,49.25,20.09,12.39,4.52,25,8.72,37.62,12.93a100.82,100.82,0,0,0-32,9.79c-10.11-15.19-31.69-26.1-55-27.82a71.82,71.82,0,0,1,5.53,23.54,116.66,116.66,0,0,0-32.57,9.27c-8-18.1-8.67-36.26,10.44-56l-5.44-.35-12.61,19.29-2.93-.43q-1.21-13.85-2.45-27.7l-3.27.07v57.2l-6.19.8q-4.9-15.85-9.82-31.71l-1.66-.33c-.34,3-.61,6-1,9-1.28,9.52-2.89,19-3.7,28.57-.21,2.45,1.44,5.29,3.31,7.48,3.29,3.87,4.5,7.43,4.14,10.73-27.06,9.67-67.46,4-96.71,6.79-33,3.11-66.41,1.17-99.55-.77l-141.82-8.32c-24.14-1.42-48.45-2.83-72.52-.89-27.32,2.2-53.65,8.7-81.06,10.46-6.58.42-75.57-2.35-75.57-2.43-.12-3.65-.23-7.31-.35-11a48,48,0,0,0-12.78,2.68,16.37,16.37,0,0,1-3.1-7.46,43.42,43.42,0,0,0-14.58,5.57,275.31,275.31,0,0,1,6.71-34.9c-10.16,3.36-18.88,8.94-24.69,15.8q-6-24.87-12-49.76a249.12,249.12,0,0,0-6.06,51.81c-2-3.2-6.79-5.4-11.68-5.37-3.53,0-6.88,1.08-10.35,1.54-46.84,6.25-7.9-44.35-1.8-54.89l-14.54,12.89-3.39-.34q6-50.7,12-101.4l-4.7-.34q-16,66.84-32,133.69l-5.78.31c-1.47-4.32-4.47-8.68-4.17-12.93,4.16-58.77,8.77-117.53,9.58-176.48l-13.35,87.51-4.43.61q-12.93-28.53-25.84-57.07a565.31,565.31,0,0,0,7.54-87.27c.19-20.34,4.91-40.72,8.81-61,3.66-19,7.61-38,11.6-57q3-14.44,6.08-28.88c1.78-8.47,2.63-17.31,6.42-25.43a9.22,9.22,0,0,0,.66-2.8c.24-1.85.47-3.7.71-5.54,2.18-16.81,4.6-33.54,7.42-50.32l3.53-.26,8.51,11c3.92-13.67,6.71-25.22,10.63-36.58s8.89-22.35,13.41-33.52l5.25.45c1.79,3,3,6.41,5.48,9.09,9.45,10,19.51,19.71,29.05,29.68,5.33,5.57,10.56,11.19,15.77,16.83a88.45,88.45,0,0,1,12.33,3c-.59-2.75-.94-6.09-2-10.38l16.73,8.23c-7.18-11.58-13.56-21.86-20-32.14l3.85-1.71c26.63,10.18,28.66,39.42,64.7,41.75.07-.29.63-2.8,1.71-7.67,9.33,8.95,16.94,16.28,26.42,25.38-.64-5-1-8.08-1.41-11.06,1.45-.34,2.68-.94,3.28-.71,11.55,4.43,19.36,14.6,36.46,10.77,3.34-.75,9.28,4.46,14,6.93.33-1,.65-2.06,1-3.08l37,5.45L723.91,359l38.62-10.66a16.48,16.48,0,0,1,1.6-3.57A184.21,184.21,0,0,1,678.51,322a76.1,76.1,0,0,1-21.59-18.13c-2.81-3.37-.49-8.94-.49-16L683,303.28c-.22-3.16-.34-5-.52-7.51,18.5,1.94,27.32,12.21,38.88,23.52-.35-5-.56-7.94-.79-11.22,1.69,0,3.47-.4,4.51.06,6.41,2.81,12.41,6.17,19,8.67s11.12,7,21.8,2.58c5.38-2.24,22.93,3.25,26.89,8.43a7,7,0,0,1,1.55,6l1.92,0q4.29,0,8.58.12l1.38-1.52,4.64.94v.87c1.85.11,3.7.25,5.54.42v-9l30.57,5,1.15-1.26-21.5-10.43c22.55,1.08,42.82,2.53,59.26,9q2.54-1.08,5.24-2c2.73-.95,5.48-1.86,8.23-2.77-7.11-4-15.74-7.31-25.78-10.33l28.69-6.29-25.52-1.19,8.1-9.15c-3.25-.84-6.42-1.88-9.51-2.9q-3.2,3.17-6.56,6.23c-3.06,2.77-13.82,3.2-19.87,1.9-25.21-5.43-50.26-11.4-74.74-18.32-8.46-2.39-15.1-8.13-25.32-13.88,3.79-2.17,7.48-4.26,11.08-6.3q-2.45-.93-4.87-1.89l-2.21,1.65c-1.81,1.34-6.14,2.38-8.32,1.76-25-7.09-49.79-14.53-74.64-21.87l2.22-4.73c10.74,2.06,21.51,4.06,32.22,6.19,11.22,2.23,22.38,4.59,33.56,6.89.38-.6.75-1.2,1.12-1.8l-14.16-7.58,54-3.94A145.58,145.58,0,0,1,795,226.12c2.08-1.25,4.24-2.47,6.5-3.63-2.84.85-5.78,1.67-8.9,2.6,3.53-5.52,6.34-9.9,9.87-15.43-56.38,8.84-106.23-1.75-153.07-23.11,10.32,1.77,21.66,2.15,30.72,5.61,18.29,7,36,6.48,55.71,4,10.77-1.35,22.26.38,33.65,1.47,1.48-1.21,3-2.38,4.63-3.49a37.4,37.4,0,0,1-10-4.21l16.4-8.14ZM520.15,297.34l7.38-2.53c13.46,7.58,12.94,19.67,17.63,30.08l-4.25,1.51Z" transform="translate(-60.16 116)"/></svg>