<svg version="1.1" id="Layer_1" xmlns="http://www.w3.org/2000/svg" xmlns:xlink="http://www.w3.org/1999/xlink" x="0px" y="0px" viewBox="0 0 612 245" xml:space="preserve">
    <g>
        <polygon points="129.7,113.5 129.9,113.5 129.9,113.2 	"/>
        <path fill="#ffffff" d="M383.6,127.5c0-0.7-0.4-1-1.2-1C382.5,127.1,382.9,127.5,383.6,127.5z"/>
        <polygon points="383.6,127.7 384.6,128.7 384.8,128.7 384.1,127.7 383.6,127.5 	"/>
        <path fill="#ffffff" d="M448.4,174.5c0.2,0,0.4-0.2,0.6-0.7l-1.5,0.2C447.9,174.3,448.1,174.5,448.4,174.5z"/>
        <path fill="#ffffff" d="M505.6,44.9l-0.5-0.2v1C505.1,45.4,505.3,45.2,505.6,44.9z"/>
        <path fill="#ffffff" d="M446.3,172.8c0,0.7,0.2,1,0.7,1c0.2-0.2,0.2-0.4,0-0.6C446.9,172.9,446.6,172.8,446.3,172.8z"/>
        <path fill="#ffffff" d="M445.3,171.8c0,0.7,0.3,1,1,1C446.5,172.1,446.1,171.8,445.3,171.8z"/>
        <path fill="#ffffff" d="M481.9,149.8c0-0.2,0.1-0.2,0.2-0.2h-0.2V149.8z"/>
        <path fill="#ffffff" d="M481.4,150c0.3,0.3,0.6,0.5,0.7,0.5l-0.2-0.7L481.4,150z"/>
        <polygon points="447,173.8 447,174 447.5,174 447.3,173.8 	"/>
        <path fill="#ffffff" d="M610.8,121.6c-0.8-0.8-1.8-1.2-2.9-1.2c-2,0-2.9,0-2.9,0s-0.6,1.1-1.7,3.4c-5.2,7.5-8.8,11.9-10.8,13.2
            c-1,0.5-1.9,1.2-2.8,2.1c-0.9,0.9-1.6,1.5-2.1,1.8c-0.5,0.3-1.1,0.8-2,1.5c-0.8,0.7-1.6,1.1-2.4,1.5c-0.8,0.5-1.8,1.2-2.8,2.2
            c-1.1,1-2,1.8-2.8,2.4c-0.5,0.3-2.5,1.6-6.1,3.9c-5.7,3.8-12,6.3-18.9,7.6c-1-0.6-1.7-2-2.2-3.9c0.6-5.7,3-12.9,7.1-21.6
            c-0.2-0.3-0.2-0.6-0.2-0.7c0-0.2,0-0.3,0-0.5l0.7-0.7l1.7-5.1l1.5-3.9c0.6-1.1,1-2.5,1-3.9c0-1.5-0.5-3-1.5-4.7l-4.9-3.7
            c-3.4,0-6.6,0.5-9.6,1.5c-4.7,1.6-9.5,4-14.2,7.1c-0.8,0.5-1.9,1.3-3.2,2.3c-1.3,1.1-2.5,1.8-3.7,2.3c-1,0.5-2.1,1.4-3.4,2.7
            c-1.3,1.3-2.4,2.2-3.2,2.7c-1.6,1.1-4.7,3.8-9.3,7.8c-0.3,0.3-0.7,0.7-1.2,1.2c-0.5,0.5-1,0.8-1.5,1l-0.7-3.7
            c0.2-0.7,0.4-1.5,0.7-2.6c0.3-1.1,0.5-1.9,0.5-2.6c0-0.5,0.2-1,0.3-1.5c0.3-0.6,0.5-1.2,0.7-1.9c0.4-0.8,0.8-1.5,1.5-2.3
            c0.3-0.3,0.9-0.8,1.8-1.5c0.9-0.6,1.4-1.4,1.6-2.2l2.5-1.5v-1.2c1.5-1,2.4-1.9,2.9-2.7c2-2.3,4.1-4.4,6.4-6.4
            c5.1-4.2,9-8.5,11.8-12.7l1-1.2c3.3-3.3,5.8-6.6,7.6-10l2.9-4.9v-2.2l-0.5-0.2l0.7-0.7c0.2-0.5,0.6-0.8,1.2-0.9
            c0.7-0.1,1.1-0.2,1.2-0.4c0-0.3,0-0.7-0.1-1.2c-0.1-0.5,0-0.9,0.4-1.2c0.5,0,0.8,0.1,1,0.2c0.3-1.6,0.6-2.6,1-2.9
            c0.7-1.1,1.6-2.7,2.7-4.7c1.1-2,2.2-3.6,3.2-4.9c1-1.6,1.9-3.5,2.8-5.6c0.9-2.1,1.5-3.6,1.8-4.4c0.3-1,0.7-2.1,1.2-3.3
            c0.5-1.2,1-2.5,1.5-3.8c0.3-3.3,0.6-5.7,1-7.4c0-0.5,0.2-1,0.5-1.6c0.3-0.6,0.6-1,0.7-1.3c0.2-0.7,0.2-1.2,0.1-1.6
            c-0.1-0.4-0.1-0.8-0.1-1.1v-2.7c0.2-0.2,0.6-0.5,1.2-1c-0.2-0.5-0.2-1.5-0.1-2.9c0.1-1.5,0-2.6-0.4-3.4l-1.2,1.2
            c-0.3-0.5-0.5-0.9-0.4-1.4c0.1-0.4,0.3-0.8,0.7-1.2c0.4-0.4,0.7-0.7,0.9-0.9c-0.3-0.3-0.6-0.9-0.9-1.7c-0.2-0.8-0.6-1.3-1.1-1.5
            l-1.7,0.2l-0.2-1.7c-1-0.3-2-1-2.9-2c-1-1-1.7-1.7-2.2-2.2c-0.2-0.2-0.7-0.6-1.7-1.2c-1-0.6-2-1-3.2-1c-2.4-0.2-6.1-0.1-11,0.2
            c-0.7,0.2-1.5,0.5-2.4,1c-1,0.5-1.6,0.8-2,1c-2.3,1.3-3.6,2.1-3.9,2.5l0.2,1l-2.7,2.9l-2.7,3.9c-2.6,3.1-5.6,7.7-9.1,13.7l-6.4,12
            c-0.3,0.5-0.8,1.3-1.5,2.5c-0.7,1.1-1,2.3-1,3.4c-0.5,0.9-1.1,2.2-1.6,3.8c-0.5,0-1,0.1-1.3,0.1c-1,0.3-2.5,0.5-4.7,0.5h-3.2
            l-1-0.2c0.8-1.1,1.5-2.5,2.2-4.2c0.6-1.6,1.1-2.9,1.5-3.7c0.5-0.8,0.7-1.7,0.7-2.7v-0.7l-0.5-0.5c0.3-0.3,0.5-0.6,0.5-0.7v0.2
            l1.7-1.7l0.5-4.7c0.5-1.5,0.7-3,0.7-4.7c0-2.3-0.5-4.2-1.5-5.9c-0.8-0.8-1.8-1.5-2.9-2c-1.3-1-2.5-1.5-3.4-1.5
            c-3.6-0.3-6.8,0.1-9.6,1.2c-0.2,0.2-0.7,0.4-1.6,0.6c-0.9,0.2-1.5,0.8-1.8,1.6v0.7c-1,0.8-2.3,2.2-3.9,4.2l-3.7,3.7v1.2l-3.7,3.2
            l0.2,0.2l0.5,0.2h-0.5v-0.2l-1,1.2l-1.7,3.4c-1.6,2.3-3.8,6.2-6.4,11.8c-0.5,1.3-1.3,2.7-2.4,4.2c-2.9,1.3-6.5,2.2-10.8,2.7
            c-1.3,0.7-3.3,1.5-5.9,2.5c-2.6,1-4.7,2.2-6.4,3.7l-1.2,2.5c1.1,0.8,1.8,1.3,2,1.5l1.5,1.7c2,0.3,3.4,0.5,4.4,0.5
            c1.8,0,3.5-0.2,5.1-0.7c1.1-0.2,3.3-0.6,6.4-1.2c0,0.2,0,0.4,0.1,0.6c0.1,0.2,0,0.5-0.1,0.6c-0.7,0.8-1.3,2-1.8,3.7
            c-0.6,1.6-1.2,2.9-1.8,3.7c-0.5,1-1,2.3-1.6,3.9c-0.6,1.6-1,2.9-1.3,3.7c-2.3,4.6-3.7,8.1-4.2,10.5c-0.7,2.6-1.4,4.5-2.2,5.6
            c0.7,1.5,0.3,3-1,4.7c-0.9,2.1-1.8,4.8-2.7,8.1c-5.7,4.1-10,7-12.8,8.6c-3,1.6-6.3,2.5-9.7,2.5c-2.8,0-5.6-0.3-8.3-1
            c-0.2,0,0.4-1.7,1.8-5c1.4-3.3,1.9-5.1,1.6-5.3c0-0.8,0.2-1.9,0.5-3.2l0.5-3.7c0.3-1.5,0.3-3.2-0.1-5.3c-0.4-2-1-3.7-1.8-5
            c-2.1-4.2-5.3-7.4-9.6-9.6c-2-0.5-3.8-0.7-5.6-0.7c-1.1,0-2.9,0.2-5.1,0.5c-0.8,0.2-1.7,0.6-2.6,1.2c-0.9,0.7-1.6,1.1-2.1,1.5
            c-4.4,1.8-7.8,5.1-10,9.8c-2,4.3-3.2,8.4-3.7,12.5l0.7,2c-0.3,1-0.7,1.6-1,2c-0.7,0.2-1.3,0-2-0.5c-0.7-0.5-1.1-0.8-1.2-1
            c-0.3-0.2-0.8-0.2-1.5-0.2c-0.8,0.7-1.6,1.1-2.2,1.5c-1-0.3-1.8-0.5-2.4-0.5c-0.2,0.2-0.3,0.5-0.4,0.8c-1.6,0.3-2.9,1-3.7,2.4
            c-6.5,11.6-10.9,19.2-13.2,22.9c-2.3,3.7-6.2,8.6-11.9,14.7c-5.6,6.1-11,9.2-16.1,9.2c-1.1,0-2-0.1-2.7-0.2c-0.3-0.3-0.7-0.6-1.2-1
            c-0.5-0.3-1-0.8-1.5-1.5l-0.5-3.4c-0.3-0.8-0.5-2-0.5-3.4c0-2,0.1-3.4,0.2-4.4c0,0.3,0.6-1.6,1.7-5.9l2-5.6
            c0.3-0.8,0.6-1.9,0.9-3.2c0.2-1.3,0.6-2.3,1.1-2.9c0.3-0.7,0.6-1.6,0.7-2.8c0.2-1.2,0.4-2.1,0.7-2.6c-0.5-3.6-2.3-6.6-5.4-9.1
            c-1-0.8-2.6-1.3-4.9-1.6c-2.3-0.2-3.8-0.5-4.7-0.9c0.8-0.8,1.7-1.7,2.6-2.7c0.9-1,1.9-2,3.1-3.2c1-0.8,1.9-1.9,2.7-3.2
            c0.8-1.3,1.5-2.4,2.2-3.2c0.5-0.6,1-1.8,1.6-3.3c0.6-1.5,1.2-2.7,1.8-3.3c0.5-1.8,0.7-3.5,0.7-5.1c0-2-0.4-4.2-1.2-6.6l-2.9-3.9
            c-1.8-2-4.3-3.1-7.6-3.4c-2.6-0.3-4.6-0.5-5.9-0.5l-3.4,0.7c-5.2,1.6-8.9,3.6-11,5.9c-1.8,1.6-4.3,4.6-7.6,8.8
            c-0.2,1.1-0.6,2.8-1.2,5c-0.6,2.2-0.8,4.1-0.5,5.8c1.5,5.2,3.8,9.7,6.9,13.5c1.4,1,2.8,1.9,4.3,2.6c-1.5,1.5-3,2.9-4.9,4.5
            c-5.3,4.4-11,8.2-17.2,11.4c-6.1,3.2-11.5,5-16.1,5.5c-2.1,0.5-4.3,0.7-6.6,0.7c-2.8,0-5.1-0.5-6.9-1.5c-1-0.5-2.2-0.9-3.7-1.4
            c-1.5-0.4-2.6-0.7-3.4-0.9c-1.3-0.8-2.1-1.7-2.3-2.6c-0.2-0.9-0.5-1.5-0.6-1.8c0.2-0.2,1.7-1.5,4.7-3.9c0.8-0.6,3.6-3,8.5-7
            c4.8-4,7.7-6.9,8.7-8.7c2.5-3.3,4.1-6.4,4.9-9.3c0.5-1.3,0.7-2.5,0.7-3.7c0-2.8-1.2-5.4-3.7-7.8c-2.4-2-5.1-2.9-7.8-2.7L236,98
            c-3.1,1.6-5.8,3.7-8,6.2c-2.2,2.5-4.5,5.7-7,9.4c-1.4,2.6-2.2,4.8-2.5,6.7c-1.1,1-2.2,1.9-3.2,2.9c-1.1,1-2.2,1.9-3.3,2.7
            c-4.4,3.6-8.3,6.4-11.8,8.3c-3.3,2.3-5.1,3.6-5.4,3.9c-5.1,3.6-8.3,5.7-9.8,6.4c-0.5,0.3-1.8,1.6-3.9,3.7l-2.2,2.7
            c-0.2,0.3-0.4,0.5-0.7,0.4c-0.3-0.1-0.6-0.1-0.7-0.1c-0.5,0.8-1.4,1.6-2.7,2.5c-1.3,0.8-2.3,1.6-2.9,2.2c-1.5,1.6-3.6,2.6-6.4,2.9
            c-0.3-0.7-1.1-1.7-2.3-3.2c-1.2-1.5-2-2.7-2.3-3.7c-0.3-0.5-1.2-1.3-2.6-2.3c-1.4-1.1-2.3-2.2-2.8-3.3c1-0.8,2.8-1.7,5.4-2.7
            c0.2-0.2,0.4-0.2,0.7-0.2c0.3,0,0.7-0.2,1.2-0.5l6.1-3.4c3.4-1.6,6.1-3.2,8.1-4.7c0.5-0.5,1.2-1.2,2.2-2.2c1-1,2-1.6,3.2-2h0.2
            l0.7-4.7l-2.5-3.4c-1.8-1-3.9-1.5-6.4-1.5l-21.3-1.2c-0.3,0-0.7-0.1-1.1-0.2c-0.4-0.2-0.8-0.3-1.1-0.5c0-0.2,0.1-0.5,0.2-1.1
            c0.2-0.6,0.4-1,0.7-1.3c0.3-0.3,0.5-0.9,0.6-1.6c0.1-0.7,0.3-1.3,0.6-1.6c0.6-0.5,1.4-1.6,2.2-3.4c0.6-2,1.2-3.4,1.7-4.4
            c1-1.8,1.5-3.5,1.5-5.1c0-1.1-0.3-2.7-1-4.7l-0.5-1.5c-1.3-1-2.2-1.8-2.7-2.4c-2.7-2.7-5.9-4-9.7-4.1c0.6-0.2,1.2-0.3,1.8-0.5
            c2.3-0.8,3.4-2.2,3.4-4.2c0-1.3-0.5-2.4-1.6-3.3c-1.1-0.9-2.7-1.4-4.8-1.4c-0.7,0-1,0-1,0s-0.8,0.2-2.5,0.5c-0.7,0-2.5,0.5-5.6,1.5
            l-5.9,1.5l-4.7,1.2l1.5-8.8l1.5-10.5l-0.7-3.2l1.2-1c0-0.7,0-2.1,0-4.3c0-2.2,0.2-4.2,0.5-6c0.5-3.3,0.7-6.4,0.7-9.3l0.2-1.7
            c0.6-3.3,1-5.7,1-7.4c0-4.4-0.9-8.9-2.7-13.5c-2-1.3-3.4-2.1-4.2-2.5c-1.8,0-4.7,0.2-8.6,0.5l-4.4,2.2c-0.3,0.5-0.7,1-1.1,1.5
            c-0.4,0.5-0.8,1-1.1,1.5c-0.8,0.7-2.5,2.7-5.1,6.1c-1.6,2.6-3.2,4.6-4.7,5.9c-0.2,0-0.2,0.1-0.2,0.2c0,0.2-0.1,0.3-0.2,0.5
            c-0.3,1-1.2,2.6-2.7,4.9c-2,2.6-3,4.8-3.2,6.6c-1,0.5-1.7,1.3-2.1,2.6c-0.4,1.2-0.7,2-0.9,2.3c-1.1,2.3-2.1,3.8-2.9,4.4
            c-2,1.6-3.4,3.8-4.4,6.4c-0.3,1-1,2.3-2,3.9c-1.6,2.4-4.2,7.4-7.8,14.7l-2.2,4.4l-2.2,4.9c-1.1,2.8-1.9,4.4-2.2,4.9
            c-2.6,4.3-5.4,9-8.3,14.2l-1.7,1.5c-0.3,0-0.7,0-1-0.1c-0.3-0.1-0.7,0-1,0.1c-4.6,1.6-8,3-10.3,4.2l-13,6.9
            c-6.7,3.4-10.9,5.7-12.5,6.9c-3.8,2.3-7.9,5.1-12.5,8.6c-1,0.7-1.9,1.3-2.7,1.8c-0.8,0.6-1.5,1-2,1.3l0.2,2
            c1.1,0.8,1.9,1.2,2.2,1.2l0.7-0.2c0.7-0.3,1.3-0.3,1.8,0.1c0.6,0.4,1,0.6,1.4,0.6h0.2h4.9l9.8-4.9l13.2-6.6c0.8,0,1.7-0.4,2.6-1.1
            c0.9-0.7,1.6-1.2,2.1-1.3c1.3-0.3,3.1-1,5.4-2l2-1l0.2-0.2c-0.3,1-0.5,1.7-0.5,2.2l2,0.2c-0.5,0.3-0.9,0.5-1.2,0.5
            c-0.3,0-0.6-0.2-0.7-0.7l-0.7,0.7c-0.5,1-1.3,2.9-2.4,5.8c-1.1,2.9-2.5,5.4-3.9,7.5c-0.3,0.5-0.7,1.2-1.1,2.1
            c-0.4,0.9-0.8,1.6-1.1,2.1c-1.3,1.8-2.5,4-3.4,6.7c-1,2.7-1.7,4.6-2.2,5.8c-0.2,0.2-0.2,0.4-0.1,0.7c0.1,0.3,0,0.6-0.1,0.7h-0.2
            c-2,3.8-3.2,6.9-3.7,9.3c-0.2,0.5-0.5,1.6-1,3.2c-0.5,1.6-0.8,3.1-1,4.4c-0.6,0.8-1.1,1.8-1.2,2.8c-0.2,1.1-0.2,1.8-0.2,2.1l-1,5.6
            l3.7,3.4c0.5-0.8,0.8-1.4,1-1.7l3.4,2.4l1-1.5l2.2-0.7c0.7-4.1,2.6-9.7,5.9-16.9c0.7-1.5,1.4-3.3,2.2-5.5c0.8-2.2,1.6-4,2.5-5.3
            v-0.5l-1-0.7c1.1-0.8,1.8-1.4,2-1.7c1-2,1.6-3.5,2-4.7l2-4.4c2.1-5.1,4.3-9.6,6.6-13.7c0.5-1,1.4-2.4,2.7-4.4c0.3-0.5,1-1.5,2-3.1
            c1-1.6,1.6-3.1,2-4.5c0.6-0.5,1.2-1.4,1.7-2.7c0.5-1.3,0.9-2.2,1.2-2.7c0.7-0.7,1.2-1.5,1.7-2.5c3.3-1.3,5.7-2.4,7.4-3.2l5.9-2.7
            c0.5-0.2,1.4-0.4,2.7-0.6c1.3-0.2,2.4-0.6,3.2-1.1c2.8-1.5,5.9-2.7,9.3-3.7l5.4-2.2l3.9-2c-0.2,1-0.6,2.3-1.2,3.9
            c-0.7,2.3-1,4-1,5.1l-0.7,2.4c-0.3,1.6-0.9,3.7-1.6,6.2c-0.7,2.5-1,4.8-0.9,6.7c-0.5,1.1-0.8,2.5-1,4.2c-0.2,1.6-0.2,2.7-0.2,3.2
            c-0.2,0.3-0.3,0.7-0.5,1.2c-0.2,0.5-0.2,1.1-0.2,1.7c-0.2,0.8-0.1,1.7,0.2,2.7l-1.2,1.2l-0.2,2.7c0,0.8,0.2,2,0.5,3.7l-1,0.5
            l-2.2,15.7c-1.1,1.6-1.7,3.7-1.7,6.1c0.2,1.3,0,2.9-0.5,4.7c-0.5,1.8-0.8,3.2-1,4.2c-0.2,1-0.5,2.5-1,4.5c-0.5,2-0.7,3.8-0.5,5.3
            H89c0.2,0,0.4,0.2,0.7,0.5l-0.5,0.5c0,0.3,0.2,1,0.5,2c-0.8,0.5-1.3,0.8-1.5,1c-0.5,1-0.7,1.6-0.7,2c0.2,1.6,0,3.3-0.5,5.1
            c-0.5,1.8-0.8,2.9-1,3.4c-0.2,0.2-0.1,0.6,0.2,1.5l2.9,1.5l1-1.5h-2l1.2-1.5c0.3,0.2,0.5,0.4,0.6,0.7c0.1,0.3,0.1,0.6,0.1,0.7v0.2
            l3.4,2.2l1.2-1.7l2.2,0.5l3.2-3.4c-0.2-0.7,0-1.3,0.6-1.8c0.6-0.6,0.9-1,0.9-1.4c0.3-1,0.5-1.8,0.5-2.4v-0.7c0-0.5,0.2-1,0.6-1.5
            c0.4-0.5,0.7-1,0.9-1.5c0.3-2.3,1.1-5.6,2.4-9.8l1.5-5.6c0.2-0.8,0.3-1.9,0.5-3.3c0.2-1.4,0.4-2.5,0.7-3.3c0.3-1.1,0.6-2.2,0.9-3.3
            c0.2-1.1,0.5-2.2,0.9-3.3c0.2-0.5,0.4-1.1,0.6-1.8c0.2-0.7,0.4-1.4,0.4-1.8c-0.2-1-0.1-2.2,0.2-3.7c0.3-1.5,0.6-2.7,0.7-3.7
            c0.8-3.8,1.4-6.3,1.7-7.6c0.2-0.5,0.2-1.1,0.1-1.8c-0.1-0.7,0-1.5,0.1-2.3c0.8-2.1,1.3-3.8,1.5-4.9c0.3-2.9,0.7-5,1-6.1
            c0.6-3.6,1.1-6.3,1.2-8.1l0.4-2.3l0.1,0.1c2.5,2.3,5.2,3.8,8.3,4.4c0.8,0.2,1.7,0.5,2.7,0.9c1,0.4,1.7,0.7,2.2,0.9l1,1
            c2.9,0.8,7.2,1.2,12.7,1.2l18.9,1c0.7,0,1.2,0.1,1.7,0.2l0.5,0.2l0.2,0.5l-2.9,2.2c-0.5,0.3-1.1,0.6-2,0.9
            c-0.8,0.2-1.7,0.7-2.7,1.3c-2.6,1.6-5.5,3.1-8.6,4.4c-0.7,0.2-2.5,1.1-5.6,2.7c-0.2,0.8-0.8,1.4-1.8,1.6c-1.1,0.2-1.8,0.6-2.3,1.1
            c-0.5,0.5-0.8,1.1-1,2v1.2c1,1.3,1.7,2.1,2.2,2.4c1.8,1.1,3.4,2.7,4.9,4.5c1.5,1.9,2.4,3.1,2.7,3.6c1.3,1.5,2.6,3.4,3.8,5.6
            c1.2,2.3,2.1,3.8,2.6,4.7c0.2,0.3,0.2,0.8,0.2,1.3c0,0.6,0.1,1,0.2,1.4l-3.4,3.2c-0.8,0.8-1.8,2.1-3.1,3.8s-2.2,2.9-2.8,3.6
            c-2,2.3-3.6,4.8-4.9,7.6c-0.2,0.2-0.4,0.3-0.7,0.5c-0.3,0.2-0.6,0.4-0.7,0.7c-0.2,0.7-0.5,1.4-1.1,2.1c-0.6,0.7-0.9,1.4-0.9,1.8
            c-0.2,1-0.6,1.9-1.2,2.7c-0.7,0.8-1.1,1.4-1.2,1.7c0,0.8,0.1,1.3,0.2,1.5l-3.2,2.9l-1.5,2.7c-0.3,0.7-0.6,1.4-1,2.3
            c-0.3,0.9-0.6,1.6-1,2.1c-1.8,1.8-2.9,3.8-3.4,5.9c-0.3,1-0.8,2-1.5,3.2c-0.7,1.1-1.1,2.1-1.2,2.9c0,0.6-0.3,1.7-0.9,3.2
            c-0.6,1.5-0.9,2.6-0.9,3.4c0,1.1,0.2,2,0.5,2.4c0.2,0.2,0.2,0.3,0,0.5h-0.2c-0.3,1.5-0.7,2.9-1.2,4.4l2,6.1
            c0.7,1.6,2.3,3.3,4.9,5.1c1.3,0.2,3.1,0.5,5.4,1c2.3,0.5,4.3,0.7,6.1,0.7c4.2,0,8.1-0.9,11.5-2.7c2.6-1.5,6-4.3,10.3-8.6
            c1-0.8,1.8-1.9,2.4-3.2c5.2-8,8.6-16.5,10.1-25.5c0.2-0.7,0.3-1.4,0.5-2.2c0.2-0.8,0.2-1.8,0.2-2.9c0-0.5,0.1-1.2,0.4-2.1
            c0.2-0.9,0.4-1.8,0.4-2.6c0.2-1.1,0.2-2.9,0.2-5.4c0-8.2-0.9-14.9-2.7-20.3c-0.2-0.5-0.2-1.1-0.2-2c0.7-1.6,2.3-3.4,4.9-5.4
            c0.3-0.3,0.7-0.6,1.1-0.9c0.4-0.2,0.8-0.5,1.1-0.9c1.1-1.6,2.7-3.1,4.5-4.3c1.9-1.2,3.1-2,3.6-2.3l8.8-6.6c2.8-2,5.6-4.1,8.6-6.4
            c3.9-3.3,6.9-5.5,8.8-6.6c0.7-0.5,1.5-1.1,2.3-1.8l0.8,3.6c1.6,4.1,3.1,6.8,4.4,8.1c3.9,4.7,9,7.4,15.2,7.8c4.9,0.7,8.6,1,11,1
            c3.6,0,6.8-0.3,9.6-1c0.5-0.2,1.6-0.4,3.2-0.6c1.6-0.2,3.1-0.7,4.4-1.3c3.1-0.5,7.4-2.5,13-6.1c5.6-3.6,10.7-7.5,15.4-11.6
            c2.5-2.2,4.4-4,5.8-5.7c1.5,0.3,3.2,0.6,5,0.9c0.7,0.5,1.2,0.7,1.7,0.7l0.2,1c-1.5,2.4-3.2,6.3-5.1,11.5c-1.3,3.6-2,8-2,13.2
            c0,4.1,0.5,7.5,1.5,10.3c1.1,1.1,1.9,2,2.2,2.7c0.5,1,1.9,2.8,4.2,5.4c1.5,1.5,3.3,2.6,5.4,3.4c2.6,1,6.5,1.5,11.5,1.5
            c2.8,0,6.1-0.6,10.1-1.7c3.6-0.8,8-4.5,13.4-10.9c5-6.1,9.7-12.9,14.1-20.2c0,0,0,0,0,0c0.5,1.8,1,3.3,1.5,4.5
            c0.5,1.2,1.3,2.2,2.4,3.1c0.8,0.7,2.5,1.9,5.1,3.7l8.6,0.2c3.8-0.5,6.4-0.9,7.8-1.2c0.3-0.2,1.5-0.8,3.4-2c0.6-0.5,1.7-1.1,3.1-1.8
            c1.4-0.7,2.7-1.6,4-2.5c1.3-0.9,2.4-2.1,3.2-3.6c0.3-0.3,1.4-1.9,3.2-4.7c1.6-2.4,2.6-3.8,2.9-4.2c4.7,1.3,9,2,12.7,2
            c7.2,0,13.7-1.8,19.6-5.3c-0.8,3.2-1.2,5.3-1.2,6.3c-0.2,1.1-0.2,3.1-0.2,5.9c0,6.5,0.7,11.8,2,15.7c0.3,1.8,1.1,3.9,2.4,6.4
            l2.7,2.7h0.5v-2c-0.8-0.2-1.4-0.8-1.7-2c0.8,0.2,1.3,0.3,1.5,0.5c0.2,0.2,0.2,0.7,0.2,1.5c2.1,1.5,3.4,2.8,3.9,3.9H449
            c0.5,0.2,1,0.5,1.6,0.9c0.6,0.4,1.2,0.7,1.8,0.9c2.9,0.8,5.6,1.2,7.8,1.2c4.1,0,7.9-1,11.5-2.9c0.8-0.3,3.3-2,7.6-5.1l0.2-0.5
            l0.7-2.2l4.4-4.2c0.7-0.6,1.4-1.5,2.1-2.4c0.7-1,1.4-1.7,2.1-2.2c0.3-0.2,0.6-0.6,0.9-1.1c0,0.1,0,0.2,0,0.3
            c1.3,0.8,2.4,1.6,3.2,2.2c0.8,0.7,1.6,1.2,2.2,1.7l2.7-0.7c1.3,0.3,2.3,0.7,2.9,1c3.6-1.3,5.3-2,5.1-2l0.2-1.7
            c0.2-0.2,0.8-0.6,1.8-1.3c1.1-0.7,1.9-1.8,2.6-3.1c0.6-1.1,1.6-2.2,2.9-3.2c-0.2,0.2,1.7-1.5,5.6-4.9l11.8-11
            c2.8-2.4,5.7-4.7,8.8-6.6l6.6-4.9c0.3,1.1,0.4,1.8,0.2,2c-0.3,0.8-0.8,1.8-1.5,2.8c-0.7,1.1-1.1,2-1.2,2.8c-2,2.5-3.5,5.3-4.5,8.5
            s-1.7,5-1.8,5.5c-1,3.3-1.5,6-1.5,8.3c-0.3,3.8,0.1,7,1.2,9.8c0.6,0.7,1.8,1.8,3.4,3.3c1.6,1.6,3.5,2.6,5.6,3.1h10.5
            c2,0,4-0.3,6.1-0.9c2.1-0.6,4.4-1.4,6.7-2.4c2.4-1.1,4.1-1.8,5.3-2.3c0.8-1.3,2-2.3,3.6-2.9c1.6-0.7,2.7-1.2,3.6-1.7
            c0.3-0.2,0.8-0.4,1.3-0.6c0.6-0.2,1-0.5,1.4-0.9c0.5-0.3,4.1-3.2,10.9-8.6c6.8-5.4,12-12.4,15.6-21.1c0.3-1,0.5-1.6,0.5-2
            C612,123.4,611.6,122.4,610.8,121.6z M559.3,118.9v0.5h-0.2L559.3,118.9z M553.9,135l0.2,0.2h-0.5L553.9,135z M559.1,14.2
            c0,0,0.1,0,0.2,0l0.2,0.5l-0.5-0.2C559.1,14.3,559.1,14.2,559.1,14.2z M319.1,137.7h0.2l-0.2,0.2V137.7z M288,120.3
            c-0.2-0.2-0.2-0.3-0.2-0.5c-1.1-1-1.7-1.9-1.7-2.7c0-0.7,0.1-1.1,0.2-1.5c1.1,1.1,1.7,2.2,1.7,3.2l-0.2,1l0.7,0.5
            C288.3,120.5,288.1,120.5,288,120.3z M251.7,100.5l0.2,1l-0.5,0.2C251,101.2,251.1,100.8,251.7,100.5z M151.7,93.4l0.2,0.2h-0.5
            L151.7,93.4z M30.9,164.5h-0.2v-1.2h0.2V164.5z M44.9,156.9h-0.2v-1h0.2V156.9z M46.8,152l-0.2-0.5h0.5L46.8,152z M92.9,176.2
            l-0.2-0.2h0.2V176.2z M94.1,61.3l0.2,2C93.7,62.6,93.6,61.9,94.1,61.3z M112.5,55.1l-2.2,13.2c-0.7,3.3-1.2,5.6-1.7,7.1
            c-0.8,2.8-1.2,5.1-1.2,7.1v1h-0.2c0.6,0.7,0.9,1.1,0.7,1.2c-0.2,0.3-0.6,0.8-1.2,1.5c0.3,0.7,0.5,1.2,0.5,1.7
            c-0.5,0.2-1.1,0.2-2,0.2h-1c-0.7,0.3-1.4,0.7-2.3,1.1c-0.9,0.4-1.9,0.9-3.1,1.4l-1.7-0.5c-2,1.1-3.1,1.8-3.4,2l-12.3,4.7
            c-0.8,0.3-1.9,0.8-3.2,1.5c-1.3,0.7-2.4,1.1-3.4,1.2L77,98c-0.2-0.2-0.2-0.4-0.2-0.7c0.8-2.1,1.6-3.9,2.5-5.4
            c1.3-2,3.1-5.1,5.4-9.3l4.2-7.1c0.3-0.7,0.5-1.2,0.6-1.7c0.1-0.5,0.1-0.9,0.1-1.2c1.1-1.5,2.2-3,3.2-4.5c1-1.5,1.6-3.1,2-4.5
            c0.5-0.3,0.9-1,1.1-2.1c0.2-1.1,0.8-1.8,1.6-2.1c0.2,0,0.2-0.3,0.2-1c0.3-1.1,0.9-2.4,1.8-3.7c0.9-1.3,1.5-2.2,1.8-2.7l3.9-5.6
            l2.7-3.9c0.7-1.5,1.6-2.9,2.7-4.2c0.2-0.3,0.5-0.8,1-1.5s1.1-1.1,2-1.2C113.8,42.4,113.5,48.9,112.5,55.1z M114,34.8
            c0.2,0,0.2,0.1,0.2,0.2l-0.5,0.2L114,34.8z M119.9,115.4l-0.5-0.2l0.5-0.2V115.4z M121.5,97.4c0-0.7,0.1-1.3,0.1-1.8
            c1-0.3,1.9-0.5,2.7-0.8c-0.9,0.8-1.8,1.5-2.5,2.3L121.5,97.4z M123.8,114v-0.2l0.2,0.2H123.8z M145.2,102.2
            c-0.4,1.8-0.7,3.1-0.9,3.9c-2.3,4.4-4.2,7.8-5.6,10c-0.8,0.8-1.8,0.9-2.9,0.2c-1.3-0.7-2.4-1-3.2-1h-0.7c0-1.3-0.7-2-2-2
            c-0.2,0.7-0.7,1-1.7,1c-1.1-1-1.7-2-1.7-2.9c0-0.8,0.2-1.6,0.7-2.2c0.8-2,1.8-3.7,2.9-5.1c3.3-4.4,7-7.6,11.3-9.6
            c0.5-0.2,1.4-0.2,2.7-0.2l1.5,2.7C145.7,98.7,145.6,100.4,145.2,102.2z M149.5,150.5h-0.2l0.2-0.2V150.5z M153.7,150.2l-1.2-1
            C153.6,148.9,154,149.3,153.7,150.2z M152.2,154.2c0.3,0,0.6,0.1,0.7,0.4c0.2,0.2,0.2,0.5,0.2,0.6
            C152.7,155,152.4,154.7,152.2,154.2z M153.4,155.4l0.5,0.2C153.6,156,153.4,155.9,153.4,155.4z M126.2,239.5l0.2,2.2
            C125.5,241.5,125.4,240.8,126.2,239.5z M128.7,243.9c-1.1,0-1.9-0.7-2.2-2c0.5,0,1.1,0.2,1.7,0.5l1,1L128.7,243.9z M131.4,241.4
            l-0.2-0.5l0.5,0.2L131.4,241.4z M159.1,156.6l1.2-0.2v0.5h-1.2V156.6z M157.4,153.9c-0.5,0-0.7-0.3-0.7-1
            C157.1,152.9,157.4,153.3,157.4,153.9z M144.1,187.5c0,0.3-0.1,0.5-0.2,0.5c-0.8,0.3-1.2,0.1-1.2-0.7L144.1,187.5z M160.5,197.5
            c-0.3,1.5-0.6,3.4-0.9,5.9c-0.2,2.4-0.6,4.5-1.1,6.1c0,0.2,0,0.4,0.1,0.6c0.1,0.2,0,0.5-0.1,0.9c-1.1,2.1-2.1,4.5-2.9,7.1
            c-1.3,3.3-2.1,5.3-2.4,6.1c-1.3,2.1-3.4,5.1-6.4,9.1c-2,2.5-4.3,4.4-7.1,5.9l-1.2-1c-0.3-2.6-0.5-4.5-0.5-5.6
            c0-1.5,0.2-3.7,0.5-6.6c0.3-2,1.3-4.7,2.9-8.3c0.2-0.3,0.5-1.2,0.9-2.7c0.4-1.5,1.1-2.7,2.1-3.7c-0.5-0.5-0.6-1-0.2-1.5
            c0.3-0.5,0.6-0.9,0.7-1.2h-0.2c0.5-0.5,1-1.2,1.5-2.2s1-1.8,1.5-2.5c1.6-2.3,2.5-4,2.7-5.1c0.5-1.8,1.6-3.3,3.2-4.7
            c1-1,1.6-1.7,1.7-2.2c0.3-1.1,1-2.3,2.1-3.3c1.1-1.1,1.8-1.8,2.1-2.3c1,2,1.5,4.4,1.5,7.4C160.8,195.4,160.7,196.7,160.5,197.5z
                M224.5,145.6c0.5-0.3,0.7-0.2,0.7,0.2C225.1,145.7,224.8,145.6,224.5,145.6z M226.7,147.8l-1-1.7h0.5
            C227.2,146.4,227.4,147,226.7,147.8z M234.1,116.7c2.1-3.8,4.9-7.8,8.3-12c0.7,0,1.1-0.1,1.5-0.2c0.8,1.1,0.3,3.8-1.5,8.1
            c-0.7,1.6-1.3,3.2-2.1,4.5c-0.7,1.4-1.4,2.7-1.8,3.8c-2.1,2.3-5.1,5-8.8,8.1C230.5,124.5,231.9,120.4,234.1,116.7z M229.9,145.6
            c0.2-0.2,0.3-0.2,0.5,0c0.2,0.2,0.2,0.2,0.2,0.2L229.9,145.6z M298.5,111.8c-0.7,0-1.1-0.4-1.5-1.2V110c-0.2-1.1-0.2-2.9-0.2-5.4
            c0.2-1,0.6-2.5,1.5-4.7c0.8-1.3,1.7-2.5,2.6-3.7c0.9-1.1,1.8-2.4,2.6-3.7c0.5,0.3,1.1,0.3,1.8-0.1c0.7-0.4,1.3-0.7,1.8-0.9l0.5,2
            C306.3,101.5,303.3,107.5,298.5,111.8z M369.1,152.9c-0.3,0-0.5-0.2-0.5-0.5l0.2-0.5l0.2,0.5V152.9z M376.5,122.1c0,0-0.1,0-0.2,0
            l-0.2-0.5l0.5,0.2C376.5,122,376.5,122.1,376.5,122.1z M390.7,122.8l-0.5-0.2C390.5,122.2,390.7,122.3,390.7,122.8z M393.4,136.8
            c0,0-0.2,0.2-0.7,0.7l-0.7,2.2c-1.6,0.8-2.7,1.5-3.2,2l-2.7,2.9c-0.7,0.3-2.8,1.3-6.4,2.9l-1.2-1.2c-0.3-2-0.5-3.3-0.5-4.2v-1
            c0.2-0.5,0.2-1.1,0.1-2c-0.1-0.8,0-1.5,0.1-2c0.3-0.8,0.5-1.8,0.6-2.8c0.1-1.1,0.1-1.9,0.1-2.6c0.2-0.7,0.4-1.5,0.9-2.6
            c0.4-1.1,0.7-1.9,0.9-2.6c0.5-0.2,1.1-0.2,1.7-0.2l-1.2-3.2c1,1.6,2,3.1,2.9,4.4l0.7,0.7v0.2v0.2c0,0.2,0.2,0.2,0.5,0.2
            c1.8,2.3,4.7,4.2,8.6,5.9l0.5,1.2C393.7,136.6,393.4,136.8,393.4,136.8z M402.2,123H402l0.2-0.2V123z M402.7,108.8
            c-0.2,0.7-0.2,1.6-0.2,2.8c0,1.2-0.1,2.3-0.2,3.3c-0.5,1.3-1,2.7-1.5,4c-0.5,1.4-1.1,2.8-1.7,4.3c-0.8,0.7-1.7,0.7-2.7,0
            c-1.3-1-2.3-1.6-2.9-2c-0.3-0.5-0.7-1.1-1.1-1.8c-0.4-0.7-0.8-1.5-1.1-2.3l1.2-8.3c0-0.2,0.2-0.8,0.5-2c0.3-1.1,0.9-2,1.7-2.7
            c0.5-0.2,0.9-1,1.2-2.4c0.8-0.5,2-1.4,3.7-2.7c0.8,0.3,1.3,0.6,1.5,0.7c1.5,2.3,2.2,4.4,2.2,6.4C403.2,106.6,403,107.5,402.7,108.8
            z M407.6,98l0.5-0.2l0.7,0.5C408.5,98.6,408.1,98.5,407.6,98z M500.2,99v-0.2h0.2L500.2,99z M515.7,81.9v0.2l-0.2-0.2H515.7z
                M520.3,98.5l0.5,0.2C520.5,99.1,520.3,99,520.3,98.5z M558.1,20.6v0.5l-0.2-0.2L558.1,20.6z M555,14.6c0.1-0.1,0.1-0.1,0.1-0.1
            s0.1,0.1,0.2,0.2l0.7,0.7c-0.2,0-0.2,0.2-0.2,0.5l-1-0.7c-0.2,0-0.2-0.2-0.2-0.5C554.8,14.7,554.9,14.7,555,14.6z M526,56.3
            c0.2-0.1,0.2-0.2,0.2-0.4c0.5-2.1,1.4-4.5,2.7-7.2c1.3-2.7,2.3-4.7,2.9-6c0.8-2.1,2.4-5.3,4.7-9.6l1.5-2.7c1-1.8,2.4-4.1,4.2-6.9
            c1.8-2.8,3-4.4,3.7-4.9l5.1-3.7c1.6,0.7,2.7,1.8,3.2,3.4l2.2,5.4c-0.2,0.5-0.2,1.2-0.2,2.2v1c0.2,1.8,0,3.8-0.5,6
            c-0.5,2.2-1.1,4.3-1.7,6.2c-0.7,2.1-1.5,4.5-2.6,7.1c-1.1,2.6-1.8,4.4-2.3,5.4c-0.5,1.5-1.2,2.9-2.2,4.2c-1.3,2.8-2,4.3-2.2,4.7
            c-0.3,0.8-1.1,2.2-2.2,4.2c-0.2,0.3-0.4,1-0.7,2c-0.3,1-0.9,1.6-1.7,2c-0.2,1.3-0.8,2.6-1.8,3.8c-1.1,1.2-1.8,2.2-2.3,2.8
            c-0.3,0.8-1.1,2-2.2,3.6s-2,2.7-2.4,3.6c-0.5,1-1.9,3.2-4.2,6.6l-6.9,9.3c-1.5,0.7-2.8,2.2-3.9,4.7c-0.8,2-2.6,3.6-5.4,4.9
            c0.3-2.6,1.3-6.6,2.9-12l2.9-11.8l-0.7-1.7l1.5-0.7c0.2-0.8,0.4-1.7,0.6-2.7c0.2-1,0.4-1.9,0.4-2.7V75l1.5-3.4
            c0.2-1.3,0.6-2.8,1.4-4.5c0.7-1.7,1.3-3.1,1.6-4l0.1-0.3c1.5-0.3,3.2-0.6,5-0.9l1.2-0.7l-1.2-2.4c-0.7-0.6-1.6-0.9-2.4-1.3l0.2-0.4
            C525.7,56.5,525.8,56.3,526,56.3z M480.4,55.6c1.8-2,3.3-4.6,4.7-7.8c0.3-0.6,1-1.9,2-3.8c1-1.9,2.2-3.6,3.7-5c0.5-0.5,1.1-1.1,2-2
            c0.8-0.8,1.4-1.5,1.7-2.2c0.2-0.3,0.4-0.5,0.7-0.6c0.3-0.1,0.7,0,1,0.4l-0.2,2.9l-0.5,2.5c-0.5,1.5-1,2.9-1.5,4.3
            c-0.5,1.4-1,2.8-1.5,4.3l-2,4.2c-0.7,1.3-1.3,2.5-2,3.4c-0.7,1-1.2,1.8-1.7,2.5l-6.4,1c-0.3-0.3-0.4-0.8-0.1-1.5
            c0.2-0.7,0.4-1.2,0.4-1.7C480.6,56,480.5,55.8,480.4,55.6z M481.6,68.9l-0.2,0.2v-0.2H481.6z M469.6,82.1c0-0.5,0.1-1,0.2-1.5
            c1.1-3.1,2.3-5.6,3.4-7.6c0.3-0.8,0.8-1.7,1.5-2.7c1-0.5,2-0.7,3.2-0.7c0.8,0,1.5,0.2,2,0.5c-1,1.8-3.2,4.8-6.6,9.1l-3.7,4.2
            C469.6,83,469.6,82.6,469.6,82.1z M442.9,164.5v0.2h-0.2L442.9,164.5z M442.6,167.4c0.5-0.3,0.7-0.2,0.7,0.2L442.6,167.4z
                M449.5,169.6c0-0.2,0.1-0.2,0.2-0.2c0,0.2,0.1,0.2,0.2,0.2H449.5z M450.5,170.5c-0.2-0.1-0.2-0.3-0.2-0.6l0.7,0.5
            C450.8,170.5,450.6,170.5,450.5,170.5z M450.5,162.7l0.2-0.2l0.2,0.2H450.5z M454.3,170.2c-0.4-0.2-0.7-0.5-0.9-0.6
            c0-0.8-0.1-1.4-0.2-1.7c0.6,1,1.5,1.7,2.4,2.2C455.1,170.4,454.7,170.5,454.3,170.2z M487.5,140.7c-1.1,1.6-2.1,3.2-2.9,4.8
            c-0.8,1.6-1.6,2.9-2.5,4l0.5,0.5c0,0.2-0.2,0.4-0.5,0.7v-0.2c-2.6,2.6-4.4,4.7-5.4,6.1c-1,1.8-2.3,3.3-3.9,4.7
            c-2,1.5-4,3.4-6.1,5.9c-0.7,0.5-2.8,1.6-6.4,3.4c-2.8-0.8-4.7-2.7-5.9-5.6c-1.6-4.9-2.4-8.7-2.2-11.3c0-1.1,0.2-2.9,0.5-5.1
            l0.2-4.9c0-1.6,0.4-5.1,1.2-10.3c0.7-2.8,1-6,1-9.6l0.5-1l0.5-0.2c0.3-3.9,1.2-6.9,2.7-9.1c1.6-2.3,2.9-3.8,3.9-4.7
            c2.6-2.6,5-5.2,7.1-7.8c0.2-0.2,1.8-2,4.9-5.6c1.6-1.6,2.5-3.1,2.5-4.4h-1l0.5-0.7l0.5,0.7c0.5-0.2,1-0.5,1.5-1.1
            c0.5-0.6,0.8-1,1-1.4c0-0.5-0.1-0.9-0.2-1.2l1.2-0.5c0.6-0.3,1.3-1,2-2c0.7-1,1.2-1.6,1.7-2c0-0.3,0.1-0.6,0.2-0.7l2-3.2l0.5-0.7
            l0.2-0.5c1-0.5,1.8-1.3,2.3-2.3c0.6-1.1,0.9-1.8,1.1-2.1c2.9-4.1,4.9-6.5,5.9-7.4c1.3-0.3,3.5-0.6,6.6-1c1.9-0.3,3.6-0.4,5.1-0.6
            c-1,3.1-1.9,5.3-2.7,6.5l-0.2,1c-0.3,1.6-1.2,5-2.7,10c-0.3,1-0.8,2.4-1.5,4.3c-0.7,1.9-1.1,3.6-1.2,5l-1.7,7.1
            c-0.3,1.8-0.5,3.4-0.6,4.8c-0.1,1.4-0.1,2.5-0.1,3.3c0,0.5-0.1,0.8-0.2,1l-1.5,3.7l-0.5,4.4l-2.8,17.8
            C491.1,135.7,489.5,138.2,487.5,140.7z M505.9,140.9c-0.5-0.5-0.4-0.7,0.2-0.7L505.9,140.9z"/>
        <path fill="#ffffff" d="M565.4,14.2l-0.2,0.7c0.3-0.3,0.5-0.5,0.5-0.5S565.6,14.4,565.4,14.2z"/>
        <polygon points="548,79.2 548,78.9 547.8,78.9 	"/>
        <path fill="#ffffff" d="M549.7,78.7v-0.5c-0.8,0-1.4-0.1-1.7-0.2v1C548.7,78.9,549.3,78.8,549.7,78.7z"/>
    </g>
    <g>
        <path fill="#ffffff" d="M385.9,58.6c6.3-3.5,7.4-9.3,7.3-15.8c-0.1-7.9,0-15.8,0-24.2c-3.2,0.3-6,0.5-8.9,0.7c0-0.3-0.1-0.6-0.1-0.9
            c3-0.5,6-1,9.3-1.6c0.3-4.4-1.3-7.1-5.3-7.8c5.6-2.8,11.3-5.7,17.1-8.6c-0.9,2.9-2.2,6.2-3,9.5c-0.3,1.4,0.2,3,0.3,4.5
            c1.5-0.3,3.3-0.2,4.5-0.9c2-1.1,3.7-2.8,5.6-4.3c1.1,3.1,2.1,6,3,8.6c-3.7-0.5-7.3-1.3-11-1.4c-1,0-2.9,2.1-2.9,3.2
            c-0.1,9.4,0.3,18.9,0.1,28.3c-0.1,5,2.9,7.8,6.1,10.6C400.7,58.6,393.3,58.6,385.9,58.6z"/>
        <path fill="#ffffff" d="M290.5,58.6c2.1-4.6,4.2-9.3,6.5-14.2c0.5,0.6,1,0.9,0.9,1.1c-0.5,4.3,0.4,8,4.7,9.9c4.8,2.1,9.7,2.6,14-1.3
            c3.4-3,3.4-6.4-0.7-8.5c-3.5-1.8-7.4-2.8-11.2-4c-3.6-1.2-7.1-2.6-7.1-7.2c0.1-4.5,3.5-6.6,7.1-7.4c4.4-0.9,8.9-0.7,13.7-1
            c0.1,2.7,0.2,4.8,0.4,8c-1.6-1.2-2.4-2.1-3.4-2.6c-2.4-1.1-4.8-2.5-7.3-2.8c-1.8-0.2-3.9,1-5.8,1.6c1.6,1.2,3.1,2.7,4.8,3.4
            c2.4,1,5.2,1.2,7.6,2.1c5.5,2,8.3,5.9,8.3,11.2c0,4.7-2.6,8.1-8.2,10.2c-1.1,0.4-2.1,0.9-3.2,1.4C304.6,58.6,297.6,58.6,290.5,58.6
            z"/>
        <path fill="#ffffff" d="M208.3,58.6c-5.5-9.1-10.8-18.3-16.5-27.1c-1.4-2.2-4.5-3.3-7.7-5.4c7.2,0.4,13.6,0.7,20.1,1.1c-2.9,9.3,5.4,14.3,9,22.7
            c3.4-6.6,6.4-12,8.9-17.6c0.5-1.2-1-3.3-1.6-5.2c3.5,0,7.1,0,11.3,0c-11.8,7.6-15.8,20.2-21.7,31.5
            C209.5,58.6,208.9,58.6,208.3,58.6z"/>
        <g>
            <path fill="#ffffff" d="M264.9,58.6c-4-0.5-7.9-1.1-11.7-1.6c5.2-4.6,6-18.4,1.4-26.6c1.9-1,4-1.8,5.7-3.1c1.7-1.3,3.1-3.1,5.5-5.6
                c-0.2,2.8-0.4,4.4-0.5,6c-0.4,6.2-1.5,12.4-1.1,18.4c0.3,4.3,2.8,8.3,4.3,12.5C267.3,58.6,266.1,58.6,264.9,58.6z"/>
            <path fill="#ffffff" d="M266.4,16.4c-2.8,2-4.7,4.4-6.5,4.4c-1.6,0-3.1-2.8-4.6-4.3c1.9-1.6,3.5-3.8,5.7-4.5C261.9,11.7,263.9,14.3,266.4,16.4z"
                />
        </g>
        <g>
            <path fill="#ffffff" d="M357.7,58.6c-4-0.5-7.9-1.1-11.7-1.6c5.2-4.6,6-18.4,1.6-26.2c3.5-2.6,7-5.1,10.8-7.9c-0.1,1.5-0.3,3.2-0.4,4.8
                c-0.4,6.2-1.5,12.4-1.1,18.4c0.3,4.3,2.8,8.3,4.3,12.5C360,58.6,358.8,58.6,357.7,58.6z"/>
            <path fill="#ffffff" d="M353.2,10.1c2,2.6,4.4,4.5,4.1,5.7c-0.5,2-2.5,4.4-4.3,5c-1.2,0.3-4.7-2.7-4.6-3.8C348.7,14.8,351,13,353.2,10.1z"/>
        </g>
    </g>
</svg>