<?xml version="1.0" encoding="utf-8"?>
<!-- Generator: Adobe Illustrator 21.1.0, SVG Export Plug-In . SVG Version: 6.00 Build 0)  -->
<svg version="1.1" id="Layer_1" xmlns="http://www.w3.org/2000/svg" xmlns:xlink="http://www.w3.org/1999/xlink" x="0px" y="0px"
	 viewBox="0 0 612 792" style="enable-background:new 0 0 612 792;" xml:space="preserve">
<style type="text/css">
	.st0{opacity:0.5;}
	.st1{fill:#870000;}
	.st2{fill:#FFFFFF;}
</style>
<g class="st0">
	<path class="st1" d="M520.7,303.2c-3.2,2.4-6.3,4.9-9.7,7c-4.4,2.8-9.4,3.8-14.7,3.4c-1-0.1-1.6-0.2-1.6-1.5
		c0.3-9.1,3.1-17.2,9.6-23.9c4.4-4.5,9.6-8,14.9-11.3c1.1-0.7,2.2-1.4,3.4-2.2c-0.4-0.9-0.8-1.8-1.3-2.5c-1.8-2.7-3.5-5.5-5.6-8.1
		c-4.3-5.5-8.8-11-13.3-16.3c-3.7-4.3-5.1-9.3-4.6-14.9c0.2-2.8,0.3-5.7,0.3-8.5c0-2.9-0.4-5.8-1.9-8.3c-1.2-1.9-1.5-2.1-3.5-1.1
		c-2.3,1.2-4.3,2.8-6.6,4c-2.4,1.3-5,2.3-7.6,3.4c-1,0.4-1.8,0.1-2.6-0.6c-2.8-2.5-5.6-5.1-8.5-7.5c-8.2-6.9-16.8-13.3-26.1-18.9
		c-8,6.5-16.5,12.5-23.7,20c-1.9,2-4,3.9-6.1,5.6c-2.9,2.3-6.2,2.4-9.4,0.8c-1.5-0.7-2.8-1.8-4.1-2.8c-1.5-1.2-2.9-2.7-4.4-3.9
		c-1.1-0.9-2.4-1.7-4.1-2.8c-0.6,2.6-1.4,4.7-1.4,6.9c-0.1,4.2,0.1,8.4,0.5,12.5c0.6,6.2-0.6,11.6-5,16.2c-1.7,1.7-3.4,3.5-4.8,5.4
		c-4,5.3-8,10.5-11.8,16c-1.5,2.3-2.3,5.1-3.5,7.7c1.2,0.5,2.1,0.9,3,1.3c4.3,2.2,8.8,4.2,12.8,6.8c8.8,5.7,12.8,14.1,12.9,24.5
		c0,2.1,0,2.1-2,2.2c-7.1,0.3-13.2-2.1-18.6-6.4c-2.1-1.7-4.1-3.4-6.2-5c-1.1-0.9-2.3-1.6-4-1c4.3,16.8,10.4,32.5,25.4,43.1
		c0.8-1.3,1.5-2.6,2.4-3.7c1.2-1.6,2.3-3.3,3.8-4.7c3.2-3,7.3-3.2,10.8-0.5c1.6,1.2,3.2,2.7,4.4,4.3c6.4,8.4,10.2,17.8,11.3,28.3
		c0.2,1.9,0.1,3.8-0.2,5.7c-0.9,5.7-6.4,8.6-11.5,6c-1.8-0.9-3.4-2.3-5.2-3.4c-1-0.6-2.2-1-3.3-1.5c-0.1,0.2-0.2,0.3-0.4,0.5
		c5.4,20.2,13.3,39,29,54.2c2.1-5.6,4.1-10.9,6-16.2c3.4-9.6,4.4-19.5,2.4-29.5c-1.4-7.3-2.7-14.6-4.2-21.9
		c-1.3-6.2-2.7-12.3-4.3-18.4c-1.2-4.5-3.7-8.4-7.4-11.4c-1.2-1-2.2-2.1-3.1-3.3c-8.7-11.8-13.7-24.9-13.9-39.6
		c-0.2-13.8,4.1-25.8,14.5-35.3c6.9-6.2,14.9-10.3,23.6-13.3c0.5-0.2,1.2-0.1,1.7,0.1c6.5,2.3,12.6,5.4,18.2,9.4
		c10.5,7.6,17.5,17.5,19.5,30.4c1.8,12-0.1,23.4-5.3,34.4c-3.2,6.8-7.7,12.8-12,18.9c-2.7,3.8-4.7,7.9-5.3,12.4
		c-1.1,7.5-2,15.1-2.8,22.7c-1.8,18-2.6,36.1-2.9,54.1c-0.2,14.5,0.2,28.9,1.2,43.3c0.4,5,0.9,9.9,1.4,14.9c0.1,0,0.2,0,0.4,0
		c0.1-0.3,0.2-0.5,0.3-0.8c1.2-4.4,2.5-8.7,3.6-13.1c2.7-10.5,5.2-21,8.2-31.4c2.7-9.2,6.8-17.8,13.7-24.8c0.1-0.1,0.1-0.3,0.1-0.4
		c-0.3,0-0.4-0.1-0.6-0.1c-9.6-0.8-14.6-5.2-16.3-14.7c-1.3-7.5-0.5-15,1.3-22.4c2.6-11,6.3-21.5,12.6-31c1.6-2.4,3.5-4.6,5.6-6.5
		c3.3-2.9,7.3-2.7,10.5,0.4c0.9,0.9,1.8,1.9,2.5,3c1.4,2.2,2.6,4.5,3.9,6.7c0.9,1.5,1.9,2.9,3,4.6c11.1-16.2,20.3-32.9,25.2-51.9
		C526.1,299.1,523.4,301.2,520.7,303.2z"/>
	<path class="st1" d="M459.9,294.9c2.5-4.5,2.3-8.9-1.1-12.9c-0.2-0.2-0.3-0.4-0.4-0.6c-4.5-5.8-9.9-10.5-15.6-15.2
		c-1.2,1.3-2.4,2.5-3.5,3.8c-5.1,5.9-10.2,11.7-15.3,17.6c-0.7,0.8-0.6,1.4-0.1,2.3c1.9,2.7,3.7,5.5,5.6,8.3c4,5.9,7.7,12,10,18.8
		c1.1,3.2,1.9,6.6,2.9,10.1c1-1.2,2.1-2.3,2.8-3.6c1.4-2.5,2.7-5.1,3.7-7.8c2.1-5.2,4.5-10.3,7.6-14.9
		C457.8,298.8,458.8,296.8,459.9,294.9z"/>
</g>
<g>
	<g>
		<path class="st2" d="M76.2,365.6c-10.5,0-18.8-3.6-24.8-10.8c-5.4-6.5-8.1-14.5-8.1-23.9c0-2.9,0.3-5.8,0.9-8.6
			c0.6-2.9,1.5-5.6,2.7-8.3c1.2-2.6,2.7-5.1,4.5-7.3c1.8-2.3,4-4.3,6.4-5.9c5.2-3.6,11.3-5.4,18.3-5.4c10.4,0,18.7,3.8,24.8,11.3
			c5.4,6.7,8.1,14.8,8.1,24.2c0,9.5-2.7,17.6-8.2,24C95,362,86.7,365.6,76.2,365.6z M76.3,303.5c-9.2,0-14.9,4.6-17.6,14.2
			c-1.1,3.8-1.6,7.5-1.6,11.1c0,3.6,0.1,6.6,0.4,8.9c0.2,2.2,0.7,4.4,1.2,6.4c0.6,2,1.3,3.9,2.3,5.6c0.9,1.6,2.1,3.1,3.5,4.3
			c3,2.5,7,3.8,11.9,3.8c9.2,0,14.9-4.5,17.6-13.7c1.1-3.7,1.6-8.1,1.6-13.2c0-14.6-4.1-23.2-12.5-26.3
			C81.2,303.9,78.9,303.5,76.3,303.5z"/>
		<path class="st2" d="M116.6,364.8v-6.4l1.3-0.6l0.4-0.1c4.1-0.4,4.9-0.9,5-1c0.3-0.3,0.6-0.7,0.6-1.1c0.1-0.7,0.2-1.7,0.2-2.9
			v-29.4c0-3.7-0.5-4.5-0.5-4.6c-0.4-0.5-0.8-0.8-1.4-0.9c-0.8-0.2-1.8-0.4-3.1-0.6l-1.6-0.2v-7h10.6c3.4,0,5.9-0.1,7.3-0.2
			c1.5-0.1,2.7-0.2,3.5-0.3c2.6-0.2,4.7-0.3,6.3-0.3c1.7,0,3.4,0.1,5.2,0.4c1.9,0.3,3.6,0.8,5,1.5c3.5,1.7,5.3,4.4,5.3,7.9
			c0,2.8-1.1,5.3-3.3,7.6c-2,2.1-4.2,3.5-6.7,4.2l-0.9,0.2l-4.7-3.7l1.5-1.4c1.2-1.2,1.8-3.1,1.8-5.7c0-0.6-0.2-1.4-1.3-2.1
			c-0.6-0.4-1.9-0.8-4.6-0.8c-6.3,0-6.3,2.4-6.3,3.5V353c0,1,0.1,1.9,0.3,2.5c0.1,0.2,0.2,0.5,0.8,0.9c0.7,0.4,2.8,1.1,9.4,1.3
			l1.7,0.1v7.1H116.6z"/>
		<path class="st2" d="M187.6,389.7c-4,0-7.8-0.9-11.5-2.7l-1.4-0.7l2.8-7.8l1.7,0.7c2.2,0.9,4.7,1.3,7.5,1.3c2.7,0,5-0.5,6.7-1.6
			c1.8-1.1,3.3-2.5,4.4-4.2c1.9-3.1,2.9-7.3,3.1-12.5c-3.4,2.4-7.2,3.7-11.5,3.7c-7.7,0-13.8-2.9-18.1-8.7c-3.8-5-5.7-11.5-5.7-19.1
			c0-7.8,2.1-14.5,6.3-19.9c4.7-6,11.4-9.1,19.9-9.1c2.3,0,4.7,0.1,7.2,0.3c4.7,0.4,7.6,0.5,8.7,0.5h12.8v7.1l-1.7,0.1
			c-3.9,0.3-4.6,0.8-4.7,0.9c-0.4,0.4-0.6,0.9-0.7,1.3c-0.1,0.8-0.2,1.8-0.2,3v38.5c0,7.7-2.2,14.4-6.5,19.8
			C202,386.6,195.5,389.7,187.6,389.7z M191.6,317.2c-3.2,0-12.8,0-12.8,20.8c0,19.5,8.2,19.5,10.9,19.5c3.2,0,5.9-1,8-3.1
			c2.1-2,3.1-4.4,3.1-7.2v-23.1c0-3.2-0.6-4.2-0.9-4.5C198.5,318,195.7,317.2,191.6,317.2z"/>
		<path class="st2" d="M225.2,364.8v-6.4l1.3-0.6l0.4-0.1c4.1-0.4,4.9-0.9,5-1c0.3-0.3,0.6-0.7,0.6-1.1c0.1-0.7,0.2-1.7,0.2-2.9
			v-29.4c0-3.7-0.5-4.5-0.5-4.6c-0.4-0.5-0.8-0.8-1.4-0.9c-0.8-0.2-1.8-0.4-3.1-0.6l-1.6-0.2v-7h10.6c3.4,0,5.9-0.1,7.3-0.2
			c1.5-0.1,2.7-0.2,3.5-0.3c2.6-0.2,4.7-0.3,6.3-0.3c1.7,0,3.4,0.1,5.2,0.4c1.9,0.3,3.6,0.8,5,1.5c3.5,1.7,5.3,4.4,5.3,7.9
			c0,2.8-1.1,5.3-3.3,7.6c-2,2.1-4.2,3.5-6.7,4.2l-0.9,0.2l-4.7-3.7l1.5-1.4c1.2-1.2,1.8-3.1,1.8-5.7c0-0.6-0.2-1.4-1.3-2.1
			c-0.6-0.4-1.9-0.8-4.6-0.8c-6.3,0-6.3,2.4-6.3,3.5V353c0,1,0.1,1.9,0.3,2.5c0.1,0.2,0.2,0.5,0.8,0.9c0.7,0.4,2.8,1.1,9.4,1.3
			l1.7,0.1v7.1H225.2z"/>
		<path class="st2" d="M273.6,364.8v-6.9l3-0.4c1.2-0.2,2.1-0.3,2.8-0.5c0.4-0.1,0.7-0.2,0.9-0.4c0-0.1,0.7-0.9,0.7-4.8v-28.8
			c0-3.8-0.5-4.6-0.5-4.6c-0.4-0.4-0.9-0.6-1.5-0.7c-0.9-0.2-2.1-0.3-3.7-0.4l-1.6-0.1v-7.1h26.8v7.1l-1.6,0.2
			c-1.6,0.2-2.8,0.3-3.7,0.5c-0.6,0.1-1,0.3-1.3,0.5c0,0-0.7,0.8-0.7,4.8v28.8c0,3.4,0.3,4.4,0.4,4.6c0.3,0.3,0.6,0.5,0.9,0.6
			c0.7,0.2,1.6,0.4,2.8,0.6l3.2,0.5v6.9H273.6z M276.4,294.7l10.3-10.1l10.1,10.1L286.7,305L276.4,294.7z"/>
		<path class="st2" d="M368.2,364.8v-6.9l1.6-0.2c1.6-0.2,2.8-0.4,3.7-0.6c0.6-0.1,1-0.3,1.3-0.5c0,0,0.7-0.9,0.7-5.6l0-6.4
			c0.1-7.8-0.6-13.7-2-17.4c-1.3-3.6-4-7.3-7.9-11c-2.7,2.4-4.7,4.9-6,7.4c-1.5,2.8-2.4,6-2.8,9.3c-0.6,4.9-0.9,9.8-0.9,14.5
			c0,6.3,0.2,7.8,0.2,8.1c0.1,0.5,0.3,0.9,0.4,1c0,0,0.7,0.6,4,1.1l2.7,0.4v6.9h-26.9v-6.9l1.6-0.2c1.6-0.2,2.8-0.4,3.8-0.5
			c0.6-0.1,1-0.3,1.2-0.5c0,0,0.7-0.9,0.7-5.4v-5.1c0-8.9-0.4-15-1.3-18c-0.9-3-1.9-5.5-3.2-7.4c-1.1-1.6-2.5-3.1-4.2-4.7
			c-3.1,2.1-5.4,4.5-7.1,7c-2.3,3.6-3.5,8.1-3.5,13.2v14.4c0,4.6,0.4,5.6,0.5,5.7c0.3,0.4,0.6,0.6,1,0.7c0.8,0.2,1.8,0.4,3.2,0.6
			l2.7,0.3v6.9h-26.8v-6.9l2.7-0.4c3.1-0.4,3.7-0.9,3.8-0.9c0.2-0.3,0.4-0.7,0.5-1.2c0.1-0.8,0.2-2,0.2-3.5v-30.3
			c0-2.8-0.4-3.4-0.4-3.5c-0.4-0.3-0.9-0.5-1.5-0.7c-0.9-0.2-2.1-0.3-3.6-0.4l-1.7-0.1v-7.1h19.4v4.3c0.3-0.4,0.7-0.8,1-1.1
			c2.7-2.7,5.8-5.1,9.4-6.9l0.9-0.4l0.8,0.5c3.8,2.1,6.5,4.1,8.4,6c2.2,2.3,4,4.6,5.4,7.1c2.3-3.6,5.4-6.8,9.2-9.6
			c1.5-1.2,3.3-2.4,5.2-3.6l0.9-0.6l0.9,0.5c5.5,3.1,9.8,6.3,12.7,9.6c4.6,5.2,7.3,12.9,8.2,22.9c0.3,3.4,0.4,6.7,0.4,9.9
			c0,3,0.1,5.1,0.2,6.1c0.2,1.1,0.4,1.6,0.5,1.8c0.2,0.2,0.4,0.4,0.7,0.5c0.6,0.2,1.5,0.3,2.5,0.5l3.1,0.4v6.9H368.2z"/>
		<path class="st2" d="M462.2,364.8v-6.9l1.6-0.2c1.6-0.2,2.8-0.4,3.7-0.6c0.6-0.1,1-0.3,1.3-0.5c0,0,0.7-0.9,0.7-5.6l0-6.4
			c0.1-7.8-0.6-13.7-2-17.4c-1.3-3.6-3.9-7.3-7.9-11c-2.7,2.4-4.7,4.9-6,7.4c-1.5,2.9-2.4,6-2.8,9.3c-0.6,4.9-0.9,9.8-0.9,14.5
			c0,6.3,0.2,7.8,0.2,8.1c0.1,0.5,0.3,0.9,0.4,1c0,0,0.7,0.6,4,1.1l2.7,0.4v6.9h-26.9v-6.9l1.6-0.2c1.6-0.2,2.8-0.4,3.8-0.5
			c0.6-0.1,1-0.3,1.2-0.5c0,0,0.7-0.9,0.7-5.4v-5.1c0-8.9-0.4-15-1.3-18c-0.9-3-1.9-5.5-3.2-7.4c-1.1-1.6-2.5-3.1-4.2-4.7
			c-3.1,2.1-5.4,4.5-7.1,7c-2.3,3.6-3.5,8.1-3.5,13.2v14.4c0,4.6,0.4,5.6,0.5,5.7c0.3,0.4,0.6,0.6,1,0.7c0.8,0.2,1.8,0.4,3.2,0.6
			l2.7,0.3v6.9h-26.8v-6.9l2.7-0.4c3.1-0.4,3.7-0.9,3.8-0.9c0.2-0.3,0.4-0.7,0.5-1.2c0.1-0.8,0.2-2,0.2-3.5v-30.3
			c0-2.8-0.4-3.4-0.4-3.5c-0.4-0.3-0.9-0.5-1.5-0.7c-0.9-0.2-2.1-0.3-3.6-0.4l-1.7-0.1v-7.1h19.4v4.3c0.3-0.4,0.7-0.8,1-1.1
			c2.7-2.7,5.8-5.1,9.4-6.9l0.9-0.4l0.8,0.5c3.8,2.1,6.5,4.1,8.4,6c2.2,2.3,4,4.6,5.4,7.1c2.3-3.5,5.4-6.8,9.2-9.6
			c1.5-1.2,3.3-2.4,5.2-3.6l0.9-0.6l0.9,0.5c5.5,3.1,9.8,6.3,12.7,9.6c4.6,5.2,7.3,12.9,8.2,22.9c0.3,3.4,0.4,6.7,0.4,9.9
			c0,3,0.1,5.1,0.2,6.1c0.2,1.1,0.4,1.6,0.5,1.8c0.2,0.3,0.4,0.4,0.7,0.5c0.6,0.2,1.5,0.3,2.5,0.5l3.1,0.4v6.9H462.2z"/>
		<path class="st2" d="M513.4,365.9c-3.2,0-6-0.4-8.4-1.3c-2.5-0.9-4.6-2-6.2-3.5c-3.2-2.9-4.8-6.6-4.8-11c0-4.8,2.7-9.2,8.1-13.1
			c5.8-4.3,14.1-6.7,24.6-7.2v-5.7c0-3-1-7-10-7c-3.8,0-6.3,1.1-7.6,3.4c-0.3,0.6-0.5,1.3-0.5,2.1c0,0.5,0.2,1.5,1.3,3.1l1,1.6
			l-5.1,3.1l-0.7-0.1c-3.8-0.6-6.7-2.3-8.5-5c-0.7-1-1.1-2.4-1.1-4c0-1.6,0.6-3.3,1.8-4.9c1.1-1.5,2.7-2.8,4.7-4
			c4.2-2.3,9.4-3.5,15.7-3.5c10.4,0,17.1,3.2,19.7,9.5c0.8,2,1.2,4.2,1.2,6.5v26.6c0,3.8,0.4,4.7,0.5,4.8c0.3,0.3,0.8,0.6,1.3,0.7
			c0.8,0.2,1.9,0.3,3.4,0.5l1.6,0.2v7h-12.3c-2,0-4.4,0.1-7,0.3C520.8,365.6,516.4,365.9,513.4,365.9z M526.7,337.9
			c-6.4,0.5-19.4,2.3-19.4,12.2c0,3.7,1.8,5.9,5.5,7c1.3,0.4,2.9,0.6,4.8,0.6c2,0,3.7-0.1,5.1-0.3c1.2-0.2,2.1-0.5,2.6-0.9
			c0.5-0.4,0.8-0.9,0.9-1.6c0.2-0.9,0.3-2.2,0.3-3.8V337.9z"/>
		<path class="st2" d="M550.5,364.8v-6.4l1.3-0.6l0.4-0.1c4.1-0.4,4.9-0.9,5-1c0.3-0.3,0.6-0.7,0.6-1.1c0.1-0.7,0.2-1.7,0.2-2.9
			v-29.4c0-3.7-0.5-4.5-0.5-4.6c-0.4-0.4-0.8-0.8-1.4-0.9c-0.8-0.2-1.8-0.4-3.1-0.6l-1.6-0.2v-7H562c3.4,0,5.9-0.1,7.3-0.2
			c1.5-0.1,2.7-0.2,3.5-0.3c2.6-0.2,4.7-0.3,6.3-0.3c1.7,0,3.4,0.1,5.2,0.4c1.9,0.3,3.6,0.8,5,1.5c3.5,1.7,5.3,4.4,5.3,8
			c0,2.8-1.1,5.3-3.3,7.6c-2,2.1-4.2,3.5-6.7,4.2l-0.9,0.2l-4.7-3.7l1.5-1.4c1.2-1.2,1.8-3.1,1.8-5.7c0-0.6-0.2-1.4-1.3-2.1
			c-0.6-0.4-1.9-0.8-4.6-0.8c-6.3,0-6.3,2.4-6.3,3.5V353c0,1,0.1,1.9,0.3,2.5c0.1,0.2,0.2,0.5,0.8,0.9c0.7,0.4,2.8,1.1,9.4,1.3
			l1.7,0.1v7.1H550.5z"/>
	</g>
	<g>
		<path class="st1" d="M45.2,330.9c0-2.8,0.3-5.5,0.8-8.3c0.6-2.7,1.4-5.4,2.6-7.9c1.1-2.5,2.6-4.8,4.3-7c1.7-2.1,3.7-4,6-5.6
			c4.9-3.4,10.6-5.1,17.3-5.1c9.9,0,17.7,3.6,23.4,10.7c5.2,6.4,7.7,14.1,7.7,23.1c0,9.1-2.6,16.7-7.7,22.8
			c-5.7,6.7-13.5,10.1-23.4,10.1c-10,0-17.8-3.4-23.4-10.2C47.7,347.5,45.2,339.9,45.2,330.9z M55.3,328.8c0,3.7,0.1,6.7,0.4,9.1
			c0.3,2.3,0.7,4.5,1.3,6.7c0.6,2.1,1.4,4.1,2.4,5.9c1,1.8,2.3,3.4,3.9,4.8c3.3,2.9,7.7,4.3,13,4.3c10,0,16.4-5,19.4-15
			c1.1-3.8,1.7-8.4,1.7-13.7c0-15.3-4.5-24.6-13.6-28c-2.1-0.8-4.6-1.2-7.4-1.2c-10,0-16.4,5.2-19.3,15.5
			C55.9,321.2,55.3,325,55.3,328.8z"/>
		<path class="st1" d="M148,327.1c1.6-1.5,2.4-3.8,2.4-7c0-1.5-0.7-2.7-2.2-3.6c-1.2-0.7-3.1-1.1-5.6-1.1c-5.4,0-8.1,1.8-8.1,5.3
			V353c0,1.2,0.1,2.2,0.4,3c0.2,0.8,0.8,1.4,1.6,1.9c1.5,0.8,4.9,1.4,10.2,1.5v3.5h-28.4v-3.5l0.1,0c3.3-0.3,5.3-0.8,6-1.4
			c0.7-0.6,1.1-1.3,1.2-2.1c0.2-0.8,0.2-1.9,0.2-3.2v-29.4c0-3.1-0.3-5-0.9-5.7c-0.6-0.7-1.4-1.2-2.2-1.5c-0.9-0.3-2-0.5-3.5-0.7
			v-3.6h8.8c3.5,0,6-0.1,7.4-0.2c1.5-0.1,2.6-0.2,3.5-0.3c2.5-0.2,4.6-0.3,6.2-0.3c1.6,0,3.2,0.1,4.9,0.4c1.7,0.3,3.2,0.7,4.5,1.3
			c2.9,1.4,4.3,3.5,4.3,6.3c0,2.3-0.9,4.4-2.8,6.4c-1.8,1.9-3.7,3.1-5.9,3.7L148,327.1z"/>
		<path class="st1" d="M202.7,358.1c-3.7,3.9-8.1,5.9-13.3,5.9c-7.1,0-12.7-2.6-16.7-7.9c-3.6-4.7-5.4-10.7-5.4-18
			c0-7.4,2-13.7,5.9-18.8c4.4-5.6,10.5-8.4,18.5-8.4c2.3,0,4.6,0.1,7.1,0.3c4.7,0.4,7.6,0.6,8.8,0.6h11v3.6
			c-3.2,0.2-5.2,0.7-5.9,1.4c-0.7,0.7-1.1,1.5-1.2,2.3c-0.1,0.9-0.2,2-0.2,3.3v38.5c0,7.4-2,13.6-6.1,18.7
			c-4.4,5.6-10.3,8.4-17.7,8.4c-3.7,0-7.3-0.8-10.7-2.5l1.7-4.6c2.4,1,5.2,1.4,8.2,1.4c3,0,5.6-0.6,7.7-1.8s3.7-2.8,5-4.8
			c2.2-3.7,3.4-8.5,3.4-14.6V358.1z M177,338c0,14.2,4.2,21.3,12.7,21.3c3.7,0,6.8-1.2,9.3-3.6c2.5-2.3,3.7-5.2,3.7-8.5v-23.1
			c0-2.9-0.5-4.8-1.4-5.8c-1.8-1.9-5-2.9-9.7-2.9C181.9,315.4,177,322.9,177,338z"/>
		<path class="st1" d="M256.6,327.1c1.6-1.5,2.4-3.8,2.4-7c0-1.5-0.7-2.7-2.2-3.6c-1.2-0.7-3.1-1.1-5.6-1.1c-5.4,0-8.1,1.8-8.1,5.3
			V353c0,1.2,0.1,2.2,0.4,3c0.2,0.8,0.8,1.4,1.6,1.9c1.5,0.8,4.9,1.4,10.2,1.5v3.5H227v-3.5l0.1,0c3.3-0.3,5.3-0.8,6-1.4
			c0.7-0.6,1.1-1.3,1.2-2.1c0.2-0.8,0.2-1.9,0.2-3.2v-29.4c0-3.1-0.3-5-0.9-5.7c-0.6-0.7-1.4-1.2-2.2-1.5c-0.9-0.3-2-0.5-3.5-0.7
			v-3.6h8.8c3.5,0,6-0.1,7.4-0.2c1.5-0.1,2.6-0.2,3.5-0.3c2.5-0.2,4.6-0.3,6.2-0.3c1.6,0,3.2,0.1,4.9,0.4c1.7,0.3,3.2,0.7,4.5,1.3
			c2.9,1.4,4.3,3.5,4.3,6.3c0,2.3-0.9,4.4-2.8,6.4c-1.8,1.9-3.7,3.1-5.9,3.7L256.6,327.1z"/>
		<path class="st1" d="M275.4,359.4l1.5-0.2c1.2-0.2,2.2-0.3,3-0.5c0.8-0.2,1.4-0.5,1.8-1c0.7-0.9,1.1-2.9,1.1-6v-28.8
			c0-3.2-0.3-5.2-1-5.8c-0.7-0.7-1.5-1.1-2.5-1.3c-1-0.2-2.3-0.3-3.9-0.5v-3.7h23.2v3.7c-1.6,0.2-2.9,0.3-3.9,0.5
			c-1,0.2-1.7,0.5-2.2,1c-0.8,0.8-1.2,2.8-1.2,6.1v28.8c0,3.2,0.3,5.1,0.8,5.7s1.1,1,1.9,1.2c0.7,0.2,1.7,0.4,3,0.6l1.7,0.3v3.5
			h-23.2V359.4z M279,294.7l7.7-7.6l7.6,7.6l-7.6,7.7L279,294.7z"/>
		<path class="st1" d="M306.9,359.4l1.2-0.2c2.7-0.4,4.3-0.8,4.8-1.4c0.5-0.6,0.9-1.3,1-2.2c0.1-0.9,0.2-2.1,0.2-3.8v-30.3
			c0-2.6-0.3-4.2-1-4.7c-0.7-0.6-1.5-1-2.4-1.1c-0.9-0.2-2.2-0.3-3.8-0.4v-3.7h15.8v8.8c1.2-2.6,2.6-4.7,4.1-6.2
			c2.6-2.6,5.5-4.8,8.9-6.5c3.6,2,6.3,3.9,8,5.7c2.9,3.1,5.1,6.3,6.5,9.7c2.2-4.5,5.7-8.5,10.4-12c1.5-1.2,3.2-2.3,5.1-3.5
			c5.4,3,9.4,6,12.2,9.2c4.3,4.9,6.9,12.2,7.7,21.9c0.3,3.4,0.4,6.6,0.4,9.7s0.1,5.3,0.2,6.4c0.2,1.1,0.4,2,0.8,2.6s1,1,1.7,1.2
			c0.7,0.2,1.6,0.4,2.8,0.6l1.6,0.2v3.5H370v-3.5c1.6-0.2,2.9-0.4,3.9-0.6c1-0.2,1.7-0.5,2.2-1c0.8-0.8,1.3-3.1,1.3-6.8l0-6.4
			c0.1-8.1-0.6-14.1-2.1-18c-1.5-4.3-4.7-8.5-9.6-12.8c-3.5,2.9-6,5.9-7.6,9c-1.6,3.1-2.6,6.4-3,9.9c-0.6,5-0.9,9.9-0.9,14.7
			c0,4.8,0.1,7.6,0.3,8.5s0.5,1.5,0.9,2c0.7,0.7,2.3,1.2,5,1.6l1.1,0.2v3.5h-23.3v-3.5c1.6-0.2,2.9-0.4,3.9-0.6s1.7-0.5,2.2-1
			c0.8-0.8,1.2-3,1.2-6.6v-5.1c0-9.1-0.5-15.3-1.4-18.5c-0.9-3.2-2.1-5.9-3.4-7.9s-3.2-4-5.5-5.9c-3.9,2.5-6.8,5.2-8.7,8.3
			c-2.5,4-3.8,8.7-3.8,14.1v14.4c0,3.7,0.3,6,0.8,6.7s1.2,1.2,2.1,1.4c0.8,0.2,1.9,0.4,3.4,0.6l1.1,0.1v3.5h-23.2V359.4z"/>
		<path class="st1" d="M400.9,359.4l1.2-0.2c2.7-0.4,4.3-0.8,4.8-1.4c0.5-0.6,0.9-1.3,1-2.2s0.2-2.1,0.2-3.8v-30.3
			c0-2.6-0.3-4.2-1-4.7c-0.7-0.6-1.5-1-2.4-1.1c-0.9-0.2-2.2-0.3-3.8-0.4v-3.7h15.8v8.8c1.2-2.6,2.6-4.7,4.1-6.2
			c2.6-2.6,5.5-4.8,8.9-6.5c3.6,2,6.3,3.9,8,5.7c2.9,3.1,5.1,6.3,6.5,9.7c2.2-4.5,5.7-8.5,10.4-12c1.5-1.2,3.2-2.3,5.1-3.5
			c5.3,3,9.4,6,12.2,9.2c4.3,4.9,6.9,12.2,7.7,21.9c0.3,3.4,0.4,6.6,0.4,9.7s0.1,5.3,0.2,6.4c0.2,1.1,0.4,2,0.8,2.6
			c0.4,0.6,1,1,1.7,1.2s1.6,0.4,2.8,0.6l1.6,0.2v3.5H464v-3.5c1.6-0.2,2.9-0.4,3.9-0.6c1-0.2,1.7-0.5,2.2-1c0.8-0.8,1.3-3.1,1.3-6.8
			l0-6.4c0.1-8.1-0.6-14.1-2.1-18c-1.5-4.3-4.7-8.5-9.6-12.8c-3.5,2.9-6,5.9-7.6,9c-1.6,3.1-2.6,6.4-3,9.9c-0.6,5-0.9,9.9-0.9,14.7
			c0,4.8,0.1,7.6,0.3,8.5s0.5,1.5,0.9,2c0.7,0.7,2.3,1.2,5,1.6l1.1,0.2v3.5h-23.3v-3.5c1.6-0.2,2.9-0.4,3.9-0.6c1-0.2,1.7-0.5,2.2-1
			c0.8-0.8,1.2-3,1.2-6.6v-5.1c0-9.1-0.5-15.3-1.4-18.5c-0.9-3.2-2.1-5.9-3.4-7.9c-1.4-2-3.2-4-5.5-5.9c-3.9,2.5-6.8,5.2-8.7,8.3
			c-2.5,4-3.8,8.7-3.8,14.1v14.4c0,3.7,0.3,6,0.8,6.7c0.6,0.7,1.2,1.2,2.1,1.4c0.8,0.2,1.9,0.4,3.4,0.6l1.1,0.1v3.5h-23.2V359.4z"/>
		<path class="st1" d="M507.6,319.6c-0.5,0.9-0.7,1.9-0.7,3s0.5,2.5,1.6,4.1l-2.9,1.7c-3.3-0.6-5.8-2-7.3-4.2
			c-0.5-0.8-0.8-1.8-0.8-3c0-1.2,0.5-2.5,1.5-3.8c1-1.3,2.4-2.5,4.2-3.5c3.9-2.2,8.8-3.2,14.8-3.2c9.7,0,15.7,2.8,18,8.4
			c0.7,1.8,1.1,3.7,1.1,5.8v26.6c0,3.3,0.3,5.3,0.9,5.9c0.6,0.7,1.4,1.1,2.3,1.3s2.1,0.4,3.6,0.5v3.6h-10.5c-2.1,0-4.5,0.1-7.2,0.3
			c-5.5,0.5-9.8,0.8-12.7,0.8s-5.6-0.4-7.9-1.2s-4.1-1.8-5.6-3.1c-2.8-2.5-4.2-5.7-4.2-9.6c0-4.2,2.4-8.1,7.3-11.7
			c5.9-4.4,14.3-6.7,25.3-6.9v-7.4c0-5.9-3.9-8.8-11.8-8.8C512.3,315.3,509.2,316.7,507.6,319.6z M528.5,336
			c-15.3,0.9-23,5.6-23,14.1c0,4.5,2.3,7.4,6.8,8.7c1.4,0.4,3.2,0.6,5.3,0.6s3.9-0.1,5.4-0.4c1.5-0.2,2.6-0.7,3.4-1.3
			c0.8-0.6,1.3-1.5,1.6-2.6s0.4-2.5,0.4-4.2V336z M528.5,336L528.5,336L528.5,336L528.5,336z"/>
		<path class="st1" d="M581.9,327.1c1.6-1.5,2.4-3.8,2.4-7c0-1.5-0.7-2.7-2.2-3.6c-1.2-0.7-3.1-1.1-5.6-1.1c-5.4,0-8.1,1.8-8.1,5.3
			V353c0,1.2,0.1,2.2,0.4,3c0.2,0.8,0.8,1.4,1.6,1.9c1.5,0.8,4.9,1.4,10.2,1.5v3.5h-28.4v-3.5l0.1,0c3.3-0.3,5.3-0.8,6-1.4
			c0.7-0.6,1.1-1.3,1.2-2.1c0.2-0.8,0.2-1.9,0.2-3.2v-29.4c0-3.1-0.3-5-0.9-5.7c-0.6-0.7-1.4-1.2-2.2-1.5c-0.9-0.3-2-0.5-3.5-0.7
			v-3.6h8.8c3.5,0,6-0.1,7.4-0.2c1.5-0.1,2.6-0.2,3.5-0.3c2.5-0.2,4.6-0.3,6.2-0.3c1.6,0,3.2,0.1,4.9,0.4c1.7,0.3,3.2,0.7,4.5,1.3
			c2.9,1.4,4.3,3.5,4.3,6.3c0,2.3-0.9,4.4-2.8,6.4c-1.8,1.9-3.7,3.1-5.9,3.7L581.9,327.1z"/>
	</g>
</g>
<g>
	<g>
		<path d="M118.8,299.8c-0.7,0-1.3-0.2-1.8-0.5c-0.5-0.4-0.8-1-0.9-1.6c-0.1-0.4,0-0.8,0-1.3c0-0.2,0-0.6,0-0.9v-2.8
			c0-0.6,0.1-1.3,0.4-1.9c0.1-0.2,0.1-0.4,0.1-0.5v-0.9h1.3l-1.2-0.3c0-0.1,0-0.1,0-0.3c0.1-0.4,0.1-1.1,0.2-2
			c0.1-0.8,0.2-1.9,0.2-3.1c0.1-1.2,0.1-2.5,0.1-3.8c0-0.5,0.1-0.9,0.4-1.5c0-0.1,0-0.1,0.1-0.1v-1.6l0-0.2c0.2-0.8,0.3-1.6,0.4-2.3
			l0.3-2.4c0.1-0.8,0.2-1.7,0.4-2.5c0.2-0.9,0.4-1.8,0.8-2.7c0.3-0.9,0.8-1.9,1.4-2.7c0.5-0.6,0.9-1.3,1.2-2.1
			c0.3-0.5,0.6-1,0.9-1.4c0.3-0.4,0.7-0.7,1.1-1c0.5-0.8,1.2-1.4,2.1-1.8c1-0.5,2-0.8,2.9-0.8h3.3c2.1,0,3,1.2,3.3,1.9
			c0.3,0.7,0.5,1.6,0.5,2.5v0.8c0,0.7-0.2,1.5-0.6,2.2c-0.3,0.6-0.7,1.2-1.2,1.7c-0.5,0.5-1,0.9-1.5,1.3c-0.7,0.5-1.4,0.7-2.1,0.7
			c-0.6,0-1.2-0.1-1.7-0.3c0,0,0,0-0.1,0c-0.3,0-0.6,0.1-0.9,0.3c-0.1,0.1-0.3,0.2-0.4,0.6l-0.1,0.3l-0.1,0.2
			c-0.1,0.2-0.1,0.3-0.1,0.3c0,0.5-0.1,1.1-0.2,1.6l-0.1,0.1c-0.2,0.5-0.5,1.3-0.7,2.2c-0.2,0.8-0.3,1.6-0.3,2.2
			c0,0.2,0,0.5-0.1,0.8c0,0.2-0.1,0.5-0.2,0.7c0,0.2-0.1,0.4-0.1,0.6v1.3l-0.6,3.4c0,0.5,0,1-0.1,1.6c-0.1,0.6-0.2,1.2-0.3,2
			c-0.1,0.7-0.3,1.4-0.4,2.2c0,0.2-0.1,0.4-0.1,0.6c0.3-0.3,0.6-0.5,0.8-0.8c0.6-0.6,1.2-1.1,1.8-1.6c0.9-0.7,1.8-1.1,2.8-1.1h0.9
			l1.2,1.5v0.6c0,0.6-0.1,1.2-0.4,1.8c-0.2,0.5-0.5,1-0.8,1.5c-0.3,0.5-0.7,1-1,1.5c-0.4,0.5-0.8,0.9-1.3,1.2
			c-0.4,0.3-0.7,0.6-0.9,1c-0.4,0.6-0.9,1.3-1.5,1.9c-0.3,0.6-0.8,1.1-1.4,1.5c-0.5,0.3-0.9,0.6-1.3,0.8l-0.1,0.1l-0.1,0
			c-0.4,0.2-0.9,0.4-1.5,0.7C120.3,299.6,119.5,299.8,118.8,299.8z"/>
		<path d="M133.2,299.3c-0.7,0-1.4-0.2-2.1-0.5c-0.6-0.3-1.1-0.7-1.5-1.2c-0.4-0.5-0.7-1-1-1.6c-0.3-0.6-0.4-1.3-0.4-2v-2.6
			c-0.3-0.5-0.4-1.2-0.4-2c0-1,0.2-2.3,0.7-3.7c0.5-1.3,1-2.5,1.6-3.7c0.6-1.2,1.3-2.3,1.9-3.2c0.8-1.2,1.3-1.8,1.9-2.2
			c0.2-0.1,0.3-0.2,0.4-0.3c0.2-0.3,0.5-0.5,0.7-0.8c0.3-0.3,0.6-0.6,1-0.8c0.5-0.3,1.1-0.5,1.8-0.5c0.4,0,1,0,1.6,0
			c0.7,0,1.3,0.1,1.8,0.3c1,0.1,1.8,0.7,2.1,1.7c0.1,0.2,0.2,0.5,0.3,0.8c0.1,0.1,0.2,0.2,0.3,0.4c0.2,0.3,0.4,0.5,0.6,0.8
			c0.2,0.3,0.3,0.6,0.5,1c0.2,0.4,0.2,0.9,0.2,1.2v0.1l-0.4,3.9c0,1-0.2,2.1-0.6,3.2c-0.4,1.2-1,2.3-1.9,3.2l-0.1,0.1
			c-0.1,0.1-0.1,0.1-0.1,0.1c-0.1,0.3-0.2,0.5-0.3,0.8c-0.1,0.3-0.2,0.7-0.4,1c-0.2,0.5-0.5,0.9-0.8,1.3c-0.2,0.2-0.4,0.4-0.6,0.7
			c-0.2,0.3-0.5,0.6-0.7,0.9c-0.3,0.4-0.6,0.7-1,1c-0.4,0.4-0.8,0.6-1.3,0.8c-0.4,0.2-0.7,0.4-0.9,0.5c-0.3,0.2-0.6,0.4-0.9,0.5
			c-0.4,0.2-0.8,0.3-1.2,0.4C134,299.3,133.6,299.3,133.2,299.3z M134.7,289.4c0.1,0.2,0.2,0.3,0.2,0.5c0,0.1,0.1,0.2,0.1,0.2
			c0.2-0.1,0.3-0.2,0.5-0.3c0.3-0.2,0.7-0.4,1-0.7c0.1-0.1,0.2-0.1,0.2-0.2c0.1-0.4,0.3-0.8,0.5-1.2c0.2-0.4,0.3-0.8,0.5-1.2
			c0-0.5,0.2-0.9,0.5-1.4v-0.9c0-0.1,0-0.2-0.1-0.4c0-0.2-0.1-0.5-0.3-0.8c0,0,0-0.1,0-0.1c-0.4,0.3-0.7,0.7-1,1
			c-0.4,0.5-0.7,0.9-1,1.4c-0.2,0.3-0.4,0.6-0.5,0.8l-0.4,1.5c-0.1,0.4-0.2,0.7-0.3,1.1c0,0.2-0.1,0.3-0.1,0.4V289.4z"/>
		<path d="M157.5,299.5c-1,0-1.9-0.4-2.6-1c-0.2-0.2-0.5-0.4-0.7-0.6c0,0-0.1,0.1-0.1,0.1c-0.3,0.3-0.6,0.6-0.9,0.8
			c-0.3,0.2-0.7,0.3-1.1,0.4c-0.3,0.1-0.6,0.1-0.8,0.1h-0.2l-0.2-0.1c-0.3-0.1-0.6-0.2-1.2-0.3c-0.3-0.1-0.6-0.2-0.7-0.2H148
			c-0.6,0-1.2-0.1-1.7-0.3c-0.4,0.2-0.8,0.3-1.2,0.3H145l-0.1,0c-0.2,0-0.4,0-0.6,0c-0.4,0-0.9,0-1.3-0.1c-0.5-0.1-1-0.3-1.4-0.5
			c-0.8-0.5-1.1-1.3-1.1-2.3c0-1,0.4-1.8,1.1-2.5c0.3-0.3,0.7-0.7,1.2-1c0.3-0.2,0.6-0.6,0.8-1c0.1-0.2,0.3-0.6,0.3-1.5l0-0.1l0-0.1
			c0.1-0.4,0.1-0.6,0.1-0.7c0-0.3,0-0.8,0.1-1.3c0-0.3,0-0.6,0.1-0.9c0.1-0.3,0.2-0.6,0.4-0.9l0.1-4c0-0.7,0-1.2,0.1-1.6
			c0-0.1,0-0.3,0-0.4v-0.4l0.1-0.3c0.2-0.4,0.3-0.7,0.3-0.8c0,0,0-0.2,0-0.6v-1.8l0.1-0.2c0.1-0.3,0.2-0.7,0.4-1.1
			c0.1-0.3,0.2-0.6,0.2-0.9l0.5-3c0.3-1.7,0.7-3.3,1.4-4.9c0.6-1.4,1.2-2.9,1.9-4.4c0.1-0.3,0.3-0.6,0.5-1c0.2-0.5,0.5-1,0.9-1.5
			c0.4-0.5,0.8-1,1.2-1.4c0.6-0.5,1.3-0.9,2.2-1l0.2,0h0.2c0.1-0.1,0.3-0.1,0.5-0.2c0.3-0.2,0.6-0.3,0.8-0.4
			c0.4-0.2,0.9-0.2,1.3-0.2l0.1,0c0.6,0,1.2,0.2,1.8,0.4c0.6,0.2,1.2,0.5,1.6,0.9c0.6,0.5,1,1,1.3,1.7c0.3,0.7,0.3,1.4,0.2,2.1
			c0,0.3,0,0.4-0.1,0.6c0,0.1-0.1,0.2-0.1,0.4c0,0.2-0.1,0.4-0.2,0.8c-0.1,0.3-0.2,0.7-0.4,1c-0.2,0.4-0.4,0.7-0.5,1
			c-0.3,0.4-0.6,0.7-1,0.9c-0.6,0.4-1.3,0.8-2,1.1c-0.6,0.2-1.1,0.4-1.7,0.7c-0.4,0.2-0.8,0.4-1.1,0.7c-0.1,0.1-0.2,0.3-0.3,0.6
			l0,0.2l-0.4,1c-0.5,1-0.8,1.9-1.1,2.9c-0.3,0.9-0.5,1.8-0.7,2.7v1l-0.1,0.2c0.1-0.1,0.2-0.1,0.2-0.2c0.7-0.5,1.6-0.7,2.4-0.7
			c0.1,0,0.2,0,0.2,0c0.6,0,1.5,0.3,2.3,1.1c0.5,0.5,0.9,1,1.2,1.5c0.3,0.5,0.5,1,0.7,1.5c0.3,0.7,0.3,1,0.3,1.3l0,0.1
			c0,0.7-0.3,1.4-0.6,2.1c-0.3,0.6-0.6,1.1-0.9,1.6c-0.3,0.5-0.6,0.9-0.8,1.3c-0.1,0.2-0.2,0.3-0.2,0.4c0,0.2,0,0.4,0.1,0.9
			c0.1,0.5,0.3,1,0.5,1.4c0.1,0.3,0.2,0.5,0.4,0.7c0.2-0.3,0.4-0.6,0.6-0.9l0.2-0.2l0.2-0.1c0,0,0.1-0.1,0.1-0.1
			c0.5-0.9,1.4-1.4,2.3-1.4h0.6l0.2,0.1c0.7,0.2,1.3,0.7,1.5,1.5c0.1,0.3,0.1,0.7,0.1,1c0,0.3,0,0.6-0.1,0.8l0,0.1
			c0,0.4-0.2,0.9-0.5,1.5c-0.2,0.5-0.5,1-0.8,1.6c-0.3,0.6-0.7,1.2-1.1,1.8c-0.4,0.6-0.8,1.2-1.2,1.7c-0.4,0.5-0.8,1-1.1,1.4
			c-0.4,0.4-1,1-2,1L157.5,299.5L157.5,299.5z M150.8,291.9c0.2,0.1,0.4,0.2,0.7,0.3c0-0.1,0-0.1-0.1-0.2c-0.1-0.4-0.3-0.8-0.5-1.2
			c0,0,0,0,0-0.1v1C150.9,291.7,150.8,291.9,150.8,291.9z"/>
		<path d="M166.6,277.1c-0.4,0-0.9-0.1-1.2-0.4l-0.1-0.1l-0.1-0.1c-0.7-0.6-0.9-1.5-1-2.1c-0.1-0.5-0.1-1-0.1-1.4
			c-0.1-0.7,0-1.2,0.3-1.7c-0.1-0.4-0.1-0.7-0.1-1c0-0.3,0-0.7,0.1-1.1c0-0.4,0.1-0.7,0.2-1.1c0.1-0.2,0.1-0.5,0.2-0.7l0.2-0.7
			c0.1-0.2,0.1-0.4,0.1-0.7c0-0.3,0-0.6,0.1-1c0-0.5,0-0.9,0.1-1.3c0.1-0.5,0.2-1,0.3-1.4c0.3-0.9,0.8-1.5,1.3-1.7l0.3-0.2l2.1-0.4
			c0.1,0,0.2-0.1,0.3-0.2c0.4-0.2,0.8-0.4,1.1-0.6c0.3-0.1,0.7-0.2,1-0.2c0.3,0,0.6,0.1,0.9,0.2c0.5,0.2,1.3,0.7,1.5,2.1
			c0.2,0.9,0.1,1.8-0.2,2.6c-0.2,0.5-0.5,1.1-0.8,1.7c-0.3,0.6-0.5,1.2-0.7,1.9c-0.2,0.8-0.5,1.6-0.7,2.5c-0.1,0.5-0.3,1-0.4,1.5
			c-0.1,0.5-0.3,1-0.4,1.5c-0.2,0.5-0.4,1.1-0.7,1.5c-0.3,0.6-0.8,1.1-1.3,1.5c-0.1,0.1-0.2,0.2-0.4,0.4
			C167.8,276.9,167.2,277.1,166.6,277.1z"/>
		<path d="M177.9,299.8c-0.5,0-0.9,0-1.3-0.1c-0.8-0.2-1.4-0.7-1.6-1.4c-0.1-0.2-0.2-0.4-0.4-0.6c-0.2-0.4-0.4-0.8-0.6-1.3
			c-0.2-0.5-0.4-1-0.5-1.4c-0.2-0.6-0.3-1.1-0.3-1.4v-2.1c0-0.2,0-0.5,0.1-1.1c0.1-0.4,0.2-0.9,0.3-1.4c0.1-0.5,0.2-1,0.2-1.4
			c0.1-0.5,0.1-0.8,0.1-1v-1l0.1-0.3c0.2-0.7,0.5-1.3,0.7-1.8c0.1-0.5,0.3-0.9,0.5-1.3c0-0.1,0.1-0.2,0.1-0.3V281
			c-0.1,0-0.1-0.1-0.2-0.1c-0.7-0.5-1.1-1.2-1.1-2c0-0.5,0.2-1.1,0.5-1.6c0.2-0.3,0.4-0.5,0.6-0.8c0.2-0.2,0.4-0.4,0.5-0.6
			c0.1-0.1,0.2-0.2,0.2-0.3c0.2-0.5,0.6-1.2,1.3-1.5c0.1,0,0.2-0.1,0.3-0.2c0.4-0.5,0.9-0.9,1.4-1.3c0.2-0.1,0.4-0.3,0.7-0.8
			c0.1-0.2,0.2-0.5,0.3-0.8c0.2-0.9,0.8-1.6,1.6-2l0.2-0.1l0.2-0.1c0,0,0.1,0,0.2-0.1c0.4-0.5,1.1-1.1,2.1-1.1c0.3,0,0.6,0,0.9,0
			c0.4,0,0.8,0.1,1.2,0.2c0.5,0.2,1,0.5,1.4,0.9c0.3,0.3,0.6,0.9,0.6,1.8c0,0.8-0.4,1.4-1,2.1l-1.3,1.6c-0.2,0.2-0.3,0.4-0.5,0.6
			c0.4-0.2,0.7-0.3,1.1-0.3c1.1,0,2,0.5,2.5,1.5c0.3,0.6,0.5,1.3,0.5,2v1.2c0,1-0.6,1.9-1.5,2.4c-0.5,0.2-1,0.4-1.6,0.5
			c-0.5,0.1-1,0.2-1.5,0.2c-0.5,0-0.7,0-0.9,0c-0.5,0-0.9,0-1.3-0.1h-0.2c0,0,0,0.1,0,0.1c0,0.3-0.1,0.5-0.1,0.7
			c0,0.2-0.1,0.8-0.1,0.8l-0.1,0.2c-0.1,0.2-0.2,0.4-0.3,0.5c0,0,0,0,0,0v0.4c0,0.6-0.1,1.3-0.3,2.1c-0.2,1-0.5,1.5-0.8,1.8
			c0,0.1,0,1.1,0,1.1c0,0,0,0,0,0.1l0.5-0.5h0.7c0.9,0,1.5,0.4,1.8,0.7c0.2,0.2,0.3,0.4,0.5,0.6l0,0.1l0,0.1c0.2,0.3,0.4,0.6,0.5,1
			l0.1,0.3v0.3c0,0.5-0.2,1.1-0.5,1.7c-0.2,0.5-0.5,0.9-0.8,1.4c-0.3,0.4-0.7,0.9-1.1,1.2c-0.4,0.3-0.7,0.6-1.1,0.7v1.4H180
			c0,0-0.8,0.2-0.8,0.2c-0.3,0.1-0.6,0.2-1,0.2l-0.2,0H177.9z"/>
		<path d="M195.1,300.5c-0.9-0.1-1.7-0.6-2.1-1.6l0-0.1l0-0.1c-0.2-0.7-0.4-1.4-0.4-2.1c0-0.6,0-1.1,0.1-1.7
			c-0.1,0.1-0.1,0.2-0.2,0.3c-0.5,0.7-0.9,1.2-1.3,1.6c-0.1,0.1-0.2,0.3-0.4,0.5c-0.2,0.3-0.5,0.5-0.7,0.8c-0.3,0.3-0.6,0.5-1,0.8
			c-0.5,0.3-1.1,0.5-1.6,0.5c-0.9,0-1.7-0.4-2.3-1c-0.4-0.5-0.7-1-1-1.6c-0.2-0.5-0.3-1-0.4-1.5c-0.1-0.5-0.1-0.9-0.1-1.2l-0.1-3.2
			l0.6-5.2c0-0.2,0.1-0.5,0.2-0.9c0.1-0.4,0.2-0.8,0.4-1.2c0.2-0.4,0.4-0.9,0.6-1.3c0.3-0.5,0.5-0.9,0.8-1.3l0.1-0.1l0.1-0.1
			c0.7-0.7,1.5-1.6,2.2-2.6c0.5-0.7,1-1.3,1.6-1.6c0.5-0.3,0.9-0.6,1.4-0.7c0.4-0.2,0.9-0.3,1.3-0.4c0.1,0,0.3-0.1,0.7-0.3l0.4-0.2
			h0.2c0.3-0.2,0.5-0.3,0.7-0.5l0.5-0.4h2.2l0.8-0.4h0.4c1.5,0,2.3,0.7,2.8,1.2c0.5,0.7,0.8,1.5,0.8,2.5c0,0.2,0,0.5-0.2,1.2
			c-0.1,0.4-0.2,0.9-0.3,1.4c-0.1,0.5-0.3,1-0.4,1.5l-0.3,1c0,0.2,0,0.4-0.1,0.7c-0.1,0.4-0.2,0.9-0.4,1.5l-0.2,0.4l0,0l0,0.6
			l-0.1,2.1c0.2-0.1,0.3-0.3,0.5-0.4l0.5-0.5h0.7c0.7,0,1.4,0.3,1.8,0.9c0.4,0.5,0.6,1,0.6,1.6v0.4l-0.4,0.7
			c-0.1,0.2-0.2,0.4-0.4,0.6c-0.2,0.6-0.6,1.2-0.9,1.7c-0.4,0.5-0.8,0.9-1.2,1.4l-1.2,1.2c-0.3,0.3-0.6,0.7-0.9,1.1l-0.7,1
			c-0.1,0.3-0.2,0.7-0.4,1c-0.3,0.5-0.6,0.9-1.1,1.2c-0.5,0.4-1.1,0.6-1.7,0.6L195.1,300.5z M192.8,283.1c-0.4,0.5-0.8,1-1.1,1.5
			c-0.3,0.5-0.5,1-0.7,1.4c-0.2,0.4-0.2,0.6-0.2,0.6c0,0.1,0,0.3,0,0.5c0.2-0.3,0.4-0.7,0.6-1c0.4-0.8,0.8-1.5,1.1-2.2
			C192.7,283.5,192.8,283.2,192.8,283.1z"/>
		<path d="M206,300c-1,0-1.6-0.7-1.8-0.9c-0.2-0.2-0.3-0.4-0.5-0.5l-0.1-0.1l-0.8-1.6l0-0.3c-0.1-0.4,0-0.9,0.1-1.6
			c0.1-0.5,0.2-1.1,0.3-1.6c0.1-0.5,0.2-1,0.3-1.4c0-0.2,0.1-0.3,0.1-0.4v-0.4l0.3-0.5c0.5-0.8,0.8-1.6,1-2.4c0.2-1,0.4-2,0.6-2.9
			l-0.1-1c-0.1,0.1-0.3,0.3-0.4,0.4c-0.5,0.4-1.1,0.7-1.9,0.8l-0.1,0h-0.1c-1.1,0-2-0.8-2.2-1.9c-0.1-0.3-0.1-0.5-0.2-0.7
			c-0.2-0.7-0.1-1.5,0.3-2.1c0.2-0.4,0.6-0.8,1-1.1c0.3-0.3,0.6-0.5,1-0.8c0.2-0.2,0.4-0.3,0.6-0.5c0.2-0.3,0.4-0.6,0.6-0.9
			c0.3-0.5,0.6-0.9,0.8-1.4c0.4-0.5,0.8-1,1.2-1.4c0.6-0.5,1.3-0.8,2.2-0.9c0.2,0,0.4,0,0.5,0c0.7,0,1.3,0.3,1.7,0.7
			c0,0,0.3,0.1,0.3,0.1c0.5,0.3,0.9,0.6,1.2,0.9c0.4,0.4,0.7,0.9,0.8,1.4c0.1-0.1,0.1-0.3,0.2-0.4c0.4-0.8,0.9-1.4,1.3-1.7l0.3-0.2
			l1.7-0.4c0.3-0.1,0.6-0.1,0.9-0.1c0.1,0,0.3,0,0.5,0c0.1,0,0.2,0,0.3,0l0.5,0l0.4,0.2c1,0.6,1.6,1.4,1.9,2.4
			c0.2,0.6,0.3,1.1,0.3,1.5l0,0.1l0,0.1c0.1,0.7-0.1,1.5-0.6,2.5c-0.4,0.9-0.9,1.6-1.6,2.2l-0.2,0.1l-0.2,0.1
			c-0.3,0.2-0.5,0.3-0.8,0.4c-0.2,0.1-0.4,0.2-0.7,0.2l-0.3,0.1h-0.3c-0.3,0-0.5,0-0.7-0.1c-0.2,0-0.4-0.1-0.6-0.2c0,0-0.1,0-0.1,0
			c-0.3,0.3-0.6,0.5-0.8,0.8c-0.3,0.4-0.6,0.9-0.8,1.5c-0.2,0.6-0.3,1.1-0.3,1.6v0.7l-0.5,0.5c-0.2,0.2-0.4,0.4-0.7,0.7
			c-0.1,0.1-0.2,0.3-0.3,0.5l0,0.1c-0.1,0.2-0.1,0.3-0.1,0.5c0,0.5-0.1,1.1-0.2,1.6c0,0.3,0,0.7,0,1c0,0.5-0.1,1-0.2,1.6
			c-0.1,0.6-0.2,1.1-0.3,1.6c-0.1,0.5-0.3,1-0.5,1.4l-0.2,0.5l-0.4,0.3c-0.3,0.2-0.7,0.4-1.1,0.6c-0.4,0.2-0.8,0.3-1.2,0.4
			c-0.4,0.1-0.9,0.2-1.4,0.2L206,300L206,300z"/>
		<path d="M223.3,299.4c-0.9,0-1.7-0.4-2.2-1.1c-0.1-0.1-0.1-0.2-0.2-0.3c-0.3-0.2-0.5-0.3-0.7-0.5c-0.2-0.2-0.5-0.5-0.8-0.9
			l-0.1-0.2c0,0-0.1-0.2-0.1-0.2l-0.6-0.3l-0.2-0.2c-0.2-0.2-0.4-0.5-0.7-0.8c-0.6-0.7-0.7-1.4-0.7-1.8c0-1.1,0.6-2,1.6-2.3
			c0.1-0.1,0.2-0.3,0.3-0.4c0.2-0.2,0.3-0.3,0.4-0.5c0.2-0.2,0.5-0.4,0.7-0.6c0.1-0.1,0.3-0.2,0.5-0.3c0.4-0.9,1.2-1.4,2.2-1.4
			c0.6,0,1.2,0.2,1.6,0.5c0.4,0.3,0.7,0.6,0.9,1.1c0.1,0.2,0.2,0.4,0.4,0.7c0.1,0.1,0.2,0.3,0.2,0.4c0.3,0.5,0.7,0.9,1,1.3
			c0.3,0.3,1.1,1.2,1,2.4c0,0.8-0.4,1.6-1.1,2.2c-0.2,0.2-0.4,0.4-0.5,0.7c-0.2,0.5-0.5,1-0.8,1.3C225,299,224.2,299.4,223.3,299.4z
			 M223.3,287.2c-0.7,0-1.3-0.1-1.9-0.4l-1.7-0.8l0.7-1.4c0-0.1,0-0.1,0-0.2c0-0.2,0-0.4,0-0.6c0-0.3,0.1-0.6,0.1-0.8l0.7-5.7
			l0.3-4.5l0.2-2.7c-0.2-0.1-0.4-0.1-0.6-0.2c-0.9-0.2-1.5-1-1.5-1.9v-0.2c0-0.6,0.1-1.1,0.3-1.5c0.2-0.3,0.4-0.7,0.7-1
			c0.2-0.2,0.3-0.3,0.6-0.5c0,0,0.1-0.1,0.3-0.4l0.1-0.1c0.6-0.8,1.2-1.5,1.7-2.1c0.5-0.5,1-1,1.5-1.5c0.4-0.4,0.8-1,1.2-1.5
			c0.3-0.5,0.7-1.1,1-1.9l0.3-0.8l0.8-0.3c0.1,0,0.1,0,0.1-0.1l0.1-0.1c0,0,0.4-0.2,0.5-0.2c0.4-0.2,0.7-0.2,1.1-0.2h0.2l0.2,0.1
			c0.2,0.1,0.5,0.2,0.9,0.3c0.3,0.2,0.7,0.4,1,0.6c0.3,0.3,0.6,0.6,0.9,0.9c0.4,0.5,0.7,1.2,0.7,1.8v0.4l-0.2,0.4
			c-0.1,0.3-0.3,0.6-0.3,0.8c-0.1,0.4-0.2,0.7-0.4,1c-0.1,0.3-0.2,0.6-0.3,0.9l-0.2,0.6l-0.3,0.2c-0.1,0.2-0.1,0.3-0.2,0.5
			c-0.1,0.2-0.1,0.5-0.2,0.7c-0.1,0.3-0.1,0.4-0.1,0.4v0.4l-0.2,0.4c-0.2,0.3-0.3,0.6-0.4,0.9c-0.1,0.3-0.3,0.6-0.4,1
			c-0.1,0.3-0.2,0.6-0.2,1c0,0.7-0.2,1.5-0.4,2.4c-0.2,0.8-0.4,1.5-0.6,2.2c0,0.5-0.2,1.1-0.4,1.7c-0.1,0.3-0.2,0.6-0.2,0.9
			c-0.1,0.6-0.1,1-0.2,1.3c0,0.3-0.1,0.5-0.1,0.6c0,0-0.2,0.7-0.2,0.8c0,0.3-0.1,0.6-0.1,0.9c0,0.3-0.1,0.6-0.2,0.8
			c-0.1,0.3-0.1,0.6-0.2,1c-0.1,0.3-0.2,0.7-0.2,1.2l0,0.2l-0.1,0.2c-0.1,0.2-0.1,0.4-0.1,0.6c0,0.6-0.2,1.1-0.4,1.6l-0.1,0.4
			l-0.3,0.3c-0.6,0.6-1.4,1-2.4,1.2C223.9,287.2,223.6,287.2,223.3,287.2z"/>
	</g>
	<g>
		<path class="st2" d="M134.1,259.2c0.2,0.5,0.3,1.1,0.3,1.8v0.8c0,0.4-0.1,0.8-0.4,1.3c-0.3,0.5-0.6,0.9-1,1.3
			c-0.4,0.4-0.8,0.7-1.2,1c-0.4,0.3-0.8,0.4-1.1,0.4c-0.4,0-0.7-0.1-1-0.2c-0.3-0.1-0.5-0.2-0.7-0.2c-0.6,0-1.2,0.2-1.9,0.6
			c-0.7,0.4-1.1,1-1.2,1.8c-0.2,0.4-0.3,0.8-0.3,1.2c0,0.3,0,0.7-0.2,1c-0.3,0.6-0.5,1.4-0.8,2.4c-0.3,1-0.4,1.9-0.4,2.7
			c0,0.1,0,0.2-0.1,0.4c0,0.2-0.1,0.4-0.2,0.7c-0.1,0.3-0.1,0.5-0.2,0.8v1.4l-0.6,3.5c0.1,0.4,0.1,0.9,0,1.4s-0.2,1.2-0.3,1.9
			c-0.1,0.7-0.3,1.5-0.4,2.3c-0.1,0.8-0.2,1.7-0.3,2.6c0,0.2,0,0.5,0.1,0.9c0.1,0.4,0.2,0.6,0.4,0.6c0.3,0,0.5-0.1,0.9-0.3
			s0.6-0.4,0.9-0.7c0.3-0.3,0.6-0.5,0.9-0.8s0.6-0.6,0.9-0.8c0.6-0.6,1.1-1.1,1.7-1.5c0.6-0.5,1.2-0.7,1.7-0.7l0.3,0.3
			c0,0.3-0.1,0.7-0.3,1.1s-0.4,0.9-0.7,1.3c-0.3,0.4-0.6,0.8-0.9,1.2c-0.3,0.4-0.6,0.7-0.9,0.9c-0.6,0.4-1.1,0.9-1.4,1.5
			c-0.4,0.6-0.9,1.2-1.5,1.8c-0.2,0.4-0.5,0.8-0.9,1.1c-0.4,0.3-0.8,0.5-1.2,0.8c-0.4,0.2-1,0.4-1.6,0.7c-0.6,0.3-1.2,0.4-1.6,0.4
			c-0.3,0-0.5-0.1-0.7-0.2c-0.1-0.1-0.2-0.3-0.2-0.5c0-0.2,0-0.5,0-0.8c0-0.3,0.1-0.7,0.1-1.2v-2.8c0-0.4,0.1-0.8,0.2-1.2
			c0.2-0.4,0.2-0.8,0.2-1.2v-0.9c0,0.2,0,0.1,0.1-0.3c0.1-0.5,0.1-1.1,0.2-2c0.1-0.9,0.2-1.9,0.2-3.2c0.1-1.2,0.1-2.5,0.1-3.9
			c0-0.2,0.1-0.4,0.2-0.8c0.2-0.3,0.2-0.6,0.2-0.8v-1.6c0.2-0.8,0.3-1.7,0.4-2.5c0.1-0.8,0.2-1.6,0.3-2.4c0.1-0.8,0.2-1.6,0.4-2.4
			c0.1-0.8,0.4-1.6,0.7-2.4c0.2-0.8,0.6-1.5,1.1-2.3c0.5-0.7,1-1.5,1.4-2.4c0.2-0.4,0.4-0.7,0.7-1.1c0.2-0.3,0.6-0.6,0.9-0.8
			c0.4-0.7,1-1.2,1.7-1.6c0.7-0.4,1.4-0.6,2.1-0.6h3.3C133.3,258.4,133.9,258.7,134.1,259.2z"/>
		<path class="st2" d="M138,276c0.4,0,0.9,0,1.5,0c0.6,0,1.1,0.1,1.5,0.3c0.4,0,0.7,0.2,0.9,0.5c0.1,0.4,0.3,0.7,0.5,1.2
			c0.1,0.1,0.3,0.3,0.4,0.5c0.2,0.2,0.3,0.4,0.4,0.6s0.2,0.4,0.3,0.7c0.1,0.2,0.1,0.4,0.1,0.6l-0.4,3.9c0,0.8-0.2,1.7-0.5,2.7
			c-0.4,1-0.9,1.9-1.5,2.7c-0.2,0.2-0.4,0.5-0.5,0.8c-0.1,0.3-0.2,0.6-0.3,0.9c-0.1,0.3-0.2,0.6-0.4,0.9c-0.1,0.3-0.3,0.6-0.5,0.9
			c-0.2,0.2-0.4,0.5-0.6,0.7s-0.5,0.6-0.7,0.9c-0.2,0.3-0.5,0.6-0.8,0.8c-0.3,0.2-0.6,0.4-0.9,0.5c-0.4,0.2-0.8,0.4-1.1,0.6
			c-0.3,0.2-0.6,0.3-0.8,0.4c-0.2,0.1-0.5,0.2-0.7,0.2c-0.2,0-0.5,0.1-0.8,0.1c-0.4,0-0.8-0.1-1.2-0.3c-0.4-0.2-0.7-0.5-1-0.8
			c-0.3-0.3-0.5-0.7-0.7-1.1c-0.2-0.4-0.3-0.9-0.3-1.3V291c0-0.2-0.1-0.3-0.2-0.5c-0.1-0.1-0.2-0.6-0.2-1.2c0-0.8,0.2-1.9,0.6-3.1
			c0.4-1.2,1-2.4,1.6-3.5c0.6-1.2,1.2-2.2,1.8-3.1c0.6-0.9,1.1-1.4,1.4-1.6c0.3-0.2,0.6-0.4,0.8-0.7s0.4-0.5,0.6-0.7
			c0.2-0.2,0.4-0.4,0.6-0.5C137.3,276,137.6,276,138,276z M138.2,280.9c-0.5,0-0.9,0.2-1.4,0.6c-0.5,0.4-0.9,0.8-1.3,1.4
			c-0.4,0.5-0.8,1-1.1,1.5c-0.3,0.5-0.5,0.9-0.7,1.1l-0.4,1.7c-0.1,0.4-0.2,0.8-0.3,1.2c-0.1,0.4-0.1,0.6-0.1,0.7v0.8
			c0.1,0.1,0.2,0.3,0.3,0.5c0.1,0.3,0.2,0.5,0.3,0.8s0.3,0.5,0.5,0.7c0.2,0.2,0.4,0.3,0.7,0.3c0.6-0.3,1.1-0.5,1.6-0.8
			c0.4-0.2,0.8-0.5,1.2-0.7c0.4-0.3,0.7-0.5,0.8-0.8c0.2-0.4,0.4-0.9,0.6-1.4c0.2-0.6,0.4-1.1,0.6-1.6c-0.1-0.2,0-0.5,0.2-0.7
			c0.2-0.2,0.3-0.5,0.3-0.7v-1.2c0-0.1,0-0.4-0.1-0.8c-0.1-0.4-0.2-0.7-0.4-1.1c-0.2-0.4-0.4-0.7-0.6-1
			C138.7,281.1,138.5,280.9,138.2,280.9z"/>
		<path class="st2" d="M157.3,257.6c0.4,0,0.9,0.1,1.3,0.3c0.4,0.1,0.8,0.3,1.1,0.6c0.3,0.2,0.6,0.6,0.7,0.9c0.1,0.4,0.2,0.8,0,1.2
			c0,0.2,0,0.4,0,0.5c0,0.1-0.1,0.2-0.1,0.4c0,0.1,0,0.3-0.1,0.5c-0.1,0.3-0.2,0.5-0.3,0.8s-0.3,0.5-0.4,0.7
			c-0.1,0.2-0.3,0.3-0.4,0.3c-0.6,0.4-1.1,0.7-1.8,1c-0.6,0.2-1.2,0.5-1.8,0.7c-0.6,0.3-1.1,0.6-1.5,1c-0.4,0.4-0.7,0.9-0.9,1.6
			l-0.4,0.8c-0.5,1-0.9,2.1-1.2,3.1c-0.3,1-0.6,2-0.8,3v0.9c-0.2,0.6-0.4,1.1-0.6,1.6c-0.2,0.5-0.2,0.9-0.2,1.2c0,0.1,0,0.3,0,0.5
			c0,0.2,0.1,0.4,0.1,0.5c0.1,0.2,0.2,0.3,0.3,0.5c0.1,0.1,0.2,0.2,0.3,0.2c0.2,0,0.4-0.1,0.7-0.4c0.3-0.3,0.7-0.7,1.1-1.1
			c0.4-0.4,0.8-0.8,1.3-1.1c0.5-0.3,1-0.5,1.6-0.4c0.4,0,0.7,0.2,1.1,0.6c0.4,0.4,0.6,0.7,0.9,1.2c0.2,0.4,0.4,0.8,0.6,1.2
			c0.1,0.4,0.2,0.6,0.2,0.7c0,0.4-0.2,0.9-0.4,1.4s-0.5,1-0.9,1.5c-0.3,0.5-0.6,1-0.8,1.4c-0.2,0.5-0.4,0.8-0.4,1.1
			c0,0.4,0.1,0.8,0.2,1.4c0.1,0.6,0.3,1.2,0.6,1.8c0.3,0.6,0.6,1.1,1,1.5c0.4,0.4,0.9,0.7,1.4,0.7c0.2,0,0.3,0,0.5-0.2
			c0.1-0.1,0.3-0.3,0.4-0.5c0.1-0.2,0.2-0.4,0.4-0.6s0.2-0.4,0.4-0.6c0.3-0.2,0.6-0.4,0.8-0.8c0.2-0.4,0.5-0.5,0.8-0.5h0.4
			c0.1,0,0.2,0.1,0.2,0.3c0,0.1,0.1,0.3,0.1,0.5s0,0.3,0,0.5c0,0.2,0,0.3,0,0.3c0,0.1-0.1,0.4-0.3,0.9c-0.2,0.4-0.5,0.9-0.8,1.5
			c-0.3,0.6-0.6,1.1-1,1.7c-0.4,0.6-0.8,1.1-1.1,1.6c-0.4,0.5-0.7,0.9-1,1.2c-0.3,0.3-0.5,0.5-0.7,0.4c-0.6,0-1.2-0.2-1.6-0.6
			c-0.4-0.4-0.8-0.8-1.1-1.4c-0.3-0.5-0.6-1.1-0.8-1.7s-0.4-1.1-0.6-1.5c-0.1-0.3-0.2-0.7-0.4-1.2c-0.2-0.5-0.4-1-0.7-1.5
			s-0.6-0.9-0.9-1.3c-0.4-0.4-0.8-0.6-1.3-0.6c-0.2,0-0.4,0.1-0.5,0.3c-0.1,0.2-0.3,0.4-0.4,0.7c-0.1,0.3-0.2,0.5-0.2,0.8
			s-0.1,0.4-0.1,0.5v1.3c-0.1,0.8,0.1,1.3,0.6,1.6c0.4,0.3,0.9,0.5,1.5,0.7c0.5,0.1,0.9,0.4,1.3,0.7c0.4,0.3,0.6,0.9,0.5,1.6
			c0,0.2-0.1,0.4-0.2,0.5s-0.3,0.3-0.5,0.4c-0.2,0.1-0.4,0.2-0.5,0.2c-0.2,0-0.3,0.1-0.4,0.1c-0.2-0.1-0.6-0.2-1.1-0.3
			c-0.5-0.1-0.8-0.2-1-0.3H148c-0.4,0-0.8-0.1-1.2-0.2c-0.2-0.1-0.4-0.2-0.5-0.3c-0.2,0-0.4,0.1-0.6,0.2c-0.2,0.2-0.4,0.2-0.6,0.2
			c-0.2,0-0.5,0-0.8,0c-0.3,0-0.6,0-0.9-0.1s-0.6-0.2-0.8-0.3c-0.2-0.1-0.3-0.4-0.3-0.7c0-0.5,0.2-0.9,0.5-1.2
			c0.3-0.3,0.7-0.6,1.1-1c0.4-0.4,0.8-0.8,1.2-1.4c0.4-0.6,0.5-1.4,0.6-2.3c0.1-0.4,0.1-0.8,0.1-1.1c0-0.3,0-0.6,0.1-1.1
			c0-0.2,0-0.4,0.1-0.6c0-0.2,0.2-0.4,0.4-0.6l0.1-4.6c0-0.6,0-1,0.1-1.3c0-0.2,0.1-0.5,0.1-0.7c0.2-0.4,0.3-0.7,0.4-1
			c0.1-0.3,0.1-0.6,0.1-1.1v-1.6c0.1-0.2,0.2-0.6,0.3-1c0.1-0.4,0.2-0.8,0.3-1.2l0.5-2.9c0.2-1.6,0.6-3.1,1.2-4.5
			c0.6-1.4,1.2-2.9,1.9-4.4c0.1-0.3,0.3-0.6,0.5-1c0.2-0.4,0.4-0.8,0.7-1.2c0.3-0.4,0.6-0.8,1-1.1c0.4-0.3,0.8-0.5,1.3-0.6
			c0.2,0,0.5,0,0.7-0.1c0.2-0.1,0.4-0.2,0.6-0.2c0.2-0.1,0.5-0.3,0.7-0.4C156.9,257.6,157.1,257.6,157.3,257.6z M152.8,281.6
			c-0.8-0.1-1.5,0.2-2.1,0.7s-0.8,1.2-0.9,2c0,0.1,0,0.3,0,0.5c0,0.2,0.1,0.4,0.1,0.6c0.1,0.2,0.2,0.3,0.3,0.4
			c0.2,0.1,0.4,0.2,0.6,0.2c0.3,0,0.6-0.1,0.9-0.3c0.3-0.2,0.6-0.5,0.9-0.8c0.3-0.3,0.5-0.7,0.7-1.1c0.2-0.4,0.3-0.7,0.3-1
			c0-0.3-0.1-0.6-0.4-0.9C153.2,281.8,153,281.6,152.8,281.6z"/>
		<path class="st2" d="M165.8,273c-0.1-0.4,0-0.7,0.1-0.9c0.1-0.2,0.2-0.5,0.2-0.9c-0.1-0.4-0.1-0.7-0.1-0.9c0-0.2,0-0.5,0.1-0.9
			c0-0.3,0.1-0.6,0.1-0.8c0.1-0.2,0.1-0.5,0.2-0.7c0.1-0.2,0.1-0.5,0.2-0.7c0.1-0.3,0.1-0.6,0.2-0.9c0-0.3,0.1-0.7,0.1-1.1
			c0-0.4,0-0.8,0.1-1.2c0-0.4,0.1-0.8,0.2-1.1c0.1-0.3,0.3-0.6,0.5-0.7l1.9-0.4c0.2-0.1,0.5-0.2,0.8-0.4c0.3-0.2,0.5-0.3,0.8-0.4
			s0.5-0.1,0.7,0s0.3,0.3,0.4,0.7c0.1,0.6,0.1,1.2-0.1,1.6s-0.4,1-0.8,1.6c-0.3,0.7-0.6,1.4-0.9,2.2c-0.2,0.8-0.5,1.6-0.7,2.5
			c-0.1,0.5-0.3,1-0.4,1.5c-0.1,0.5-0.2,0.9-0.4,1.4c-0.1,0.4-0.3,0.8-0.5,1.2s-0.5,0.7-0.9,0.9c-0.2,0.1-0.4,0.3-0.6,0.5
			s-0.4,0.2-0.7,0.1c-0.2-0.1-0.3-0.5-0.4-1C165.9,273.8,165.8,273.3,165.8,273z"/>
		<path class="st2" d="M184.3,269.4c0.3,0,0.5,0,0.8,0c0.2,0,0.5,0.1,0.7,0.1c0.2,0.1,0.4,0.2,0.5,0.4s0.2,0.4,0.2,0.7
			c0,0.2-0.2,0.5-0.6,1c-0.4,0.5-0.9,1-1.3,1.6c-0.5,0.6-0.9,1.1-1.3,1.7c-0.4,0.5-0.6,1-0.6,1.2c0,0.2,0.1,0.4,0.2,0.5
			c0.1,0.1,0.3,0.2,0.5,0.2c0.2,0,0.4,0.1,0.5,0.1c0.2,0,0.3,0,0.4,0h1.4c0.1-0.1,0.1-0.1,0.3-0.2c0.2-0.2,0.4-0.3,0.6-0.3
			c0.4,0,0.8,0.2,0.9,0.5c0.2,0.3,0.3,0.7,0.3,1.2v0.4v0.8c0,0.3-0.2,0.6-0.5,0.7c-0.4,0.2-0.7,0.3-1.2,0.4
			c-0.4,0.1-0.8,0.1-1.2,0.2c-0.4,0-0.6,0-0.7,0c-0.4,0-0.7,0-0.7-0.1c-0.1,0-0.2-0.1-0.4-0.1h-0.9c-0.2,0-0.4,0.1-0.7,0.3
			c-0.3,0.2-0.5,0.4-0.5,0.6c0,0.3,0,0.6,0,0.9c0,0.2-0.1,0.5-0.1,0.6c0,0.2-0.1,0.4-0.1,0.6c-0.1,0.2-0.2,0.3-0.3,0.5
			c-0.1,0.3-0.2,0.5-0.2,0.7v0.5c0,0.5-0.1,1-0.2,1.6c-0.1,0.6-0.3,0.9-0.4,1.1c-0.1,0.1-0.3,0.3-0.4,0.4c-0.1,0.1-0.1,0.5-0.1,1
			v0.9c0,0.2,0,0.4,0.1,0.6c0.1,0.2,0.2,0.5,0.3,0.7c0.1,0.2,0.3,0.4,0.5,0.5c0.2,0.1,0.5,0.2,0.8,0.2c0.4,0,0.7-0.1,1-0.3
			c0.1-0.1,0.2-0.2,0.4-0.3c0.2,0,0.4,0.1,0.5,0.2c0.1,0.1,0.3,0.3,0.4,0.4c0.1,0.2,0.2,0.4,0.3,0.6c0,0.2-0.1,0.5-0.3,0.9
			c-0.2,0.4-0.4,0.8-0.7,1.1c-0.3,0.4-0.5,0.7-0.8,1c-0.3,0.3-0.5,0.4-0.7,0.4c-0.2,0-0.4,0.2-0.6,0.5c-0.2,0.3-0.3,0.6-0.3,0.7
			c-0.1,0-0.2,0-0.5,0.1c-0.2,0.1-0.5,0.1-0.7,0.2c-0.3,0.1-0.6,0.2-0.9,0.2c-0.4,0-0.7,0-0.9-0.1c-0.2,0-0.3-0.2-0.3-0.4
			c-0.1-0.1-0.2-0.3-0.4-0.6s-0.4-0.8-0.5-1.2c-0.2-0.4-0.3-0.9-0.5-1.3c-0.1-0.4-0.2-0.7-0.2-0.9v-2.1c0-0.1,0-0.4,0.1-0.8
			c0.1-0.4,0.2-0.9,0.3-1.4c0.1-0.5,0.2-1,0.3-1.5c0.1-0.5,0.1-0.9,0.1-1.2v-0.7c0.2-0.7,0.5-1.3,0.7-1.8c0.1-0.5,0.3-0.9,0.4-1.3
			c0.1-0.4,0.2-0.6,0.2-0.7v-1.4c0-0.4-0.1-0.6-0.4-0.7c-0.2-0.1-0.4-0.3-0.6-0.4c-0.2-0.1-0.3-0.3-0.3-0.6c0-0.2,0.1-0.4,0.2-0.5
			c0.1-0.2,0.3-0.4,0.5-0.6s0.4-0.4,0.6-0.6c0.2-0.2,0.3-0.4,0.5-0.6c0.2-0.4,0.4-0.7,0.6-0.8c0.2-0.1,0.4-0.2,0.6-0.4
			c0.4-0.4,0.8-0.8,1.2-1.1c0.4-0.3,0.8-0.7,1.2-1.4c0.2-0.4,0.4-0.8,0.5-1.2c0.1-0.4,0.4-0.7,0.8-1c0.4-0.1,0.7-0.3,1-0.7
			C183.9,269.6,184.1,269.4,184.3,269.4z"/>
		<path class="st2" d="M198.5,275.6c0.6,0,1.1,0.2,1.3,0.5s0.4,0.8,0.4,1.4c0,0.1,0,0.4-0.1,0.8c-0.1,0.4-0.2,0.8-0.3,1.3
			c-0.1,0.5-0.3,1-0.4,1.5c-0.1,0.5-0.3,0.9-0.4,1.2c0,0.2,0,0.5,0,0.7c0,0.2-0.1,0.6-0.3,1c-0.2,0.2-0.4,0.5-0.4,0.9
			c0,0.4,0,0.7,0,0.9l-0.1,2.3v1.7c0,0.1,0,0.2,0,0.5c0,0.2,0,0.4,0.1,0.7c0,0.2,0.1,0.4,0.2,0.6c0.1,0.2,0.3,0.2,0.5,0.2l0.6-1
			c0.2-0.1,0.4-0.3,0.6-0.5c0.2-0.2,0.5-0.4,0.7-0.6c0.3-0.2,0.5-0.5,0.8-0.7c0.2,0,0.3,0.1,0.4,0.2c0.1,0.1,0.2,0.3,0.2,0.5
			l-0.2,0.4c-0.1,0.2-0.2,0.4-0.4,0.5c-0.2,0.6-0.5,1.1-0.8,1.5c-0.3,0.4-0.7,0.8-1.1,1.2c-0.4,0.4-0.8,0.8-1.2,1.2
			c-0.4,0.4-0.8,0.9-1.1,1.4l-1,1.4c0,0.3-0.1,0.5-0.2,0.8c-0.2,0.3-0.4,0.5-0.6,0.7c-0.2,0.2-0.5,0.2-0.7,0.2
			c-0.2,0-0.4-0.2-0.6-0.5c-0.2-0.5-0.3-1-0.3-1.6s0-1,0.1-1.5c0.1-0.5,0.2-0.9,0.3-1.4c0.1-0.4,0.1-0.9,0.1-1.3v-1.6v-0.9
			c0-0.1-0.1-0.2-0.3-0.3c-0.1,0-0.2,0-0.3,0s-0.3,0.3-0.7,0.8s-0.8,1.1-1.2,1.8c-0.5,0.7-0.9,1.3-1.4,2c-0.5,0.7-0.8,1.2-1.1,1.4
			c-0.1,0.1-0.2,0.3-0.4,0.5c-0.2,0.2-0.4,0.4-0.6,0.6c-0.2,0.2-0.5,0.4-0.7,0.5s-0.5,0.2-0.7,0.2c-0.4,0-0.7-0.1-1-0.4
			c-0.3-0.3-0.5-0.6-0.6-1c-0.1-0.4-0.3-0.8-0.3-1.2c-0.1-0.4-0.1-0.7-0.1-0.9l-0.1-3.2l0.6-5.1c0-0.1,0-0.3,0.1-0.6
			c0.1-0.3,0.2-0.7,0.4-1.1c0.1-0.4,0.3-0.8,0.5-1.1c0.2-0.4,0.4-0.7,0.6-0.9c0.8-0.8,1.7-1.8,2.5-2.9c0.4-0.5,0.7-0.9,1.1-1.1
			c0.4-0.2,0.7-0.4,1.1-0.5c0.4-0.1,0.7-0.2,1.1-0.3c0.4-0.1,0.7-0.2,1.2-0.5c0.2,0,0.4-0.1,0.7-0.3c0.3-0.2,0.5-0.4,0.8-0.5h1.2
			h0.7L198.5,275.6z M192.9,280.4c-0.5,0.4-1,0.9-1.5,1.5c-0.5,0.6-0.9,1.1-1.2,1.7c-0.4,0.6-0.6,1.1-0.8,1.6
			c-0.2,0.5-0.3,0.9-0.3,1.2c0,0.1,0,0.4,0,0.8c0,0.4,0,0.8,0,1.2c0.1,0.4,0.2,0.8,0.3,1.1c0.2,0.3,0.4,0.5,0.9,0.5
			c0.4,0,0.8-0.3,1.3-1c0.5-0.7,1-1.4,1.4-2.3s0.8-1.6,1.1-2.4s0.5-1.2,0.5-1.3c0-0.1,0-0.4,0-0.9c0-0.5,0-0.9-0.1-1.3
			c-0.1-0.4-0.2-0.7-0.5-0.9C193.9,279.9,193.5,280,192.9,280.4z"/>
		<path class="st2" d="M208.6,275.7c0.3-0.1,0.5,0,0.6,0.1c0.1,0.1,0.3,0.3,0.7,0.5c0.3,0.2,0.6,0.4,0.8,0.6
			c0.2,0.2,0.4,0.5,0.4,0.8c0,0.1-0.1,0.3-0.1,0.5c-0.1,0.4,0,0.7,0.1,1.1c0,0.3-0.1,0.6-0.2,0.9c-0.1,0.4-0.1,0.7-0.1,0.9
			c0.1,0.1,0.1,0.2,0.3,0.4c0.1,0.1,0.2,0.2,0.3,0.2c0.1,0.1,0.2,0.1,0.3,0c0.3-0.1,0.6-0.3,0.9-0.8c0.3-0.5,0.7-1.1,1-1.7
			c0.3-0.6,0.6-1.2,1-1.8c0.3-0.6,0.6-1,0.9-1.2l1.4-0.4c0.2-0.1,0.4-0.1,0.6,0c0.2,0,0.4,0,0.5,0c0.6,0.3,0.9,0.8,1.1,1.3
			c0.1,0.6,0.2,1,0.3,1.3c0,0.4-0.1,0.9-0.4,1.6c-0.3,0.7-0.7,1.2-1.2,1.7c-0.2,0.1-0.4,0.2-0.6,0.3c-0.2,0.1-0.4,0.1-0.5,0.2
			c-0.1,0-0.3,0-0.3,0c-0.1,0-0.2-0.1-0.3-0.1c-0.1-0.1-0.3-0.1-0.4-0.1s-0.3,0-0.5,0c-0.4,0-0.7,0.1-1.1,0.4
			c-0.3,0.3-0.7,0.6-1,0.9c-0.5,0.6-0.9,1.3-1.2,2.1c-0.3,0.8-0.4,1.5-0.4,2.2c-0.2,0.2-0.4,0.5-0.7,0.8c-0.3,0.3-0.5,0.7-0.6,1.1
			c-0.2,0.4-0.3,0.8-0.2,1.3s-0.1,0.9-0.2,1.3c0,0.4,0,0.8,0,1.2c0,0.5-0.1,0.9-0.2,1.4c-0.1,0.5-0.2,1-0.3,1.4s-0.2,0.9-0.4,1.2
			c-0.2,0.1-0.5,0.3-0.7,0.4c-0.3,0.1-0.6,0.2-0.9,0.3c-0.4,0.1-0.7,0.1-1.1,0.2c-0.1,0-0.3-0.1-0.6-0.4c-0.1-0.1-0.2-0.2-0.3-0.4
			l-0.6-1.2c0-0.2,0-0.6,0.1-1.1c0.1-0.5,0.2-1,0.3-1.5s0.2-1,0.3-1.4c0.1-0.4,0.2-0.6,0.2-0.7c0.6-1,1.1-2,1.3-3
			c0.2-1.1,0.4-2.1,0.7-3.2l-0.4-2.9c-0.1-0.4-0.3-0.6-0.5-0.6c-0.2,0-0.4,0-0.7,0.1c-0.5,0.1-0.8,0.2-1,0.4
			c-0.2,0.2-0.4,0.3-0.5,0.5c-0.1,0.2-0.3,0.3-0.5,0.5c-0.2,0.2-0.5,0.3-0.9,0.3c-0.2,0-0.4-0.1-0.4-0.4c-0.1-0.3-0.1-0.6-0.2-0.8
			c-0.1-0.3,0-0.5,0.1-0.8c0.1-0.2,0.3-0.5,0.6-0.7c0.2-0.2,0.5-0.4,0.9-0.7c0.3-0.2,0.6-0.4,0.9-0.7c0.4-0.4,0.7-0.8,0.9-1.2
			c0.3-0.5,0.5-0.9,0.8-1.3c0.3-0.4,0.6-0.7,0.9-1C207.6,275.9,208,275.8,208.6,275.7z"/>
		<path class="st2" d="M219.8,292.2c0.2-0.2,0.4-0.4,0.5-0.6c0.1-0.1,0.3-0.3,0.4-0.4c0.1-0.1,0.2-0.2,0.4-0.3
			c0.1-0.1,0.3-0.2,0.6-0.3c0.3-0.2,0.5-0.4,0.6-0.7c0.1-0.3,0.3-0.4,0.6-0.4c0.2,0,0.4,0.1,0.6,0.2c0.2,0.1,0.3,0.3,0.4,0.5
			c0.1,0.2,0.2,0.4,0.3,0.6c0.1,0.2,0.2,0.5,0.4,0.7c0.4,0.5,0.7,1,1.1,1.4c0.4,0.5,0.6,0.8,0.6,1.1c0,0.3-0.2,0.7-0.6,1
			c-0.4,0.4-0.7,0.7-0.9,1.2c-0.2,0.4-0.4,0.7-0.6,0.9c-0.2,0.2-0.5,0.4-0.9,0.4c-0.3,0-0.6-0.1-0.7-0.3c-0.2-0.2-0.3-0.4-0.5-0.6
			c-0.3-0.2-0.5-0.3-0.7-0.4c-0.1-0.1-0.3-0.3-0.5-0.7c-0.1-0.2-0.2-0.4-0.2-0.5s-0.1-0.2-0.2-0.2c-0.1-0.1-0.2-0.1-0.3-0.2
			s-0.3-0.1-0.5-0.2c-0.2-0.2-0.4-0.4-0.5-0.6c-0.2-0.2-0.3-0.5-0.3-0.7c0-0.3,0.1-0.5,0.4-0.6C219.4,292.5,219.6,292.4,219.8,292.2
			z M229.9,257.4c0.1,0,0.3,0.1,0.5,0.2c0.2,0.1,0.5,0.3,0.7,0.4c0.2,0.2,0.4,0.4,0.6,0.6c0.2,0.2,0.3,0.5,0.3,0.7
			c-0.2,0.4-0.3,0.7-0.4,1.1c-0.1,0.3-0.2,0.7-0.4,1c-0.1,0.3-0.2,0.7-0.3,1c-0.1,0.1-0.2,0.2-0.4,0.5c-0.1,0.2-0.2,0.5-0.3,0.8
			c-0.1,0.3-0.2,0.6-0.2,0.9c-0.1,0.3-0.1,0.6-0.1,0.8c-0.2,0.4-0.3,0.7-0.5,1.1c-0.1,0.3-0.3,0.7-0.4,1.1c-0.1,0.4-0.2,0.9-0.3,1.4
			c0,0.6-0.1,1.3-0.4,2.1c-0.2,0.9-0.4,1.7-0.6,2.4c0,0.4-0.1,0.8-0.3,1.2c-0.2,0.5-0.3,0.9-0.4,1.3c-0.1,0.6-0.1,0.9-0.2,1.2
			c0,0.2-0.1,0.4-0.1,0.5c0,0.1-0.1,0.3-0.1,0.4c0,0.1-0.1,0.3-0.1,0.6c0,0.3-0.1,0.6-0.1,0.9s-0.1,0.5-0.2,0.8
			c-0.1,0.3-0.1,0.6-0.2,0.9c-0.1,0.4-0.2,0.8-0.3,1.4c-0.1,0.3-0.2,0.7-0.2,1.1c0,0.4-0.1,0.8-0.3,1.1c-0.3,0.3-0.8,0.5-1.4,0.7
			c-0.6,0.1-1.2,0.1-1.7-0.2c0.1-0.1,0.1-0.3,0.1-0.4c0-0.2,0-0.3,0-0.5c0-0.2,0-0.3,0-0.5c0-0.1,0-0.2,0.1-0.3l0.7-6.1l0.3-4.5
			l0.4-3.9c0-0.1,0-0.3,0-0.4c0-0.2,0-0.3,0-0.4c-0.1-0.1-0.2-0.1-0.3-0.1c-0.1,0-0.2,0-0.3,0.1c-0.2,0.2-0.5,0.2-0.7,0.2
			c-0.2,0-0.4-0.1-0.6-0.2c-0.2,0-0.3-0.1-0.3-0.2v-0.2c0-0.3,0-0.5,0.1-0.7c0.1-0.2,0.2-0.3,0.4-0.5c0.1-0.1,0.3-0.3,0.5-0.5
			c0.2-0.2,0.4-0.4,0.6-0.7c0.5-0.7,1-1.4,1.6-1.9c0.5-0.5,1-1,1.5-1.6c0.5-0.5,0.9-1.1,1.4-1.7c0.4-0.6,0.8-1.4,1.2-2.3
			c0.2-0.1,0.3-0.1,0.5-0.2c0.1-0.1,0.3-0.1,0.4-0.2C229.7,257.5,229.8,257.4,229.9,257.4z"/>
	</g>
</g>
</svg>
