<svg id="Layer_1" data-name="Layer 1" xmlns="http://www.w3.org/2000/svg" viewBox="0 0 519 448.85"><defs><style>.cls-1{fill:#e4dcde;}.cls-1,.cls-2,.cls-3,.cls-4{opacity:0.5;}.cls-2{fill:#e1e77d;stroke:#386832;stroke-width:3.6px;}.cls-2,.cls-3,.cls-4{stroke-miterlimit:10;}.cls-3{fill:#4a9fd8;stroke:#2d688e;}.cls-4{fill:#edef9f;stroke:#473213;}.cls-5{fill:#386832;}.cls-6{fill:#473213;}</style></defs><title>planesgreet</title><path class="cls-1" d="M354.22,259.77a8.16,8.16,0,0,0,.08-1.64,12.09,12.09,0,0,0-3.49-8.16,11.44,11.44,0,0,0-8.17-3.4,11.79,11.79,0,0,0-3.12.42,8.14,8.14,0,0,0-3-2.05,8,8,0,0,0-8.6,2,12.43,12.43,0,0,0-2.89-.33,11.73,11.73,0,0,0-4.38.82,12.25,12.25,0,0,0-4.38-.82,9.09,9.09,0,0,0-1.39-2.15,9,9,0,0,0-4.65-2.84,7.93,7.93,0,0,0-6.89-4c-4.68,0-13.38,1.61-14.95-5.38-.64-2.84,1.44-8.32,1.44-11.61a15.54,15.54,0,0,0-2-7.35c-.7-1.32-1.23-2.35-1.6-3.08-.06-.14-.14-.27-.21-.4-.22-.38-.44-.74-.66-1.1a25.78,25.78,0,0,0,3.19-1.31,21.37,21.37,0,0,0,4.73-3.07,11.1,11.1,0,0,0,4-8.44,9.09,9.09,0,0,0-6.62-9,13.54,13.54,0,0,0-3.71-.54A20.19,20.19,0,0,0,279,188a4.62,4.62,0,0,1-1.87.35,3.31,3.31,0,0,1-1.4-.29,15.21,15.21,0,0,1-2.72-1.59,21,21,0,0,1-2.72-2.38c-1-1-1.88-2-2.65-3a8,8,0,0,0-6.24-3h-2.68a8,8,0,0,0-4.34,1.28c-1.33.85-2.44,1.58-3.35,2.17s-2,1.31-3,2c-.81.57-1.46,1-1.94,1.31l-.51.34a29.92,29.92,0,0,0-5.43,5.18,16.81,16.81,0,0,0-1.12,1.58,43.82,43.82,0,0,0-3.32-3.37,46.72,46.72,0,0,0-6.17-4.76c-3.14-2-5.83-3-8.46-3a20.84,20.84,0,0,0-13.77,5.35,51.51,51.51,0,0,0-8.7,9.73c-1,1.46-2,3-2.89,4.51-.7-1.16-1.43-2.29-2.23-3.39-1.62-2.26-3.28-4.49-4.93-6.61a10.71,10.71,0,0,0-4.6-3.67,11.63,11.63,0,0,0-3.72-.78,17.92,17.92,0,0,0-2.09-.12,22.71,22.71,0,0,0-6,.86A49.41,49.41,0,0,0,165,189.4q-2.34,1.07-4.58,2.27c-.09-.2-.19-.4-.29-.6a11.4,11.4,0,0,0-8-5.95l-.19,0a11.61,11.61,0,0,0-2.12-.19,12.4,12.4,0,0,0-7,2.24,21.26,21.26,0,0,0-2-4.33c-1.88-5.93-6.28-6.58-8.12-6.58a13.58,13.58,0,0,0-4.92.82,11.27,11.27,0,0,0-4.36,3c-.49.55-1,1.15-1.49,1.8-.28.37-.65.81-1.08,1.31-.13.15-.26.3-.38.46a10.33,10.33,0,0,1-1.77,1.66c-1.24,1-2.64,2-4.15,3.1s-3.19,2.17-4.79,3.2c-4.57,2.91-10,5.6-13.35-.82s.48-15.61.48-22.49c0-1.34-.11-3.11-.33-5.43a47,47,0,0,0-1.26-7.22A25,25,0,0,0,91.9,148a12.17,12.17,0,0,0-10.35-5.81,14.15,14.15,0,0,0-7.79,2.68,45.52,45.52,0,0,0-9.88,8.81c-2.39,2.93-2.07,8.2-4.37,10.22-3.14,2.73-9.68-1.25-13.16-1.24a11.89,11.89,0,0,0-4.86,1.07v-2a8,8,0,0,0-11.32-7.28l-2.77,1.26a8,8,0,0,0-4.47,5.49,7.94,7.94,0,0,0-2.83,2l-2.92,3.31a8,8,0,0,0-1.29,8.58,7.9,7.9,0,0,0,.65,1.18v.93a11.13,11.13,0,0,0,2.2,6.74,9.85,9.85,0,0,0,4.14,3.21c-1.09.62-2.18,1.3-3.25,2a43.86,43.86,0,0,0-5.7,4.64c-2.81,2.74-4.3,5.5-4.55,8.44a8,8,0,0,0,6.89,8.6l2.57.35a7.83,7.83,0,0,0,1.08.07,8,8,0,0,0,3.29-.71l.12-.05c0,.73,0,1.46,0,2.19-.11,3.62-.32,7.19-.61,10.62l0,.34c0,.29-.1.7-.19,1.24-.2,1.22-.4,2.52-.6,3.89s-.38,2.64-.54,3.83A24.87,24.87,0,0,0,21,236a8,8,0,0,0,1.27,4.33,10.76,10.76,0,0,1,1,2.12,35.45,35.45,0,0,1,1,3.43c.33,1.35.62,2.64.88,3.84q.48,2.25.9,3.66c.59,2,1.23,4,1.91,5.86s1.29,3.5,2,5.28c.58,1.55,1.13,3.18,1.61,4.83.41,1.43.78,3,1.1,4.69,0,.25,0,.54,0,.88a16,16,0,0,0,1.4,5.47,8,8,0,0,0,4.22,4.22l.13.16c1.24,1.6,2.6,3.5,4,5.65q2.37,3.54,4.85,7.15A41.92,41.92,0,0,0,53,304.33a7.79,7.79,0,0,0,1.92,1.34,9.85,9.85,0,0,0,3.29,1,10.9,10.9,0,0,0,1.82.15c.35,0,.71,0,1.13-.05a8.77,8.77,0,0,0,7.92-7,9.19,9.19,0,0,0-.59-5.83,13.94,13.94,0,0,0-1.29-2.47q-2-2.94-3.89-5.66c-1.19-1.71-2.36-3.45-3.48-5.16s-2-3.22-2.86-4.91a52.23,52.23,0,0,1-2.4-5.38c-3.09-8.36-7.12-15.46,1.18-22.46A24.19,24.19,0,0,1,69,242.77c5.86-.6,11.33,1.18,17,1.18h1.39a17.16,17.16,0,0,0,6.16-1,16.72,16.72,0,0,0,4.12-2.25,25,25,0,0,0,2.65-2.3A3.32,3.32,0,0,1,101,238a7.81,7.81,0,0,0,1.35-1l.3-.24a17.47,17.47,0,0,0,1.56,1.92,15.59,15.59,0,0,0,11.63,4.83,15.25,15.25,0,0,0,1.71-.1l.32,0a7.88,7.88,0,0,0,1.8-.3,28.68,28.68,0,0,0,6.92-2.81,17.75,17.75,0,0,0,4.66-3.84,15.55,15.55,0,0,0,.94-1.24l.47,0c.64.41,1.3.88,1.95,1.37a35.72,35.72,0,0,0,4.05,2.71,15.54,15.54,0,0,0,7.82,2,12.29,12.29,0,0,0,2.37-.23,10.58,10.58,0,0,0,4.75,1.92,23.74,23.74,0,0,0,2.85.2c4.9,0,5.51-2.21,10,.77.45,5.69-1,8.46-5.28,12.53-1.47,1.51-2.85,2.85-4.09,4-1.51,1.37-2.69,2.51-3.61,3.48a9.59,9.59,0,0,0-3,7.53,8.32,8.32,0,0,0,3.32,6,8,8,0,0,0,3.29,1.45,19.06,19.06,0,0,0,3.54.36,12.38,12.38,0,0,0,4.71-.87c6.78-2.77,9.64-8.54,17.52-9.28,8.69-.82,16.26,2.81,24.49,2.81a12.69,12.69,0,0,0,4.15-.7,7.73,7.73,0,0,0,2.56.43,5.33,5.33,0,0,0,.56,0H217a5.15,5.15,0,0,0,.56,0,8,8,0,0,0,5.55-2.25,10.18,10.18,0,0,0,6.8,2.52,10.68,10.68,0,0,0,2.86-.37,7.88,7.88,0,0,0,1.2.1,5.33,5.33,0,0,0,.56,0h2.35a5,5,0,0,0,.55,0,9.08,9.08,0,0,0,1.17-.08,9.11,9.11,0,0,0,1.18.08,5.24,5.24,0,0,0,.56,0h2.35a5.06,5.06,0,0,0,.55,0,8,8,0,0,0,2.31-.34,12.38,12.38,0,0,0,3.86.61,11.58,11.58,0,0,0,7.47-2.63,4.89,4.89,0,0,0,.41-.37c.12.09.22.18.34.26a15.16,15.16,0,0,0,4.31,2,16.57,16.57,0,0,0,4,.67,8,8,0,0,0,7.55,5.37H276a8,8,0,0,0,7.47-5.13l.18-.49h.11a5.33,5.33,0,0,0,.56,0h2.35a5,5,0,0,0,.55,0,9,9,0,0,0,1.17-.08,9.11,9.11,0,0,0,1.18.08,5.33,5.33,0,0,0,.56,0h2.35a5.06,5.06,0,0,0,.55,0,8.28,8.28,0,0,0,2.12-.29,11.67,11.67,0,0,0,3.59.56,12.08,12.08,0,0,0,1.71-.11,7.68,7.68,0,0,0,1.35.11,7.9,7.9,0,0,0,2.71-.48,7.5,7.5,0,0,0,1.79.21,5.24,5.24,0,0,0,.56,0h2.33a5.43,5.43,0,0,0,.57,0,7.91,7.91,0,0,0,2.35-.35,12.47,12.47,0,0,0,3.92.62,12.3,12.3,0,0,0,4.21-.74,11.26,11.26,0,0,0,4,.74,11.09,11.09,0,0,0,2.3-.24,10.4,10.4,0,0,0,1.94.24h.26a7.88,7.88,0,0,0,2.68-.47,10.8,10.8,0,0,0,7.08-.27,12.25,12.25,0,0,0,4.25.74,11.6,11.6,0,0,0,7.47-2.63,11.26,11.26,0,0,0,4-7A8.26,8.26,0,0,0,354.22,259.77Z" transform="translate(-9.35 -4.92)"/><path class="cls-2" d="M407.46,53.06c-5.62-9.55-6.65-21.42-13.08-30.44-9.19-12.91-26.87-16.55-42.7-15.81-20.91,1-42.76,8.82-54.82,25.94C289.7,42.92,286.08,56.07,276,63.29c-11.87,8.46-30.82,7.35-37.77,20.16-4.23,7.79-1.8,17.36.71,25.86,4.1,13.85,9.57,29.33,22.77,35.18,14,6.2,30.7-1.26,45.41,3,11.81,3.4,20.17,13.64,27.75,23.33l25.87,33.1c2.58,3.3,5.21,6.68,6.67,10.61,1.69,4.54,1.72,9.51,1.73,14.36l.05,31.08c0,13.15-.12,27-6.61,38.41-12.51,22-43.28,26-67.86,19.83s-47.06-19.8-72.09-23.79c-12-1.92-24.26-1.56-36.28-3.29-18.1-2.6-35.45-9.87-53.72-10.76S93.45,287.51,88,305c-1.51,4.85-1.65,10.28.48,14.9,4,8.57,14.41,12.08,23.84,12.31s18.91-1.86,28.24-.5c25.61,3.73,39.89,30.38,57.09,49.73,18.23,20.49,42.57,34.36,66.45,47.86,13.88,7.84,28,15.76,43.43,19.6,17.64,4.37,36.12,3.19,54.25,2L413,447.45c3.17-.21,6.69-.59,8.77-3,3.52-4,.47-10.14-.81-15.36-2.67-10.89,4.79-23.15,15.63-26.06,6.69-1.8,13.83-.4,20.69-1.4,12.35-1.79,22.15-10.95,31.09-19.65,15.84-15.44,32.44-32.22,36.91-53.88,2.56-12.42.83-25.27-.92-37.83-1.41-10.24-2.87-20.61-6.86-30.15-2.37-5.64-5.63-11-6.73-17-1-5.31-.18-10.78.9-16.08,3.06-15,8.45-29.53,10.82-44.68s1.36-31.66-7.35-44.27c-8.56-12.39-22.47-18.25-36.38-22.44-15.26-4.59-8.52-18-13.34-30.28C455.71,60.77,421.5,76.91,407.46,53.06Z" transform="translate(-9.35 -4.92)"/><path class="cls-3" d="M154,309l0,.45c-.22,3-.72,6.39-3.22,8-2,1.31-4.6,1.07-6.83.26s-4.25-2.1-6.49-2.84c-3.72-1.22-7.75-.83-11.66-.55s-8,.41-11.55-1.28-6.25-5.76-5.1-9.5a9.48,9.48,0,0,1,4.48-5c5.93-3.5,13.24-3.38,20.12-3.15C146.06,295.78,154.89,293.87,154,309Z" transform="translate(-9.35 -4.92)"/><path class="cls-2" d="M201,105c-2.94-2.64-6.52-4.45-9.8-6.65-7.43-5-13.29-12-19.66-18.25-3.13-3.09-6.6-6.15-10.88-7.15s-9.53.79-11,5c-1.21,3.45.39,7.61-1.51,10.73-1.22,2-3.53,3-5.7,3.83L118,102.22a13.19,13.19,0,0,0-4.33,2.39,11.54,11.54,0,0,0-2.7,4.71c-2.91,8.25-3.23,17.23-2.38,26,.66,6.73,2.19,13.8,6.88,18.68,5.57,5.79,14.33,7.18,22.36,6.8s16-2.18,24-1.41c4.85.46,9.54,1.85,14.31,2.81a111,111,0,0,0,23.53,1.79,23.1,23.1,0,0,0,6.64-.79c4.71-1.49,8.05-5.59,11.1-9.49,3.48-4.44,7.13-10.31,4.5-15.3-1-1.92-2.79-3.28-4.41-4.72a38.45,38.45,0,0,1-10.14-14.17C205.21,114.12,205.74,109.21,201,105Z" transform="translate(-9.35 -4.92)"/><path class="cls-4" d="M201.07,141.32a24.42,24.42,0,0,1-1.75,2.24,4.63,4.63,0,0,1-2,1.5,5.19,5.19,0,0,1-2.73-.13c-6.94-1.58-13.88-3.83-21-4.5-1.92-.19-3.87-.28-5.94-.28a118.69,118.69,0,0,0-13.38.95c-2.64.29-5.14.57-7.41.67-.5,0-1,0-1.51,0-3.83,0-5.78-.74-6.26-1.05-6.83-10.16-3.09-22,6.72-27.18l16.49-8.73c2.82-1.5,5.82-3,9-2.9,2.66.11,5.13,1.38,7.43,2.73,4.1,2.4,17.43,9.44,18.63,14.31a53.87,53.87,0,0,0,2.28,7.5C202.22,132.88,204.65,136,201.07,141.32Z" transform="translate(-9.35 -4.92)"/><path class="cls-4" d="M399.4,357.35c-8.06-4.44-15.18-10.37-16.42-20-1.57-12.33,3.79-23.82,8.67-34.75,5.86-13.14,5.93-27.53,7.27-41.55,1.59-16.66,1.27-33.77.56-50.47-.6-14-2-28.58-9.18-40.65-10.08-16.95-29.46-25.75-48-32.58-11.58-4.28-24-10.24-36.48-10.24-11.53,0-16.17,1.26-22-10.3a34.94,34.94,0,0,1-2.51-25.27,17.15,17.15,0,0,1,3.07-6.25c5.07-6,14.09-6.81,19.87-13,5.33-5.69,9.13-12.53,12.75-19.36a90.89,90.89,0,0,1,5.34-9.23c7.31-10.38,22.32-17.08,40.17-17.91,1-.05,2-.07,3-.07,7,0,18.18.85,22.79,7.2,5,6.93,2.58,20.68,2.22,28.64-.4,8.84.23,18.45,5.94,25.21,5,6,13.14,8.51,20.93,9.06,4.46.32,9.07.11,13.25,1.71,9.53,3.63,13,14.3,17.82,22.3,7.41,12.24,16.88,13.49,30.61,15.37,11.82,1.61,22.9,2.84,30.37,13.65,6.38,9.23,5.37,23.09,4.21,30.53a211.27,211.27,0,0,1-5.48,23.11c-1.83,6.65-3.73,13.53-5.19,20.72-1.36,6.68-2.54,14.67-1,23.28,1.22,6.71,3.87,12.32,6,16.83.7,1.48,1.36,2.88,1.89,4.15,3.07,7.31,4.29,16.1,5.57,25.4,1.51,10.84,3.06,22,1.13,31.39-3.17,15.37-15.34,28.5-26.34,39-11.58,11-30.57,11.67-45.76,9.61-13.85-1.89-27.15-6.78-39.78-12.77C403,359.23,401.16,358.32,399.4,357.35Z" transform="translate(-9.35 -4.92)"/><path class="cls-4" d="M428.19,190a26.25,26.25,0,0,1-11.45-1.09c-13.79-4.58-16.89-15.17-23.41-26.13-10.1-17-27.35-27.23-45.12-34.66-7.49-3.13-16.49-3.36-21.41-10.17a30.31,30.31,0,0,1-4.23-25.46,12.44,12.44,0,0,1,3.6-6.23c2.34-1.94,5.56-2.34,8.59-2.57C343.23,83,352,83.08,360,85.9,370,89.46,378.07,97,386.81,103.19c8.41,5.91,18.1,8.39,26.85,13.42,9.41,5.4,16.43,14.4,22.44,23.22,4.31,6.31,8.43,12.94,10.29,20.35s1.15,15.82-3.51,21.88A21.75,21.75,0,0,1,428.19,190Z" transform="translate(-9.35 -4.92)"/><path class="cls-4" d="M336.54,433a100.4,100.4,0,0,1-24.43-2.54c-13.05-3.24-26.07-10.59-38.65-17.71-22.26-12.58-45.28-25.59-61.6-43.94-9.82-11-14.18-15.22-13-30.46.54-6.81,1.37-14.28,6.3-19,13.65-13.1,36.95-.05,51.08,5.58,10.73,4.28,21.81,8.7,33.76,11.71,9.18,2.32,18.64,2.13,27.75,4.17a123,123,0,0,1,29.36,11c10.19,5.34,19.5,12.95,25,23.07,4.62,8.56,6.26,18.42,6.73,28.14.24,4.86.16,9.93-2,14.3C369.63,431.94,350.44,433,336.54,433Z" transform="translate(-9.35 -4.92)"/><path class="cls-4" d="M335.52,426.89a86.52,86.52,0,0,1-21.06-2.13c-11.2-2.77-23.36-9.64-35.12-16.29-6.84-3.87-11.8-5.37-15.06-12.68a56.74,56.74,0,0,1-4.79-20.71,16.57,16.57,0,0,1,1.14-7.79c2.13-4.44,7.25-6.53,12-7.71,10.63-2.62,18.9,0,29.52,1.14a104.61,104.61,0,0,1,11.5,1.64,109.53,109.53,0,0,1,25.93,9.71c6.23,3.27,14.61,8.93,19.15,17.33,3,5.54,4.6,12.58,5.07,22.17.08,1.56.28,5.71-.57,7.44C361.46,422.68,356.67,426.89,335.52,426.89Z" transform="translate(-9.35 -4.92)"/><path class="cls-4" d="M434.32,245.39c-5.32,6.57-7,15.31-8.12,23.68A362.54,362.54,0,0,0,423,331.89c.24,6.74.85,14,5.14,19.19,2.95,3.59,7.29,5.74,11.62,7.44,7.88,3.09,16.35,5.07,24.78,4.36s16.84-4.33,22.16-10.9c8.6-10.6,7.54-25.82,5.69-39.34q-2.43-17.67-5.68-35.22c-1.92-10.37-2.34-26.74-7.52-35.92C471.68,228.29,442.47,235.35,434.32,245.39Z" transform="translate(-9.35 -4.92)"/><path class="cls-4" d="M446.9,314.39c-1.52,2.2-1.75,5-1.91,7.68-.33,5.42-.2,11.75,4.09,15.1a15.62,15.62,0,0,0,6.83,2.6,25,25,0,0,0,8.35.52c7.7-1.13,13.57-9.23,12.49-16.94C475.09,311.58,454.53,303.3,446.9,314.39Z" transform="translate(-9.35 -4.92)"/><path class="cls-5" d="M29.7,198.91l-9.78,4.42L17.35,203c.08-.93.8-2,2.16-3.37a35.49,35.49,0,0,1,4.66-3.79,33.59,33.59,0,0,1,5.24-3,8.87,8.87,0,0,1,3.91-1,3.88,3.88,0,0,1,2.5,1.28,17.08,17.08,0,0,1,2,2.51c.58.89,1.09,1.73,1.52,2.5s.75,1.17,1,1.17a.53.53,0,0,0,.23-.06.49.49,0,0,1,.23-.06q3.85-2.1,6.7-3.32a13.52,13.52,0,0,1,6.93-.76,10.11,10.11,0,0,1,5.65,2.27,17,17,0,0,1,3.79,4.55,27.56,27.56,0,0,1,2.45,5.65q.93,3,1.63,5.82c.07.16.21.57.41,1.23s.4,1.36.64,2.09.46,1.44.7,2.1A5.66,5.66,0,0,1,70,220a.88.88,0,0,0,.06.29.27.27,0,0,1-.06.3l-.11.34a2.33,2.33,0,0,1-.53.59q-.41.35-.93.75a9.71,9.71,0,0,1-1,.7,5.84,5.84,0,0,0-.58.41L63.72,228l-1.51,1.52c-.86.85-1.65,1.63-2.39,2.33S58.67,233,58.6,233q-3.49.47-5.6.88c-1.39.27-2.69.46-3.9.58a19,19,0,0,1-3.9-.06,40.18,40.18,0,0,1-5.36-1.05,1.37,1.37,0,0,0-2,.53,2.31,2.31,0,0,0-.29.93,7.93,7.93,0,0,0-.06.87,30.71,30.71,0,0,0,.64,8.62,99.45,99.45,0,0,0,2.62,10.43q1.63,5.29,3.38,10.25t2.91,8.1a60.07,60.07,0,0,0,2.8,6.29q1.52,2.91,3.26,5.59c1.17,1.79,2.37,3.57,3.61,5.36S59.26,294,60.58,296A7.28,7.28,0,0,1,61.1,297q.28.71.18.93c-.08.55-.35.84-.82.88a3.52,3.52,0,0,1-1.16-.06,1.93,1.93,0,0,1-.82-.23A34.81,34.81,0,0,1,53.94,293c-1.63-2.37-3.23-4.72-4.78-7.05s-3-4.36-4.37-6.11-2.46-2.62-3.32-2.62a8.6,8.6,0,0,1-.76-2.74c0-.74-.05-1.19-.05-1.34a59.07,59.07,0,0,0-1.4-6.06q-.82-2.79-1.81-5.42t-1.92-5.18c-.62-1.71-1.21-3.5-1.75-5.36-.23-.78-.48-1.81-.76-3.09s-.58-2.64-.93-4.08a40.6,40.6,0,0,0-1.28-4.25A18.73,18.73,0,0,0,29,236a21.45,21.45,0,0,1,.23-2.21c.15-1.16.33-2.41.52-3.73s.39-2.56.59-3.73a19.49,19.49,0,0,0,.29-2.21q.46-5.35.64-11.07t-.06-11.18A8.43,8.43,0,0,0,31,200.3a10.08,10.08,0,0,0-.35-1.28,1.3,1.3,0,0,0-.47-.23A1.92,1.92,0,0,0,29.7,198.91Zm10.2,28.25a2.53,2.53,0,0,0,1.45.76l8,.69a8.6,8.6,0,0,0,4.14-.58,15,15,0,0,0,3.9-2.15A14.61,14.61,0,0,0,60.34,223a6.92,6.92,0,0,0,1.4-3,29.35,29.35,0,0,0-.06-5.59,25.23,25.23,0,0,0-1.34-6.23,15.64,15.64,0,0,0-3-5.19,7.55,7.55,0,0,0-5.06-2.56,9.51,9.51,0,0,0-4.37.58,14.45,14.45,0,0,0-4,2.27,13.44,13.44,0,0,0-3,3.44,9.77,9.77,0,0,0-1.46,4.08,9.12,9.12,0,0,1-.12,1.16c-.07.55-.11.9-.11,1.05,0,.47,0,1.3-.12,2.51S39,218,39,219.41s-.08,2.7-.12,3.9-.06,2-.06,2.51A4,4,0,0,0,39.9,227.16Z" transform="translate(-9.35 -4.92)"/><path class="cls-5" d="M77.7,222.79c0-1,0-2.08-.06-3.2s0-2.2,0-3.21v-2.1a113.11,113.11,0,0,1,.58-11.53q.58-5.7,1.34-11.36t1.34-11.3a111.36,111.36,0,0,0,.58-11.47c0-.39,0-1.19.12-2.39a33.15,33.15,0,0,0,0-3.73,13,13,0,0,0-.64-3.44,1.88,1.88,0,0,0-1.81-1.51,4.72,4.72,0,0,0-2.5.75,14.17,14.17,0,0,0-2.33,1.81q-1.11,1-2.1,2.16a17.86,17.86,0,0,1-1.81,1.8,1.78,1.78,0,0,1-.46.12,1.82,1.82,0,0,1-.47-.12,4.81,4.81,0,0,1-.46-.81,8.89,8.89,0,0,1-.47-1v-.47a5.57,5.57,0,0,1,1.57-3,34.15,34.15,0,0,1,3.73-3.84,34.62,34.62,0,0,1,4.31-3.32,7,7,0,0,1,3.44-1.4,4.3,4.3,0,0,1,3.67,2.21,17,17,0,0,1,2.21,5.19,38.46,38.46,0,0,1,1,6c.19,2,.29,3.57.29,4.66a101.21,101.21,0,0,1-.87,13.16q-.89,6.65-1.92,13a7.38,7.38,0,0,1-.41,1.4c-.28.77-.45,1.24-.53,1.4-.15.46-.35,1.16-.58,2.09s-.35,1.44-.35,1.52v18.52a3,3,0,0,1,1.4,1.81,28.39,28.39,0,0,1,.81,2.79,10.12,10.12,0,0,0,1,2.57,2.1,2.1,0,0,0,1.93,1.1h.46A20.74,20.74,0,0,0,97.39,224l7-5.47h3.73v1.86a4.92,4.92,0,0,1-.81,1c-.55.62-1.21,1.32-2,2.1s-1.59,1.55-2.44,2.33-1.56,1.4-2.1,1.86a8.76,8.76,0,0,1-.7.58c-.39.32-.8.69-1.22,1.11a16.42,16.42,0,0,1-1.22,1.11c-.39.31-.63.5-.7.58a11.53,11.53,0,0,0-2.28,1.69,16.31,16.31,0,0,1-1.8,1.57,8.56,8.56,0,0,1-2.16,1.17,9.58,9.58,0,0,1-3.32.46H86a33.53,33.53,0,0,1-4.84-5.12,31.2,31.2,0,0,1-3.44-5.94Z" transform="translate(-9.35 -4.92)"/><path class="cls-5" d="M109.68,220.17a47.12,47.12,0,0,1,4.66-7.17q2.75-3.5,5.71-6.64a55.27,55.27,0,0,0,5-5.94c.08-.15.25-.45.53-.87s.56-.92.87-1.46.6-1.05.88-1.51.48-.82.64-1.05V194c-1.09.7-2.53,1.58-4.31,2.62s-3.54,2.12-5.25,3.21a49.14,49.14,0,0,0-4.42,3.14c-1.25,1-1.87,1.87-1.87,2.57a4.4,4.4,0,0,0,.35,2.09,3.55,3.55,0,0,0,.7.88,4.67,4.67,0,0,1,.7.75,3.46,3.46,0,0,1,.35,1.87c-.78-.39-1.52-.74-2.21-1a14.08,14.08,0,0,1-2.16-1.22,28.55,28.55,0,0,1-2.45-1.93,33.23,33.23,0,0,1-3.08-3.14c0,.08.46-.14,1.39-.64s2.12-1.17,3.56-2,3-1.77,4.72-2.86,3.39-2.21,5.06-3.37,3.21-2.32,4.61-3.44a18.79,18.79,0,0,0,3.14-3.09c.54-.62,1-1.18,1.4-1.69s.76-.95,1.11-1.34a3.17,3.17,0,0,1,1.28-.87,5.89,5.89,0,0,1,2-.29c.15,0,.35.42.58,1.28s.42,1.28.58,1.28a18.53,18.53,0,0,1,2.39,6.29c.66,2.88,1.24,6,1.75,9.32s1,6.58,1.4,9.73a64,64,0,0,0,1.34,7.4,2.89,2.89,0,0,0,.23.7c.15.39.33.83.52,1.34s.39,1,.59,1.51.32.87.4,1.11a4.84,4.84,0,0,0,1.52,1.86c.7.55,1.4,1,2.09,1.52a12.33,12.33,0,0,1,1.87,1.51,2.59,2.59,0,0,1,.81,1.86,2.74,2.74,0,0,1-.46,1.81,2.3,2.3,0,0,1-1.75.52,7.58,7.58,0,0,1-3.84-.93,28.18,28.18,0,0,1-3.15-2.09,34.46,34.46,0,0,0-3-2.1,6.34,6.34,0,0,0-3.38-.93V222l-.81-.81a14,14,0,0,0-3.38,2.85,11,11,0,0,0-1.57,2.62c-.35.86-.67,1.67-.94,2.45a7.1,7.1,0,0,1-1.28,2.21,10.15,10.15,0,0,1-2.62,2.1,21.45,21.45,0,0,1-5,2l-.7.06q-.58.06-.93.06a7.76,7.76,0,0,1-8-7.81A16,16,0,0,1,109.68,220.17Zm4.66,8.85a1.27,1.27,0,0,0,1.34.88c1.87,0,3.73-1,5.6-2.92a35.67,35.67,0,0,0,5.06-6.81,45.07,45.07,0,0,0,3.67-7.92,20.55,20.55,0,0,0,1.4-6.35h-2.56c-.78.62-1.4,1.14-1.87,1.57l-1.45,1.34c-.51.46-.92.85-1.23,1.16a40,40,0,0,0-2.91,3.44c-1.16,1.51-2.29,3.11-3.38,4.78a39.24,39.24,0,0,0-2.79,5,10.22,10.22,0,0,0-1.17,4A5.75,5.75,0,0,0,114.34,229Z" transform="translate(-9.35 -4.92)"/><path class="cls-5" d="M184.54,231.76a9.35,9.35,0,0,1,.58-3.73,13.89,13.89,0,0,0,.93-3.61,20.39,20.39,0,0,0-.06-6.35,24.64,24.64,0,0,0-1.74-5.71,34.39,34.39,0,0,0-3-5.3q-1.74-2.56-3.72-5a6.15,6.15,0,0,0-.88-.64,4.84,4.84,0,0,1-.87-.64h-.47a10.81,10.81,0,0,0-5.24.7,20.83,20.83,0,0,0-5.53,3A23.57,23.57,0,0,0,160,209a10.67,10.67,0,0,0-2.27,5v.82c0,.16,0,.52.12,1.11s.17,1.18.29,1.8.21,1.23.29,1.81a11.1,11.1,0,0,1,.12,1.11,9.67,9.67,0,0,1-.12,1c-.08.55-.17,1.13-.29,1.75s-.22,1.21-.29,1.75a9.48,9.48,0,0,0-.12,1,5.12,5.12,0,0,0,.7,1.4,5,5,0,0,1,.7,1.39q0,.12-.06,1.11a13.64,13.64,0,0,1-.17,1.57q-.36,2.69-1,3.21c-.43.35-1.54.41-3.32.17-1.17-.15-2-1.14-2.51-3a34.26,34.26,0,0,1-1.05-6.64q-.28-3.9-.29-8.33a82.2,82.2,0,0,0-.41-8.45,29.69,29.69,0,0,0-1.34-6.58q-.93-2.67-2.91-3a2.39,2.39,0,0,0-.58.18,7.13,7.13,0,0,0-1,.46,6.05,6.05,0,0,1-1.05.47,2.8,2.8,0,0,1-.64.17c-.62.7-.82.66-.58-.11a10.67,10.67,0,0,1,1.51-2.86,16.65,16.65,0,0,1,3-3.2,4.52,4.52,0,0,1,3.79-1.17,3.43,3.43,0,0,1,2.5,1.81,16.25,16.25,0,0,1,1.23,3.15c.31,1.12.64,2.15,1,3.08a2.35,2.35,0,0,0,1.92,1.63h.46c1.32-.85,2.92-1.82,4.78-2.91a63.65,63.65,0,0,1,5.88-3,41,41,0,0,1,6.06-2.21,13,13,0,0,1,5.3-.47,3.66,3.66,0,0,1,1.4.24,2.82,2.82,0,0,1,1.17,1q2.44,3.15,4.83,6.47a43.83,43.83,0,0,1,4.08,6.93,34.64,34.64,0,0,1,2.5,7.46,21.24,21.24,0,0,1,.12,8,7.5,7.5,0,0,0-.47,1.8,14,14,0,0,0-.23,1.81A70.87,70.87,0,0,1,182.91,250a100.23,100.23,0,0,1-17.71,19.17,12.79,12.79,0,0,1-2.92,1.8,6.83,6.83,0,0,1-3.72.06c-.31-.23-.08-.76.7-1.57s1.84-1.85,3.2-3.09,2.83-2.68,4.43-4.31a43.74,43.74,0,0,0,4.36-5.24q4-5.59,5.71-8c1.17-1.59,2-2.7,2.39-3.32a5.91,5.91,0,0,0,.76-1.34,18.86,18.86,0,0,1,.81-1.92Z" transform="translate(-9.35 -4.92)"/><path class="cls-5" d="M195.72,219.29q1.28-3.49,3.73-8.73a67.35,67.35,0,0,1,5.76-10,43.4,43.4,0,0,1,7.34-8.22,13,13,0,0,1,8.57-3.43,8.49,8.49,0,0,1,4.13,1.69,38.35,38.35,0,0,1,5.13,4,31.39,31.39,0,0,1,4.31,4.72,7.49,7.49,0,0,1,1.81,4c0,.46-.59,1.18-1.75,2.15a39.76,39.76,0,0,1-4,2.86q-2.22,1.4-4.14,2.5a20.7,20.7,0,0,1-2.27,1.22c-.47.08-1.34.22-2.62.41s-2.7.43-4.25.7-3.19.6-4.9,1a24.47,24.47,0,0,0-4.54,1.46,10.88,10.88,0,0,0-3.2,2,2.67,2.67,0,0,0-.88,2.68,10.34,10.34,0,0,0,1.4,3,16.93,16.93,0,0,0,2.5,3,14.58,14.58,0,0,0,3.15,2.33,6.44,6.44,0,0,0,3.09.94,12.47,12.47,0,0,0,7.51-2.74,74.09,74.09,0,0,0,7.11-6.06q3.44-3.31,6.52-6.06c2.06-1.82,3.94-2.74,5.65-2.74a1.39,1.39,0,0,1,.94.94,21.32,21.32,0,0,0-4.32,5.47c-1.16,2.1-2.33,4.16-3.49,6.18a30.29,30.29,0,0,1-4,5.41,10.91,10.91,0,0,1-5.71,3.21,29.88,29.88,0,0,0-5.59,1.69,14.47,14.47,0,0,1-5.59,1.1c-1,0-2.49-.65-4.43-2a50.6,50.6,0,0,1-5.83-4.66,49,49,0,0,1-5.07-5.36q-2.15-2.67-2.15-4.07Zm21.9-20.38a21,21,0,0,0-4.77,2.44,15.45,15.45,0,0,0-3.73,3.56,7,7,0,0,0-1.52,4.25,2.59,2.59,0,0,0,.06.52,2.45,2.45,0,0,1,.06.41c.78-.31,2.19-.82,4.25-1.51s4.14-1.5,6.24-2.39,4-1.79,5.59-2.68,2.44-1.77,2.44-2.62c0-1.32-.44-2.14-1.34-2.45a8.25,8.25,0,0,0-2.73-.47A13.58,13.58,0,0,0,217.62,198.91Z" transform="translate(-9.35 -4.92)"/><path class="cls-5" d="M252.11,222.82a3.45,3.45,0,0,0-2.86,1.05,22.34,22.34,0,0,0-2.74,2.9c-.85,1.09-1.61,2.13-2.27,3.14a4.62,4.62,0,0,1-1.57,1.74,3.89,3.89,0,0,0-.17-1.27,7.18,7.18,0,0,0-.3-.7l-.23-.47q-.12-.22.12-.69c.15-.39.25-.66.29-.82l.12-.46c0-.16.07-.33.11-.53a6.6,6.6,0,0,1,.29-.87,18.22,18.22,0,0,0,1.52-1.92,28.74,28.74,0,0,1,2.5-3,17.24,17.24,0,0,1,3.44-2.73,8.1,8.1,0,0,1,4.31-1.22,10.39,10.39,0,0,1,5.36,1.51,52.66,52.66,0,0,1,5,3.31c1.59,1.2,3.13,2.31,4.6,3.31a7.69,7.69,0,0,0,4.31,1.52h.47a9.17,9.17,0,0,0,.52-1.86c.2-.93.33-1.55.41-1.86v-.47a11.44,11.44,0,0,0-1.11-4.59,16.51,16.51,0,0,0-2.5-4.13,10.31,10.31,0,0,0-4.49-3.08,35.08,35.08,0,0,0-5.7-1.51q-3-.53-6-.87a25.92,25.92,0,0,1-5.42-1.16,9.79,9.79,0,0,1-3.9-2.33,5.92,5.92,0,0,1-1.52-4.41,7.58,7.58,0,0,1,1.75-4.94,21.16,21.16,0,0,1,4-3.78c.62-.39,1.4-.91,2.33-1.57s1.84-1.28,2.74-1.86l3.32-2.15h2.68q1.4,1.75,3.14,3.55a29.41,29.41,0,0,0,3.73,3.27,22.64,22.64,0,0,0,4.2,2.44,11.24,11.24,0,0,0,4.66,1,12.64,12.64,0,0,0,5-1,12.15,12.15,0,0,1,4.78-1,5.44,5.44,0,0,1,1.52.24,1.15,1.15,0,0,1,.81,1.28,3.19,3.19,0,0,1-1.28,2.39,13.91,13.91,0,0,1-3,1.92,19.61,19.61,0,0,1-3.44,1.28,11.47,11.47,0,0,1-2.79.47,14.93,14.93,0,0,1-6.06-1.34,52.45,52.45,0,0,1-5.65-2.92c-1.75-1.05-3.29-2-4.6-2.91a6.57,6.57,0,0,0-2.8-1.34,6.19,6.19,0,0,0-2.45.64,13.75,13.75,0,0,0-2.73,1.69,12.57,12.57,0,0,0-2.28,2.27,4,4,0,0,0-.93,2.39v.47a54.31,54.31,0,0,0,7.92,1.92,55.54,55.54,0,0,1,7.58,1.74,26.76,26.76,0,0,1,6.75,3.13,17.38,17.38,0,0,1,5.48,6.1c.39.77,1,1.86,1.69,3.25a7.93,7.93,0,0,1,1.1,3.6c0,1.08,0,2.48-.11,4.18a24.76,24.76,0,0,1-.76,5.05,13,13,0,0,1-1.92,4.3,4.07,4.07,0,0,1-3.5,1.79,9.24,9.24,0,0,1-5.35-1.68,32.16,32.16,0,0,1-4.61-3.84c-1.44-1.43-2.79-2.84-4.07-4.24a14.68,14.68,0,0,0-3.67-3Z" transform="translate(-9.35 -4.92)"/><path class="cls-6" d="M203.37,257.06a4.72,4.72,0,0,1,1.71-1.81,4.46,4.46,0,0,1,2.43-.68,4.63,4.63,0,0,1,2.34.59,4.38,4.38,0,0,1,2.23,3.86,5,5,0,0,1-2.33,4.2,4.46,4.46,0,0,1-2.43.68,4.73,4.73,0,0,1-2.34-.59,4.47,4.47,0,0,1-1.64-1.62,4.34,4.34,0,0,1-.59-2.24A4.82,4.82,0,0,1,203.37,257.06Zm6.57.64a4.29,4.29,0,0,0-1.09-1.63,2.5,2.5,0,0,0-3.64.34,3.89,3.89,0,0,0-.71,2.34,5.53,5.53,0,0,0,.39,2A4.18,4.18,0,0,0,206,262.4a2.49,2.49,0,0,0,3.64-.35,3.84,3.84,0,0,0,.71-2.33A5.53,5.53,0,0,0,209.94,257.7Z" transform="translate(-9.35 -4.92)"/><path class="cls-6" d="M220.14,247a3.26,3.26,0,0,0-1.25-.26,1.94,1.94,0,0,0-1.77.87,3.93,3.93,0,0,0-.56,2.22v4.89h2.53v1h-2.53v5.45a4.34,4.34,0,0,0,.22,1.59,1.49,1.49,0,0,0,.48.73c.18.12.27.16.27.11H214c0,.05.1,0,.28-.11a1.43,1.43,0,0,0,.5-.73,4.34,4.34,0,0,0,.22-1.59v-5.45h-1.36v-1H215v-3.38a7.4,7.4,0,0,1,.57-3,4.7,4.7,0,0,1,1.61-2,4,4,0,0,1,2.37-.73,4.86,4.86,0,0,1,1.65.22v1.89A3.14,3.14,0,0,0,220.14,247Z" transform="translate(-9.35 -4.92)"/><path class="cls-6" d="M228.06,263.09a3.16,3.16,0,0,1-.61-2v-5.4h-1.36l2.92-3.3v2.33h3.11v1H229v5.13a1.87,1.87,0,0,0,.48,1.4,1.56,1.56,0,0,0,1.12.48,1.72,1.72,0,0,0,.95-.3,2.14,2.14,0,0,0,.75-.8,2.31,2.31,0,0,1-2.45,2.26A2.1,2.1,0,0,1,228.06,263.09Z" transform="translate(-9.35 -4.92)"/><path class="cls-6" d="M237.71,255a3.48,3.48,0,0,1,1.63-.4,2.76,2.76,0,0,1,2.11.83,3.44,3.44,0,0,1,.79,2.42v3.38a4.23,4.23,0,0,0,.22,1.56,1.59,1.59,0,0,0,.48.73q.27.19.27.12h-3.5c0,.05.09,0,.26-.11a1.57,1.57,0,0,0,.49-.72,4.33,4.33,0,0,0,.22-1.6v-2.77a3.24,3.24,0,0,0-.22-1.32,2.39,2.39,0,0,0-.58-.8,2,2,0,0,0-1.34-.46,2.18,2.18,0,0,0-1.51.57,2,2,0,0,0-.63,1.59v3.19a4.28,4.28,0,0,0,.22,1.58,1.53,1.53,0,0,0,.5.73c.18.13.28.17.28.12h-3.5c0,.05.08,0,.26-.11a1.49,1.49,0,0,0,.48-.73,4.91,4.91,0,0,0,.2-1.59V248.66a2.26,2.26,0,0,0-.32-1.4,1,1,0,0,0-.75-.38h-.14l2.77-1.26V256A4.16,4.16,0,0,1,237.71,255Z" transform="translate(-9.35 -4.92)"/><path class="cls-6" d="M247.1,263.26a4.21,4.21,0,0,1-1.45-1.68,5,5,0,0,1-.5-2.2,5.34,5.34,0,0,1,.6-2.6,4.18,4.18,0,0,1,1.54-1.65,3.78,3.78,0,0,1,2-.56,3.44,3.44,0,0,1,2.52,1.05,4.27,4.27,0,0,1,1.15,2.93h-6.32a4.63,4.63,0,0,0,.44,2.06,3.35,3.35,0,0,0,1.18,1.36,2.89,2.89,0,0,0,1.62.47,3.19,3.19,0,0,0,3.08-1.45,3.31,3.31,0,0,1-1.19,2.11,3.59,3.59,0,0,1-2.38.8A3.92,3.92,0,0,1,247.1,263.26Zm.36-7.22a2.85,2.85,0,0,0-.82,1.74h4.42a2.54,2.54,0,0,0-.59-1.77,1.83,1.83,0,0,0-1.38-.64A2.24,2.24,0,0,0,247.46,256Z" transform="translate(-9.35 -4.92)"/><path class="cls-6" d="M264.19,263.55a7.58,7.58,0,0,1-2.09-1v-2.95a5,5,0,0,0,4.65,3.31,3.22,3.22,0,0,0,2.36-.94,3.11,3.11,0,0,0,.94-2.32,3.16,3.16,0,0,0-.37-1.58,3.91,3.91,0,0,0-1.21-1.23,17,17,0,0,0-2.33-1.27,9.68,9.68,0,0,1-3.08-2,3.69,3.69,0,0,1-1-2.57,4.35,4.35,0,0,1,.62-2.3,4.25,4.25,0,0,1,1.68-1.55,4.93,4.93,0,0,1,2.32-.55,7.68,7.68,0,0,1,2.14.3,7.79,7.79,0,0,1,1.95.87v2.62A4.56,4.56,0,0,0,269,248.3a4.46,4.46,0,0,0-2.39-.74,3,3,0,0,0-2.24.9,3,3,0,0,0-.85,2.14,2.43,2.43,0,0,0,.51,1.55,4.5,4.5,0,0,0,1.25,1.08c.5.29,1.19.65,2.08,1.07a22.5,22.5,0,0,1,2.24,1.21A5,5,0,0,1,271.1,257a3.93,3.93,0,0,1,.58,2.19,4.46,4.46,0,0,1-2.54,4.17,5.62,5.62,0,0,1-2.52.57A8.21,8.21,0,0,1,264.19,263.55Z" transform="translate(-9.35 -4.92)"/><path class="cls-6" d="M277.35,262.88l-2.85-6.44a4.05,4.05,0,0,0-.79-1.28,1.58,1.58,0,0,0-.59-.4h3.55a1.14,1.14,0,0,0-.44.22.72.72,0,0,0-.22.61,2.21,2.21,0,0,0,.24.92l2,4.55,1.76-4.31a2.52,2.52,0,0,0,.17-.9,1.33,1.33,0,0,0-.19-.72.82.82,0,0,0-.59-.37h3.26a1.71,1.71,0,0,0-.7.41,3.86,3.86,0,0,0-.84,1.37l-3.3,7.68c-.44,1-.77,1.83-1,2.42s-.41,1.2-.6,1.83c-.09.31-.17.57-.25.78h-2.48a5.08,5.08,0,0,0,1.62-1.77,23.82,23.82,0,0,0,2-3.94Z" transform="translate(-9.35 -4.92)"/><path class="cls-6" d="M287.53,255a3.14,3.14,0,0,1,1.61-.45,2.76,2.76,0,0,1,2.11.83,3.44,3.44,0,0,1,.79,2.42v3.38a4.5,4.5,0,0,0,.21,1.56,1.68,1.68,0,0,0,.49.73q.27.19.27.12h-3.5c0,.05.09,0,.26-.11a1.5,1.5,0,0,0,.49-.72,4.33,4.33,0,0,0,.22-1.6v-2.77a3.24,3.24,0,0,0-.22-1.32,2.26,2.26,0,0,0-.58-.8,2,2,0,0,0-1.34-.46,2.18,2.18,0,0,0-1.51.57,2,2,0,0,0-.63,1.59v3.19a4.28,4.28,0,0,0,.22,1.58,1.53,1.53,0,0,0,.5.73c.18.13.28.17.28.12h-3.5c0,.05.08,0,.26-.11a1.49,1.49,0,0,0,.48-.73,4.91,4.91,0,0,0,.2-1.59v-3.67a2.26,2.26,0,0,0-.32-1.4,1,1,0,0,0-.75-.38l2.63-1.16v1.65A4.34,4.34,0,0,1,287.53,255Z" transform="translate(-9.35 -4.92)"/><path class="cls-6" d="M301.76,248.66a2.19,2.19,0,0,0-.33-1.4,1,1,0,0,0-.74-.38h-.14l2.77-1.26v15.24a2.19,2.19,0,0,0,.33,1.4,1,1,0,0,0,.74.38h.15l-2.78,1.26v-1.58a3.68,3.68,0,0,1-1.05,1,3.44,3.44,0,0,1-2,.54,3.57,3.57,0,0,1-1.92-.53,3.66,3.66,0,0,1-1.34-1.49,4.59,4.59,0,0,1-.49-2.11,5.61,5.61,0,0,1,.61-2.63,5.11,5.11,0,0,1,1.58-1.82,4.15,4.15,0,0,1,2.39-.75,3.65,3.65,0,0,1,1.41.23,4,4,0,0,1,.82.42Zm-4.34,13a2.3,2.3,0,0,0,2.08,1.13,2.23,2.23,0,0,0,1.05-.28,2.37,2.37,0,0,0,.87-.76,1.86,1.86,0,0,0,.34-1.1v-2.87a3.7,3.7,0,0,0-.18-1.26,1.41,1.41,0,0,0-.57-.73,2.7,2.7,0,0,0-1.48-.39,2.48,2.48,0,0,0-2,1,4,4,0,0,0-.8,2.61A4.83,4.83,0,0,0,297.42,261.7Z" transform="translate(-9.35 -4.92)"/><path class="cls-6" d="M306.88,256.11a1,1,0,0,0-.74-.38l2.63-1.16v6.61a4.33,4.33,0,0,0,.22,1.6,1.5,1.5,0,0,0,.48.72c.18.12.27.16.27.11h-3.5c0,.05.09,0,.26-.11a1.57,1.57,0,0,0,.49-.72,4.33,4.33,0,0,0,.22-1.6v-3.67A2.19,2.19,0,0,0,306.88,256.11Zm.24-4.84a1.21,1.21,0,0,1-.3-.81,1.24,1.24,0,0,1,.3-.82,1.09,1.09,0,0,1,.84-.35,1.06,1.06,0,0,1,.84.35,1.25,1.25,0,0,1,.31.82,1.22,1.22,0,0,1-.31.81,1,1,0,0,1-.84.35A1.05,1.05,0,0,1,307.12,251.27Z" transform="translate(-9.35 -4.92)"/><path class="cls-6" d="M313.69,263.27a4.13,4.13,0,0,1-1.5-1.68,4.94,4.94,0,0,1-.51-2.21,5.36,5.36,0,0,1,.53-2.32,4.36,4.36,0,0,1,1.52-1.8,4,4,0,0,1,2.35-.69,3.3,3.3,0,0,1,2.36.7,4,4,0,0,1,1,1.48l-1.6.78a2.79,2.79,0,0,0-.72-1.48,1.81,1.81,0,0,0-1.39-.61,2.12,2.12,0,0,0-1.85.93,3.78,3.78,0,0,0-.66,2.26,4.1,4.1,0,0,0,.43,1.83,3.63,3.63,0,0,0,1.21,1.45,3.17,3.17,0,0,0,1.86.56,3.61,3.61,0,0,0,1.67-.4,3.38,3.38,0,0,0,1.25-1.08,3.5,3.5,0,0,1-1.26,2.14,3.86,3.86,0,0,1-2.41.77A4.18,4.18,0,0,1,313.69,263.27Z" transform="translate(-9.35 -4.92)"/><path class="cls-6" d="M327.42,263.49a1.36,1.36,0,0,1-.61-.9,2.82,2.82,0,0,1-1.16,1,3.22,3.22,0,0,1-1.42.34,2.78,2.78,0,0,1-1.87-.64,2.13,2.13,0,0,1-.76-1.69q0-2.7,5.06-2.7v-.27a3.86,3.86,0,0,0-.39-2,1.87,1.87,0,0,0-1.75-.9,2.29,2.29,0,0,0-1.57.56,1.9,1.9,0,0,0-.62,1.46c-.09-.16-.17-.31-.23-.44a1.48,1.48,0,0,1-.08-.53,2,2,0,0,1,.82-1.55,3.4,3.4,0,0,1,2.17-.66,3,3,0,0,1,2.7,1.26,2.6,2.6,0,0,1,.39,1,7.93,7.93,0,0,1,.12,1.54v2.89a1.58,1.58,0,0,0,.42,1.17,1.7,1.7,0,0,0,1.21.41h.31l-1.43,1.09A2.22,2.22,0,0,1,327.42,263.49Zm-3.38-3.4a1.67,1.67,0,0,0-.32,2.38,1.27,1.27,0,0,0,1,.39,1.94,1.94,0,0,0,.88-.22,2.15,2.15,0,0,0,.7-.61,2.23,2.23,0,0,0,.39-1.39v-1A4.82,4.82,0,0,0,324,260.09Z" transform="translate(-9.35 -4.92)"/><path class="cls-6" d="M332.72,263.09a3.16,3.16,0,0,1-.61-2v-5.4h-1.36l2.92-3.3v2.33h3.11v1h-3.11v5.13a1.87,1.87,0,0,0,.48,1.4,1.56,1.56,0,0,0,1.12.48,1.74,1.74,0,0,0,1-.3,2.14,2.14,0,0,0,.75-.8,2.31,2.31,0,0,1-2.45,2.26A2.1,2.1,0,0,1,332.72,263.09Z" transform="translate(-9.35 -4.92)"/><path class="cls-6" d="M340.47,263.26a4.19,4.19,0,0,1-1.44-1.68,5,5,0,0,1-.5-2.2,5.45,5.45,0,0,1,.59-2.6,4.2,4.2,0,0,1,1.55-1.65,3.76,3.76,0,0,1,2-.56,3.47,3.47,0,0,1,2.52,1.05,4.32,4.32,0,0,1,1.15,2.93H340a4.49,4.49,0,0,0,.44,2.06,3.28,3.28,0,0,0,1.18,1.36,2.88,2.88,0,0,0,1.61.47,3.2,3.2,0,0,0,3.09-1.45,3.31,3.31,0,0,1-1.19,2.11,3.59,3.59,0,0,1-2.38.8A4,4,0,0,1,340.47,263.26Zm.37-7.22a2.86,2.86,0,0,0-.83,1.74h4.43a2.5,2.5,0,0,0-.6-1.77,1.8,1.8,0,0,0-1.37-.64A2.23,2.23,0,0,0,340.84,256Z" transform="translate(-9.35 -4.92)"/><path class="cls-6" d="M25.15,179.2a3.22,3.22,0,0,1-.61-2v-5.4H23.18l2.92-3.3v2.33h3.11v1H26.1V177a1.84,1.84,0,0,0,.49,1.4,1.52,1.52,0,0,0,1.11.48,1.72,1.72,0,0,0,.95-.3,2.25,2.25,0,0,0,.76-.8A2.33,2.33,0,0,1,27,180,2.12,2.12,0,0,1,25.15,179.2Z" transform="translate(-9.35 -4.92)"/><path class="cls-6" d="M34.8,171.08a3.51,3.51,0,0,1,1.63-.4,2.79,2.79,0,0,1,2.11.83,3.44,3.44,0,0,1,.79,2.42v3.38a4.2,4.2,0,0,0,.22,1.56,1.59,1.59,0,0,0,.48.73q.27.19.27.12H36.8c0,.05.09,0,.27-.11a1.57,1.57,0,0,0,.48-.72,4.33,4.33,0,0,0,.22-1.6v-2.77a3.16,3.16,0,0,0-.22-1.31,2.21,2.21,0,0,0-.58-.81,2,2,0,0,0-1.34-.46,2.18,2.18,0,0,0-1.51.57,2,2,0,0,0-.63,1.59v3.19a4.28,4.28,0,0,0,.22,1.58,1.6,1.6,0,0,0,.5.73c.18.13.28.17.28.12H31c0,.05.09,0,.26-.11a1.49,1.49,0,0,0,.48-.73,4.61,4.61,0,0,0,.21-1.59V164.77a2.19,2.19,0,0,0-.33-1.4,1,1,0,0,0-.74-.38h-.15l2.77-1.26v10.38A4.28,4.28,0,0,1,34.8,171.08Z" transform="translate(-9.35 -4.92)"/><path class="cls-6" d="M44.19,179.37a4.29,4.29,0,0,1-1.45-1.68,5,5,0,0,1-.49-2.2,5.34,5.34,0,0,1,.59-2.6,4.13,4.13,0,0,1,1.55-1.65,3.72,3.72,0,0,1,2-.56,3.44,3.44,0,0,1,2.52,1A4.32,4.32,0,0,1,50,174.66H43.7a4.63,4.63,0,0,0,.44,2.06,3.35,3.35,0,0,0,1.18,1.36,2.92,2.92,0,0,0,1.62.47A3.22,3.22,0,0,0,50,177.1a3.37,3.37,0,0,1-1.2,2.11,3.57,3.57,0,0,1-2.38.8A3.92,3.92,0,0,1,44.19,179.37Zm.37-7.22a2.86,2.86,0,0,0-.83,1.74h4.42a2.49,2.49,0,0,0-.59-1.77,1.83,1.83,0,0,0-1.38-.64A2.2,2.2,0,0,0,44.56,172.15Z" transform="translate(-9.35 -4.92)"/></svg>